  0
SECTION
  2
HEADER
  9
$ACADVER
  1
AC1009
  9
$FILLMODE
 70
 0
  9
$SPLFRAME
 70
 1
  9
$EXTMIN
 10
0
 20
0
 30
0.0
  9
$EXTMAX
 10
1058.33
 20
1058.33
 30
0.0
  0
ENDSEC
  0
SECTION
  2
TABLES
  0
TABLE
  2
LAYER
 70
1
  0
LAYER
  2
0
 70
     0
 62
     7
  6
CONTINUOUS
  0
ENDTAB
  0
ENDSEC
  0
SECTION
  2
ENTITIES
  0
LINE
  8
0
 62
     0
 10
0.0950846
 20
57.4075
 30
0.0
 11
85.8203
 21
57.4075
 31
0.0
  0
LINE
  8
0
 62
     0
 10
85.8203
 20
57.4075
 30
0.0
 11
85.8203
 21
0.257693
 31
0.0
  0
LINE
  8
0
 62
     0
 10
85.8203
 20
0.257693
 30
0.0
 11
0.0950846
 21
0.257693
 31
0.0
  0
LINE
  8
0
 62
     0
 10
0.0950846
 20
0.257693
 30
0.0
 11
0.0950846
 21
57.4075
 31
0.0
  0
LINE
  8
0
 62
     0
 10
35.9572
 20
16.7831
 30
0.0
 11
35.9572
 21
15.7827
 31
0.0
  0
LINE
  8
0
 62
     0
 10
35.9572
 20
15.7827
 30
0.0
 11
35.1565
 21
15.7827
 31
0.0
  0
LINE
  8
0
 62
     0
 10
35.1565
 20
15.7827
 30
0.0
 11
35.1565
 21
12.6835
 31
0.0
  0
LINE
  8
0
 62
     0
 10
35.1565
 20
12.6835
 30
0.0
 11
35.9572
 21
12.6835
 31
0.0
  0
LINE
  8
0
 62
     0
 10
35.9572
 20
12.6835
 30
0.0
 11
35.9572
 21
12.0826
 31
0.0
  0
LINE
  8
0
 62
     0
 10
35.9572
 20
12.0826
 30
0.0
 11
11.661
 21
12.0826
 31
0.0
  0
LINE
  8
0
 62
     0
 10
11.661
 20
12.0826
 30
0.0
 11
11.661
 21
15.3128
 31
0.0
  0
LINE
  8
0
 62
     0
 10
11.661
 20
15.3128
 30
0.0
 11
4.90996
 21
15.3128
 31
0.0
  0
LINE
  8
0
 62
     0
 10
4.90996
 20
15.3128
 30
0.0
 11
4.90996
 21
12.0826
 31
0.0
  0
LINE
  8
0
 62
     0
 10
4.90996
 20
12.0826
 30
0.0
 11
4.08587
 21
12.0826
 31
0.0
  0
LINE
  8
0
 62
     0
 10
4.08587
 20
12.0826
 30
0.0
 11
4.08587
 21
9.28384
 31
0.0
  0
LINE
  8
0
 62
     0
 10
4.08587
 20
9.28384
 30
0.0
 11
4.90996
 21
9.28384
 31
0.0
  0
LINE
  8
0
 62
     0
 10
4.90996
 20
9.28384
 30
0.0
 11
4.90996
 21
3.01377
 31
0.0
  0
LINE
  8
0
 62
     0
 10
4.90996
 20
3.01377
 30
0.0
 11
6.63526
 21
3.01377
 31
0.0
  0
LINE
  8
0
 62
     0
 10
6.63526
 20
3.01377
 30
0.0
 11
6.63526
 21
1.8135
 31
0.0
  0
LINE
  8
0
 62
     0
 10
6.63526
 20
1.8135
 30
0.0
 11
9.93567
 21
1.8135
 31
0.0
  0
LINE
  8
0
 62
     0
 10
9.93567
 20
1.8135
 30
0.0
 11
9.93567
 21
3.01377
 31
0.0
  0
LINE
  8
0
 62
     0
 10
9.93567
 20
3.01377
 30
0.0
 11
11.661
 21
3.01377
 31
0.0
  0
LINE
  8
0
 62
     0
 10
11.661
 20
3.01377
 30
0.0
 11
11.661
 21
7.48273
 31
0.0
  0
LINE
  8
0
 62
     0
 10
11.661
 20
7.48273
 30
0.0
 11
35.9572
 21
7.48273
 31
0.0
  0
LINE
  8
0
 62
     0
 10
35.9572
 20
7.48273
 30
0.0
 11
35.9572
 21
6.88329
 31
0.0
  0
LINE
  8
0
 62
     0
 10
35.9572
 20
6.88329
 30
0.0
 11
35.1565
 21
6.88329
 31
0.0
  0
LINE
  8
0
 62
     0
 10
35.1565
 20
6.88329
 30
0.0
 11
35.1565
 21
3.78273
 31
0.0
  0
LINE
  8
0
 62
     0
 10
35.1565
 20
3.78273
 30
0.0
 11
35.9572
 21
3.78273
 31
0.0
  0
LINE
  8
0
 62
     0
 10
35.9572
 20
3.78273
 30
0.0
 11
35.9572
 21
2.78364
 31
0.0
  0
LINE
  8
0
 62
     0
 10
35.9572
 20
2.78364
 30
0.0
 11
49.9565
 21
2.78364
 31
0.0
  0
LINE
  8
0
 62
     0
 10
49.9565
 20
2.78364
 30
0.0
 11
49.9565
 21
3.78273
 31
0.0
  0
LINE
  8
0
 62
     0
 10
49.9565
 20
3.78273
 30
0.0
 11
50.7559
 21
3.78273
 31
0.0
  0
LINE
  8
0
 62
     0
 10
50.7559
 20
3.78273
 30
0.0
 11
50.7559
 21
6.88329
 31
0.0
  0
LINE
  8
0
 62
     0
 10
50.7559
 20
6.88329
 30
0.0
 11
49.9565
 21
6.88329
 31
0.0
  0
LINE
  8
0
 62
     0
 10
49.9565
 20
6.88329
 30
0.0
 11
49.9565
 21
7.48273
 31
0.0
  0
LINE
  8
0
 62
     0
 10
49.9565
 20
7.48273
 30
0.0
 11
74.2527
 21
7.48273
 31
0.0
  0
LINE
  8
0
 62
     0
 10
74.2527
 20
7.48273
 30
0.0
 11
74.2527
 21
3.01377
 31
0.0
  0
LINE
  8
0
 62
     0
 10
74.2527
 20
3.01377
 30
0.0
 11
75.9781
 21
3.01377
 31
0.0
  0
LINE
  8
0
 62
     0
 10
75.9781
 20
3.01377
 30
0.0
 11
75.9781
 21
1.8135
 31
0.0
  0
LINE
  8
0
 62
     0
 10
75.9781
 20
1.8135
 30
0.0
 11
79.2773
 21
1.8135
 31
0.0
  0
LINE
  8
0
 62
     0
 10
79.2773
 20
1.8135
 30
0.0
 11
79.2773
 21
3.01377
 31
0.0
  0
LINE
  8
0
 62
     0
 10
79.2773
 20
3.01377
 30
0.0
 11
81.0024
 21
3.01377
 31
0.0
  0
LINE
  8
0
 62
     0
 10
81.0024
 20
3.01377
 30
0.0
 11
81.0024
 21
9.28384
 31
0.0
  0
LINE
  8
0
 62
     0
 10
81.0024
 20
9.28384
 30
0.0
 11
81.8279
 21
9.28384
 31
0.0
  0
LINE
  8
0
 62
     0
 10
81.8279
 20
9.28384
 30
0.0
 11
81.8279
 21
12.0826
 31
0.0
  0
LINE
  8
0
 62
     0
 10
81.8279
 20
12.0826
 30
0.0
 11
81.0024
 21
12.0826
 31
0.0
  0
LINE
  8
0
 62
     0
 10
81.0024
 20
12.0826
 30
0.0
 11
81.0024
 21
15.3128
 31
0.0
  0
LINE
  8
0
 62
     0
 10
81.0024
 20
15.3128
 30
0.0
 11
74.2527
 21
15.3128
 31
0.0
  0
LINE
  8
0
 62
     0
 10
74.2527
 20
15.3128
 30
0.0
 11
74.2527
 21
12.0826
 31
0.0
  0
LINE
  8
0
 62
     0
 10
74.2527
 20
12.0826
 30
0.0
 11
49.9565
 21
12.0826
 31
0.0
  0
LINE
  8
0
 62
     0
 10
49.9565
 20
12.0826
 30
0.0
 11
49.9565
 21
12.6835
 31
0.0
  0
LINE
  8
0
 62
     0
 10
49.9565
 20
12.6835
 30
0.0
 11
50.7559
 21
12.6835
 31
0.0
  0
LINE
  8
0
 62
     0
 10
50.7559
 20
12.6835
 30
0.0
 11
50.7559
 21
15.7827
 31
0.0
  0
LINE
  8
0
 62
     0
 10
50.7559
 20
15.7827
 30
0.0
 11
49.9565
 21
15.7827
 31
0.0
  0
LINE
  8
0
 62
     0
 10
49.9565
 20
15.7827
 30
0.0
 11
49.9565
 21
16.7831
 31
0.0
  0
LINE
  8
0
 62
     0
 10
49.9565
 20
16.7831
 30
0.0
 11
35.9572
 21
16.7831
 31
0.0
  0
LINE
  8
0
 62
     0
 10
7.38216
 20
35.833
 30
0.0
 11
7.38216
 21
34.8327
 31
0.0
  0
LINE
  8
0
 62
     0
 10
7.38216
 20
34.8327
 30
0.0
 11
6.58153
 21
34.8327
 31
0.0
  0
LINE
  8
0
 62
     0
 10
6.58153
 20
34.8327
 30
0.0
 11
6.58153
 21
31.7335
 31
0.0
  0
LINE
  8
0
 62
     0
 10
6.58153
 20
31.7335
 30
0.0
 11
7.38216
 21
31.7335
 31
0.0
  0
LINE
  8
0
 62
     0
 10
7.38216
 20
31.7335
 30
0.0
 11
7.38216
 21
25.9333
 31
0.0
  0
LINE
  8
0
 62
     0
 10
7.38216
 20
25.9333
 30
0.0
 11
6.58153
 21
25.9333
 31
0.0
  0
LINE
  8
0
 62
     0
 10
6.58153
 20
25.9333
 30
0.0
 11
6.58153
 21
22.8327
 31
0.0
  0
LINE
  8
0
 62
     0
 10
6.58153
 20
22.8327
 30
0.0
 11
7.38216
 21
22.8327
 31
0.0
  0
LINE
  8
0
 62
     0
 10
7.38216
 20
22.8327
 30
0.0
 11
7.38216
 21
21.8336
 31
0.0
  0
LINE
  8
0
 62
     0
 10
7.38216
 20
21.8336
 30
0.0
 11
21.3817
 21
21.8336
 31
0.0
  0
LINE
  8
0
 62
     0
 10
21.3817
 20
21.8336
 30
0.0
 11
21.3817
 21
22.8327
 31
0.0
  0
LINE
  8
0
 62
     0
 10
21.3817
 20
22.8327
 30
0.0
 11
22.1809
 21
22.8327
 31
0.0
  0
LINE
  8
0
 62
     0
 10
22.1809
 20
22.8327
 30
0.0
 11
22.1809
 21
25.9333
 31
0.0
  0
LINE
  8
0
 62
     0
 10
22.1809
 20
25.9333
 30
0.0
 11
21.3817
 21
25.9333
 31
0.0
  0
LINE
  8
0
 62
     0
 10
21.3817
 20
25.9333
 30
0.0
 11
21.3817
 21
31.7335
 31
0.0
  0
LINE
  8
0
 62
     0
 10
21.3817
 20
31.7335
 30
0.0
 11
22.1809
 21
31.7335
 31
0.0
  0
LINE
  8
0
 62
     0
 10
22.1809
 20
31.7335
 30
0.0
 11
22.1809
 21
34.8327
 31
0.0
  0
LINE
  8
0
 62
     0
 10
22.1809
 20
34.8327
 30
0.0
 11
21.3817
 21
34.8327
 31
0.0
  0
LINE
  8
0
 62
     0
 10
21.3817
 20
34.8327
 30
0.0
 11
21.3817
 21
35.833
 31
0.0
  0
LINE
  8
0
 62
     0
 10
21.3817
 20
35.833
 30
0.0
 11
7.38216
 21
35.833
 31
0.0
  0
LINE
  8
0
 62
     0
 10
31.1947
 20
35.833
 30
0.0
 11
31.1947
 21
34.8327
 31
0.0
  0
LINE
  8
0
 62
     0
 10
31.1947
 20
34.8327
 30
0.0
 11
30.394
 21
34.8327
 31
0.0
  0
LINE
  8
0
 62
     0
 10
30.394
 20
34.8327
 30
0.0
 11
30.394
 21
31.7335
 31
0.0
  0
LINE
  8
0
 62
     0
 10
30.394
 20
31.7335
 30
0.0
 11
31.1947
 21
31.7335
 31
0.0
  0
LINE
  8
0
 62
     0
 10
31.1947
 20
31.7335
 30
0.0
 11
31.1947
 21
25.9333
 31
0.0
  0
LINE
  8
0
 62
     0
 10
31.1947
 20
25.9333
 30
0.0
 11
30.394
 21
25.9333
 31
0.0
  0
LINE
  8
0
 62
     0
 10
30.394
 20
25.9333
 30
0.0
 11
30.394
 21
22.8327
 31
0.0
  0
LINE
  8
0
 62
     0
 10
30.394
 20
22.8327
 30
0.0
 11
31.1947
 21
22.8327
 31
0.0
  0
LINE
  8
0
 62
     0
 10
31.1947
 20
22.8327
 30
0.0
 11
31.1947
 21
21.8336
 31
0.0
  0
LINE
  8
0
 62
     0
 10
31.1947
 20
21.8336
 30
0.0
 11
45.194
 21
21.8336
 31
0.0
  0
LINE
  8
0
 62
     0
 10
45.194
 20
21.8336
 30
0.0
 11
45.194
 21
22.8327
 31
0.0
  0
LINE
  8
0
 62
     0
 10
45.194
 20
22.8327
 30
0.0
 11
45.9948
 21
22.8327
 31
0.0
  0
LINE
  8
0
 62
     0
 10
45.9948
 20
22.8327
 30
0.0
 11
45.9948
 21
25.9333
 31
0.0
  0
LINE
  8
0
 62
     0
 10
45.9948
 20
25.9333
 30
0.0
 11
45.194
 21
25.9333
 31
0.0
  0
LINE
  8
0
 62
     0
 10
45.194
 20
25.9333
 30
0.0
 11
45.194
 21
31.7335
 31
0.0
  0
LINE
  8
0
 62
     0
 10
45.194
 20
31.7335
 30
0.0
 11
45.9948
 21
31.7335
 31
0.0
  0
LINE
  8
0
 62
     0
 10
45.9948
 20
31.7335
 30
0.0
 11
45.9948
 21
34.8327
 31
0.0
  0
LINE
  8
0
 62
     0
 10
45.9948
 20
34.8327
 30
0.0
 11
45.194
 21
34.8327
 31
0.0
  0
LINE
  8
0
 62
     0
 10
45.194
 20
34.8327
 30
0.0
 11
45.194
 21
35.833
 31
0.0
  0
LINE
  8
0
 62
     0
 10
45.194
 20
35.833
 30
0.0
 11
31.1947
 21
35.833
 31
0.0
  0
LINE
  8
0
 62
     0
 10
71.0311
 20
54.4587
 30
0.0
 11
71.0311
 21
53.6332
 31
0.0
  0
LINE
  8
0
 62
     0
 10
71.0311
 20
53.6332
 30
0.0
 11
64.7608
 21
53.6332
 31
0.0
  0
LINE
  8
0
 62
     0
 10
64.7608
 20
53.6332
 30
0.0
 11
64.7608
 21
51.9081
 31
0.0
  0
LINE
  8
0
 62
     0
 10
64.7608
 20
51.9081
 30
0.0
 11
63.5621
 21
51.9081
 31
0.0
  0
LINE
  8
0
 62
     0
 10
63.5621
 20
51.9081
 30
0.0
 11
63.5621
 21
48.6089
 31
0.0
  0
LINE
  8
0
 62
     0
 10
63.5621
 20
48.6089
 30
0.0
 11
64.7608
 21
48.6089
 31
0.0
  0
LINE
  8
0
 62
     0
 10
64.7608
 20
48.6089
 30
0.0
 11
64.7608
 21
46.8835
 31
0.0
  0
LINE
  8
0
 62
     0
 10
64.7608
 20
46.8835
 30
0.0
 11
69.2312
 21
46.8835
 31
0.0
  0
LINE
  8
0
 62
     0
 10
69.2312
 20
46.8835
 30
0.0
 11
69.2312
 21
45.3581
 31
0.0
  0
LINE
  8
0
 62
     0
 10
69.2312
 20
45.3581
 30
0.0
 11
68.6319
 21
45.3581
 31
0.0
  0
LINE
  8
0
 62
     0
 10
68.6319
 20
45.3581
 30
0.0
 11
68.6319
 21
46.1589
 31
0.0
  0
LINE
  8
0
 62
     0
 10
68.6319
 20
46.1589
 30
0.0
 11
65.5313
 21
46.1589
 31
0.0
  0
LINE
  8
0
 62
     0
 10
65.5313
 20
46.1589
 30
0.0
 11
65.5313
 21
45.3581
 31
0.0
  0
LINE
  8
0
 62
     0
 10
65.5313
 20
45.3581
 30
0.0
 11
64.5322
 21
45.3581
 31
0.0
  0
LINE
  8
0
 62
     0
 10
64.5322
 20
45.3581
 30
0.0
 11
64.5322
 21
31.3586
 31
0.0
  0
LINE
  8
0
 62
     0
 10
64.5322
 20
31.3586
 30
0.0
 11
65.5313
 21
31.3586
 31
0.0
  0
LINE
  8
0
 62
     0
 10
65.5313
 20
31.3586
 30
0.0
 11
65.5313
 21
30.558
 31
0.0
  0
LINE
  8
0
 62
     0
 10
65.5313
 20
30.558
 30
0.0
 11
68.6319
 21
30.558
 31
0.0
  0
LINE
  8
0
 62
     0
 10
68.6319
 20
30.558
 30
0.0
 11
68.6319
 21
31.3586
 31
0.0
  0
LINE
  8
0
 62
     0
 10
68.6319
 20
31.3586
 30
0.0
 11
69.2312
 21
31.3586
 31
0.0
  0
LINE
  8
0
 62
     0
 10
69.2312
 20
31.3586
 30
0.0
 11
69.2312
 21
29.8331
 31
0.0
  0
LINE
  8
0
 62
     0
 10
69.2312
 20
29.8331
 30
0.0
 11
64.7608
 21
29.8331
 31
0.0
  0
LINE
  8
0
 62
     0
 10
64.7608
 20
29.8331
 30
0.0
 11
64.7608
 21
28.1079
 31
0.0
  0
LINE
  8
0
 62
     0
 10
64.7608
 20
28.1079
 30
0.0
 11
63.5621
 21
28.1079
 31
0.0
  0
LINE
  8
0
 62
     0
 10
63.5621
 20
28.1079
 30
0.0
 11
63.5621
 21
24.8088
 31
0.0
  0
LINE
  8
0
 62
     0
 10
63.5621
 20
24.8088
 30
0.0
 11
64.7608
 21
24.8088
 31
0.0
  0
LINE
  8
0
 62
     0
 10
64.7608
 20
24.8088
 30
0.0
 11
64.7608
 21
23.0835
 31
0.0
  0
LINE
  8
0
 62
     0
 10
64.7608
 20
23.0835
 30
0.0
 11
71.0311
 21
23.0835
 31
0.0
  0
LINE
  8
0
 62
     0
 10
71.0311
 20
23.0835
 30
0.0
 11
71.0311
 21
22.2581
 31
0.0
  0
LINE
  8
0
 62
     0
 10
71.0311
 20
22.2581
 30
0.0
 11
73.8311
 21
22.2581
 31
0.0
  0
LINE
  8
0
 62
     0
 10
73.8311
 20
22.2581
 30
0.0
 11
73.8311
 21
23.0835
 31
0.0
  0
LINE
  8
0
 62
     0
 10
73.8311
 20
23.0835
 30
0.0
 11
77.0611
 21
23.0835
 31
0.0
  0
LINE
  8
0
 62
     0
 10
77.0611
 20
23.0835
 30
0.0
 11
77.0611
 21
29.8331
 31
0.0
  0
LINE
  8
0
 62
     0
 10
77.0611
 20
29.8331
 30
0.0
 11
73.8311
 21
29.8331
 31
0.0
  0
LINE
  8
0
 62
     0
 10
73.8311
 20
29.8331
 30
0.0
 11
73.8311
 21
31.3586
 31
0.0
  0
LINE
  8
0
 62
     0
 10
73.8311
 20
31.3586
 30
0.0
 11
74.4319
 21
31.3586
 31
0.0
  0
LINE
  8
0
 62
     0
 10
74.4319
 20
31.3586
 30
0.0
 11
74.4319
 21
30.558
 31
0.0
  0
LINE
  8
0
 62
     0
 10
74.4319
 20
30.558
 30
0.0
 11
77.531
 21
30.558
 31
0.0
  0
LINE
  8
0
 62
     0
 10
77.531
 20
30.558
 30
0.0
 11
77.531
 21
31.3586
 31
0.0
  0
LINE
  8
0
 62
     0
 10
77.531
 20
31.3586
 30
0.0
 11
78.5315
 21
31.3586
 31
0.0
  0
LINE
  8
0
 62
     0
 10
78.5315
 20
31.3586
 30
0.0
 11
78.5315
 21
45.3581
 31
0.0
  0
LINE
  8
0
 62
     0
 10
78.5315
 20
45.3581
 30
0.0
 11
77.531
 21
45.3581
 31
0.0
  0
LINE
  8
0
 62
     0
 10
77.531
 20
45.3581
 30
0.0
 11
77.531
 21
46.1589
 31
0.0
  0
LINE
  8
0
 62
     0
 10
77.531
 20
46.1589
 30
0.0
 11
74.4319
 21
46.1589
 31
0.0
  0
LINE
  8
0
 62
     0
 10
74.4319
 20
46.1589
 30
0.0
 11
74.4319
 21
45.3581
 31
0.0
  0
LINE
  8
0
 62
     0
 10
74.4319
 20
45.3581
 30
0.0
 11
73.8311
 21
45.3581
 31
0.0
  0
LINE
  8
0
 62
     0
 10
73.8311
 20
45.3581
 30
0.0
 11
73.8311
 21
46.8835
 31
0.0
  0
LINE
  8
0
 62
     0
 10
73.8311
 20
46.8835
 30
0.0
 11
77.0611
 21
46.8835
 31
0.0
  0
LINE
  8
0
 62
     0
 10
77.0611
 20
46.8835
 30
0.0
 11
77.0611
 21
53.6332
 31
0.0
  0
LINE
  8
0
 62
     0
 10
77.0611
 20
53.6332
 30
0.0
 11
73.8311
 21
53.6332
 31
0.0
  0
LINE
  8
0
 62
     0
 10
73.8311
 20
53.6332
 30
0.0
 11
73.8311
 21
54.4587
 31
0.0
  0
LINE
  8
0
 62
     0
 10
73.8311
 20
54.4587
 30
0.0
 11
71.0311
 21
54.4587
 31
0.0
  0
LINE
  8
0
 62
     0
 10
33.5759
 20
54.8831
 30
0.0
 11
33.5759
 21
53.8826
 31
0.0
  0
LINE
  8
0
 62
     0
 10
33.5759
 20
53.8826
 30
0.0
 11
32.7753
 21
53.8826
 31
0.0
  0
LINE
  8
0
 62
     0
 10
32.7753
 20
53.8826
 30
0.0
 11
32.7753
 21
50.7834
 31
0.0
  0
LINE
  8
0
 62
     0
 10
32.7753
 20
50.7834
 30
0.0
 11
33.5759
 21
50.7834
 31
0.0
  0
LINE
  8
0
 62
     0
 10
33.5759
 20
50.7834
 30
0.0
 11
33.5759
 21
50.1826
 31
0.0
  0
LINE
  8
0
 62
     0
 10
33.5759
 20
50.1826
 30
0.0
 11
32.0504
 21
50.1826
 31
0.0
  0
LINE
  8
0
 62
     0
 10
32.0504
 20
50.1826
 30
0.0
 11
32.0504
 21
53.4127
 31
0.0
  0
LINE
  8
0
 62
     0
 10
32.0504
 20
53.4127
 30
0.0
 11
25.3008
 21
53.4127
 31
0.0
  0
LINE
  8
0
 62
     0
 10
25.3008
 20
53.4127
 30
0.0
 11
25.3008
 21
50.1826
 31
0.0
  0
LINE
  8
0
 62
     0
 10
25.3008
 20
50.1826
 30
0.0
 11
24.4753
 21
50.1826
 31
0.0
  0
LINE
  8
0
 62
     0
 10
24.4753
 20
50.1826
 30
0.0
 11
24.4753
 21
47.3837
 31
0.0
  0
LINE
  8
0
 62
     0
 10
24.4753
 20
47.3837
 30
0.0
 11
25.3008
 21
47.3837
 31
0.0
  0
LINE
  8
0
 62
     0
 10
25.3008
 20
47.3837
 30
0.0
 11
25.3008
 21
41.1138
 31
0.0
  0
LINE
  8
0
 62
     0
 10
25.3008
 20
41.1138
 30
0.0
 11
27.0261
 21
41.1138
 31
0.0
  0
LINE
  8
0
 62
     0
 10
27.0261
 20
41.1138
 30
0.0
 11
27.0261
 21
39.9136
 31
0.0
  0
LINE
  8
0
 62
     0
 10
27.0261
 20
39.9136
 30
0.0
 11
30.3251
 21
39.9136
 31
0.0
  0
LINE
  8
0
 62
     0
 10
30.3251
 20
39.9136
 30
0.0
 11
30.3251
 21
41.1138
 31
0.0
  0
LINE
  8
0
 62
     0
 10
30.3251
 20
41.1138
 30
0.0
 11
32.0504
 21
41.1138
 31
0.0
  0
LINE
  8
0
 62
     0
 10
32.0504
 20
41.1138
 30
0.0
 11
32.0504
 21
45.5828
 31
0.0
  0
LINE
  8
0
 62
     0
 10
32.0504
 20
45.5828
 30
0.0
 11
33.5759
 21
45.5828
 31
0.0
  0
LINE
  8
0
 62
     0
 10
33.5759
 20
45.5828
 30
0.0
 11
33.5759
 21
44.9834
 31
0.0
  0
LINE
  8
0
 62
     0
 10
33.5759
 20
44.9834
 30
0.0
 11
32.7753
 21
44.9834
 31
0.0
  0
LINE
  8
0
 62
     0
 10
32.7753
 20
44.9834
 30
0.0
 11
32.7753
 21
41.8828
 31
0.0
  0
LINE
  8
0
 62
     0
 10
32.7753
 20
41.8828
 30
0.0
 11
33.5759
 21
41.8828
 31
0.0
  0
LINE
  8
0
 62
     0
 10
33.5759
 20
41.8828
 30
0.0
 11
33.5759
 21
40.8838
 31
0.0
  0
LINE
  8
0
 62
     0
 10
33.5759
 20
40.8838
 30
0.0
 11
47.5753
 21
40.8838
 31
0.0
  0
LINE
  8
0
 62
     0
 10
47.5753
 20
40.8838
 30
0.0
 11
47.5753
 21
41.8828
 31
0.0
  0
LINE
  8
0
 62
     0
 10
47.5753
 20
41.8828
 30
0.0
 11
48.3761
 21
41.8828
 31
0.0
  0
LINE
  8
0
 62
     0
 10
48.3761
 20
41.8828
 30
0.0
 11
48.3761
 21
44.9834
 31
0.0
  0
LINE
  8
0
 62
     0
 10
48.3761
 20
44.9834
 30
0.0
 11
47.5753
 21
44.9834
 31
0.0
  0
LINE
  8
0
 62
     0
 10
47.5753
 20
44.9834
 30
0.0
 11
47.5753
 21
45.5828
 31
0.0
  0
LINE
  8
0
 62
     0
 10
47.5753
 20
45.5828
 30
0.0
 11
49.101
 21
45.5828
 31
0.0
  0
LINE
  8
0
 62
     0
 10
49.101
 20
45.5828
 30
0.0
 11
49.101
 21
41.1138
 31
0.0
  0
LINE
  8
0
 62
     0
 10
49.101
 20
41.1138
 30
0.0
 11
50.8247
 21
41.1138
 31
0.0
  0
LINE
  8
0
 62
     0
 10
50.8247
 20
41.1138
 30
0.0
 11
50.8247
 21
39.9136
 31
0.0
  0
LINE
  8
0
 62
     0
 10
50.8247
 20
39.9136
 30
0.0
 11
54.1253
 21
39.9136
 31
0.0
  0
LINE
  8
0
 62
     0
 10
54.1253
 20
39.9136
 30
0.0
 11
54.1253
 21
41.1138
 31
0.0
  0
LINE
  8
0
 62
     0
 10
54.1253
 20
41.1138
 30
0.0
 11
55.8504
 21
41.1138
 31
0.0
  0
LINE
  8
0
 62
     0
 10
55.8504
 20
41.1138
 30
0.0
 11
55.8504
 21
47.3837
 31
0.0
  0
LINE
  8
0
 62
     0
 10
55.8504
 20
47.3837
 30
0.0
 11
56.6759
 21
47.3837
 31
0.0
  0
LINE
  8
0
 62
     0
 10
56.6759
 20
47.3837
 30
0.0
 11
56.6759
 21
50.1826
 31
0.0
  0
LINE
  8
0
 62
     0
 10
56.6759
 20
50.1826
 30
0.0
 11
55.8504
 21
50.1826
 31
0.0
  0
LINE
  8
0
 62
     0
 10
55.8504
 20
50.1826
 30
0.0
 11
55.8504
 21
53.4127
 31
0.0
  0
LINE
  8
0
 62
     0
 10
55.8504
 20
53.4127
 30
0.0
 11
49.101
 21
53.4127
 31
0.0
  0
LINE
  8
0
 62
     0
 10
49.101
 20
53.4127
 30
0.0
 11
49.101
 21
50.1826
 31
0.0
  0
LINE
  8
0
 62
     0
 10
49.101
 20
50.1826
 30
0.0
 11
47.5753
 21
50.1826
 31
0.0
  0
LINE
  8
0
 62
     0
 10
47.5753
 20
50.1826
 30
0.0
 11
47.5753
 21
50.7834
 31
0.0
  0
LINE
  8
0
 62
     0
 10
47.5753
 20
50.7834
 30
0.0
 11
48.3761
 21
50.7834
 31
0.0
  0
LINE
  8
0
 62
     0
 10
48.3761
 20
50.7834
 30
0.0
 11
48.3761
 21
53.8826
 31
0.0
  0
LINE
  8
0
 62
     0
 10
48.3761
 20
53.8826
 30
0.0
 11
47.5753
 21
53.8826
 31
0.0
  0
LINE
  8
0
 62
     0
 10
47.5753
 20
53.8826
 30
0.0
 11
47.5753
 21
54.8831
 31
0.0
  0
LINE
  8
0
 62
     0
 10
47.5753
 20
54.8831
 30
0.0
 11
33.5759
 21
54.8831
 31
0.0
  0
LINE
  8
0
 62
     0
 10
2.61965
 20
54.8831
 30
0.0
 11
2.61965
 21
53.8826
 31
0.0
  0
LINE
  8
0
 62
     0
 10
2.61965
 20
53.8826
 30
0.0
 11
1.81901
 21
53.8826
 31
0.0
  0
LINE
  8
0
 62
     0
 10
1.81901
 20
53.8826
 30
0.0
 11
1.81901
 21
50.7834
 31
0.0
  0
LINE
  8
0
 62
     0
 10
1.81901
 20
50.7834
 30
0.0
 11
2.61965
 21
50.7834
 31
0.0
  0
LINE
  8
0
 62
     0
 10
2.61965
 20
50.7834
 30
0.0
 11
2.61965
 21
44.9834
 31
0.0
  0
LINE
  8
0
 62
     0
 10
2.61965
 20
44.9834
 30
0.0
 11
1.81901
 21
44.9834
 31
0.0
  0
LINE
  8
0
 62
     0
 10
1.81901
 20
44.9834
 30
0.0
 11
1.81901
 21
41.8828
 31
0.0
  0
LINE
  8
0
 62
     0
 10
1.81901
 20
41.8828
 30
0.0
 11
2.61965
 21
41.8828
 31
0.0
  0
LINE
  8
0
 62
     0
 10
2.61965
 20
41.8828
 30
0.0
 11
2.61965
 21
40.8838
 31
0.0
  0
LINE
  8
0
 62
     0
 10
2.61965
 20
40.8838
 30
0.0
 11
16.6192
 21
40.8838
 31
0.0
  0
LINE
  8
0
 62
     0
 10
16.6192
 20
40.8838
 30
0.0
 11
16.6192
 21
41.8828
 31
0.0
  0
LINE
  8
0
 62
     0
 10
16.6192
 20
41.8828
 30
0.0
 11
17.4198
 21
41.8828
 31
0.0
  0
LINE
  8
0
 62
     0
 10
17.4198
 20
41.8828
 30
0.0
 11
17.4198
 21
44.9834
 31
0.0
  0
LINE
  8
0
 62
     0
 10
17.4198
 20
44.9834
 30
0.0
 11
16.6192
 21
44.9834
 31
0.0
  0
LINE
  8
0
 62
     0
 10
16.6192
 20
44.9834
 30
0.0
 11
16.6192
 21
50.7834
 31
0.0
  0
LINE
  8
0
 62
     0
 10
16.6192
 20
50.7834
 30
0.0
 11
17.4198
 21
50.7834
 31
0.0
  0
LINE
  8
0
 62
     0
 10
17.4198
 20
50.7834
 30
0.0
 11
17.4198
 21
53.8826
 31
0.0
  0
LINE
  8
0
 62
     0
 10
17.4198
 20
53.8826
 30
0.0
 11
16.6192
 21
53.8826
 31
0.0
  0
LINE
  8
0
 62
     0
 10
16.6192
 20
53.8826
 30
0.0
 11
16.6192
 21
54.8831
 31
0.0
  0
LINE
  8
0
 62
     0
 10
16.6192
 20
54.8831
 30
0.0
 11
2.61965
 21
54.8831
 31
0.0
  0
ENDSEC
  0
EOF
