  0
SECTION
  2
HEADER
  9
$ACADVER
  1
AC1009
  9
$FILLMODE
 70
 0
  9
$SPLFRAME
 70
 1
  9
$EXTMIN
 10
0
 20
0
 30
0.0
  9
$EXTMAX
 10
1058.33
 20
1058.33
 30
0.0
  0
ENDSEC
  0
SECTION
  2
TABLES
  0
TABLE
  2
LAYER
 70
1
  0
LAYER
  2
0
 70
     0
 62
     7
  6
CONTINUOUS
  0
ENDTAB
  0
ENDSEC
  0
SECTION
  2
ENTITIES
  0
LINE
  8
0
 62
     0
 10
0.0950846
 20
95.5075
 30
0.0
 11
257.27
 21
95.5075
 31
0.0
  0
LINE
  8
0
 62
     0
 10
257.27
 20
95.5075
 30
0.0
 11
257.27
 21
0.257693
 31
0.0
  0
LINE
  8
0
 62
     0
 10
257.27
 20
0.257693
 30
0.0
 11
0.0950846
 21
0.257693
 31
0.0
  0
LINE
  8
0
 62
     0
 10
0.0950846
 20
0.257693
 30
0.0
 11
0.0950846
 21
95.5075
 31
0.0
  0
LINE
  8
0
 62
     0
 10
131.207
 20
16.7831
 30
0.0
 11
131.207
 21
15.7827
 31
0.0
  0
LINE
  8
0
 62
     0
 10
131.207
 20
15.7827
 30
0.0
 11
130.406
 21
15.7827
 31
0.0
  0
LINE
  8
0
 62
     0
 10
130.406
 20
15.7827
 30
0.0
 11
130.406
 21
12.6835
 31
0.0
  0
LINE
  8
0
 62
     0
 10
130.406
 20
12.6835
 30
0.0
 11
131.207
 21
12.6835
 31
0.0
  0
LINE
  8
0
 62
     0
 10
131.207
 20
12.6835
 30
0.0
 11
131.207
 21
12.0826
 31
0.0
  0
LINE
  8
0
 62
     0
 10
131.207
 20
12.0826
 30
0.0
 11
106.911
 21
12.0826
 31
0.0
  0
LINE
  8
0
 62
     0
 10
106.911
 20
12.0826
 30
0.0
 11
106.911
 21
15.3128
 31
0.0
  0
LINE
  8
0
 62
     0
 10
106.911
 20
15.3128
 30
0.0
 11
100.16
 21
15.3128
 31
0.0
  0
LINE
  8
0
 62
     0
 10
100.16
 20
15.3128
 30
0.0
 11
100.16
 21
12.0826
 31
0.0
  0
LINE
  8
0
 62
     0
 10
100.16
 20
12.0826
 30
0.0
 11
99.3359
 21
12.0826
 31
0.0
  0
LINE
  8
0
 62
     0
 10
99.3359
 20
12.0826
 30
0.0
 11
99.3359
 21
9.28384
 31
0.0
  0
LINE
  8
0
 62
     0
 10
99.3359
 20
9.28384
 30
0.0
 11
100.16
 21
9.28384
 31
0.0
  0
LINE
  8
0
 62
     0
 10
100.16
 20
9.28384
 30
0.0
 11
100.16
 21
3.01377
 31
0.0
  0
LINE
  8
0
 62
     0
 10
100.16
 20
3.01377
 30
0.0
 11
101.885
 21
3.01377
 31
0.0
  0
LINE
  8
0
 62
     0
 10
101.885
 20
3.01377
 30
0.0
 11
101.885
 21
1.8135
 31
0.0
  0
LINE
  8
0
 62
     0
 10
101.885
 20
1.8135
 30
0.0
 11
105.186
 21
1.8135
 31
0.0
  0
LINE
  8
0
 62
     0
 10
105.186
 20
1.8135
 30
0.0
 11
105.186
 21
3.01377
 31
0.0
  0
LINE
  8
0
 62
     0
 10
105.186
 20
3.01377
 30
0.0
 11
106.911
 21
3.01377
 31
0.0
  0
LINE
  8
0
 62
     0
 10
106.911
 20
3.01377
 30
0.0
 11
106.911
 21
7.48273
 31
0.0
  0
LINE
  8
0
 62
     0
 10
106.911
 20
7.48273
 30
0.0
 11
131.207
 21
7.48273
 31
0.0
  0
LINE
  8
0
 62
     0
 10
131.207
 20
7.48273
 30
0.0
 11
131.207
 21
6.88329
 31
0.0
  0
LINE
  8
0
 62
     0
 10
131.207
 20
6.88329
 30
0.0
 11
130.406
 21
6.88329
 31
0.0
  0
LINE
  8
0
 62
     0
 10
130.406
 20
6.88329
 30
0.0
 11
130.406
 21
3.78273
 31
0.0
  0
LINE
  8
0
 62
     0
 10
130.406
 20
3.78273
 30
0.0
 11
131.207
 21
3.78273
 31
0.0
  0
LINE
  8
0
 62
     0
 10
131.207
 20
3.78273
 30
0.0
 11
131.207
 21
2.78364
 31
0.0
  0
LINE
  8
0
 62
     0
 10
131.207
 20
2.78364
 30
0.0
 11
145.207
 21
2.78364
 31
0.0
  0
LINE
  8
0
 62
     0
 10
145.207
 20
2.78364
 30
0.0
 11
145.207
 21
3.78273
 31
0.0
  0
LINE
  8
0
 62
     0
 10
145.207
 20
3.78273
 30
0.0
 11
146.006
 21
3.78273
 31
0.0
  0
LINE
  8
0
 62
     0
 10
146.006
 20
3.78273
 30
0.0
 11
146.006
 21
6.88329
 31
0.0
  0
LINE
  8
0
 62
     0
 10
146.006
 20
6.88329
 30
0.0
 11
145.207
 21
6.88329
 31
0.0
  0
LINE
  8
0
 62
     0
 10
145.207
 20
6.88329
 30
0.0
 11
145.207
 21
7.48273
 31
0.0
  0
LINE
  8
0
 62
     0
 10
145.207
 20
7.48273
 30
0.0
 11
169.503
 21
7.48273
 31
0.0
  0
LINE
  8
0
 62
     0
 10
169.503
 20
7.48273
 30
0.0
 11
169.503
 21
3.01377
 31
0.0
  0
LINE
  8
0
 62
     0
 10
169.503
 20
3.01377
 30
0.0
 11
171.228
 21
3.01377
 31
0.0
  0
LINE
  8
0
 62
     0
 10
171.228
 20
3.01377
 30
0.0
 11
171.228
 21
1.8135
 31
0.0
  0
LINE
  8
0
 62
     0
 10
171.228
 20
1.8135
 30
0.0
 11
174.527
 21
1.8135
 31
0.0
  0
LINE
  8
0
 62
     0
 10
174.527
 20
1.8135
 30
0.0
 11
174.527
 21
3.01377
 31
0.0
  0
LINE
  8
0
 62
     0
 10
174.527
 20
3.01377
 30
0.0
 11
176.252
 21
3.01377
 31
0.0
  0
LINE
  8
0
 62
     0
 10
176.252
 20
3.01377
 30
0.0
 11
176.252
 21
9.28384
 31
0.0
  0
LINE
  8
0
 62
     0
 10
176.252
 20
9.28384
 30
0.0
 11
177.078
 21
9.28384
 31
0.0
  0
LINE
  8
0
 62
     0
 10
177.078
 20
9.28384
 30
0.0
 11
177.078
 21
12.0826
 31
0.0
  0
LINE
  8
0
 62
     0
 10
177.078
 20
12.0826
 30
0.0
 11
176.252
 21
12.0826
 31
0.0
  0
LINE
  8
0
 62
     0
 10
176.252
 20
12.0826
 30
0.0
 11
176.252
 21
15.3128
 31
0.0
  0
LINE
  8
0
 62
     0
 10
176.252
 20
15.3128
 30
0.0
 11
169.503
 21
15.3128
 31
0.0
  0
LINE
  8
0
 62
     0
 10
169.503
 20
15.3128
 30
0.0
 11
169.503
 21
12.0826
 31
0.0
  0
LINE
  8
0
 62
     0
 10
169.503
 20
12.0826
 30
0.0
 11
145.207
 21
12.0826
 31
0.0
  0
LINE
  8
0
 62
     0
 10
145.207
 20
12.0826
 30
0.0
 11
145.207
 21
12.6835
 31
0.0
  0
LINE
  8
0
 62
     0
 10
145.207
 20
12.6835
 30
0.0
 11
146.006
 21
12.6835
 31
0.0
  0
LINE
  8
0
 62
     0
 10
146.006
 20
12.6835
 30
0.0
 11
146.006
 21
15.7827
 31
0.0
  0
LINE
  8
0
 62
     0
 10
146.006
 20
15.7827
 30
0.0
 11
145.207
 21
15.7827
 31
0.0
  0
LINE
  8
0
 62
     0
 10
145.207
 20
15.7827
 30
0.0
 11
145.207
 21
16.7831
 31
0.0
  0
LINE
  8
0
 62
     0
 10
145.207
 20
16.7831
 30
0.0
 11
131.207
 21
16.7831
 31
0.0
  0
LINE
  8
0
 62
     0
 10
2.61965
 20
16.7831
 30
0.0
 11
2.61965
 21
15.7827
 31
0.0
  0
LINE
  8
0
 62
     0
 10
2.61965
 20
15.7827
 30
0.0
 11
1.81901
 21
15.7827
 31
0.0
  0
LINE
  8
0
 62
     0
 10
1.81901
 20
15.7827
 30
0.0
 11
1.81901
 21
12.6835
 31
0.0
  0
LINE
  8
0
 62
     0
 10
1.81901
 20
12.6835
 30
0.0
 11
2.61965
 21
12.6835
 31
0.0
  0
LINE
  8
0
 62
     0
 10
2.61965
 20
12.6835
 30
0.0
 11
2.61965
 21
6.88329
 31
0.0
  0
LINE
  8
0
 62
     0
 10
2.61965
 20
6.88329
 30
0.0
 11
1.81901
 21
6.88329
 31
0.0
  0
LINE
  8
0
 62
     0
 10
1.81901
 20
6.88329
 30
0.0
 11
1.81901
 21
3.78273
 31
0.0
  0
LINE
  8
0
 62
     0
 10
1.81901
 20
3.78273
 30
0.0
 11
2.61965
 21
3.78273
 31
0.0
  0
LINE
  8
0
 62
     0
 10
2.61965
 20
3.78273
 30
0.0
 11
2.61965
 21
2.78364
 31
0.0
  0
LINE
  8
0
 62
     0
 10
2.61965
 20
2.78364
 30
0.0
 11
16.6192
 21
2.78364
 31
0.0
  0
LINE
  8
0
 62
     0
 10
16.6192
 20
2.78364
 30
0.0
 11
16.6192
 21
3.78273
 31
0.0
  0
LINE
  8
0
 62
     0
 10
16.6192
 20
3.78273
 30
0.0
 11
17.4198
 21
3.78273
 31
0.0
  0
LINE
  8
0
 62
     0
 10
17.4198
 20
3.78273
 30
0.0
 11
17.4198
 21
6.88329
 31
0.0
  0
LINE
  8
0
 62
     0
 10
17.4198
 20
6.88329
 30
0.0
 11
16.6192
 21
6.88329
 31
0.0
  0
LINE
  8
0
 62
     0
 10
16.6192
 20
6.88329
 30
0.0
 11
16.6192
 21
12.6835
 31
0.0
  0
LINE
  8
0
 62
     0
 10
16.6192
 20
12.6835
 30
0.0
 11
17.4198
 21
12.6835
 31
0.0
  0
LINE
  8
0
 62
     0
 10
17.4198
 20
12.6835
 30
0.0
 11
17.4198
 21
15.7827
 31
0.0
  0
LINE
  8
0
 62
     0
 10
17.4198
 20
15.7827
 30
0.0
 11
16.6192
 21
15.7827
 31
0.0
  0
LINE
  8
0
 62
     0
 10
16.6192
 20
15.7827
 30
0.0
 11
16.6192
 21
16.7831
 31
0.0
  0
LINE
  8
0
 62
     0
 10
16.6192
 20
16.7831
 30
0.0
 11
2.61965
 21
16.7831
 31
0.0
  0
LINE
  8
0
 62
     0
 10
21.6697
 20
16.7831
 30
0.0
 11
21.6697
 21
15.7827
 31
0.0
  0
LINE
  8
0
 62
     0
 10
21.6697
 20
15.7827
 30
0.0
 11
20.869
 21
15.7827
 31
0.0
  0
LINE
  8
0
 62
     0
 10
20.869
 20
15.7827
 30
0.0
 11
20.869
 21
12.6835
 31
0.0
  0
LINE
  8
0
 62
     0
 10
20.869
 20
12.6835
 30
0.0
 11
21.6697
 21
12.6835
 31
0.0
  0
LINE
  8
0
 62
     0
 10
21.6697
 20
12.6835
 30
0.0
 11
21.6697
 21
6.88329
 31
0.0
  0
LINE
  8
0
 62
     0
 10
21.6697
 20
6.88329
 30
0.0
 11
20.869
 21
6.88329
 31
0.0
  0
LINE
  8
0
 62
     0
 10
20.869
 20
6.88329
 30
0.0
 11
20.869
 21
3.78273
 31
0.0
  0
LINE
  8
0
 62
     0
 10
20.869
 20
3.78273
 30
0.0
 11
21.6697
 21
3.78273
 31
0.0
  0
LINE
  8
0
 62
     0
 10
21.6697
 20
3.78273
 30
0.0
 11
21.6697
 21
2.78364
 31
0.0
  0
LINE
  8
0
 62
     0
 10
21.6697
 20
2.78364
 30
0.0
 11
35.669
 21
2.78364
 31
0.0
  0
LINE
  8
0
 62
     0
 10
35.669
 20
2.78364
 30
0.0
 11
35.669
 21
3.78273
 31
0.0
  0
LINE
  8
0
 62
     0
 10
35.669
 20
3.78273
 30
0.0
 11
36.4698
 21
3.78273
 31
0.0
  0
LINE
  8
0
 62
     0
 10
36.4698
 20
3.78273
 30
0.0
 11
36.4698
 21
6.88329
 31
0.0
  0
LINE
  8
0
 62
     0
 10
36.4698
 20
6.88329
 30
0.0
 11
35.669
 21
6.88329
 31
0.0
  0
LINE
  8
0
 62
     0
 10
35.669
 20
6.88329
 30
0.0
 11
35.669
 21
12.6835
 31
0.0
  0
LINE
  8
0
 62
     0
 10
35.669
 20
12.6835
 30
0.0
 11
36.4698
 21
12.6835
 31
0.0
  0
LINE
  8
0
 62
     0
 10
36.4698
 20
12.6835
 30
0.0
 11
36.4698
 21
15.7827
 31
0.0
  0
LINE
  8
0
 62
     0
 10
36.4698
 20
15.7827
 30
0.0
 11
35.669
 21
15.7827
 31
0.0
  0
LINE
  8
0
 62
     0
 10
35.669
 20
15.7827
 30
0.0
 11
35.669
 21
16.7831
 31
0.0
  0
LINE
  8
0
 62
     0
 10
35.669
 20
16.7831
 30
0.0
 11
21.6697
 21
16.7831
 31
0.0
  0
LINE
  8
0
 62
     0
 10
40.7197
 20
16.7831
 30
0.0
 11
40.7197
 21
15.7827
 31
0.0
  0
LINE
  8
0
 62
     0
 10
40.7197
 20
15.7827
 30
0.0
 11
39.9189
 21
15.7827
 31
0.0
  0
LINE
  8
0
 62
     0
 10
39.9189
 20
15.7827
 30
0.0
 11
39.9189
 21
12.6835
 31
0.0
  0
LINE
  8
0
 62
     0
 10
39.9189
 20
12.6835
 30
0.0
 11
40.7197
 21
12.6835
 31
0.0
  0
LINE
  8
0
 62
     0
 10
40.7197
 20
12.6835
 30
0.0
 11
40.7197
 21
6.88329
 31
0.0
  0
LINE
  8
0
 62
     0
 10
40.7197
 20
6.88329
 30
0.0
 11
39.9189
 21
6.88329
 31
0.0
  0
LINE
  8
0
 62
     0
 10
39.9189
 20
6.88329
 30
0.0
 11
39.9189
 21
3.78273
 31
0.0
  0
LINE
  8
0
 62
     0
 10
39.9189
 20
3.78273
 30
0.0
 11
40.7197
 21
3.78273
 31
0.0
  0
LINE
  8
0
 62
     0
 10
40.7197
 20
3.78273
 30
0.0
 11
40.7197
 21
2.78364
 31
0.0
  0
LINE
  8
0
 62
     0
 10
40.7197
 20
2.78364
 30
0.0
 11
54.719
 21
2.78364
 31
0.0
  0
LINE
  8
0
 62
     0
 10
54.719
 20
2.78364
 30
0.0
 11
54.719
 21
3.78273
 31
0.0
  0
LINE
  8
0
 62
     0
 10
54.719
 20
3.78273
 30
0.0
 11
55.5198
 21
3.78273
 31
0.0
  0
LINE
  8
0
 62
     0
 10
55.5198
 20
3.78273
 30
0.0
 11
55.5198
 21
6.88329
 31
0.0
  0
LINE
  8
0
 62
     0
 10
55.5198
 20
6.88329
 30
0.0
 11
54.719
 21
6.88329
 31
0.0
  0
LINE
  8
0
 62
     0
 10
54.719
 20
6.88329
 30
0.0
 11
54.719
 21
12.6835
 31
0.0
  0
LINE
  8
0
 62
     0
 10
54.719
 20
12.6835
 30
0.0
 11
55.5198
 21
12.6835
 31
0.0
  0
LINE
  8
0
 62
     0
 10
55.5198
 20
12.6835
 30
0.0
 11
55.5198
 21
15.7827
 31
0.0
  0
LINE
  8
0
 62
     0
 10
55.5198
 20
15.7827
 30
0.0
 11
54.719
 21
15.7827
 31
0.0
  0
LINE
  8
0
 62
     0
 10
54.719
 20
15.7827
 30
0.0
 11
54.719
 21
16.7831
 31
0.0
  0
LINE
  8
0
 62
     0
 10
54.719
 20
16.7831
 30
0.0
 11
40.7197
 21
16.7831
 31
0.0
  0
LINE
  8
0
 62
     0
 10
59.7697
 20
16.7831
 30
0.0
 11
59.7697
 21
15.7827
 31
0.0
  0
LINE
  8
0
 62
     0
 10
59.7697
 20
15.7827
 30
0.0
 11
58.9689
 21
15.7827
 31
0.0
  0
LINE
  8
0
 62
     0
 10
58.9689
 20
15.7827
 30
0.0
 11
58.9689
 21
12.6835
 31
0.0
  0
LINE
  8
0
 62
     0
 10
58.9689
 20
12.6835
 30
0.0
 11
59.7697
 21
12.6835
 31
0.0
  0
LINE
  8
0
 62
     0
 10
59.7697
 20
12.6835
 30
0.0
 11
59.7697
 21
6.88329
 31
0.0
  0
LINE
  8
0
 62
     0
 10
59.7697
 20
6.88329
 30
0.0
 11
58.9689
 21
6.88329
 31
0.0
  0
LINE
  8
0
 62
     0
 10
58.9689
 20
6.88329
 30
0.0
 11
58.9689
 21
3.78273
 31
0.0
  0
LINE
  8
0
 62
     0
 10
58.9689
 20
3.78273
 30
0.0
 11
59.7697
 21
3.78273
 31
0.0
  0
LINE
  8
0
 62
     0
 10
59.7697
 20
3.78273
 30
0.0
 11
59.7697
 21
2.78364
 31
0.0
  0
LINE
  8
0
 62
     0
 10
59.7697
 20
2.78364
 30
0.0
 11
73.769
 21
2.78364
 31
0.0
  0
LINE
  8
0
 62
     0
 10
73.769
 20
2.78364
 30
0.0
 11
73.769
 21
3.78273
 31
0.0
  0
LINE
  8
0
 62
     0
 10
73.769
 20
3.78273
 30
0.0
 11
74.5698
 21
3.78273
 31
0.0
  0
LINE
  8
0
 62
     0
 10
74.5698
 20
3.78273
 30
0.0
 11
74.5698
 21
6.88329
 31
0.0
  0
LINE
  8
0
 62
     0
 10
74.5698
 20
6.88329
 30
0.0
 11
73.769
 21
6.88329
 31
0.0
  0
LINE
  8
0
 62
     0
 10
73.769
 20
6.88329
 30
0.0
 11
73.769
 21
12.6835
 31
0.0
  0
LINE
  8
0
 62
     0
 10
73.769
 20
12.6835
 30
0.0
 11
74.5698
 21
12.6835
 31
0.0
  0
LINE
  8
0
 62
     0
 10
74.5698
 20
12.6835
 30
0.0
 11
74.5698
 21
15.7827
 31
0.0
  0
LINE
  8
0
 62
     0
 10
74.5698
 20
15.7827
 30
0.0
 11
73.769
 21
15.7827
 31
0.0
  0
LINE
  8
0
 62
     0
 10
73.769
 20
15.7827
 30
0.0
 11
73.769
 21
16.7831
 31
0.0
  0
LINE
  8
0
 62
     0
 10
73.769
 20
16.7831
 30
0.0
 11
59.7697
 21
16.7831
 31
0.0
  0
LINE
  8
0
 62
     0
 10
78.8197
 20
16.7831
 30
0.0
 11
78.8197
 21
15.7827
 31
0.0
  0
LINE
  8
0
 62
     0
 10
78.8197
 20
15.7827
 30
0.0
 11
78.0189
 21
15.7827
 31
0.0
  0
LINE
  8
0
 62
     0
 10
78.0189
 20
15.7827
 30
0.0
 11
78.0189
 21
12.6835
 31
0.0
  0
LINE
  8
0
 62
     0
 10
78.0189
 20
12.6835
 30
0.0
 11
78.8197
 21
12.6835
 31
0.0
  0
LINE
  8
0
 62
     0
 10
78.8197
 20
12.6835
 30
0.0
 11
78.8197
 21
6.88329
 31
0.0
  0
LINE
  8
0
 62
     0
 10
78.8197
 20
6.88329
 30
0.0
 11
78.0189
 21
6.88329
 31
0.0
  0
LINE
  8
0
 62
     0
 10
78.0189
 20
6.88329
 30
0.0
 11
78.0189
 21
3.78273
 31
0.0
  0
LINE
  8
0
 62
     0
 10
78.0189
 20
3.78273
 30
0.0
 11
78.8197
 21
3.78273
 31
0.0
  0
LINE
  8
0
 62
     0
 10
78.8197
 20
3.78273
 30
0.0
 11
78.8197
 21
2.78364
 31
0.0
  0
LINE
  8
0
 62
     0
 10
78.8197
 20
2.78364
 30
0.0
 11
92.819
 21
2.78364
 31
0.0
  0
LINE
  8
0
 62
     0
 10
92.819
 20
2.78364
 30
0.0
 11
92.819
 21
3.78273
 31
0.0
  0
LINE
  8
0
 62
     0
 10
92.819
 20
3.78273
 30
0.0
 11
93.6184
 21
3.78273
 31
0.0
  0
LINE
  8
0
 62
     0
 10
93.6184
 20
3.78273
 30
0.0
 11
93.6184
 21
6.88329
 31
0.0
  0
LINE
  8
0
 62
     0
 10
93.6184
 20
6.88329
 30
0.0
 11
92.819
 21
6.88329
 31
0.0
  0
LINE
  8
0
 62
     0
 10
92.819
 20
6.88329
 30
0.0
 11
92.819
 21
12.6835
 31
0.0
  0
LINE
  8
0
 62
     0
 10
92.819
 20
12.6835
 30
0.0
 11
93.6184
 21
12.6835
 31
0.0
  0
LINE
  8
0
 62
     0
 10
93.6184
 20
12.6835
 30
0.0
 11
93.6184
 21
15.7827
 31
0.0
  0
LINE
  8
0
 62
     0
 10
93.6184
 20
15.7827
 30
0.0
 11
92.819
 21
15.7827
 31
0.0
  0
LINE
  8
0
 62
     0
 10
92.819
 20
15.7827
 30
0.0
 11
92.819
 21
16.7831
 31
0.0
  0
LINE
  8
0
 62
     0
 10
92.819
 20
16.7831
 30
0.0
 11
78.8197
 21
16.7831
 31
0.0
  0
LINE
  8
0
 62
     0
 10
183.595
 20
16.7831
 30
0.0
 11
183.595
 21
15.7827
 31
0.0
  0
LINE
  8
0
 62
     0
 10
183.595
 20
15.7827
 30
0.0
 11
182.794
 21
15.7827
 31
0.0
  0
LINE
  8
0
 62
     0
 10
182.794
 20
15.7827
 30
0.0
 11
182.794
 21
12.6835
 31
0.0
  0
LINE
  8
0
 62
     0
 10
182.794
 20
12.6835
 30
0.0
 11
183.595
 21
12.6835
 31
0.0
  0
LINE
  8
0
 62
     0
 10
183.595
 20
12.6835
 30
0.0
 11
183.595
 21
6.88329
 31
0.0
  0
LINE
  8
0
 62
     0
 10
183.595
 20
6.88329
 30
0.0
 11
182.794
 21
6.88329
 31
0.0
  0
LINE
  8
0
 62
     0
 10
182.794
 20
6.88329
 30
0.0
 11
182.794
 21
3.78273
 31
0.0
  0
LINE
  8
0
 62
     0
 10
182.794
 20
3.78273
 30
0.0
 11
183.595
 21
3.78273
 31
0.0
  0
LINE
  8
0
 62
     0
 10
183.595
 20
3.78273
 30
0.0
 11
183.595
 21
2.78364
 31
0.0
  0
LINE
  8
0
 62
     0
 10
183.595
 20
2.78364
 30
0.0
 11
197.594
 21
2.78364
 31
0.0
  0
LINE
  8
0
 62
     0
 10
197.594
 20
2.78364
 30
0.0
 11
197.594
 21
3.78273
 31
0.0
  0
LINE
  8
0
 62
     0
 10
197.594
 20
3.78273
 30
0.0
 11
198.395
 21
3.78273
 31
0.0
  0
LINE
  8
0
 62
     0
 10
198.395
 20
3.78273
 30
0.0
 11
198.395
 21
6.88329
 31
0.0
  0
LINE
  8
0
 62
     0
 10
198.395
 20
6.88329
 30
0.0
 11
197.594
 21
6.88329
 31
0.0
  0
LINE
  8
0
 62
     0
 10
197.594
 20
6.88329
 30
0.0
 11
197.594
 21
12.6835
 31
0.0
  0
LINE
  8
0
 62
     0
 10
197.594
 20
12.6835
 30
0.0
 11
198.395
 21
12.6835
 31
0.0
  0
LINE
  8
0
 62
     0
 10
198.395
 20
12.6835
 30
0.0
 11
198.395
 21
15.7827
 31
0.0
  0
LINE
  8
0
 62
     0
 10
198.395
 20
15.7827
 30
0.0
 11
197.594
 21
15.7827
 31
0.0
  0
LINE
  8
0
 62
     0
 10
197.594
 20
15.7827
 30
0.0
 11
197.594
 21
16.7831
 31
0.0
  0
LINE
  8
0
 62
     0
 10
197.594
 20
16.7831
 30
0.0
 11
183.595
 21
16.7831
 31
0.0
  0
LINE
  8
0
 62
     0
 10
202.645
 20
16.7831
 30
0.0
 11
202.645
 21
15.7827
 31
0.0
  0
LINE
  8
0
 62
     0
 10
202.645
 20
15.7827
 30
0.0
 11
201.844
 21
15.7827
 31
0.0
  0
LINE
  8
0
 62
     0
 10
201.844
 20
15.7827
 30
0.0
 11
201.844
 21
12.6835
 31
0.0
  0
LINE
  8
0
 62
     0
 10
201.844
 20
12.6835
 30
0.0
 11
202.645
 21
12.6835
 31
0.0
  0
LINE
  8
0
 62
     0
 10
202.645
 20
12.6835
 30
0.0
 11
202.645
 21
6.88329
 31
0.0
  0
LINE
  8
0
 62
     0
 10
202.645
 20
6.88329
 30
0.0
 11
201.844
 21
6.88329
 31
0.0
  0
LINE
  8
0
 62
     0
 10
201.844
 20
6.88329
 30
0.0
 11
201.844
 21
3.78273
 31
0.0
  0
LINE
  8
0
 62
     0
 10
201.844
 20
3.78273
 30
0.0
 11
202.645
 21
3.78273
 31
0.0
  0
LINE
  8
0
 62
     0
 10
202.645
 20
3.78273
 30
0.0
 11
202.645
 21
2.78364
 31
0.0
  0
LINE
  8
0
 62
     0
 10
202.645
 20
2.78364
 30
0.0
 11
216.644
 21
2.78364
 31
0.0
  0
LINE
  8
0
 62
     0
 10
216.644
 20
2.78364
 30
0.0
 11
216.644
 21
3.78273
 31
0.0
  0
LINE
  8
0
 62
     0
 10
216.644
 20
3.78273
 30
0.0
 11
217.445
 21
3.78273
 31
0.0
  0
LINE
  8
0
 62
     0
 10
217.445
 20
3.78273
 30
0.0
 11
217.445
 21
6.88329
 31
0.0
  0
LINE
  8
0
 62
     0
 10
217.445
 20
6.88329
 30
0.0
 11
216.644
 21
6.88329
 31
0.0
  0
LINE
  8
0
 62
     0
 10
216.644
 20
6.88329
 30
0.0
 11
216.644
 21
12.6835
 31
0.0
  0
LINE
  8
0
 62
     0
 10
216.644
 20
12.6835
 30
0.0
 11
217.445
 21
12.6835
 31
0.0
  0
LINE
  8
0
 62
     0
 10
217.445
 20
12.6835
 30
0.0
 11
217.445
 21
15.7827
 31
0.0
  0
LINE
  8
0
 62
     0
 10
217.445
 20
15.7827
 30
0.0
 11
216.644
 21
15.7827
 31
0.0
  0
LINE
  8
0
 62
     0
 10
216.644
 20
15.7827
 30
0.0
 11
216.644
 21
16.7831
 31
0.0
  0
LINE
  8
0
 62
     0
 10
216.644
 20
16.7831
 30
0.0
 11
202.645
 21
16.7831
 31
0.0
  0
LINE
  8
0
 62
     0
 10
221.695
 20
16.7831
 30
0.0
 11
221.695
 21
15.7827
 31
0.0
  0
LINE
  8
0
 62
     0
 10
221.695
 20
15.7827
 30
0.0
 11
220.894
 21
15.7827
 31
0.0
  0
LINE
  8
0
 62
     0
 10
220.894
 20
15.7827
 30
0.0
 11
220.894
 21
12.6835
 31
0.0
  0
LINE
  8
0
 62
     0
 10
220.894
 20
12.6835
 30
0.0
 11
221.695
 21
12.6835
 31
0.0
  0
LINE
  8
0
 62
     0
 10
221.695
 20
12.6835
 30
0.0
 11
221.695
 21
6.88329
 31
0.0
  0
LINE
  8
0
 62
     0
 10
221.695
 20
6.88329
 30
0.0
 11
220.894
 21
6.88329
 31
0.0
  0
LINE
  8
0
 62
     0
 10
220.894
 20
6.88329
 30
0.0
 11
220.894
 21
3.78273
 31
0.0
  0
LINE
  8
0
 62
     0
 10
220.894
 20
3.78273
 30
0.0
 11
221.695
 21
3.78273
 31
0.0
  0
LINE
  8
0
 62
     0
 10
221.695
 20
3.78273
 30
0.0
 11
221.695
 21
2.78364
 31
0.0
  0
LINE
  8
0
 62
     0
 10
221.695
 20
2.78364
 30
0.0
 11
235.694
 21
2.78364
 31
0.0
  0
LINE
  8
0
 62
     0
 10
235.694
 20
2.78364
 30
0.0
 11
235.694
 21
3.78273
 31
0.0
  0
LINE
  8
0
 62
     0
 10
235.694
 20
3.78273
 30
0.0
 11
236.495
 21
3.78273
 31
0.0
  0
LINE
  8
0
 62
     0
 10
236.495
 20
3.78273
 30
0.0
 11
236.495
 21
6.88329
 31
0.0
  0
LINE
  8
0
 62
     0
 10
236.495
 20
6.88329
 30
0.0
 11
235.694
 21
6.88329
 31
0.0
  0
LINE
  8
0
 62
     0
 10
235.694
 20
6.88329
 30
0.0
 11
235.694
 21
12.6835
 31
0.0
  0
LINE
  8
0
 62
     0
 10
235.694
 20
12.6835
 30
0.0
 11
236.495
 21
12.6835
 31
0.0
  0
LINE
  8
0
 62
     0
 10
236.495
 20
12.6835
 30
0.0
 11
236.495
 21
15.7827
 31
0.0
  0
LINE
  8
0
 62
     0
 10
236.495
 20
15.7827
 30
0.0
 11
235.694
 21
15.7827
 31
0.0
  0
LINE
  8
0
 62
     0
 10
235.694
 20
15.7827
 30
0.0
 11
235.694
 21
16.7831
 31
0.0
  0
LINE
  8
0
 62
     0
 10
235.694
 20
16.7831
 30
0.0
 11
221.695
 21
16.7831
 31
0.0
  0
LINE
  8
0
 62
     0
 10
240.745
 20
16.7831
 30
0.0
 11
240.745
 21
15.7827
 31
0.0
  0
LINE
  8
0
 62
     0
 10
240.745
 20
15.7827
 30
0.0
 11
239.944
 21
15.7827
 31
0.0
  0
LINE
  8
0
 62
     0
 10
239.944
 20
15.7827
 30
0.0
 11
239.944
 21
12.6835
 31
0.0
  0
LINE
  8
0
 62
     0
 10
239.944
 20
12.6835
 30
0.0
 11
240.745
 21
12.6835
 31
0.0
  0
LINE
  8
0
 62
     0
 10
240.745
 20
12.6835
 30
0.0
 11
240.745
 21
6.88329
 31
0.0
  0
LINE
  8
0
 62
     0
 10
240.745
 20
6.88329
 30
0.0
 11
239.944
 21
6.88329
 31
0.0
  0
LINE
  8
0
 62
     0
 10
239.944
 20
6.88329
 30
0.0
 11
239.944
 21
3.78273
 31
0.0
  0
LINE
  8
0
 62
     0
 10
239.944
 20
3.78273
 30
0.0
 11
240.745
 21
3.78273
 31
0.0
  0
LINE
  8
0
 62
     0
 10
240.745
 20
3.78273
 30
0.0
 11
240.745
 21
2.78364
 31
0.0
  0
LINE
  8
0
 62
     0
 10
240.745
 20
2.78364
 30
0.0
 11
254.744
 21
2.78364
 31
0.0
  0
LINE
  8
0
 62
     0
 10
254.744
 20
2.78364
 30
0.0
 11
254.744
 21
3.78273
 31
0.0
  0
LINE
  8
0
 62
     0
 10
254.744
 20
3.78273
 30
0.0
 11
255.545
 21
3.78273
 31
0.0
  0
LINE
  8
0
 62
     0
 10
255.545
 20
3.78273
 30
0.0
 11
255.545
 21
6.88329
 31
0.0
  0
LINE
  8
0
 62
     0
 10
255.545
 20
6.88329
 30
0.0
 11
254.744
 21
6.88329
 31
0.0
  0
LINE
  8
0
 62
     0
 10
254.744
 20
6.88329
 30
0.0
 11
254.744
 21
12.6835
 31
0.0
  0
LINE
  8
0
 62
     0
 10
254.744
 20
12.6835
 30
0.0
 11
255.545
 21
12.6835
 31
0.0
  0
LINE
  8
0
 62
     0
 10
255.545
 20
12.6835
 30
0.0
 11
255.545
 21
15.7827
 31
0.0
  0
LINE
  8
0
 62
     0
 10
255.545
 20
15.7827
 30
0.0
 11
254.744
 21
15.7827
 31
0.0
  0
LINE
  8
0
 62
     0
 10
254.744
 20
15.7827
 30
0.0
 11
254.744
 21
16.7831
 31
0.0
  0
LINE
  8
0
 62
     0
 10
254.744
 20
16.7831
 30
0.0
 11
240.745
 21
16.7831
 31
0.0
  0
LINE
  8
0
 62
     0
 10
14.5259
 20
35.833
 30
0.0
 11
14.5259
 21
34.8327
 31
0.0
  0
LINE
  8
0
 62
     0
 10
14.5259
 20
34.8327
 30
0.0
 11
13.7253
 21
34.8327
 31
0.0
  0
LINE
  8
0
 62
     0
 10
13.7253
 20
34.8327
 30
0.0
 11
13.7253
 21
31.7335
 31
0.0
  0
LINE
  8
0
 62
     0
 10
13.7253
 20
31.7335
 30
0.0
 11
14.5259
 21
31.7335
 31
0.0
  0
LINE
  8
0
 62
     0
 10
14.5259
 20
31.7335
 30
0.0
 11
14.5259
 21
31.1326
 31
0.0
  0
LINE
  8
0
 62
     0
 10
14.5259
 20
31.1326
 30
0.0
 11
13.0004
 21
31.1326
 31
0.0
  0
LINE
  8
0
 62
     0
 10
13.0004
 20
31.1326
 30
0.0
 11
13.0004
 21
34.3628
 31
0.0
  0
LINE
  8
0
 62
     0
 10
13.0004
 20
34.3628
 30
0.0
 11
6.2508
 21
34.3628
 31
0.0
  0
LINE
  8
0
 62
     0
 10
6.2508
 20
34.3628
 30
0.0
 11
6.2508
 21
31.1326
 31
0.0
  0
LINE
  8
0
 62
     0
 10
6.2508
 20
31.1326
 30
0.0
 11
5.42533
 21
31.1326
 31
0.0
  0
LINE
  8
0
 62
     0
 10
5.42533
 20
31.1326
 30
0.0
 11
5.42533
 21
28.3338
 31
0.0
  0
LINE
  8
0
 62
     0
 10
5.42533
 20
28.3338
 30
0.0
 11
6.2508
 21
28.3338
 31
0.0
  0
LINE
  8
0
 62
     0
 10
6.2508
 20
28.3338
 30
0.0
 11
6.2508
 21
22.0638
 31
0.0
  0
LINE
  8
0
 62
     0
 10
6.2508
 20
22.0638
 30
0.0
 11
7.97609
 21
22.0638
 31
0.0
  0
LINE
  8
0
 62
     0
 10
7.97609
 20
22.0638
 30
0.0
 11
7.97609
 21
20.8635
 31
0.0
  0
LINE
  8
0
 62
     0
 10
7.97609
 20
20.8635
 30
0.0
 11
11.2751
 21
20.8635
 31
0.0
  0
LINE
  8
0
 62
     0
 10
11.2751
 20
20.8635
 30
0.0
 11
11.2751
 21
22.0638
 31
0.0
  0
LINE
  8
0
 62
     0
 10
11.2751
 20
22.0638
 30
0.0
 11
13.0004
 21
22.0638
 31
0.0
  0
LINE
  8
0
 62
     0
 10
13.0004
 20
22.0638
 30
0.0
 11
13.0004
 21
26.5327
 31
0.0
  0
LINE
  8
0
 62
     0
 10
13.0004
 20
26.5327
 30
0.0
 11
14.5259
 21
26.5327
 31
0.0
  0
LINE
  8
0
 62
     0
 10
14.5259
 20
26.5327
 30
0.0
 11
14.5259
 21
25.9333
 31
0.0
  0
LINE
  8
0
 62
     0
 10
14.5259
 20
25.9333
 30
0.0
 11
13.7253
 21
25.9333
 31
0.0
  0
LINE
  8
0
 62
     0
 10
13.7253
 20
25.9333
 30
0.0
 11
13.7253
 21
22.8327
 31
0.0
  0
LINE
  8
0
 62
     0
 10
13.7253
 20
22.8327
 30
0.0
 11
14.5259
 21
22.8327
 31
0.0
  0
LINE
  8
0
 62
     0
 10
14.5259
 20
22.8327
 30
0.0
 11
14.5259
 21
21.8336
 31
0.0
  0
LINE
  8
0
 62
     0
 10
14.5259
 20
21.8336
 30
0.0
 11
28.5254
 21
21.8336
 31
0.0
  0
LINE
  8
0
 62
     0
 10
28.5254
 20
21.8336
 30
0.0
 11
28.5254
 21
22.8327
 31
0.0
  0
LINE
  8
0
 62
     0
 10
28.5254
 20
22.8327
 30
0.0
 11
29.326
 21
22.8327
 31
0.0
  0
LINE
  8
0
 62
     0
 10
29.326
 20
22.8327
 30
0.0
 11
29.326
 21
25.9333
 31
0.0
  0
LINE
  8
0
 62
     0
 10
29.326
 20
25.9333
 30
0.0
 11
28.5254
 21
25.9333
 31
0.0
  0
LINE
  8
0
 62
     0
 10
28.5254
 20
25.9333
 30
0.0
 11
28.5254
 21
26.5327
 31
0.0
  0
LINE
  8
0
 62
     0
 10
28.5254
 20
26.5327
 30
0.0
 11
30.0509
 21
26.5327
 31
0.0
  0
LINE
  8
0
 62
     0
 10
30.0509
 20
26.5327
 30
0.0
 11
30.0509
 21
22.0638
 31
0.0
  0
LINE
  8
0
 62
     0
 10
30.0509
 20
22.0638
 30
0.0
 11
31.7748
 21
22.0638
 31
0.0
  0
LINE
  8
0
 62
     0
 10
31.7748
 20
22.0638
 30
0.0
 11
31.7748
 21
20.8635
 31
0.0
  0
LINE
  8
0
 62
     0
 10
31.7748
 20
20.8635
 30
0.0
 11
35.0752
 21
20.8635
 31
0.0
  0
LINE
  8
0
 62
     0
 10
35.0752
 20
20.8635
 30
0.0
 11
35.0752
 21
22.0638
 31
0.0
  0
LINE
  8
0
 62
     0
 10
35.0752
 20
22.0638
 30
0.0
 11
36.8004
 21
22.0638
 31
0.0
  0
LINE
  8
0
 62
     0
 10
36.8004
 20
22.0638
 30
0.0
 11
36.8004
 21
28.3338
 31
0.0
  0
LINE
  8
0
 62
     0
 10
36.8004
 20
28.3338
 30
0.0
 11
37.6259
 21
28.3338
 31
0.0
  0
LINE
  8
0
 62
     0
 10
37.6259
 20
28.3338
 30
0.0
 11
37.6259
 21
31.1326
 31
0.0
  0
LINE
  8
0
 62
     0
 10
37.6259
 20
31.1326
 30
0.0
 11
36.8004
 21
31.1326
 31
0.0
  0
LINE
  8
0
 62
     0
 10
36.8004
 20
31.1326
 30
0.0
 11
36.8004
 21
34.3628
 31
0.0
  0
LINE
  8
0
 62
     0
 10
36.8004
 20
34.3628
 30
0.0
 11
30.0509
 21
34.3628
 31
0.0
  0
LINE
  8
0
 62
     0
 10
30.0509
 20
34.3628
 30
0.0
 11
30.0509
 21
31.1326
 31
0.0
  0
LINE
  8
0
 62
     0
 10
30.0509
 20
31.1326
 30
0.0
 11
28.5254
 21
31.1326
 31
0.0
  0
LINE
  8
0
 62
     0
 10
28.5254
 20
31.1326
 30
0.0
 11
28.5254
 21
31.7335
 31
0.0
  0
LINE
  8
0
 62
     0
 10
28.5254
 20
31.7335
 30
0.0
 11
29.326
 21
31.7335
 31
0.0
  0
LINE
  8
0
 62
     0
 10
29.326
 20
31.7335
 30
0.0
 11
29.326
 21
34.8327
 31
0.0
  0
LINE
  8
0
 62
     0
 10
29.326
 20
34.8327
 30
0.0
 11
28.5254
 21
34.8327
 31
0.0
  0
LINE
  8
0
 62
     0
 10
28.5254
 20
34.8327
 30
0.0
 11
28.5254
 21
35.833
 31
0.0
  0
LINE
  8
0
 62
     0
 10
28.5254
 20
35.833
 30
0.0
 11
14.5259
 21
35.833
 31
0.0
  0
LINE
  8
0
 62
     0
 10
228.837
 20
35.833
 30
0.0
 11
228.837
 21
34.8327
 31
0.0
  0
LINE
  8
0
 62
     0
 10
228.837
 20
34.8327
 30
0.0
 11
228.038
 21
34.8327
 31
0.0
  0
LINE
  8
0
 62
     0
 10
228.038
 20
34.8327
 30
0.0
 11
228.038
 21
31.7335
 31
0.0
  0
LINE
  8
0
 62
     0
 10
228.038
 20
31.7335
 30
0.0
 11
228.837
 21
31.7335
 31
0.0
  0
LINE
  8
0
 62
     0
 10
228.837
 20
31.7335
 30
0.0
 11
228.837
 21
31.1326
 31
0.0
  0
LINE
  8
0
 62
     0
 10
228.837
 20
31.1326
 30
0.0
 11
227.313
 21
31.1326
 31
0.0
  0
LINE
  8
0
 62
     0
 10
227.313
 20
31.1326
 30
0.0
 11
227.313
 21
34.3628
 31
0.0
  0
LINE
  8
0
 62
     0
 10
227.313
 20
34.3628
 30
0.0
 11
220.562
 21
34.3628
 31
0.0
  0
LINE
  8
0
 62
     0
 10
220.562
 20
34.3628
 30
0.0
 11
220.562
 21
31.1326
 31
0.0
  0
LINE
  8
0
 62
     0
 10
220.562
 20
31.1326
 30
0.0
 11
219.738
 21
31.1326
 31
0.0
  0
LINE
  8
0
 62
     0
 10
219.738
 20
31.1326
 30
0.0
 11
219.738
 21
28.3338
 31
0.0
  0
LINE
  8
0
 62
     0
 10
219.738
 20
28.3338
 30
0.0
 11
220.562
 21
28.3338
 31
0.0
  0
LINE
  8
0
 62
     0
 10
220.562
 20
28.3338
 30
0.0
 11
220.562
 21
22.0638
 31
0.0
  0
LINE
  8
0
 62
     0
 10
220.562
 20
22.0638
 30
0.0
 11
222.287
 21
22.0638
 31
0.0
  0
LINE
  8
0
 62
     0
 10
222.287
 20
22.0638
 30
0.0
 11
222.287
 21
20.8635
 31
0.0
  0
LINE
  8
0
 62
     0
 10
222.287
 20
20.8635
 30
0.0
 11
225.588
 21
20.8635
 31
0.0
  0
LINE
  8
0
 62
     0
 10
225.588
 20
20.8635
 30
0.0
 11
225.588
 21
22.0638
 31
0.0
  0
LINE
  8
0
 62
     0
 10
225.588
 20
22.0638
 30
0.0
 11
227.313
 21
22.0638
 31
0.0
  0
LINE
  8
0
 62
     0
 10
227.313
 20
22.0638
 30
0.0
 11
227.313
 21
26.5327
 31
0.0
  0
LINE
  8
0
 62
     0
 10
227.313
 20
26.5327
 30
0.0
 11
228.837
 21
26.5327
 31
0.0
  0
LINE
  8
0
 62
     0
 10
228.837
 20
26.5327
 30
0.0
 11
228.837
 21
25.9333
 31
0.0
  0
LINE
  8
0
 62
     0
 10
228.837
 20
25.9333
 30
0.0
 11
228.038
 21
25.9333
 31
0.0
  0
LINE
  8
0
 62
     0
 10
228.038
 20
25.9333
 30
0.0
 11
228.038
 21
22.8327
 31
0.0
  0
LINE
  8
0
 62
     0
 10
228.038
 20
22.8327
 30
0.0
 11
228.837
 21
22.8327
 31
0.0
  0
LINE
  8
0
 62
     0
 10
228.837
 20
22.8327
 30
0.0
 11
228.837
 21
21.8336
 31
0.0
  0
LINE
  8
0
 62
     0
 10
228.837
 20
21.8336
 30
0.0
 11
242.838
 21
21.8336
 31
0.0
  0
LINE
  8
0
 62
     0
 10
242.838
 20
21.8336
 30
0.0
 11
242.838
 21
22.8327
 31
0.0
  0
LINE
  8
0
 62
     0
 10
242.838
 20
22.8327
 30
0.0
 11
243.637
 21
22.8327
 31
0.0
  0
LINE
  8
0
 62
     0
 10
243.637
 20
22.8327
 30
0.0
 11
243.637
 21
25.9333
 31
0.0
  0
LINE
  8
0
 62
     0
 10
243.637
 20
25.9333
 30
0.0
 11
242.838
 21
25.9333
 31
0.0
  0
LINE
  8
0
 62
     0
 10
242.838
 20
25.9333
 30
0.0
 11
242.838
 21
26.5327
 31
0.0
  0
LINE
  8
0
 62
     0
 10
242.838
 20
26.5327
 30
0.0
 11
244.362
 21
26.5327
 31
0.0
  0
LINE
  8
0
 62
     0
 10
244.362
 20
26.5327
 30
0.0
 11
244.362
 21
22.0638
 31
0.0
  0
LINE
  8
0
 62
     0
 10
244.362
 20
22.0638
 30
0.0
 11
246.087
 21
22.0638
 31
0.0
  0
LINE
  8
0
 62
     0
 10
246.087
 20
22.0638
 30
0.0
 11
246.087
 21
20.8635
 31
0.0
  0
LINE
  8
0
 62
     0
 10
246.087
 20
20.8635
 30
0.0
 11
249.388
 21
20.8635
 31
0.0
  0
LINE
  8
0
 62
     0
 10
249.388
 20
20.8635
 30
0.0
 11
249.388
 21
22.0638
 31
0.0
  0
LINE
  8
0
 62
     0
 10
249.388
 20
22.0638
 30
0.0
 11
251.112
 21
22.0638
 31
0.0
  0
LINE
  8
0
 62
     0
 10
251.112
 20
22.0638
 30
0.0
 11
251.112
 21
28.3338
 31
0.0
  0
LINE
  8
0
 62
     0
 10
251.112
 20
28.3338
 30
0.0
 11
251.937
 21
28.3338
 31
0.0
  0
LINE
  8
0
 62
     0
 10
251.937
 20
28.3338
 30
0.0
 11
251.937
 21
31.1326
 31
0.0
  0
LINE
  8
0
 62
     0
 10
251.937
 20
31.1326
 30
0.0
 11
251.112
 21
31.1326
 31
0.0
  0
LINE
  8
0
 62
     0
 10
251.112
 20
31.1326
 30
0.0
 11
251.112
 21
34.3628
 31
0.0
  0
LINE
  8
0
 62
     0
 10
251.112
 20
34.3628
 30
0.0
 11
244.362
 21
34.3628
 31
0.0
  0
LINE
  8
0
 62
     0
 10
244.362
 20
34.3628
 30
0.0
 11
244.362
 21
31.1326
 31
0.0
  0
LINE
  8
0
 62
     0
 10
244.362
 20
31.1326
 30
0.0
 11
242.838
 21
31.1326
 31
0.0
  0
LINE
  8
0
 62
     0
 10
242.838
 20
31.1326
 30
0.0
 11
242.838
 21
31.7335
 31
0.0
  0
LINE
  8
0
 62
     0
 10
242.838
 20
31.7335
 30
0.0
 11
243.637
 21
31.7335
 31
0.0
  0
LINE
  8
0
 62
     0
 10
243.637
 20
31.7335
 30
0.0
 11
243.637
 21
34.8327
 31
0.0
  0
LINE
  8
0
 62
     0
 10
243.637
 20
34.8327
 30
0.0
 11
242.838
 21
34.8327
 31
0.0
  0
LINE
  8
0
 62
     0
 10
242.838
 20
34.8327
 30
0.0
 11
242.838
 21
35.833
 31
0.0
  0
LINE
  8
0
 62
     0
 10
242.838
 20
35.833
 30
0.0
 11
228.837
 21
35.833
 31
0.0
  0
LINE
  8
0
 62
     0
 10
45.4822
 20
35.833
 30
0.0
 11
45.4822
 21
34.8327
 31
0.0
  0
LINE
  8
0
 62
     0
 10
45.4822
 20
34.8327
 30
0.0
 11
44.6814
 21
34.8327
 31
0.0
  0
LINE
  8
0
 62
     0
 10
44.6814
 20
34.8327
 30
0.0
 11
44.6814
 21
31.7335
 31
0.0
  0
LINE
  8
0
 62
     0
 10
44.6814
 20
31.7335
 30
0.0
 11
45.4822
 21
31.7335
 31
0.0
  0
LINE
  8
0
 62
     0
 10
45.4822
 20
31.7335
 30
0.0
 11
45.4822
 21
25.9333
 31
0.0
  0
LINE
  8
0
 62
     0
 10
45.4822
 20
25.9333
 30
0.0
 11
44.6814
 21
25.9333
 31
0.0
  0
LINE
  8
0
 62
     0
 10
44.6814
 20
25.9333
 30
0.0
 11
44.6814
 21
22.8327
 31
0.0
  0
LINE
  8
0
 62
     0
 10
44.6814
 20
22.8327
 30
0.0
 11
45.4822
 21
22.8327
 31
0.0
  0
LINE
  8
0
 62
     0
 10
45.4822
 20
22.8327
 30
0.0
 11
45.4822
 21
21.8336
 31
0.0
  0
LINE
  8
0
 62
     0
 10
45.4822
 20
21.8336
 30
0.0
 11
59.4815
 21
21.8336
 31
0.0
  0
LINE
  8
0
 62
     0
 10
59.4815
 20
21.8336
 30
0.0
 11
59.4815
 21
22.8327
 31
0.0
  0
LINE
  8
0
 62
     0
 10
59.4815
 20
22.8327
 30
0.0
 11
60.2809
 21
22.8327
 31
0.0
  0
LINE
  8
0
 62
     0
 10
60.2809
 20
22.8327
 30
0.0
 11
60.2809
 21
25.9333
 31
0.0
  0
LINE
  8
0
 62
     0
 10
60.2809
 20
25.9333
 30
0.0
 11
59.4815
 21
25.9333
 31
0.0
  0
LINE
  8
0
 62
     0
 10
59.4815
 20
25.9333
 30
0.0
 11
59.4815
 21
31.7335
 31
0.0
  0
LINE
  8
0
 62
     0
 10
59.4815
 20
31.7335
 30
0.0
 11
60.2809
 21
31.7335
 31
0.0
  0
LINE
  8
0
 62
     0
 10
60.2809
 20
31.7335
 30
0.0
 11
60.2809
 21
34.8327
 31
0.0
  0
LINE
  8
0
 62
     0
 10
60.2809
 20
34.8327
 30
0.0
 11
59.4815
 21
34.8327
 31
0.0
  0
LINE
  8
0
 62
     0
 10
59.4815
 20
34.8327
 30
0.0
 11
59.4815
 21
35.833
 31
0.0
  0
LINE
  8
0
 62
     0
 10
59.4815
 20
35.833
 30
0.0
 11
45.4822
 21
35.833
 31
0.0
  0
LINE
  8
0
 62
     0
 10
64.5322
 20
35.833
 30
0.0
 11
64.5322
 21
34.8327
 31
0.0
  0
LINE
  8
0
 62
     0
 10
64.5322
 20
34.8327
 30
0.0
 11
63.7314
 21
34.8327
 31
0.0
  0
LINE
  8
0
 62
     0
 10
63.7314
 20
34.8327
 30
0.0
 11
63.7314
 21
31.7335
 31
0.0
  0
LINE
  8
0
 62
     0
 10
63.7314
 20
31.7335
 30
0.0
 11
64.5322
 21
31.7335
 31
0.0
  0
LINE
  8
0
 62
     0
 10
64.5322
 20
31.7335
 30
0.0
 11
64.5322
 21
25.9333
 31
0.0
  0
LINE
  8
0
 62
     0
 10
64.5322
 20
25.9333
 30
0.0
 11
63.7314
 21
25.9333
 31
0.0
  0
LINE
  8
0
 62
     0
 10
63.7314
 20
25.9333
 30
0.0
 11
63.7314
 21
22.8327
 31
0.0
  0
LINE
  8
0
 62
     0
 10
63.7314
 20
22.8327
 30
0.0
 11
64.5322
 21
22.8327
 31
0.0
  0
LINE
  8
0
 62
     0
 10
64.5322
 20
22.8327
 30
0.0
 11
64.5322
 21
21.8336
 31
0.0
  0
LINE
  8
0
 62
     0
 10
64.5322
 20
21.8336
 30
0.0
 11
78.5315
 21
21.8336
 31
0.0
  0
LINE
  8
0
 62
     0
 10
78.5315
 20
21.8336
 30
0.0
 11
78.5315
 21
22.8327
 31
0.0
  0
LINE
  8
0
 62
     0
 10
78.5315
 20
22.8327
 30
0.0
 11
79.3309
 21
22.8327
 31
0.0
  0
LINE
  8
0
 62
     0
 10
79.3309
 20
22.8327
 30
0.0
 11
79.3309
 21
25.9333
 31
0.0
  0
LINE
  8
0
 62
     0
 10
79.3309
 20
25.9333
 30
0.0
 11
78.5315
 21
25.9333
 31
0.0
  0
LINE
  8
0
 62
     0
 10
78.5315
 20
25.9333
 30
0.0
 11
78.5315
 21
31.7335
 31
0.0
  0
LINE
  8
0
 62
     0
 10
78.5315
 20
31.7335
 30
0.0
 11
79.3309
 21
31.7335
 31
0.0
  0
LINE
  8
0
 62
     0
 10
79.3309
 20
31.7335
 30
0.0
 11
79.3309
 21
34.8327
 31
0.0
  0
LINE
  8
0
 62
     0
 10
79.3309
 20
34.8327
 30
0.0
 11
78.5315
 21
34.8327
 31
0.0
  0
LINE
  8
0
 62
     0
 10
78.5315
 20
34.8327
 30
0.0
 11
78.5315
 21
35.833
 31
0.0
  0
LINE
  8
0
 62
     0
 10
78.5315
 20
35.833
 30
0.0
 11
64.5322
 21
35.833
 31
0.0
  0
LINE
  8
0
 62
     0
 10
83.5822
 20
35.833
 30
0.0
 11
83.5822
 21
34.8327
 31
0.0
  0
LINE
  8
0
 62
     0
 10
83.5822
 20
34.8327
 30
0.0
 11
82.7814
 21
34.8327
 31
0.0
  0
LINE
  8
0
 62
     0
 10
82.7814
 20
34.8327
 30
0.0
 11
82.7814
 21
31.7335
 31
0.0
  0
LINE
  8
0
 62
     0
 10
82.7814
 20
31.7335
 30
0.0
 11
83.5822
 21
31.7335
 31
0.0
  0
LINE
  8
0
 62
     0
 10
83.5822
 20
31.7335
 30
0.0
 11
83.5822
 21
25.9333
 31
0.0
  0
LINE
  8
0
 62
     0
 10
83.5822
 20
25.9333
 30
0.0
 11
82.7814
 21
25.9333
 31
0.0
  0
LINE
  8
0
 62
     0
 10
82.7814
 20
25.9333
 30
0.0
 11
82.7814
 21
22.8327
 31
0.0
  0
LINE
  8
0
 62
     0
 10
82.7814
 20
22.8327
 30
0.0
 11
83.5822
 21
22.8327
 31
0.0
  0
LINE
  8
0
 62
     0
 10
83.5822
 20
22.8327
 30
0.0
 11
83.5822
 21
21.8336
 31
0.0
  0
LINE
  8
0
 62
     0
 10
83.5822
 20
21.8336
 30
0.0
 11
97.5815
 21
21.8336
 31
0.0
  0
LINE
  8
0
 62
     0
 10
97.5815
 20
21.8336
 30
0.0
 11
97.5815
 21
22.8327
 31
0.0
  0
LINE
  8
0
 62
     0
 10
97.5815
 20
22.8327
 30
0.0
 11
98.3809
 21
22.8327
 31
0.0
  0
LINE
  8
0
 62
     0
 10
98.3809
 20
22.8327
 30
0.0
 11
98.3809
 21
25.9333
 31
0.0
  0
LINE
  8
0
 62
     0
 10
98.3809
 20
25.9333
 30
0.0
 11
97.5815
 21
25.9333
 31
0.0
  0
LINE
  8
0
 62
     0
 10
97.5815
 20
25.9333
 30
0.0
 11
97.5815
 21
31.7335
 31
0.0
  0
LINE
  8
0
 62
     0
 10
97.5815
 20
31.7335
 30
0.0
 11
98.3809
 21
31.7335
 31
0.0
  0
LINE
  8
0
 62
     0
 10
98.3809
 20
31.7335
 30
0.0
 11
98.3809
 21
34.8327
 31
0.0
  0
LINE
  8
0
 62
     0
 10
98.3809
 20
34.8327
 30
0.0
 11
97.5815
 21
34.8327
 31
0.0
  0
LINE
  8
0
 62
     0
 10
97.5815
 20
34.8327
 30
0.0
 11
97.5815
 21
35.833
 31
0.0
  0
LINE
  8
0
 62
     0
 10
97.5815
 20
35.833
 30
0.0
 11
83.5822
 21
35.833
 31
0.0
  0
LINE
  8
0
 62
     0
 10
102.632
 20
35.833
 30
0.0
 11
102.632
 21
34.8327
 31
0.0
  0
LINE
  8
0
 62
     0
 10
102.632
 20
34.8327
 30
0.0
 11
101.831
 21
34.8327
 31
0.0
  0
LINE
  8
0
 62
     0
 10
101.831
 20
34.8327
 30
0.0
 11
101.831
 21
31.7335
 31
0.0
  0
LINE
  8
0
 62
     0
 10
101.831
 20
31.7335
 30
0.0
 11
102.632
 21
31.7335
 31
0.0
  0
LINE
  8
0
 62
     0
 10
102.632
 20
31.7335
 30
0.0
 11
102.632
 21
25.9333
 31
0.0
  0
LINE
  8
0
 62
     0
 10
102.632
 20
25.9333
 30
0.0
 11
101.831
 21
25.9333
 31
0.0
  0
LINE
  8
0
 62
     0
 10
101.831
 20
25.9333
 30
0.0
 11
101.831
 21
22.8327
 31
0.0
  0
LINE
  8
0
 62
     0
 10
101.831
 20
22.8327
 30
0.0
 11
102.632
 21
22.8327
 31
0.0
  0
LINE
  8
0
 62
     0
 10
102.632
 20
22.8327
 30
0.0
 11
102.632
 21
21.8336
 31
0.0
  0
LINE
  8
0
 62
     0
 10
102.632
 20
21.8336
 30
0.0
 11
116.632
 21
21.8336
 31
0.0
  0
LINE
  8
0
 62
     0
 10
116.632
 20
21.8336
 30
0.0
 11
116.632
 21
22.8327
 31
0.0
  0
LINE
  8
0
 62
     0
 10
116.632
 20
22.8327
 30
0.0
 11
117.431
 21
22.8327
 31
0.0
  0
LINE
  8
0
 62
     0
 10
117.431
 20
22.8327
 30
0.0
 11
117.431
 21
25.9333
 31
0.0
  0
LINE
  8
0
 62
     0
 10
117.431
 20
25.9333
 30
0.0
 11
116.632
 21
25.9333
 31
0.0
  0
LINE
  8
0
 62
     0
 10
116.632
 20
25.9333
 30
0.0
 11
116.632
 21
31.7335
 31
0.0
  0
LINE
  8
0
 62
     0
 10
116.632
 20
31.7335
 30
0.0
 11
117.431
 21
31.7335
 31
0.0
  0
LINE
  8
0
 62
     0
 10
117.431
 20
31.7335
 30
0.0
 11
117.431
 21
34.8327
 31
0.0
  0
LINE
  8
0
 62
     0
 10
117.431
 20
34.8327
 30
0.0
 11
116.632
 21
34.8327
 31
0.0
  0
LINE
  8
0
 62
     0
 10
116.632
 20
34.8327
 30
0.0
 11
116.632
 21
35.833
 31
0.0
  0
LINE
  8
0
 62
     0
 10
116.632
 20
35.833
 30
0.0
 11
102.632
 21
35.833
 31
0.0
  0
LINE
  8
0
 62
     0
 10
121.682
 20
35.833
 30
0.0
 11
121.682
 21
34.8327
 31
0.0
  0
LINE
  8
0
 62
     0
 10
121.682
 20
34.8327
 30
0.0
 11
120.881
 21
34.8327
 31
0.0
  0
LINE
  8
0
 62
     0
 10
120.881
 20
34.8327
 30
0.0
 11
120.881
 21
31.7335
 31
0.0
  0
LINE
  8
0
 62
     0
 10
120.881
 20
31.7335
 30
0.0
 11
121.682
 21
31.7335
 31
0.0
  0
LINE
  8
0
 62
     0
 10
121.682
 20
31.7335
 30
0.0
 11
121.682
 21
25.9333
 31
0.0
  0
LINE
  8
0
 62
     0
 10
121.682
 20
25.9333
 30
0.0
 11
120.881
 21
25.9333
 31
0.0
  0
LINE
  8
0
 62
     0
 10
120.881
 20
25.9333
 30
0.0
 11
120.881
 21
22.8327
 31
0.0
  0
LINE
  8
0
 62
     0
 10
120.881
 20
22.8327
 30
0.0
 11
121.682
 21
22.8327
 31
0.0
  0
LINE
  8
0
 62
     0
 10
121.682
 20
22.8327
 30
0.0
 11
121.682
 21
21.8336
 31
0.0
  0
LINE
  8
0
 62
     0
 10
121.682
 20
21.8336
 30
0.0
 11
135.682
 21
21.8336
 31
0.0
  0
LINE
  8
0
 62
     0
 10
135.682
 20
21.8336
 30
0.0
 11
135.682
 21
22.8327
 31
0.0
  0
LINE
  8
0
 62
     0
 10
135.682
 20
22.8327
 30
0.0
 11
136.481
 21
22.8327
 31
0.0
  0
LINE
  8
0
 62
     0
 10
136.481
 20
22.8327
 30
0.0
 11
136.481
 21
25.9333
 31
0.0
  0
LINE
  8
0
 62
     0
 10
136.481
 20
25.9333
 30
0.0
 11
135.682
 21
25.9333
 31
0.0
  0
LINE
  8
0
 62
     0
 10
135.682
 20
25.9333
 30
0.0
 11
135.682
 21
31.7335
 31
0.0
  0
LINE
  8
0
 62
     0
 10
135.682
 20
31.7335
 30
0.0
 11
136.481
 21
31.7335
 31
0.0
  0
LINE
  8
0
 62
     0
 10
136.481
 20
31.7335
 30
0.0
 11
136.481
 21
34.8327
 31
0.0
  0
LINE
  8
0
 62
     0
 10
136.481
 20
34.8327
 30
0.0
 11
135.682
 21
34.8327
 31
0.0
  0
LINE
  8
0
 62
     0
 10
135.682
 20
34.8327
 30
0.0
 11
135.682
 21
35.833
 31
0.0
  0
LINE
  8
0
 62
     0
 10
135.682
 20
35.833
 30
0.0
 11
121.682
 21
35.833
 31
0.0
  0
LINE
  8
0
 62
     0
 10
140.732
 20
35.833
 30
0.0
 11
140.732
 21
34.8327
 31
0.0
  0
LINE
  8
0
 62
     0
 10
140.732
 20
34.8327
 30
0.0
 11
139.931
 21
34.8327
 31
0.0
  0
LINE
  8
0
 62
     0
 10
139.931
 20
34.8327
 30
0.0
 11
139.931
 21
31.7335
 31
0.0
  0
LINE
  8
0
 62
     0
 10
139.931
 20
31.7335
 30
0.0
 11
140.732
 21
31.7335
 31
0.0
  0
LINE
  8
0
 62
     0
 10
140.732
 20
31.7335
 30
0.0
 11
140.732
 21
25.9333
 31
0.0
  0
LINE
  8
0
 62
     0
 10
140.732
 20
25.9333
 30
0.0
 11
139.931
 21
25.9333
 31
0.0
  0
LINE
  8
0
 62
     0
 10
139.931
 20
25.9333
 30
0.0
 11
139.931
 21
22.8327
 31
0.0
  0
LINE
  8
0
 62
     0
 10
139.931
 20
22.8327
 30
0.0
 11
140.732
 21
22.8327
 31
0.0
  0
LINE
  8
0
 62
     0
 10
140.732
 20
22.8327
 30
0.0
 11
140.732
 21
21.8336
 31
0.0
  0
LINE
  8
0
 62
     0
 10
140.732
 20
21.8336
 30
0.0
 11
154.732
 21
21.8336
 31
0.0
  0
LINE
  8
0
 62
     0
 10
154.732
 20
21.8336
 30
0.0
 11
154.732
 21
22.8327
 31
0.0
  0
LINE
  8
0
 62
     0
 10
154.732
 20
22.8327
 30
0.0
 11
155.531
 21
22.8327
 31
0.0
  0
LINE
  8
0
 62
     0
 10
155.531
 20
22.8327
 30
0.0
 11
155.531
 21
25.9333
 31
0.0
  0
LINE
  8
0
 62
     0
 10
155.531
 20
25.9333
 30
0.0
 11
154.732
 21
25.9333
 31
0.0
  0
LINE
  8
0
 62
     0
 10
154.732
 20
25.9333
 30
0.0
 11
154.732
 21
31.7335
 31
0.0
  0
LINE
  8
0
 62
     0
 10
154.732
 20
31.7335
 30
0.0
 11
155.531
 21
31.7335
 31
0.0
  0
LINE
  8
0
 62
     0
 10
155.531
 20
31.7335
 30
0.0
 11
155.531
 21
34.8327
 31
0.0
  0
LINE
  8
0
 62
     0
 10
155.531
 20
34.8327
 30
0.0
 11
154.732
 21
34.8327
 31
0.0
  0
LINE
  8
0
 62
     0
 10
154.732
 20
34.8327
 30
0.0
 11
154.732
 21
35.833
 31
0.0
  0
LINE
  8
0
 62
     0
 10
154.732
 20
35.833
 30
0.0
 11
140.732
 21
35.833
 31
0.0
  0
LINE
  8
0
 62
     0
 10
159.782
 20
35.833
 30
0.0
 11
159.782
 21
34.8327
 31
0.0
  0
LINE
  8
0
 62
     0
 10
159.782
 20
34.8327
 30
0.0
 11
158.981
 21
34.8327
 31
0.0
  0
LINE
  8
0
 62
     0
 10
158.981
 20
34.8327
 30
0.0
 11
158.981
 21
31.7335
 31
0.0
  0
LINE
  8
0
 62
     0
 10
158.981
 20
31.7335
 30
0.0
 11
159.782
 21
31.7335
 31
0.0
  0
LINE
  8
0
 62
     0
 10
159.782
 20
31.7335
 30
0.0
 11
159.782
 21
25.9333
 31
0.0
  0
LINE
  8
0
 62
     0
 10
159.782
 20
25.9333
 30
0.0
 11
158.981
 21
25.9333
 31
0.0
  0
LINE
  8
0
 62
     0
 10
158.981
 20
25.9333
 30
0.0
 11
158.981
 21
22.8327
 31
0.0
  0
LINE
  8
0
 62
     0
 10
158.981
 20
22.8327
 30
0.0
 11
159.782
 21
22.8327
 31
0.0
  0
LINE
  8
0
 62
     0
 10
159.782
 20
22.8327
 30
0.0
 11
159.782
 21
21.8336
 31
0.0
  0
LINE
  8
0
 62
     0
 10
159.782
 20
21.8336
 30
0.0
 11
173.782
 21
21.8336
 31
0.0
  0
LINE
  8
0
 62
     0
 10
173.782
 20
21.8336
 30
0.0
 11
173.782
 21
22.8327
 31
0.0
  0
LINE
  8
0
 62
     0
 10
173.782
 20
22.8327
 30
0.0
 11
174.581
 21
22.8327
 31
0.0
  0
LINE
  8
0
 62
     0
 10
174.581
 20
22.8327
 30
0.0
 11
174.581
 21
25.9333
 31
0.0
  0
LINE
  8
0
 62
     0
 10
174.581
 20
25.9333
 30
0.0
 11
173.782
 21
25.9333
 31
0.0
  0
LINE
  8
0
 62
     0
 10
173.782
 20
25.9333
 30
0.0
 11
173.782
 21
31.7335
 31
0.0
  0
LINE
  8
0
 62
     0
 10
173.782
 20
31.7335
 30
0.0
 11
174.581
 21
31.7335
 31
0.0
  0
LINE
  8
0
 62
     0
 10
174.581
 20
31.7335
 30
0.0
 11
174.581
 21
34.8327
 31
0.0
  0
LINE
  8
0
 62
     0
 10
174.581
 20
34.8327
 30
0.0
 11
173.782
 21
34.8327
 31
0.0
  0
LINE
  8
0
 62
     0
 10
173.782
 20
34.8327
 30
0.0
 11
173.782
 21
35.833
 31
0.0
  0
LINE
  8
0
 62
     0
 10
173.782
 20
35.833
 30
0.0
 11
159.782
 21
35.833
 31
0.0
  0
LINE
  8
0
 62
     0
 10
178.832
 20
35.833
 30
0.0
 11
178.832
 21
34.8327
 31
0.0
  0
LINE
  8
0
 62
     0
 10
178.832
 20
34.8327
 30
0.0
 11
178.031
 21
34.8327
 31
0.0
  0
LINE
  8
0
 62
     0
 10
178.031
 20
34.8327
 30
0.0
 11
178.031
 21
31.7335
 31
0.0
  0
LINE
  8
0
 62
     0
 10
178.031
 20
31.7335
 30
0.0
 11
178.832
 21
31.7335
 31
0.0
  0
LINE
  8
0
 62
     0
 10
178.832
 20
31.7335
 30
0.0
 11
178.832
 21
25.9333
 31
0.0
  0
LINE
  8
0
 62
     0
 10
178.832
 20
25.9333
 30
0.0
 11
178.031
 21
25.9333
 31
0.0
  0
LINE
  8
0
 62
     0
 10
178.031
 20
25.9333
 30
0.0
 11
178.031
 21
22.8327
 31
0.0
  0
LINE
  8
0
 62
     0
 10
178.031
 20
22.8327
 30
0.0
 11
178.832
 21
22.8327
 31
0.0
  0
LINE
  8
0
 62
     0
 10
178.832
 20
22.8327
 30
0.0
 11
178.832
 21
21.8336
 31
0.0
  0
LINE
  8
0
 62
     0
 10
178.832
 20
21.8336
 30
0.0
 11
192.832
 21
21.8336
 31
0.0
  0
LINE
  8
0
 62
     0
 10
192.832
 20
21.8336
 30
0.0
 11
192.832
 21
22.8327
 31
0.0
  0
LINE
  8
0
 62
     0
 10
192.832
 20
22.8327
 30
0.0
 11
193.631
 21
22.8327
 31
0.0
  0
LINE
  8
0
 62
     0
 10
193.631
 20
22.8327
 30
0.0
 11
193.631
 21
25.9333
 31
0.0
  0
LINE
  8
0
 62
     0
 10
193.631
 20
25.9333
 30
0.0
 11
192.832
 21
25.9333
 31
0.0
  0
LINE
  8
0
 62
     0
 10
192.832
 20
25.9333
 30
0.0
 11
192.832
 21
31.7335
 31
0.0
  0
LINE
  8
0
 62
     0
 10
192.832
 20
31.7335
 30
0.0
 11
193.631
 21
31.7335
 31
0.0
  0
LINE
  8
0
 62
     0
 10
193.631
 20
31.7335
 30
0.0
 11
193.631
 21
34.8327
 31
0.0
  0
LINE
  8
0
 62
     0
 10
193.631
 20
34.8327
 30
0.0
 11
192.832
 21
34.8327
 31
0.0
  0
LINE
  8
0
 62
     0
 10
192.832
 20
34.8327
 30
0.0
 11
192.832
 21
35.833
 31
0.0
  0
LINE
  8
0
 62
     0
 10
192.832
 20
35.833
 30
0.0
 11
178.832
 21
35.833
 31
0.0
  0
LINE
  8
0
 62
     0
 10
197.882
 20
35.833
 30
0.0
 11
197.882
 21
34.8327
 31
0.0
  0
LINE
  8
0
 62
     0
 10
197.882
 20
34.8327
 30
0.0
 11
197.081
 21
34.8327
 31
0.0
  0
LINE
  8
0
 62
     0
 10
197.081
 20
34.8327
 30
0.0
 11
197.081
 21
31.7335
 31
0.0
  0
LINE
  8
0
 62
     0
 10
197.081
 20
31.7335
 30
0.0
 11
197.882
 21
31.7335
 31
0.0
  0
LINE
  8
0
 62
     0
 10
197.882
 20
31.7335
 30
0.0
 11
197.882
 21
25.9333
 31
0.0
  0
LINE
  8
0
 62
     0
 10
197.882
 20
25.9333
 30
0.0
 11
197.081
 21
25.9333
 31
0.0
  0
LINE
  8
0
 62
     0
 10
197.081
 20
25.9333
 30
0.0
 11
197.081
 21
22.8327
 31
0.0
  0
LINE
  8
0
 62
     0
 10
197.081
 20
22.8327
 30
0.0
 11
197.882
 21
22.8327
 31
0.0
  0
LINE
  8
0
 62
     0
 10
197.882
 20
22.8327
 30
0.0
 11
197.882
 21
21.8336
 31
0.0
  0
LINE
  8
0
 62
     0
 10
197.882
 20
21.8336
 30
0.0
 11
211.882
 21
21.8336
 31
0.0
  0
LINE
  8
0
 62
     0
 10
211.882
 20
21.8336
 30
0.0
 11
211.882
 21
22.8327
 31
0.0
  0
LINE
  8
0
 62
     0
 10
211.882
 20
22.8327
 30
0.0
 11
212.681
 21
22.8327
 31
0.0
  0
LINE
  8
0
 62
     0
 10
212.681
 20
22.8327
 30
0.0
 11
212.681
 21
25.9333
 31
0.0
  0
LINE
  8
0
 62
     0
 10
212.681
 20
25.9333
 30
0.0
 11
211.882
 21
25.9333
 31
0.0
  0
LINE
  8
0
 62
     0
 10
211.882
 20
25.9333
 30
0.0
 11
211.882
 21
31.7335
 31
0.0
  0
LINE
  8
0
 62
     0
 10
211.882
 20
31.7335
 30
0.0
 11
212.681
 21
31.7335
 31
0.0
  0
LINE
  8
0
 62
     0
 10
212.681
 20
31.7335
 30
0.0
 11
212.681
 21
34.8327
 31
0.0
  0
LINE
  8
0
 62
     0
 10
212.681
 20
34.8327
 30
0.0
 11
211.882
 21
34.8327
 31
0.0
  0
LINE
  8
0
 62
     0
 10
211.882
 20
34.8327
 30
0.0
 11
211.882
 21
35.833
 31
0.0
  0
LINE
  8
0
 62
     0
 10
211.882
 20
35.833
 30
0.0
 11
197.882
 21
35.833
 31
0.0
  0
LINE
  8
0
 62
     0
 10
7.38216
 20
54.8831
 30
0.0
 11
7.38216
 21
53.8826
 31
0.0
  0
LINE
  8
0
 62
     0
 10
7.38216
 20
53.8826
 30
0.0
 11
6.58153
 21
53.8826
 31
0.0
  0
LINE
  8
0
 62
     0
 10
6.58153
 20
53.8826
 30
0.0
 11
6.58153
 21
50.7834
 31
0.0
  0
LINE
  8
0
 62
     0
 10
6.58153
 20
50.7834
 30
0.0
 11
7.38216
 21
50.7834
 31
0.0
  0
LINE
  8
0
 62
     0
 10
7.38216
 20
50.7834
 30
0.0
 11
7.38216
 21
44.9834
 31
0.0
  0
LINE
  8
0
 62
     0
 10
7.38216
 20
44.9834
 30
0.0
 11
6.58153
 21
44.9834
 31
0.0
  0
LINE
  8
0
 62
     0
 10
6.58153
 20
44.9834
 30
0.0
 11
6.58153
 21
41.8828
 31
0.0
  0
LINE
  8
0
 62
     0
 10
6.58153
 20
41.8828
 30
0.0
 11
7.38216
 21
41.8828
 31
0.0
  0
LINE
  8
0
 62
     0
 10
7.38216
 20
41.8828
 30
0.0
 11
7.38216
 21
40.8838
 31
0.0
  0
LINE
  8
0
 62
     0
 10
7.38216
 20
40.8838
 30
0.0
 11
21.3817
 21
40.8838
 31
0.0
  0
LINE
  8
0
 62
     0
 10
21.3817
 20
40.8838
 30
0.0
 11
21.3817
 21
41.8828
 31
0.0
  0
LINE
  8
0
 62
     0
 10
21.3817
 20
41.8828
 30
0.0
 11
22.1809
 21
41.8828
 31
0.0
  0
LINE
  8
0
 62
     0
 10
22.1809
 20
41.8828
 30
0.0
 11
22.1809
 21
44.9834
 31
0.0
  0
LINE
  8
0
 62
     0
 10
22.1809
 20
44.9834
 30
0.0
 11
21.3817
 21
44.9834
 31
0.0
  0
LINE
  8
0
 62
     0
 10
21.3817
 20
44.9834
 30
0.0
 11
21.3817
 21
50.7834
 31
0.0
  0
LINE
  8
0
 62
     0
 10
21.3817
 20
50.7834
 30
0.0
 11
22.1809
 21
50.7834
 31
0.0
  0
LINE
  8
0
 62
     0
 10
22.1809
 20
50.7834
 30
0.0
 11
22.1809
 21
53.8826
 31
0.0
  0
LINE
  8
0
 62
     0
 10
22.1809
 20
53.8826
 30
0.0
 11
21.3817
 21
53.8826
 31
0.0
  0
LINE
  8
0
 62
     0
 10
21.3817
 20
53.8826
 30
0.0
 11
21.3817
 21
54.8831
 31
0.0
  0
LINE
  8
0
 62
     0
 10
21.3817
 20
54.8831
 30
0.0
 11
7.38216
 21
54.8831
 31
0.0
  0
LINE
  8
0
 62
     0
 10
33.5759
 20
54.8831
 30
0.0
 11
33.5759
 21
53.8826
 31
0.0
  0
LINE
  8
0
 62
     0
 10
33.5759
 20
53.8826
 30
0.0
 11
32.7753
 21
53.8826
 31
0.0
  0
LINE
  8
0
 62
     0
 10
32.7753
 20
53.8826
 30
0.0
 11
32.7753
 21
50.7834
 31
0.0
  0
LINE
  8
0
 62
     0
 10
32.7753
 20
50.7834
 30
0.0
 11
33.5759
 21
50.7834
 31
0.0
  0
LINE
  8
0
 62
     0
 10
33.5759
 20
50.7834
 30
0.0
 11
33.5759
 21
44.9834
 31
0.0
  0
LINE
  8
0
 62
     0
 10
33.5759
 20
44.9834
 30
0.0
 11
32.7753
 21
44.9834
 31
0.0
  0
LINE
  8
0
 62
     0
 10
32.7753
 20
44.9834
 30
0.0
 11
32.7753
 21
41.8828
 31
0.0
  0
LINE
  8
0
 62
     0
 10
32.7753
 20
41.8828
 30
0.0
 11
33.5759
 21
41.8828
 31
0.0
  0
LINE
  8
0
 62
     0
 10
33.5759
 20
41.8828
 30
0.0
 11
33.5759
 21
40.8838
 31
0.0
  0
LINE
  8
0
 62
     0
 10
33.5759
 20
40.8838
 30
0.0
 11
47.5753
 21
40.8838
 31
0.0
  0
LINE
  8
0
 62
     0
 10
47.5753
 20
40.8838
 30
0.0
 11
47.5753
 21
41.8828
 31
0.0
  0
LINE
  8
0
 62
     0
 10
47.5753
 20
41.8828
 30
0.0
 11
48.3761
 21
41.8828
 31
0.0
  0
LINE
  8
0
 62
     0
 10
48.3761
 20
41.8828
 30
0.0
 11
48.3761
 21
44.9834
 31
0.0
  0
LINE
  8
0
 62
     0
 10
48.3761
 20
44.9834
 30
0.0
 11
47.5753
 21
44.9834
 31
0.0
  0
LINE
  8
0
 62
     0
 10
47.5753
 20
44.9834
 30
0.0
 11
47.5753
 21
50.7834
 31
0.0
  0
LINE
  8
0
 62
     0
 10
47.5753
 20
50.7834
 30
0.0
 11
48.3761
 21
50.7834
 31
0.0
  0
LINE
  8
0
 62
     0
 10
48.3761
 20
50.7834
 30
0.0
 11
48.3761
 21
53.8826
 31
0.0
  0
LINE
  8
0
 62
     0
 10
48.3761
 20
53.8826
 30
0.0
 11
47.5753
 21
53.8826
 31
0.0
  0
LINE
  8
0
 62
     0
 10
47.5753
 20
53.8826
 30
0.0
 11
47.5753
 21
54.8831
 31
0.0
  0
LINE
  8
0
 62
     0
 10
47.5753
 20
54.8831
 30
0.0
 11
33.5759
 21
54.8831
 31
0.0
  0
LINE
  8
0
 62
     0
 10
55.0072
 20
54.8831
 30
0.0
 11
55.0072
 21
53.8826
 31
0.0
  0
LINE
  8
0
 62
     0
 10
55.0072
 20
53.8826
 30
0.0
 11
54.2064
 21
53.8826
 31
0.0
  0
LINE
  8
0
 62
     0
 10
54.2064
 20
53.8826
 30
0.0
 11
54.2064
 21
50.7834
 31
0.0
  0
LINE
  8
0
 62
     0
 10
54.2064
 20
50.7834
 30
0.0
 11
55.0072
 21
50.7834
 31
0.0
  0
LINE
  8
0
 62
     0
 10
55.0072
 20
50.7834
 30
0.0
 11
55.0072
 21
44.9834
 31
0.0
  0
LINE
  8
0
 62
     0
 10
55.0072
 20
44.9834
 30
0.0
 11
54.2064
 21
44.9834
 31
0.0
  0
LINE
  8
0
 62
     0
 10
54.2064
 20
44.9834
 30
0.0
 11
54.2064
 21
41.8828
 31
0.0
  0
LINE
  8
0
 62
     0
 10
54.2064
 20
41.8828
 30
0.0
 11
55.0072
 21
41.8828
 31
0.0
  0
LINE
  8
0
 62
     0
 10
55.0072
 20
41.8828
 30
0.0
 11
55.0072
 21
40.8838
 31
0.0
  0
LINE
  8
0
 62
     0
 10
55.0072
 20
40.8838
 30
0.0
 11
69.0065
 21
40.8838
 31
0.0
  0
LINE
  8
0
 62
     0
 10
69.0065
 20
40.8838
 30
0.0
 11
69.0065
 21
41.8828
 31
0.0
  0
LINE
  8
0
 62
     0
 10
69.0065
 20
41.8828
 30
0.0
 11
69.8059
 21
41.8828
 31
0.0
  0
LINE
  8
0
 62
     0
 10
69.8059
 20
41.8828
 30
0.0
 11
69.8059
 21
44.9834
 31
0.0
  0
LINE
  8
0
 62
     0
 10
69.8059
 20
44.9834
 30
0.0
 11
69.0065
 21
44.9834
 31
0.0
  0
LINE
  8
0
 62
     0
 10
69.0065
 20
44.9834
 30
0.0
 11
69.0065
 21
50.7834
 31
0.0
  0
LINE
  8
0
 62
     0
 10
69.0065
 20
50.7834
 30
0.0
 11
69.8059
 21
50.7834
 31
0.0
  0
LINE
  8
0
 62
     0
 10
69.8059
 20
50.7834
 30
0.0
 11
69.8059
 21
53.8826
 31
0.0
  0
LINE
  8
0
 62
     0
 10
69.8059
 20
53.8826
 30
0.0
 11
69.0065
 21
53.8826
 31
0.0
  0
LINE
  8
0
 62
     0
 10
69.0065
 20
53.8826
 30
0.0
 11
69.0065
 21
54.8831
 31
0.0
  0
LINE
  8
0
 62
     0
 10
69.0065
 20
54.8831
 30
0.0
 11
55.0072
 21
54.8831
 31
0.0
  0
LINE
  8
0
 62
     0
 10
74.0572
 20
54.8831
 30
0.0
 11
74.0572
 21
53.8826
 31
0.0
  0
LINE
  8
0
 62
     0
 10
74.0572
 20
53.8826
 30
0.0
 11
73.2564
 21
53.8826
 31
0.0
  0
LINE
  8
0
 62
     0
 10
73.2564
 20
53.8826
 30
0.0
 11
73.2564
 21
50.7834
 31
0.0
  0
LINE
  8
0
 62
     0
 10
73.2564
 20
50.7834
 30
0.0
 11
74.0572
 21
50.7834
 31
0.0
  0
LINE
  8
0
 62
     0
 10
74.0572
 20
50.7834
 30
0.0
 11
74.0572
 21
44.9834
 31
0.0
  0
LINE
  8
0
 62
     0
 10
74.0572
 20
44.9834
 30
0.0
 11
73.2564
 21
44.9834
 31
0.0
  0
LINE
  8
0
 62
     0
 10
73.2564
 20
44.9834
 30
0.0
 11
73.2564
 21
41.8828
 31
0.0
  0
LINE
  8
0
 62
     0
 10
73.2564
 20
41.8828
 30
0.0
 11
74.0572
 21
41.8828
 31
0.0
  0
LINE
  8
0
 62
     0
 10
74.0572
 20
41.8828
 30
0.0
 11
74.0572
 21
40.8838
 31
0.0
  0
LINE
  8
0
 62
     0
 10
74.0572
 20
40.8838
 30
0.0
 11
88.0565
 21
40.8838
 31
0.0
  0
LINE
  8
0
 62
     0
 10
88.0565
 20
40.8838
 30
0.0
 11
88.0565
 21
41.8828
 31
0.0
  0
LINE
  8
0
 62
     0
 10
88.0565
 20
41.8828
 30
0.0
 11
88.8559
 21
41.8828
 31
0.0
  0
LINE
  8
0
 62
     0
 10
88.8559
 20
41.8828
 30
0.0
 11
88.8559
 21
44.9834
 31
0.0
  0
LINE
  8
0
 62
     0
 10
88.8559
 20
44.9834
 30
0.0
 11
88.0565
 21
44.9834
 31
0.0
  0
LINE
  8
0
 62
     0
 10
88.0565
 20
44.9834
 30
0.0
 11
88.0565
 21
50.7834
 31
0.0
  0
LINE
  8
0
 62
     0
 10
88.0565
 20
50.7834
 30
0.0
 11
88.8559
 21
50.7834
 31
0.0
  0
LINE
  8
0
 62
     0
 10
88.8559
 20
50.7834
 30
0.0
 11
88.8559
 21
53.8826
 31
0.0
  0
LINE
  8
0
 62
     0
 10
88.8559
 20
53.8826
 30
0.0
 11
88.0565
 21
53.8826
 31
0.0
  0
LINE
  8
0
 62
     0
 10
88.0565
 20
53.8826
 30
0.0
 11
88.0565
 21
54.8831
 31
0.0
  0
LINE
  8
0
 62
     0
 10
88.0565
 20
54.8831
 30
0.0
 11
74.0572
 21
54.8831
 31
0.0
  0
LINE
  8
0
 62
     0
 10
93.1072
 20
54.8831
 30
0.0
 11
93.1072
 21
53.8826
 31
0.0
  0
LINE
  8
0
 62
     0
 10
93.1072
 20
53.8826
 30
0.0
 11
92.3064
 21
53.8826
 31
0.0
  0
LINE
  8
0
 62
     0
 10
92.3064
 20
53.8826
 30
0.0
 11
92.3064
 21
50.7834
 31
0.0
  0
LINE
  8
0
 62
     0
 10
92.3064
 20
50.7834
 30
0.0
 11
93.1072
 21
50.7834
 31
0.0
  0
LINE
  8
0
 62
     0
 10
93.1072
 20
50.7834
 30
0.0
 11
93.1072
 21
44.9834
 31
0.0
  0
LINE
  8
0
 62
     0
 10
93.1072
 20
44.9834
 30
0.0
 11
92.3064
 21
44.9834
 31
0.0
  0
LINE
  8
0
 62
     0
 10
92.3064
 20
44.9834
 30
0.0
 11
92.3064
 21
41.8828
 31
0.0
  0
LINE
  8
0
 62
     0
 10
92.3064
 20
41.8828
 30
0.0
 11
93.1072
 21
41.8828
 31
0.0
  0
LINE
  8
0
 62
     0
 10
93.1072
 20
41.8828
 30
0.0
 11
93.1072
 21
40.8838
 31
0.0
  0
LINE
  8
0
 62
     0
 10
93.1072
 20
40.8838
 30
0.0
 11
107.107
 21
40.8838
 31
0.0
  0
LINE
  8
0
 62
     0
 10
107.107
 20
40.8838
 30
0.0
 11
107.107
 21
41.8828
 31
0.0
  0
LINE
  8
0
 62
     0
 10
107.107
 20
41.8828
 30
0.0
 11
107.906
 21
41.8828
 31
0.0
  0
LINE
  8
0
 62
     0
 10
107.906
 20
41.8828
 30
0.0
 11
107.906
 21
44.9834
 31
0.0
  0
LINE
  8
0
 62
     0
 10
107.906
 20
44.9834
 30
0.0
 11
107.107
 21
44.9834
 31
0.0
  0
LINE
  8
0
 62
     0
 10
107.107
 20
44.9834
 30
0.0
 11
107.107
 21
50.7834
 31
0.0
  0
LINE
  8
0
 62
     0
 10
107.107
 20
50.7834
 30
0.0
 11
107.906
 21
50.7834
 31
0.0
  0
LINE
  8
0
 62
     0
 10
107.906
 20
50.7834
 30
0.0
 11
107.906
 21
53.8826
 31
0.0
  0
LINE
  8
0
 62
     0
 10
107.906
 20
53.8826
 30
0.0
 11
107.107
 21
53.8826
 31
0.0
  0
LINE
  8
0
 62
     0
 10
107.107
 20
53.8826
 30
0.0
 11
107.107
 21
54.8831
 31
0.0
  0
LINE
  8
0
 62
     0
 10
107.107
 20
54.8831
 30
0.0
 11
93.1072
 21
54.8831
 31
0.0
  0
LINE
  8
0
 62
     0
 10
112.157
 20
54.8831
 30
0.0
 11
112.157
 21
53.8826
 31
0.0
  0
LINE
  8
0
 62
     0
 10
112.157
 20
53.8826
 30
0.0
 11
111.356
 21
53.8826
 31
0.0
  0
LINE
  8
0
 62
     0
 10
111.356
 20
53.8826
 30
0.0
 11
111.356
 21
50.7834
 31
0.0
  0
LINE
  8
0
 62
     0
 10
111.356
 20
50.7834
 30
0.0
 11
112.157
 21
50.7834
 31
0.0
  0
LINE
  8
0
 62
     0
 10
112.157
 20
50.7834
 30
0.0
 11
112.157
 21
44.9834
 31
0.0
  0
LINE
  8
0
 62
     0
 10
112.157
 20
44.9834
 30
0.0
 11
111.356
 21
44.9834
 31
0.0
  0
LINE
  8
0
 62
     0
 10
111.356
 20
44.9834
 30
0.0
 11
111.356
 21
41.8828
 31
0.0
  0
LINE
  8
0
 62
     0
 10
111.356
 20
41.8828
 30
0.0
 11
112.157
 21
41.8828
 31
0.0
  0
LINE
  8
0
 62
     0
 10
112.157
 20
41.8828
 30
0.0
 11
112.157
 21
40.8838
 31
0.0
  0
LINE
  8
0
 62
     0
 10
112.157
 20
40.8838
 30
0.0
 11
126.157
 21
40.8838
 31
0.0
  0
LINE
  8
0
 62
     0
 10
126.157
 20
40.8838
 30
0.0
 11
126.157
 21
41.8828
 31
0.0
  0
LINE
  8
0
 62
     0
 10
126.157
 20
41.8828
 30
0.0
 11
126.956
 21
41.8828
 31
0.0
  0
LINE
  8
0
 62
     0
 10
126.956
 20
41.8828
 30
0.0
 11
126.956
 21
44.9834
 31
0.0
  0
LINE
  8
0
 62
     0
 10
126.956
 20
44.9834
 30
0.0
 11
126.157
 21
44.9834
 31
0.0
  0
LINE
  8
0
 62
     0
 10
126.157
 20
44.9834
 30
0.0
 11
126.157
 21
50.7834
 31
0.0
  0
LINE
  8
0
 62
     0
 10
126.157
 20
50.7834
 30
0.0
 11
126.956
 21
50.7834
 31
0.0
  0
LINE
  8
0
 62
     0
 10
126.956
 20
50.7834
 30
0.0
 11
126.956
 21
53.8826
 31
0.0
  0
LINE
  8
0
 62
     0
 10
126.956
 20
53.8826
 30
0.0
 11
126.157
 21
53.8826
 31
0.0
  0
LINE
  8
0
 62
     0
 10
126.157
 20
53.8826
 30
0.0
 11
126.157
 21
54.8831
 31
0.0
  0
LINE
  8
0
 62
     0
 10
126.157
 20
54.8831
 30
0.0
 11
112.157
 21
54.8831
 31
0.0
  0
LINE
  8
0
 62
     0
 10
131.207
 20
54.8831
 30
0.0
 11
131.207
 21
53.8826
 31
0.0
  0
LINE
  8
0
 62
     0
 10
131.207
 20
53.8826
 30
0.0
 11
130.406
 21
53.8826
 31
0.0
  0
LINE
  8
0
 62
     0
 10
130.406
 20
53.8826
 30
0.0
 11
130.406
 21
50.7834
 31
0.0
  0
LINE
  8
0
 62
     0
 10
130.406
 20
50.7834
 30
0.0
 11
131.207
 21
50.7834
 31
0.0
  0
LINE
  8
0
 62
     0
 10
131.207
 20
50.7834
 30
0.0
 11
131.207
 21
44.9834
 31
0.0
  0
LINE
  8
0
 62
     0
 10
131.207
 20
44.9834
 30
0.0
 11
130.406
 21
44.9834
 31
0.0
  0
LINE
  8
0
 62
     0
 10
130.406
 20
44.9834
 30
0.0
 11
130.406
 21
41.8828
 31
0.0
  0
LINE
  8
0
 62
     0
 10
130.406
 20
41.8828
 30
0.0
 11
131.207
 21
41.8828
 31
0.0
  0
LINE
  8
0
 62
     0
 10
131.207
 20
41.8828
 30
0.0
 11
131.207
 21
40.8838
 31
0.0
  0
LINE
  8
0
 62
     0
 10
131.207
 20
40.8838
 30
0.0
 11
145.207
 21
40.8838
 31
0.0
  0
LINE
  8
0
 62
     0
 10
145.207
 20
40.8838
 30
0.0
 11
145.207
 21
41.8828
 31
0.0
  0
LINE
  8
0
 62
     0
 10
145.207
 20
41.8828
 30
0.0
 11
146.006
 21
41.8828
 31
0.0
  0
LINE
  8
0
 62
     0
 10
146.006
 20
41.8828
 30
0.0
 11
146.006
 21
44.9834
 31
0.0
  0
LINE
  8
0
 62
     0
 10
146.006
 20
44.9834
 30
0.0
 11
145.207
 21
44.9834
 31
0.0
  0
LINE
  8
0
 62
     0
 10
145.207
 20
44.9834
 30
0.0
 11
145.207
 21
50.7834
 31
0.0
  0
LINE
  8
0
 62
     0
 10
145.207
 20
50.7834
 30
0.0
 11
146.006
 21
50.7834
 31
0.0
  0
LINE
  8
0
 62
     0
 10
146.006
 20
50.7834
 30
0.0
 11
146.006
 21
53.8826
 31
0.0
  0
LINE
  8
0
 62
     0
 10
146.006
 20
53.8826
 30
0.0
 11
145.207
 21
53.8826
 31
0.0
  0
LINE
  8
0
 62
     0
 10
145.207
 20
53.8826
 30
0.0
 11
145.207
 21
54.8831
 31
0.0
  0
LINE
  8
0
 62
     0
 10
145.207
 20
54.8831
 30
0.0
 11
131.207
 21
54.8831
 31
0.0
  0
LINE
  8
0
 62
     0
 10
150.257
 20
54.8831
 30
0.0
 11
150.257
 21
53.8826
 31
0.0
  0
LINE
  8
0
 62
     0
 10
150.257
 20
53.8826
 30
0.0
 11
149.456
 21
53.8826
 31
0.0
  0
LINE
  8
0
 62
     0
 10
149.456
 20
53.8826
 30
0.0
 11
149.456
 21
50.7834
 31
0.0
  0
LINE
  8
0
 62
     0
 10
149.456
 20
50.7834
 30
0.0
 11
150.257
 21
50.7834
 31
0.0
  0
LINE
  8
0
 62
     0
 10
150.257
 20
50.7834
 30
0.0
 11
150.257
 21
44.9834
 31
0.0
  0
LINE
  8
0
 62
     0
 10
150.257
 20
44.9834
 30
0.0
 11
149.456
 21
44.9834
 31
0.0
  0
LINE
  8
0
 62
     0
 10
149.456
 20
44.9834
 30
0.0
 11
149.456
 21
41.8828
 31
0.0
  0
LINE
  8
0
 62
     0
 10
149.456
 20
41.8828
 30
0.0
 11
150.257
 21
41.8828
 31
0.0
  0
LINE
  8
0
 62
     0
 10
150.257
 20
41.8828
 30
0.0
 11
150.257
 21
40.8838
 31
0.0
  0
LINE
  8
0
 62
     0
 10
150.257
 20
40.8838
 30
0.0
 11
164.257
 21
40.8838
 31
0.0
  0
LINE
  8
0
 62
     0
 10
164.257
 20
40.8838
 30
0.0
 11
164.257
 21
41.8828
 31
0.0
  0
LINE
  8
0
 62
     0
 10
164.257
 20
41.8828
 30
0.0
 11
165.056
 21
41.8828
 31
0.0
  0
LINE
  8
0
 62
     0
 10
165.056
 20
41.8828
 30
0.0
 11
165.056
 21
44.9834
 31
0.0
  0
LINE
  8
0
 62
     0
 10
165.056
 20
44.9834
 30
0.0
 11
164.257
 21
44.9834
 31
0.0
  0
LINE
  8
0
 62
     0
 10
164.257
 20
44.9834
 30
0.0
 11
164.257
 21
50.7834
 31
0.0
  0
LINE
  8
0
 62
     0
 10
164.257
 20
50.7834
 30
0.0
 11
165.056
 21
50.7834
 31
0.0
  0
LINE
  8
0
 62
     0
 10
165.056
 20
50.7834
 30
0.0
 11
165.056
 21
53.8826
 31
0.0
  0
LINE
  8
0
 62
     0
 10
165.056
 20
53.8826
 30
0.0
 11
164.257
 21
53.8826
 31
0.0
  0
LINE
  8
0
 62
     0
 10
164.257
 20
53.8826
 30
0.0
 11
164.257
 21
54.8831
 31
0.0
  0
LINE
  8
0
 62
     0
 10
164.257
 20
54.8831
 30
0.0
 11
150.257
 21
54.8831
 31
0.0
  0
LINE
  8
0
 62
     0
 10
169.307
 20
54.8831
 30
0.0
 11
169.307
 21
53.8826
 31
0.0
  0
LINE
  8
0
 62
     0
 10
169.307
 20
53.8826
 30
0.0
 11
168.506
 21
53.8826
 31
0.0
  0
LINE
  8
0
 62
     0
 10
168.506
 20
53.8826
 30
0.0
 11
168.506
 21
50.7834
 31
0.0
  0
LINE
  8
0
 62
     0
 10
168.506
 20
50.7834
 30
0.0
 11
169.307
 21
50.7834
 31
0.0
  0
LINE
  8
0
 62
     0
 10
169.307
 20
50.7834
 30
0.0
 11
169.307
 21
44.9834
 31
0.0
  0
LINE
  8
0
 62
     0
 10
169.307
 20
44.9834
 30
0.0
 11
168.506
 21
44.9834
 31
0.0
  0
LINE
  8
0
 62
     0
 10
168.506
 20
44.9834
 30
0.0
 11
168.506
 21
41.8828
 31
0.0
  0
LINE
  8
0
 62
     0
 10
168.506
 20
41.8828
 30
0.0
 11
169.307
 21
41.8828
 31
0.0
  0
LINE
  8
0
 62
     0
 10
169.307
 20
41.8828
 30
0.0
 11
169.307
 21
40.8838
 31
0.0
  0
LINE
  8
0
 62
     0
 10
169.307
 20
40.8838
 30
0.0
 11
183.307
 21
40.8838
 31
0.0
  0
LINE
  8
0
 62
     0
 10
183.307
 20
40.8838
 30
0.0
 11
183.307
 21
41.8828
 31
0.0
  0
LINE
  8
0
 62
     0
 10
183.307
 20
41.8828
 30
0.0
 11
184.106
 21
41.8828
 31
0.0
  0
LINE
  8
0
 62
     0
 10
184.106
 20
41.8828
 30
0.0
 11
184.106
 21
44.9834
 31
0.0
  0
LINE
  8
0
 62
     0
 10
184.106
 20
44.9834
 30
0.0
 11
183.307
 21
44.9834
 31
0.0
  0
LINE
  8
0
 62
     0
 10
183.307
 20
44.9834
 30
0.0
 11
183.307
 21
50.7834
 31
0.0
  0
LINE
  8
0
 62
     0
 10
183.307
 20
50.7834
 30
0.0
 11
184.106
 21
50.7834
 31
0.0
  0
LINE
  8
0
 62
     0
 10
184.106
 20
50.7834
 30
0.0
 11
184.106
 21
53.8826
 31
0.0
  0
LINE
  8
0
 62
     0
 10
184.106
 20
53.8826
 30
0.0
 11
183.307
 21
53.8826
 31
0.0
  0
LINE
  8
0
 62
     0
 10
183.307
 20
53.8826
 30
0.0
 11
183.307
 21
54.8831
 31
0.0
  0
LINE
  8
0
 62
     0
 10
183.307
 20
54.8831
 30
0.0
 11
169.307
 21
54.8831
 31
0.0
  0
LINE
  8
0
 62
     0
 10
188.357
 20
54.8831
 30
0.0
 11
188.357
 21
53.8826
 31
0.0
  0
LINE
  8
0
 62
     0
 10
188.357
 20
53.8826
 30
0.0
 11
187.556
 21
53.8826
 31
0.0
  0
LINE
  8
0
 62
     0
 10
187.556
 20
53.8826
 30
0.0
 11
187.556
 21
50.7834
 31
0.0
  0
LINE
  8
0
 62
     0
 10
187.556
 20
50.7834
 30
0.0
 11
188.357
 21
50.7834
 31
0.0
  0
LINE
  8
0
 62
     0
 10
188.357
 20
50.7834
 30
0.0
 11
188.357
 21
44.9834
 31
0.0
  0
LINE
  8
0
 62
     0
 10
188.357
 20
44.9834
 30
0.0
 11
187.556
 21
44.9834
 31
0.0
  0
LINE
  8
0
 62
     0
 10
187.556
 20
44.9834
 30
0.0
 11
187.556
 21
41.8828
 31
0.0
  0
LINE
  8
0
 62
     0
 10
187.556
 20
41.8828
 30
0.0
 11
188.357
 21
41.8828
 31
0.0
  0
LINE
  8
0
 62
     0
 10
188.357
 20
41.8828
 30
0.0
 11
188.357
 21
40.8838
 31
0.0
  0
LINE
  8
0
 62
     0
 10
188.357
 20
40.8838
 30
0.0
 11
202.357
 21
40.8838
 31
0.0
  0
LINE
  8
0
 62
     0
 10
202.357
 20
40.8838
 30
0.0
 11
202.357
 21
41.8828
 31
0.0
  0
LINE
  8
0
 62
     0
 10
202.357
 20
41.8828
 30
0.0
 11
203.156
 21
41.8828
 31
0.0
  0
LINE
  8
0
 62
     0
 10
203.156
 20
41.8828
 30
0.0
 11
203.156
 21
44.9834
 31
0.0
  0
LINE
  8
0
 62
     0
 10
203.156
 20
44.9834
 30
0.0
 11
202.357
 21
44.9834
 31
0.0
  0
LINE
  8
0
 62
     0
 10
202.357
 20
44.9834
 30
0.0
 11
202.357
 21
50.7834
 31
0.0
  0
LINE
  8
0
 62
     0
 10
202.357
 20
50.7834
 30
0.0
 11
203.156
 21
50.7834
 31
0.0
  0
LINE
  8
0
 62
     0
 10
203.156
 20
50.7834
 30
0.0
 11
203.156
 21
53.8826
 31
0.0
  0
LINE
  8
0
 62
     0
 10
203.156
 20
53.8826
 30
0.0
 11
202.357
 21
53.8826
 31
0.0
  0
LINE
  8
0
 62
     0
 10
202.357
 20
53.8826
 30
0.0
 11
202.357
 21
54.8831
 31
0.0
  0
LINE
  8
0
 62
     0
 10
202.357
 20
54.8831
 30
0.0
 11
188.357
 21
54.8831
 31
0.0
  0
LINE
  8
0
 62
     0
 10
207.407
 20
54.8831
 30
0.0
 11
207.407
 21
53.8826
 31
0.0
  0
LINE
  8
0
 62
     0
 10
207.407
 20
53.8826
 30
0.0
 11
206.606
 21
53.8826
 31
0.0
  0
LINE
  8
0
 62
     0
 10
206.606
 20
53.8826
 30
0.0
 11
206.606
 21
50.7834
 31
0.0
  0
LINE
  8
0
 62
     0
 10
206.606
 20
50.7834
 30
0.0
 11
207.407
 21
50.7834
 31
0.0
  0
LINE
  8
0
 62
     0
 10
207.407
 20
50.7834
 30
0.0
 11
207.407
 21
44.9834
 31
0.0
  0
LINE
  8
0
 62
     0
 10
207.407
 20
44.9834
 30
0.0
 11
206.606
 21
44.9834
 31
0.0
  0
LINE
  8
0
 62
     0
 10
206.606
 20
44.9834
 30
0.0
 11
206.606
 21
41.8828
 31
0.0
  0
LINE
  8
0
 62
     0
 10
206.606
 20
41.8828
 30
0.0
 11
207.407
 21
41.8828
 31
0.0
  0
LINE
  8
0
 62
     0
 10
207.407
 20
41.8828
 30
0.0
 11
207.407
 21
40.8838
 31
0.0
  0
LINE
  8
0
 62
     0
 10
207.407
 20
40.8838
 30
0.0
 11
221.407
 21
40.8838
 31
0.0
  0
LINE
  8
0
 62
     0
 10
221.407
 20
40.8838
 30
0.0
 11
221.407
 21
41.8828
 31
0.0
  0
LINE
  8
0
 62
     0
 10
221.407
 20
41.8828
 30
0.0
 11
222.206
 21
41.8828
 31
0.0
  0
LINE
  8
0
 62
     0
 10
222.206
 20
41.8828
 30
0.0
 11
222.206
 21
44.9834
 31
0.0
  0
LINE
  8
0
 62
     0
 10
222.206
 20
44.9834
 30
0.0
 11
221.407
 21
44.9834
 31
0.0
  0
LINE
  8
0
 62
     0
 10
221.407
 20
44.9834
 30
0.0
 11
221.407
 21
50.7834
 31
0.0
  0
LINE
  8
0
 62
     0
 10
221.407
 20
50.7834
 30
0.0
 11
222.206
 21
50.7834
 31
0.0
  0
LINE
  8
0
 62
     0
 10
222.206
 20
50.7834
 30
0.0
 11
222.206
 21
53.8826
 31
0.0
  0
LINE
  8
0
 62
     0
 10
222.206
 20
53.8826
 30
0.0
 11
221.407
 21
53.8826
 31
0.0
  0
LINE
  8
0
 62
     0
 10
221.407
 20
53.8826
 30
0.0
 11
221.407
 21
54.8831
 31
0.0
  0
LINE
  8
0
 62
     0
 10
221.407
 20
54.8831
 30
0.0
 11
207.407
 21
54.8831
 31
0.0
  0
LINE
  8
0
 62
     0
 10
247.245
 20
73.5087
 30
0.0
 11
247.245
 21
72.6832
 31
0.0
  0
LINE
  8
0
 62
     0
 10
247.245
 20
72.6832
 30
0.0
 11
240.975
 21
72.6832
 31
0.0
  0
LINE
  8
0
 62
     0
 10
240.975
 20
72.6832
 30
0.0
 11
240.975
 21
70.9581
 31
0.0
  0
LINE
  8
0
 62
     0
 10
240.975
 20
70.9581
 30
0.0
 11
239.775
 21
70.9581
 31
0.0
  0
LINE
  8
0
 62
     0
 10
239.775
 20
70.9581
 30
0.0
 11
239.775
 21
67.6589
 31
0.0
  0
LINE
  8
0
 62
     0
 10
239.775
 20
67.6589
 30
0.0
 11
240.975
 21
67.6589
 31
0.0
  0
LINE
  8
0
 62
     0
 10
240.975
 20
67.6589
 30
0.0
 11
240.975
 21
65.9335
 31
0.0
  0
LINE
  8
0
 62
     0
 10
240.975
 20
65.9335
 30
0.0
 11
245.445
 21
65.9335
 31
0.0
  0
LINE
  8
0
 62
     0
 10
245.445
 20
65.9335
 30
0.0
 11
245.445
 21
64.4081
 31
0.0
  0
LINE
  8
0
 62
     0
 10
245.445
 20
64.4081
 30
0.0
 11
244.844
 21
64.4081
 31
0.0
  0
LINE
  8
0
 62
     0
 10
244.844
 20
64.4081
 30
0.0
 11
244.844
 21
65.2089
 31
0.0
  0
LINE
  8
0
 62
     0
 10
244.844
 20
65.2089
 30
0.0
 11
241.745
 21
65.2089
 31
0.0
  0
LINE
  8
0
 62
     0
 10
241.745
 20
65.2089
 30
0.0
 11
241.745
 21
64.4081
 31
0.0
  0
LINE
  8
0
 62
     0
 10
241.745
 20
64.4081
 30
0.0
 11
240.745
 21
64.4081
 31
0.0
  0
LINE
  8
0
 62
     0
 10
240.745
 20
64.4081
 30
0.0
 11
240.745
 21
50.4088
 31
0.0
  0
LINE
  8
0
 62
     0
 10
240.745
 20
50.4088
 30
0.0
 11
241.745
 21
50.4088
 31
0.0
  0
LINE
  8
0
 62
     0
 10
241.745
 20
50.4088
 30
0.0
 11
241.745
 21
49.608
 31
0.0
  0
LINE
  8
0
 62
     0
 10
241.745
 20
49.608
 30
0.0
 11
244.844
 21
49.608
 31
0.0
  0
LINE
  8
0
 62
     0
 10
244.844
 20
49.608
 30
0.0
 11
244.844
 21
50.4088
 31
0.0
  0
LINE
  8
0
 62
     0
 10
244.844
 20
50.4088
 30
0.0
 11
245.445
 21
50.4088
 31
0.0
  0
LINE
  8
0
 62
     0
 10
245.445
 20
50.4088
 30
0.0
 11
245.445
 21
48.883
 31
0.0
  0
LINE
  8
0
 62
     0
 10
245.445
 20
48.883
 30
0.0
 11
240.975
 21
48.883
 31
0.0
  0
LINE
  8
0
 62
     0
 10
240.975
 20
48.883
 30
0.0
 11
240.975
 21
47.1579
 31
0.0
  0
LINE
  8
0
 62
     0
 10
240.975
 20
47.1579
 30
0.0
 11
239.775
 21
47.1579
 31
0.0
  0
LINE
  8
0
 62
     0
 10
239.775
 20
47.1579
 30
0.0
 11
239.775
 21
43.8587
 31
0.0
  0
LINE
  8
0
 62
     0
 10
239.775
 20
43.8587
 30
0.0
 11
240.975
 21
43.8587
 31
0.0
  0
LINE
  8
0
 62
     0
 10
240.975
 20
43.8587
 30
0.0
 11
240.975
 21
42.1337
 31
0.0
  0
LINE
  8
0
 62
     0
 10
240.975
 20
42.1337
 30
0.0
 11
247.245
 21
42.1337
 31
0.0
  0
LINE
  8
0
 62
     0
 10
247.245
 20
42.1337
 30
0.0
 11
247.245
 21
41.3082
 31
0.0
  0
LINE
  8
0
 62
     0
 10
247.245
 20
41.3082
 30
0.0
 11
250.045
 21
41.3082
 31
0.0
  0
LINE
  8
0
 62
     0
 10
250.045
 20
41.3082
 30
0.0
 11
250.045
 21
42.1337
 31
0.0
  0
LINE
  8
0
 62
     0
 10
250.045
 20
42.1337
 30
0.0
 11
253.275
 21
42.1337
 31
0.0
  0
LINE
  8
0
 62
     0
 10
253.275
 20
42.1337
 30
0.0
 11
253.275
 21
48.883
 31
0.0
  0
LINE
  8
0
 62
     0
 10
253.275
 20
48.883
 30
0.0
 11
250.045
 21
48.883
 31
0.0
  0
LINE
  8
0
 62
     0
 10
250.045
 20
48.883
 30
0.0
 11
250.045
 21
50.4088
 31
0.0
  0
LINE
  8
0
 62
     0
 10
250.045
 20
50.4088
 30
0.0
 11
250.644
 21
50.4088
 31
0.0
  0
LINE
  8
0
 62
     0
 10
250.644
 20
50.4088
 30
0.0
 11
250.644
 21
49.608
 31
0.0
  0
LINE
  8
0
 62
     0
 10
250.644
 20
49.608
 30
0.0
 11
253.744
 21
49.608
 31
0.0
  0
LINE
  8
0
 62
     0
 10
253.744
 20
49.608
 30
0.0
 11
253.744
 21
50.4088
 31
0.0
  0
LINE
  8
0
 62
     0
 10
253.744
 20
50.4088
 30
0.0
 11
254.744
 21
50.4088
 31
0.0
  0
LINE
  8
0
 62
     0
 10
254.744
 20
50.4088
 30
0.0
 11
254.744
 21
64.4081
 31
0.0
  0
LINE
  8
0
 62
     0
 10
254.744
 20
64.4081
 30
0.0
 11
253.744
 21
64.4081
 31
0.0
  0
LINE
  8
0
 62
     0
 10
253.744
 20
64.4081
 30
0.0
 11
253.744
 21
65.2089
 31
0.0
  0
LINE
  8
0
 62
     0
 10
253.744
 20
65.2089
 30
0.0
 11
250.644
 21
65.2089
 31
0.0
  0
LINE
  8
0
 62
     0
 10
250.644
 20
65.2089
 30
0.0
 11
250.644
 21
64.4081
 31
0.0
  0
LINE
  8
0
 62
     0
 10
250.644
 20
64.4081
 30
0.0
 11
250.045
 21
64.4081
 31
0.0
  0
LINE
  8
0
 62
     0
 10
250.045
 20
64.4081
 30
0.0
 11
250.045
 21
65.9335
 31
0.0
  0
LINE
  8
0
 62
     0
 10
250.045
 20
65.9335
 30
0.0
 11
253.275
 21
65.9335
 31
0.0
  0
LINE
  8
0
 62
     0
 10
253.275
 20
65.9335
 30
0.0
 11
253.275
 21
72.6832
 31
0.0
  0
LINE
  8
0
 62
     0
 10
253.275
 20
72.6832
 30
0.0
 11
250.045
 21
72.6832
 31
0.0
  0
LINE
  8
0
 62
     0
 10
250.045
 20
72.6832
 30
0.0
 11
250.045
 21
73.5087
 31
0.0
  0
LINE
  8
0
 62
     0
 10
250.045
 20
73.5087
 30
0.0
 11
247.245
 21
73.5087
 31
0.0
  0
LINE
  8
0
 62
     0
 10
7.38216
 20
73.9331
 30
0.0
 11
7.38216
 21
72.9326
 31
0.0
  0
LINE
  8
0
 62
     0
 10
7.38216
 20
72.9326
 30
0.0
 11
6.58153
 21
72.9326
 31
0.0
  0
LINE
  8
0
 62
     0
 10
6.58153
 20
72.9326
 30
0.0
 11
6.58153
 21
69.8334
 31
0.0
  0
LINE
  8
0
 62
     0
 10
6.58153
 20
69.8334
 30
0.0
 11
7.38216
 21
69.8334
 31
0.0
  0
LINE
  8
0
 62
     0
 10
7.38216
 20
69.8334
 30
0.0
 11
7.38216
 21
64.0334
 31
0.0
  0
LINE
  8
0
 62
     0
 10
7.38216
 20
64.0334
 30
0.0
 11
6.58153
 21
64.0334
 31
0.0
  0
LINE
  8
0
 62
     0
 10
6.58153
 20
64.0334
 30
0.0
 11
6.58153
 21
60.9328
 31
0.0
  0
LINE
  8
0
 62
     0
 10
6.58153
 20
60.9328
 30
0.0
 11
7.38216
 21
60.9328
 31
0.0
  0
LINE
  8
0
 62
     0
 10
7.38216
 20
60.9328
 30
0.0
 11
7.38216
 21
59.9338
 31
0.0
  0
LINE
  8
0
 62
     0
 10
7.38216
 20
59.9338
 30
0.0
 11
21.3817
 21
59.9338
 31
0.0
  0
LINE
  8
0
 62
     0
 10
21.3817
 20
59.9338
 30
0.0
 11
21.3817
 21
60.9328
 31
0.0
  0
LINE
  8
0
 62
     0
 10
21.3817
 20
60.9328
 30
0.0
 11
22.1809
 21
60.9328
 31
0.0
  0
LINE
  8
0
 62
     0
 10
22.1809
 20
60.9328
 30
0.0
 11
22.1809
 21
64.0334
 31
0.0
  0
LINE
  8
0
 62
     0
 10
22.1809
 20
64.0334
 30
0.0
 11
21.3817
 21
64.0334
 31
0.0
  0
LINE
  8
0
 62
     0
 10
21.3817
 20
64.0334
 30
0.0
 11
21.3817
 21
69.8334
 31
0.0
  0
LINE
  8
0
 62
     0
 10
21.3817
 20
69.8334
 30
0.0
 11
22.1809
 21
69.8334
 31
0.0
  0
LINE
  8
0
 62
     0
 10
22.1809
 20
69.8334
 30
0.0
 11
22.1809
 21
72.9326
 31
0.0
  0
LINE
  8
0
 62
     0
 10
22.1809
 20
72.9326
 30
0.0
 11
21.3817
 21
72.9326
 31
0.0
  0
LINE
  8
0
 62
     0
 10
21.3817
 20
72.9326
 30
0.0
 11
21.3817
 21
73.9331
 31
0.0
  0
LINE
  8
0
 62
     0
 10
21.3817
 20
73.9331
 30
0.0
 11
7.38216
 21
73.9331
 31
0.0
  0
LINE
  8
0
 62
     0
 10
31.1947
 20
73.9331
 30
0.0
 11
31.1947
 21
72.9326
 31
0.0
  0
LINE
  8
0
 62
     0
 10
31.1947
 20
72.9326
 30
0.0
 11
30.394
 21
72.9326
 31
0.0
  0
LINE
  8
0
 62
     0
 10
30.394
 20
72.9326
 30
0.0
 11
30.394
 21
69.8334
 31
0.0
  0
LINE
  8
0
 62
     0
 10
30.394
 20
69.8334
 30
0.0
 11
31.1947
 21
69.8334
 31
0.0
  0
LINE
  8
0
 62
     0
 10
31.1947
 20
69.8334
 30
0.0
 11
31.1947
 21
64.0334
 31
0.0
  0
LINE
  8
0
 62
     0
 10
31.1947
 20
64.0334
 30
0.0
 11
30.394
 21
64.0334
 31
0.0
  0
LINE
  8
0
 62
     0
 10
30.394
 20
64.0334
 30
0.0
 11
30.394
 21
60.9328
 31
0.0
  0
LINE
  8
0
 62
     0
 10
30.394
 20
60.9328
 30
0.0
 11
31.1947
 21
60.9328
 31
0.0
  0
LINE
  8
0
 62
     0
 10
31.1947
 20
60.9328
 30
0.0
 11
31.1947
 21
59.9338
 31
0.0
  0
LINE
  8
0
 62
     0
 10
31.1947
 20
59.9338
 30
0.0
 11
45.194
 21
59.9338
 31
0.0
  0
LINE
  8
0
 62
     0
 10
45.194
 20
59.9338
 30
0.0
 11
45.194
 21
60.9328
 31
0.0
  0
LINE
  8
0
 62
     0
 10
45.194
 20
60.9328
 30
0.0
 11
45.9948
 21
60.9328
 31
0.0
  0
LINE
  8
0
 62
     0
 10
45.9948
 20
60.9328
 30
0.0
 11
45.9948
 21
64.0334
 31
0.0
  0
LINE
  8
0
 62
     0
 10
45.9948
 20
64.0334
 30
0.0
 11
45.194
 21
64.0334
 31
0.0
  0
LINE
  8
0
 62
     0
 10
45.194
 20
64.0334
 30
0.0
 11
45.194
 21
69.8334
 31
0.0
  0
LINE
  8
0
 62
     0
 10
45.194
 20
69.8334
 30
0.0
 11
45.9948
 21
69.8334
 31
0.0
  0
LINE
  8
0
 62
     0
 10
45.9948
 20
69.8334
 30
0.0
 11
45.9948
 21
72.9326
 31
0.0
  0
LINE
  8
0
 62
     0
 10
45.9948
 20
72.9326
 30
0.0
 11
45.194
 21
72.9326
 31
0.0
  0
LINE
  8
0
 62
     0
 10
45.194
 20
72.9326
 30
0.0
 11
45.194
 21
73.9331
 31
0.0
  0
LINE
  8
0
 62
     0
 10
45.194
 20
73.9331
 30
0.0
 11
31.1947
 21
73.9331
 31
0.0
  0
LINE
  8
0
 62
     0
 10
50.2447
 20
73.9331
 30
0.0
 11
50.2447
 21
72.9326
 31
0.0
  0
LINE
  8
0
 62
     0
 10
50.2447
 20
72.9326
 30
0.0
 11
49.4439
 21
72.9326
 31
0.0
  0
LINE
  8
0
 62
     0
 10
49.4439
 20
72.9326
 30
0.0
 11
49.4439
 21
69.8334
 31
0.0
  0
LINE
  8
0
 62
     0
 10
49.4439
 20
69.8334
 30
0.0
 11
50.2447
 21
69.8334
 31
0.0
  0
LINE
  8
0
 62
     0
 10
50.2447
 20
69.8334
 30
0.0
 11
50.2447
 21
64.0334
 31
0.0
  0
LINE
  8
0
 62
     0
 10
50.2447
 20
64.0334
 30
0.0
 11
49.4439
 21
64.0334
 31
0.0
  0
LINE
  8
0
 62
     0
 10
49.4439
 20
64.0334
 30
0.0
 11
49.4439
 21
60.9328
 31
0.0
  0
LINE
  8
0
 62
     0
 10
49.4439
 20
60.9328
 30
0.0
 11
50.2447
 21
60.9328
 31
0.0
  0
LINE
  8
0
 62
     0
 10
50.2447
 20
60.9328
 30
0.0
 11
50.2447
 21
59.9338
 31
0.0
  0
LINE
  8
0
 62
     0
 10
50.2447
 20
59.9338
 30
0.0
 11
64.244
 21
59.9338
 31
0.0
  0
LINE
  8
0
 62
     0
 10
64.244
 20
59.9338
 30
0.0
 11
64.244
 21
60.9328
 31
0.0
  0
LINE
  8
0
 62
     0
 10
64.244
 20
60.9328
 30
0.0
 11
65.0448
 21
60.9328
 31
0.0
  0
LINE
  8
0
 62
     0
 10
65.0448
 20
60.9328
 30
0.0
 11
65.0448
 21
64.0334
 31
0.0
  0
LINE
  8
0
 62
     0
 10
65.0448
 20
64.0334
 30
0.0
 11
64.244
 21
64.0334
 31
0.0
  0
LINE
  8
0
 62
     0
 10
64.244
 20
64.0334
 30
0.0
 11
64.244
 21
69.8334
 31
0.0
  0
LINE
  8
0
 62
     0
 10
64.244
 20
69.8334
 30
0.0
 11
65.0448
 21
69.8334
 31
0.0
  0
LINE
  8
0
 62
     0
 10
65.0448
 20
69.8334
 30
0.0
 11
65.0448
 21
72.9326
 31
0.0
  0
LINE
  8
0
 62
     0
 10
65.0448
 20
72.9326
 30
0.0
 11
64.244
 21
72.9326
 31
0.0
  0
LINE
  8
0
 62
     0
 10
64.244
 20
72.9326
 30
0.0
 11
64.244
 21
73.9331
 31
0.0
  0
LINE
  8
0
 62
     0
 10
64.244
 20
73.9331
 30
0.0
 11
50.2447
 21
73.9331
 31
0.0
  0
LINE
  8
0
 62
     0
 10
69.2947
 20
73.9331
 30
0.0
 11
69.2947
 21
72.9326
 31
0.0
  0
LINE
  8
0
 62
     0
 10
69.2947
 20
72.9326
 30
0.0
 11
68.4939
 21
72.9326
 31
0.0
  0
LINE
  8
0
 62
     0
 10
68.4939
 20
72.9326
 30
0.0
 11
68.4939
 21
69.8334
 31
0.0
  0
LINE
  8
0
 62
     0
 10
68.4939
 20
69.8334
 30
0.0
 11
69.2947
 21
69.8334
 31
0.0
  0
LINE
  8
0
 62
     0
 10
69.2947
 20
69.8334
 30
0.0
 11
69.2947
 21
64.0334
 31
0.0
  0
LINE
  8
0
 62
     0
 10
69.2947
 20
64.0334
 30
0.0
 11
68.4939
 21
64.0334
 31
0.0
  0
LINE
  8
0
 62
     0
 10
68.4939
 20
64.0334
 30
0.0
 11
68.4939
 21
60.9328
 31
0.0
  0
LINE
  8
0
 62
     0
 10
68.4939
 20
60.9328
 30
0.0
 11
69.2947
 21
60.9328
 31
0.0
  0
LINE
  8
0
 62
     0
 10
69.2947
 20
60.9328
 30
0.0
 11
69.2947
 21
59.9338
 31
0.0
  0
LINE
  8
0
 62
     0
 10
69.2947
 20
59.9338
 30
0.0
 11
83.294
 21
59.9338
 31
0.0
  0
LINE
  8
0
 62
     0
 10
83.294
 20
59.9338
 30
0.0
 11
83.294
 21
60.9328
 31
0.0
  0
LINE
  8
0
 62
     0
 10
83.294
 20
60.9328
 30
0.0
 11
84.0948
 21
60.9328
 31
0.0
  0
LINE
  8
0
 62
     0
 10
84.0948
 20
60.9328
 30
0.0
 11
84.0948
 21
64.0334
 31
0.0
  0
LINE
  8
0
 62
     0
 10
84.0948
 20
64.0334
 30
0.0
 11
83.294
 21
64.0334
 31
0.0
  0
LINE
  8
0
 62
     0
 10
83.294
 20
64.0334
 30
0.0
 11
83.294
 21
69.8334
 31
0.0
  0
LINE
  8
0
 62
     0
 10
83.294
 20
69.8334
 30
0.0
 11
84.0948
 21
69.8334
 31
0.0
  0
LINE
  8
0
 62
     0
 10
84.0948
 20
69.8334
 30
0.0
 11
84.0948
 21
72.9326
 31
0.0
  0
LINE
  8
0
 62
     0
 10
84.0948
 20
72.9326
 30
0.0
 11
83.294
 21
72.9326
 31
0.0
  0
LINE
  8
0
 62
     0
 10
83.294
 20
72.9326
 30
0.0
 11
83.294
 21
73.9331
 31
0.0
  0
LINE
  8
0
 62
     0
 10
83.294
 20
73.9331
 30
0.0
 11
69.2947
 21
73.9331
 31
0.0
  0
LINE
  8
0
 62
     0
 10
88.3447
 20
73.9331
 30
0.0
 11
88.3447
 21
72.9326
 31
0.0
  0
LINE
  8
0
 62
     0
 10
88.3447
 20
72.9326
 30
0.0
 11
87.5439
 21
72.9326
 31
0.0
  0
LINE
  8
0
 62
     0
 10
87.5439
 20
72.9326
 30
0.0
 11
87.5439
 21
69.8334
 31
0.0
  0
LINE
  8
0
 62
     0
 10
87.5439
 20
69.8334
 30
0.0
 11
88.3447
 21
69.8334
 31
0.0
  0
LINE
  8
0
 62
     0
 10
88.3447
 20
69.8334
 30
0.0
 11
88.3447
 21
64.0334
 31
0.0
  0
LINE
  8
0
 62
     0
 10
88.3447
 20
64.0334
 30
0.0
 11
87.5439
 21
64.0334
 31
0.0
  0
LINE
  8
0
 62
     0
 10
87.5439
 20
64.0334
 30
0.0
 11
87.5439
 21
60.9328
 31
0.0
  0
LINE
  8
0
 62
     0
 10
87.5439
 20
60.9328
 30
0.0
 11
88.3447
 21
60.9328
 31
0.0
  0
LINE
  8
0
 62
     0
 10
88.3447
 20
60.9328
 30
0.0
 11
88.3447
 21
59.9338
 31
0.0
  0
LINE
  8
0
 62
     0
 10
88.3447
 20
59.9338
 30
0.0
 11
102.344
 21
59.9338
 31
0.0
  0
LINE
  8
0
 62
     0
 10
102.344
 20
59.9338
 30
0.0
 11
102.344
 21
60.9328
 31
0.0
  0
LINE
  8
0
 62
     0
 10
102.344
 20
60.9328
 30
0.0
 11
103.145
 21
60.9328
 31
0.0
  0
LINE
  8
0
 62
     0
 10
103.145
 20
60.9328
 30
0.0
 11
103.145
 21
64.0334
 31
0.0
  0
LINE
  8
0
 62
     0
 10
103.145
 20
64.0334
 30
0.0
 11
102.344
 21
64.0334
 31
0.0
  0
LINE
  8
0
 62
     0
 10
102.344
 20
64.0334
 30
0.0
 11
102.344
 21
69.8334
 31
0.0
  0
LINE
  8
0
 62
     0
 10
102.344
 20
69.8334
 30
0.0
 11
103.145
 21
69.8334
 31
0.0
  0
LINE
  8
0
 62
     0
 10
103.145
 20
69.8334
 30
0.0
 11
103.145
 21
72.9326
 31
0.0
  0
LINE
  8
0
 62
     0
 10
103.145
 20
72.9326
 30
0.0
 11
102.344
 21
72.9326
 31
0.0
  0
LINE
  8
0
 62
     0
 10
102.344
 20
72.9326
 30
0.0
 11
102.344
 21
73.9331
 31
0.0
  0
LINE
  8
0
 62
     0
 10
102.344
 20
73.9331
 30
0.0
 11
88.3447
 21
73.9331
 31
0.0
  0
LINE
  8
0
 62
     0
 10
107.395
 20
73.9331
 30
0.0
 11
107.395
 21
72.9326
 31
0.0
  0
LINE
  8
0
 62
     0
 10
107.395
 20
72.9326
 30
0.0
 11
106.594
 21
72.9326
 31
0.0
  0
LINE
  8
0
 62
     0
 10
106.594
 20
72.9326
 30
0.0
 11
106.594
 21
69.8334
 31
0.0
  0
LINE
  8
0
 62
     0
 10
106.594
 20
69.8334
 30
0.0
 11
107.395
 21
69.8334
 31
0.0
  0
LINE
  8
0
 62
     0
 10
107.395
 20
69.8334
 30
0.0
 11
107.395
 21
64.0334
 31
0.0
  0
LINE
  8
0
 62
     0
 10
107.395
 20
64.0334
 30
0.0
 11
106.594
 21
64.0334
 31
0.0
  0
LINE
  8
0
 62
     0
 10
106.594
 20
64.0334
 30
0.0
 11
106.594
 21
60.9328
 31
0.0
  0
LINE
  8
0
 62
     0
 10
106.594
 20
60.9328
 30
0.0
 11
107.395
 21
60.9328
 31
0.0
  0
LINE
  8
0
 62
     0
 10
107.395
 20
60.9328
 30
0.0
 11
107.395
 21
59.9338
 31
0.0
  0
LINE
  8
0
 62
     0
 10
107.395
 20
59.9338
 30
0.0
 11
121.394
 21
59.9338
 31
0.0
  0
LINE
  8
0
 62
     0
 10
121.394
 20
59.9338
 30
0.0
 11
121.394
 21
60.9328
 31
0.0
  0
LINE
  8
0
 62
     0
 10
121.394
 20
60.9328
 30
0.0
 11
122.195
 21
60.9328
 31
0.0
  0
LINE
  8
0
 62
     0
 10
122.195
 20
60.9328
 30
0.0
 11
122.195
 21
64.0334
 31
0.0
  0
LINE
  8
0
 62
     0
 10
122.195
 20
64.0334
 30
0.0
 11
121.394
 21
64.0334
 31
0.0
  0
LINE
  8
0
 62
     0
 10
121.394
 20
64.0334
 30
0.0
 11
121.394
 21
69.8334
 31
0.0
  0
LINE
  8
0
 62
     0
 10
121.394
 20
69.8334
 30
0.0
 11
122.195
 21
69.8334
 31
0.0
  0
LINE
  8
0
 62
     0
 10
122.195
 20
69.8334
 30
0.0
 11
122.195
 21
72.9326
 31
0.0
  0
LINE
  8
0
 62
     0
 10
122.195
 20
72.9326
 30
0.0
 11
121.394
 21
72.9326
 31
0.0
  0
LINE
  8
0
 62
     0
 10
121.394
 20
72.9326
 30
0.0
 11
121.394
 21
73.9331
 31
0.0
  0
LINE
  8
0
 62
     0
 10
121.394
 20
73.9331
 30
0.0
 11
107.395
 21
73.9331
 31
0.0
  0
LINE
  8
0
 62
     0
 10
126.445
 20
73.9331
 30
0.0
 11
126.445
 21
72.9326
 31
0.0
  0
LINE
  8
0
 62
     0
 10
126.445
 20
72.9326
 30
0.0
 11
125.644
 21
72.9326
 31
0.0
  0
LINE
  8
0
 62
     0
 10
125.644
 20
72.9326
 30
0.0
 11
125.644
 21
69.8334
 31
0.0
  0
LINE
  8
0
 62
     0
 10
125.644
 20
69.8334
 30
0.0
 11
126.445
 21
69.8334
 31
0.0
  0
LINE
  8
0
 62
     0
 10
126.445
 20
69.8334
 30
0.0
 11
126.445
 21
64.0334
 31
0.0
  0
LINE
  8
0
 62
     0
 10
126.445
 20
64.0334
 30
0.0
 11
125.644
 21
64.0334
 31
0.0
  0
LINE
  8
0
 62
     0
 10
125.644
 20
64.0334
 30
0.0
 11
125.644
 21
60.9328
 31
0.0
  0
LINE
  8
0
 62
     0
 10
125.644
 20
60.9328
 30
0.0
 11
126.445
 21
60.9328
 31
0.0
  0
LINE
  8
0
 62
     0
 10
126.445
 20
60.9328
 30
0.0
 11
126.445
 21
59.9338
 31
0.0
  0
LINE
  8
0
 62
     0
 10
126.445
 20
59.9338
 30
0.0
 11
140.444
 21
59.9338
 31
0.0
  0
LINE
  8
0
 62
     0
 10
140.444
 20
59.9338
 30
0.0
 11
140.444
 21
60.9328
 31
0.0
  0
LINE
  8
0
 62
     0
 10
140.444
 20
60.9328
 30
0.0
 11
141.245
 21
60.9328
 31
0.0
  0
LINE
  8
0
 62
     0
 10
141.245
 20
60.9328
 30
0.0
 11
141.245
 21
64.0334
 31
0.0
  0
LINE
  8
0
 62
     0
 10
141.245
 20
64.0334
 30
0.0
 11
140.444
 21
64.0334
 31
0.0
  0
LINE
  8
0
 62
     0
 10
140.444
 20
64.0334
 30
0.0
 11
140.444
 21
69.8334
 31
0.0
  0
LINE
  8
0
 62
     0
 10
140.444
 20
69.8334
 30
0.0
 11
141.245
 21
69.8334
 31
0.0
  0
LINE
  8
0
 62
     0
 10
141.245
 20
69.8334
 30
0.0
 11
141.245
 21
72.9326
 31
0.0
  0
LINE
  8
0
 62
     0
 10
141.245
 20
72.9326
 30
0.0
 11
140.444
 21
72.9326
 31
0.0
  0
LINE
  8
0
 62
     0
 10
140.444
 20
72.9326
 30
0.0
 11
140.444
 21
73.9331
 31
0.0
  0
LINE
  8
0
 62
     0
 10
140.444
 20
73.9331
 30
0.0
 11
126.445
 21
73.9331
 31
0.0
  0
LINE
  8
0
 62
     0
 10
145.495
 20
73.9331
 30
0.0
 11
145.495
 21
72.9326
 31
0.0
  0
LINE
  8
0
 62
     0
 10
145.495
 20
72.9326
 30
0.0
 11
144.694
 21
72.9326
 31
0.0
  0
LINE
  8
0
 62
     0
 10
144.694
 20
72.9326
 30
0.0
 11
144.694
 21
69.8334
 31
0.0
  0
LINE
  8
0
 62
     0
 10
144.694
 20
69.8334
 30
0.0
 11
145.495
 21
69.8334
 31
0.0
  0
LINE
  8
0
 62
     0
 10
145.495
 20
69.8334
 30
0.0
 11
145.495
 21
64.0334
 31
0.0
  0
LINE
  8
0
 62
     0
 10
145.495
 20
64.0334
 30
0.0
 11
144.694
 21
64.0334
 31
0.0
  0
LINE
  8
0
 62
     0
 10
144.694
 20
64.0334
 30
0.0
 11
144.694
 21
60.9328
 31
0.0
  0
LINE
  8
0
 62
     0
 10
144.694
 20
60.9328
 30
0.0
 11
145.495
 21
60.9328
 31
0.0
  0
LINE
  8
0
 62
     0
 10
145.495
 20
60.9328
 30
0.0
 11
145.495
 21
59.9338
 31
0.0
  0
LINE
  8
0
 62
     0
 10
145.495
 20
59.9338
 30
0.0
 11
159.494
 21
59.9338
 31
0.0
  0
LINE
  8
0
 62
     0
 10
159.494
 20
59.9338
 30
0.0
 11
159.494
 21
60.9328
 31
0.0
  0
LINE
  8
0
 62
     0
 10
159.494
 20
60.9328
 30
0.0
 11
160.295
 21
60.9328
 31
0.0
  0
LINE
  8
0
 62
     0
 10
160.295
 20
60.9328
 30
0.0
 11
160.295
 21
64.0334
 31
0.0
  0
LINE
  8
0
 62
     0
 10
160.295
 20
64.0334
 30
0.0
 11
159.494
 21
64.0334
 31
0.0
  0
LINE
  8
0
 62
     0
 10
159.494
 20
64.0334
 30
0.0
 11
159.494
 21
69.8334
 31
0.0
  0
LINE
  8
0
 62
     0
 10
159.494
 20
69.8334
 30
0.0
 11
160.295
 21
69.8334
 31
0.0
  0
LINE
  8
0
 62
     0
 10
160.295
 20
69.8334
 30
0.0
 11
160.295
 21
72.9326
 31
0.0
  0
LINE
  8
0
 62
     0
 10
160.295
 20
72.9326
 30
0.0
 11
159.494
 21
72.9326
 31
0.0
  0
LINE
  8
0
 62
     0
 10
159.494
 20
72.9326
 30
0.0
 11
159.494
 21
73.9331
 31
0.0
  0
LINE
  8
0
 62
     0
 10
159.494
 20
73.9331
 30
0.0
 11
145.495
 21
73.9331
 31
0.0
  0
LINE
  8
0
 62
     0
 10
164.545
 20
73.9331
 30
0.0
 11
164.545
 21
72.9326
 31
0.0
  0
LINE
  8
0
 62
     0
 10
164.545
 20
72.9326
 30
0.0
 11
163.744
 21
72.9326
 31
0.0
  0
LINE
  8
0
 62
     0
 10
163.744
 20
72.9326
 30
0.0
 11
163.744
 21
69.8334
 31
0.0
  0
LINE
  8
0
 62
     0
 10
163.744
 20
69.8334
 30
0.0
 11
164.545
 21
69.8334
 31
0.0
  0
LINE
  8
0
 62
     0
 10
164.545
 20
69.8334
 30
0.0
 11
164.545
 21
64.0334
 31
0.0
  0
LINE
  8
0
 62
     0
 10
164.545
 20
64.0334
 30
0.0
 11
163.744
 21
64.0334
 31
0.0
  0
LINE
  8
0
 62
     0
 10
163.744
 20
64.0334
 30
0.0
 11
163.744
 21
60.9328
 31
0.0
  0
LINE
  8
0
 62
     0
 10
163.744
 20
60.9328
 30
0.0
 11
164.545
 21
60.9328
 31
0.0
  0
LINE
  8
0
 62
     0
 10
164.545
 20
60.9328
 30
0.0
 11
164.545
 21
59.9338
 31
0.0
  0
LINE
  8
0
 62
     0
 10
164.545
 20
59.9338
 30
0.0
 11
178.544
 21
59.9338
 31
0.0
  0
LINE
  8
0
 62
     0
 10
178.544
 20
59.9338
 30
0.0
 11
178.544
 21
60.9328
 31
0.0
  0
LINE
  8
0
 62
     0
 10
178.544
 20
60.9328
 30
0.0
 11
179.345
 21
60.9328
 31
0.0
  0
LINE
  8
0
 62
     0
 10
179.345
 20
60.9328
 30
0.0
 11
179.345
 21
64.0334
 31
0.0
  0
LINE
  8
0
 62
     0
 10
179.345
 20
64.0334
 30
0.0
 11
178.544
 21
64.0334
 31
0.0
  0
LINE
  8
0
 62
     0
 10
178.544
 20
64.0334
 30
0.0
 11
178.544
 21
69.8334
 31
0.0
  0
LINE
  8
0
 62
     0
 10
178.544
 20
69.8334
 30
0.0
 11
179.345
 21
69.8334
 31
0.0
  0
LINE
  8
0
 62
     0
 10
179.345
 20
69.8334
 30
0.0
 11
179.345
 21
72.9326
 31
0.0
  0
LINE
  8
0
 62
     0
 10
179.345
 20
72.9326
 30
0.0
 11
178.544
 21
72.9326
 31
0.0
  0
LINE
  8
0
 62
     0
 10
178.544
 20
72.9326
 30
0.0
 11
178.544
 21
73.9331
 31
0.0
  0
LINE
  8
0
 62
     0
 10
178.544
 20
73.9331
 30
0.0
 11
164.545
 21
73.9331
 31
0.0
  0
LINE
  8
0
 62
     0
 10
183.595
 20
73.9331
 30
0.0
 11
183.595
 21
72.9326
 31
0.0
  0
LINE
  8
0
 62
     0
 10
183.595
 20
72.9326
 30
0.0
 11
182.794
 21
72.9326
 31
0.0
  0
LINE
  8
0
 62
     0
 10
182.794
 20
72.9326
 30
0.0
 11
182.794
 21
69.8334
 31
0.0
  0
LINE
  8
0
 62
     0
 10
182.794
 20
69.8334
 30
0.0
 11
183.595
 21
69.8334
 31
0.0
  0
LINE
  8
0
 62
     0
 10
183.595
 20
69.8334
 30
0.0
 11
183.595
 21
64.0334
 31
0.0
  0
LINE
  8
0
 62
     0
 10
183.595
 20
64.0334
 30
0.0
 11
182.794
 21
64.0334
 31
0.0
  0
LINE
  8
0
 62
     0
 10
182.794
 20
64.0334
 30
0.0
 11
182.794
 21
60.9328
 31
0.0
  0
LINE
  8
0
 62
     0
 10
182.794
 20
60.9328
 30
0.0
 11
183.595
 21
60.9328
 31
0.0
  0
LINE
  8
0
 62
     0
 10
183.595
 20
60.9328
 30
0.0
 11
183.595
 21
59.9338
 31
0.0
  0
LINE
  8
0
 62
     0
 10
183.595
 20
59.9338
 30
0.0
 11
197.594
 21
59.9338
 31
0.0
  0
LINE
  8
0
 62
     0
 10
197.594
 20
59.9338
 30
0.0
 11
197.594
 21
60.9328
 31
0.0
  0
LINE
  8
0
 62
     0
 10
197.594
 20
60.9328
 30
0.0
 11
198.395
 21
60.9328
 31
0.0
  0
LINE
  8
0
 62
     0
 10
198.395
 20
60.9328
 30
0.0
 11
198.395
 21
64.0334
 31
0.0
  0
LINE
  8
0
 62
     0
 10
198.395
 20
64.0334
 30
0.0
 11
197.594
 21
64.0334
 31
0.0
  0
LINE
  8
0
 62
     0
 10
197.594
 20
64.0334
 30
0.0
 11
197.594
 21
69.8334
 31
0.0
  0
LINE
  8
0
 62
     0
 10
197.594
 20
69.8334
 30
0.0
 11
198.395
 21
69.8334
 31
0.0
  0
LINE
  8
0
 62
     0
 10
198.395
 20
69.8334
 30
0.0
 11
198.395
 21
72.9326
 31
0.0
  0
LINE
  8
0
 62
     0
 10
198.395
 20
72.9326
 30
0.0
 11
197.594
 21
72.9326
 31
0.0
  0
LINE
  8
0
 62
     0
 10
197.594
 20
72.9326
 30
0.0
 11
197.594
 21
73.9331
 31
0.0
  0
LINE
  8
0
 62
     0
 10
197.594
 20
73.9331
 30
0.0
 11
183.595
 21
73.9331
 31
0.0
  0
LINE
  8
0
 62
     0
 10
202.645
 20
73.9331
 30
0.0
 11
202.645
 21
72.9326
 31
0.0
  0
LINE
  8
0
 62
     0
 10
202.645
 20
72.9326
 30
0.0
 11
201.844
 21
72.9326
 31
0.0
  0
LINE
  8
0
 62
     0
 10
201.844
 20
72.9326
 30
0.0
 11
201.844
 21
69.8334
 31
0.0
  0
LINE
  8
0
 62
     0
 10
201.844
 20
69.8334
 30
0.0
 11
202.645
 21
69.8334
 31
0.0
  0
LINE
  8
0
 62
     0
 10
202.645
 20
69.8334
 30
0.0
 11
202.645
 21
64.0334
 31
0.0
  0
LINE
  8
0
 62
     0
 10
202.645
 20
64.0334
 30
0.0
 11
201.844
 21
64.0334
 31
0.0
  0
LINE
  8
0
 62
     0
 10
201.844
 20
64.0334
 30
0.0
 11
201.844
 21
60.9328
 31
0.0
  0
LINE
  8
0
 62
     0
 10
201.844
 20
60.9328
 30
0.0
 11
202.645
 21
60.9328
 31
0.0
  0
LINE
  8
0
 62
     0
 10
202.645
 20
60.9328
 30
0.0
 11
202.645
 21
59.9338
 31
0.0
  0
LINE
  8
0
 62
     0
 10
202.645
 20
59.9338
 30
0.0
 11
216.644
 21
59.9338
 31
0.0
  0
LINE
  8
0
 62
     0
 10
216.644
 20
59.9338
 30
0.0
 11
216.644
 21
60.9328
 31
0.0
  0
LINE
  8
0
 62
     0
 10
216.644
 20
60.9328
 30
0.0
 11
217.445
 21
60.9328
 31
0.0
  0
LINE
  8
0
 62
     0
 10
217.445
 20
60.9328
 30
0.0
 11
217.445
 21
64.0334
 31
0.0
  0
LINE
  8
0
 62
     0
 10
217.445
 20
64.0334
 30
0.0
 11
216.644
 21
64.0334
 31
0.0
  0
LINE
  8
0
 62
     0
 10
216.644
 20
64.0334
 30
0.0
 11
216.644
 21
69.8334
 31
0.0
  0
LINE
  8
0
 62
     0
 10
216.644
 20
69.8334
 30
0.0
 11
217.445
 21
69.8334
 31
0.0
  0
LINE
  8
0
 62
     0
 10
217.445
 20
69.8334
 30
0.0
 11
217.445
 21
72.9326
 31
0.0
  0
LINE
  8
0
 62
     0
 10
217.445
 20
72.9326
 30
0.0
 11
216.644
 21
72.9326
 31
0.0
  0
LINE
  8
0
 62
     0
 10
216.644
 20
72.9326
 30
0.0
 11
216.644
 21
73.9331
 31
0.0
  0
LINE
  8
0
 62
     0
 10
216.644
 20
73.9331
 30
0.0
 11
202.645
 21
73.9331
 31
0.0
  0
LINE
  8
0
 62
     0
 10
221.695
 20
73.9331
 30
0.0
 11
221.695
 21
72.9326
 31
0.0
  0
LINE
  8
0
 62
     0
 10
221.695
 20
72.9326
 30
0.0
 11
220.894
 21
72.9326
 31
0.0
  0
LINE
  8
0
 62
     0
 10
220.894
 20
72.9326
 30
0.0
 11
220.894
 21
69.8334
 31
0.0
  0
LINE
  8
0
 62
     0
 10
220.894
 20
69.8334
 30
0.0
 11
221.695
 21
69.8334
 31
0.0
  0
LINE
  8
0
 62
     0
 10
221.695
 20
69.8334
 30
0.0
 11
221.695
 21
64.0334
 31
0.0
  0
LINE
  8
0
 62
     0
 10
221.695
 20
64.0334
 30
0.0
 11
220.894
 21
64.0334
 31
0.0
  0
LINE
  8
0
 62
     0
 10
220.894
 20
64.0334
 30
0.0
 11
220.894
 21
60.9328
 31
0.0
  0
LINE
  8
0
 62
     0
 10
220.894
 20
60.9328
 30
0.0
 11
221.695
 21
60.9328
 31
0.0
  0
LINE
  8
0
 62
     0
 10
221.695
 20
60.9328
 30
0.0
 11
221.695
 21
59.9338
 31
0.0
  0
LINE
  8
0
 62
     0
 10
221.695
 20
59.9338
 30
0.0
 11
235.694
 21
59.9338
 31
0.0
  0
LINE
  8
0
 62
     0
 10
235.694
 20
59.9338
 30
0.0
 11
235.694
 21
60.9328
 31
0.0
  0
LINE
  8
0
 62
     0
 10
235.694
 20
60.9328
 30
0.0
 11
236.495
 21
60.9328
 31
0.0
  0
LINE
  8
0
 62
     0
 10
236.495
 20
60.9328
 30
0.0
 11
236.495
 21
64.0334
 31
0.0
  0
LINE
  8
0
 62
     0
 10
236.495
 20
64.0334
 30
0.0
 11
235.694
 21
64.0334
 31
0.0
  0
LINE
  8
0
 62
     0
 10
235.694
 20
64.0334
 30
0.0
 11
235.694
 21
69.8334
 31
0.0
  0
LINE
  8
0
 62
     0
 10
235.694
 20
69.8334
 30
0.0
 11
236.495
 21
69.8334
 31
0.0
  0
LINE
  8
0
 62
     0
 10
236.495
 20
69.8334
 30
0.0
 11
236.495
 21
72.9326
 31
0.0
  0
LINE
  8
0
 62
     0
 10
236.495
 20
72.9326
 30
0.0
 11
235.694
 21
72.9326
 31
0.0
  0
LINE
  8
0
 62
     0
 10
235.694
 20
72.9326
 30
0.0
 11
235.694
 21
73.9331
 31
0.0
  0
LINE
  8
0
 62
     0
 10
235.694
 20
73.9331
 30
0.0
 11
221.695
 21
73.9331
 31
0.0
  0
LINE
  8
0
 62
     0
 10
2.61965
 20
92.9831
 30
0.0
 11
2.61965
 21
91.9826
 31
0.0
  0
LINE
  8
0
 62
     0
 10
2.61965
 20
91.9826
 30
0.0
 11
1.81901
 21
91.9826
 31
0.0
  0
LINE
  8
0
 62
     0
 10
1.81901
 20
91.9826
 30
0.0
 11
1.81901
 21
88.8834
 31
0.0
  0
LINE
  8
0
 62
     0
 10
1.81901
 20
88.8834
 30
0.0
 11
2.61965
 21
88.8834
 31
0.0
  0
LINE
  8
0
 62
     0
 10
2.61965
 20
88.8834
 30
0.0
 11
2.61965
 21
83.0834
 31
0.0
  0
LINE
  8
0
 62
     0
 10
2.61965
 20
83.0834
 30
0.0
 11
1.81901
 21
83.0834
 31
0.0
  0
LINE
  8
0
 62
     0
 10
1.81901
 20
83.0834
 30
0.0
 11
1.81901
 21
79.9828
 31
0.0
  0
LINE
  8
0
 62
     0
 10
1.81901
 20
79.9828
 30
0.0
 11
2.61965
 21
79.9828
 31
0.0
  0
LINE
  8
0
 62
     0
 10
2.61965
 20
79.9828
 30
0.0
 11
2.61965
 21
78.9838
 31
0.0
  0
LINE
  8
0
 62
     0
 10
2.61965
 20
78.9838
 30
0.0
 11
16.6192
 21
78.9838
 31
0.0
  0
LINE
  8
0
 62
     0
 10
16.6192
 20
78.9838
 30
0.0
 11
16.6192
 21
79.9828
 31
0.0
  0
LINE
  8
0
 62
     0
 10
16.6192
 20
79.9828
 30
0.0
 11
17.4198
 21
79.9828
 31
0.0
  0
LINE
  8
0
 62
     0
 10
17.4198
 20
79.9828
 30
0.0
 11
17.4198
 21
83.0834
 31
0.0
  0
LINE
  8
0
 62
     0
 10
17.4198
 20
83.0834
 30
0.0
 11
16.6192
 21
83.0834
 31
0.0
  0
LINE
  8
0
 62
     0
 10
16.6192
 20
83.0834
 30
0.0
 11
16.6192
 21
88.8834
 31
0.0
  0
LINE
  8
0
 62
     0
 10
16.6192
 20
88.8834
 30
0.0
 11
17.4198
 21
88.8834
 31
0.0
  0
LINE
  8
0
 62
     0
 10
17.4198
 20
88.8834
 30
0.0
 11
17.4198
 21
91.9826
 31
0.0
  0
LINE
  8
0
 62
     0
 10
17.4198
 20
91.9826
 30
0.0
 11
16.6192
 21
91.9826
 31
0.0
  0
LINE
  8
0
 62
     0
 10
16.6192
 20
91.9826
 30
0.0
 11
16.6192
 21
92.9831
 31
0.0
  0
LINE
  8
0
 62
     0
 10
16.6192
 20
92.9831
 30
0.0
 11
2.61965
 21
92.9831
 31
0.0
  0
LINE
  8
0
 62
     0
 10
21.6697
 20
92.9831
 30
0.0
 11
21.6697
 21
91.9826
 31
0.0
  0
LINE
  8
0
 62
     0
 10
21.6697
 20
91.9826
 30
0.0
 11
20.869
 21
91.9826
 31
0.0
  0
LINE
  8
0
 62
     0
 10
20.869
 20
91.9826
 30
0.0
 11
20.869
 21
88.8834
 31
0.0
  0
LINE
  8
0
 62
     0
 10
20.869
 20
88.8834
 30
0.0
 11
21.6697
 21
88.8834
 31
0.0
  0
LINE
  8
0
 62
     0
 10
21.6697
 20
88.8834
 30
0.0
 11
21.6697
 21
83.0834
 31
0.0
  0
LINE
  8
0
 62
     0
 10
21.6697
 20
83.0834
 30
0.0
 11
20.869
 21
83.0834
 31
0.0
  0
LINE
  8
0
 62
     0
 10
20.869
 20
83.0834
 30
0.0
 11
20.869
 21
79.9828
 31
0.0
  0
LINE
  8
0
 62
     0
 10
20.869
 20
79.9828
 30
0.0
 11
21.6697
 21
79.9828
 31
0.0
  0
LINE
  8
0
 62
     0
 10
21.6697
 20
79.9828
 30
0.0
 11
21.6697
 21
78.9838
 31
0.0
  0
LINE
  8
0
 62
     0
 10
21.6697
 20
78.9838
 30
0.0
 11
35.669
 21
78.9838
 31
0.0
  0
LINE
  8
0
 62
     0
 10
35.669
 20
78.9838
 30
0.0
 11
35.669
 21
79.9828
 31
0.0
  0
LINE
  8
0
 62
     0
 10
35.669
 20
79.9828
 30
0.0
 11
36.4698
 21
79.9828
 31
0.0
  0
LINE
  8
0
 62
     0
 10
36.4698
 20
79.9828
 30
0.0
 11
36.4698
 21
83.0834
 31
0.0
  0
LINE
  8
0
 62
     0
 10
36.4698
 20
83.0834
 30
0.0
 11
35.669
 21
83.0834
 31
0.0
  0
LINE
  8
0
 62
     0
 10
35.669
 20
83.0834
 30
0.0
 11
35.669
 21
88.8834
 31
0.0
  0
LINE
  8
0
 62
     0
 10
35.669
 20
88.8834
 30
0.0
 11
36.4698
 21
88.8834
 31
0.0
  0
LINE
  8
0
 62
     0
 10
36.4698
 20
88.8834
 30
0.0
 11
36.4698
 21
91.9826
 31
0.0
  0
LINE
  8
0
 62
     0
 10
36.4698
 20
91.9826
 30
0.0
 11
35.669
 21
91.9826
 31
0.0
  0
LINE
  8
0
 62
     0
 10
35.669
 20
91.9826
 30
0.0
 11
35.669
 21
92.9831
 31
0.0
  0
LINE
  8
0
 62
     0
 10
35.669
 20
92.9831
 30
0.0
 11
21.6697
 21
92.9831
 31
0.0
  0
LINE
  8
0
 62
     0
 10
40.7197
 20
92.9831
 30
0.0
 11
40.7197
 21
91.9826
 31
0.0
  0
LINE
  8
0
 62
     0
 10
40.7197
 20
91.9826
 30
0.0
 11
39.9189
 21
91.9826
 31
0.0
  0
LINE
  8
0
 62
     0
 10
39.9189
 20
91.9826
 30
0.0
 11
39.9189
 21
88.8834
 31
0.0
  0
LINE
  8
0
 62
     0
 10
39.9189
 20
88.8834
 30
0.0
 11
40.7197
 21
88.8834
 31
0.0
  0
LINE
  8
0
 62
     0
 10
40.7197
 20
88.8834
 30
0.0
 11
40.7197
 21
83.0834
 31
0.0
  0
LINE
  8
0
 62
     0
 10
40.7197
 20
83.0834
 30
0.0
 11
39.9189
 21
83.0834
 31
0.0
  0
LINE
  8
0
 62
     0
 10
39.9189
 20
83.0834
 30
0.0
 11
39.9189
 21
79.9828
 31
0.0
  0
LINE
  8
0
 62
     0
 10
39.9189
 20
79.9828
 30
0.0
 11
40.7197
 21
79.9828
 31
0.0
  0
LINE
  8
0
 62
     0
 10
40.7197
 20
79.9828
 30
0.0
 11
40.7197
 21
78.9838
 31
0.0
  0
LINE
  8
0
 62
     0
 10
40.7197
 20
78.9838
 30
0.0
 11
54.719
 21
78.9838
 31
0.0
  0
LINE
  8
0
 62
     0
 10
54.719
 20
78.9838
 30
0.0
 11
54.719
 21
79.9828
 31
0.0
  0
LINE
  8
0
 62
     0
 10
54.719
 20
79.9828
 30
0.0
 11
55.5198
 21
79.9828
 31
0.0
  0
LINE
  8
0
 62
     0
 10
55.5198
 20
79.9828
 30
0.0
 11
55.5198
 21
83.0834
 31
0.0
  0
LINE
  8
0
 62
     0
 10
55.5198
 20
83.0834
 30
0.0
 11
54.719
 21
83.0834
 31
0.0
  0
LINE
  8
0
 62
     0
 10
54.719
 20
83.0834
 30
0.0
 11
54.719
 21
88.8834
 31
0.0
  0
LINE
  8
0
 62
     0
 10
54.719
 20
88.8834
 30
0.0
 11
55.5198
 21
88.8834
 31
0.0
  0
LINE
  8
0
 62
     0
 10
55.5198
 20
88.8834
 30
0.0
 11
55.5198
 21
91.9826
 31
0.0
  0
LINE
  8
0
 62
     0
 10
55.5198
 20
91.9826
 30
0.0
 11
54.719
 21
91.9826
 31
0.0
  0
LINE
  8
0
 62
     0
 10
54.719
 20
91.9826
 30
0.0
 11
54.719
 21
92.9831
 31
0.0
  0
LINE
  8
0
 62
     0
 10
54.719
 20
92.9831
 30
0.0
 11
40.7197
 21
92.9831
 31
0.0
  0
LINE
  8
0
 62
     0
 10
59.7697
 20
92.9831
 30
0.0
 11
59.7697
 21
91.9826
 31
0.0
  0
LINE
  8
0
 62
     0
 10
59.7697
 20
91.9826
 30
0.0
 11
58.9689
 21
91.9826
 31
0.0
  0
LINE
  8
0
 62
     0
 10
58.9689
 20
91.9826
 30
0.0
 11
58.9689
 21
88.8834
 31
0.0
  0
LINE
  8
0
 62
     0
 10
58.9689
 20
88.8834
 30
0.0
 11
59.7697
 21
88.8834
 31
0.0
  0
LINE
  8
0
 62
     0
 10
59.7697
 20
88.8834
 30
0.0
 11
59.7697
 21
83.0834
 31
0.0
  0
LINE
  8
0
 62
     0
 10
59.7697
 20
83.0834
 30
0.0
 11
58.9689
 21
83.0834
 31
0.0
  0
LINE
  8
0
 62
     0
 10
58.9689
 20
83.0834
 30
0.0
 11
58.9689
 21
79.9828
 31
0.0
  0
LINE
  8
0
 62
     0
 10
58.9689
 20
79.9828
 30
0.0
 11
59.7697
 21
79.9828
 31
0.0
  0
LINE
  8
0
 62
     0
 10
59.7697
 20
79.9828
 30
0.0
 11
59.7697
 21
78.9838
 31
0.0
  0
LINE
  8
0
 62
     0
 10
59.7697
 20
78.9838
 30
0.0
 11
73.769
 21
78.9838
 31
0.0
  0
LINE
  8
0
 62
     0
 10
73.769
 20
78.9838
 30
0.0
 11
73.769
 21
79.9828
 31
0.0
  0
LINE
  8
0
 62
     0
 10
73.769
 20
79.9828
 30
0.0
 11
74.5698
 21
79.9828
 31
0.0
  0
LINE
  8
0
 62
     0
 10
74.5698
 20
79.9828
 30
0.0
 11
74.5698
 21
83.0834
 31
0.0
  0
LINE
  8
0
 62
     0
 10
74.5698
 20
83.0834
 30
0.0
 11
73.769
 21
83.0834
 31
0.0
  0
LINE
  8
0
 62
     0
 10
73.769
 20
83.0834
 30
0.0
 11
73.769
 21
88.8834
 31
0.0
  0
LINE
  8
0
 62
     0
 10
73.769
 20
88.8834
 30
0.0
 11
74.5698
 21
88.8834
 31
0.0
  0
LINE
  8
0
 62
     0
 10
74.5698
 20
88.8834
 30
0.0
 11
74.5698
 21
91.9826
 31
0.0
  0
LINE
  8
0
 62
     0
 10
74.5698
 20
91.9826
 30
0.0
 11
73.769
 21
91.9826
 31
0.0
  0
LINE
  8
0
 62
     0
 10
73.769
 20
91.9826
 30
0.0
 11
73.769
 21
92.9831
 31
0.0
  0
LINE
  8
0
 62
     0
 10
73.769
 20
92.9831
 30
0.0
 11
59.7697
 21
92.9831
 31
0.0
  0
LINE
  8
0
 62
     0
 10
78.8197
 20
92.9831
 30
0.0
 11
78.8197
 21
91.9826
 31
0.0
  0
LINE
  8
0
 62
     0
 10
78.8197
 20
91.9826
 30
0.0
 11
78.0189
 21
91.9826
 31
0.0
  0
LINE
  8
0
 62
     0
 10
78.0189
 20
91.9826
 30
0.0
 11
78.0189
 21
88.8834
 31
0.0
  0
LINE
  8
0
 62
     0
 10
78.0189
 20
88.8834
 30
0.0
 11
78.8197
 21
88.8834
 31
0.0
  0
LINE
  8
0
 62
     0
 10
78.8197
 20
88.8834
 30
0.0
 11
78.8197
 21
83.0834
 31
0.0
  0
LINE
  8
0
 62
     0
 10
78.8197
 20
83.0834
 30
0.0
 11
78.0189
 21
83.0834
 31
0.0
  0
LINE
  8
0
 62
     0
 10
78.0189
 20
83.0834
 30
0.0
 11
78.0189
 21
79.9828
 31
0.0
  0
LINE
  8
0
 62
     0
 10
78.0189
 20
79.9828
 30
0.0
 11
78.8197
 21
79.9828
 31
0.0
  0
LINE
  8
0
 62
     0
 10
78.8197
 20
79.9828
 30
0.0
 11
78.8197
 21
78.9838
 31
0.0
  0
LINE
  8
0
 62
     0
 10
78.8197
 20
78.9838
 30
0.0
 11
92.819
 21
78.9838
 31
0.0
  0
LINE
  8
0
 62
     0
 10
92.819
 20
78.9838
 30
0.0
 11
92.819
 21
79.9828
 31
0.0
  0
LINE
  8
0
 62
     0
 10
92.819
 20
79.9828
 30
0.0
 11
93.6184
 21
79.9828
 31
0.0
  0
LINE
  8
0
 62
     0
 10
93.6184
 20
79.9828
 30
0.0
 11
93.6184
 21
83.0834
 31
0.0
  0
LINE
  8
0
 62
     0
 10
93.6184
 20
83.0834
 30
0.0
 11
92.819
 21
83.0834
 31
0.0
  0
LINE
  8
0
 62
     0
 10
92.819
 20
83.0834
 30
0.0
 11
92.819
 21
88.8834
 31
0.0
  0
LINE
  8
0
 62
     0
 10
92.819
 20
88.8834
 30
0.0
 11
93.6184
 21
88.8834
 31
0.0
  0
LINE
  8
0
 62
     0
 10
93.6184
 20
88.8834
 30
0.0
 11
93.6184
 21
91.9826
 31
0.0
  0
LINE
  8
0
 62
     0
 10
93.6184
 20
91.9826
 30
0.0
 11
92.819
 21
91.9826
 31
0.0
  0
LINE
  8
0
 62
     0
 10
92.819
 20
91.9826
 30
0.0
 11
92.819
 21
92.9831
 31
0.0
  0
LINE
  8
0
 62
     0
 10
92.819
 20
92.9831
 30
0.0
 11
78.8197
 21
92.9831
 31
0.0
  0
LINE
  8
0
 62
     0
 10
97.8683
 20
92.9831
 30
0.0
 11
97.8683
 21
91.9826
 31
0.0
  0
LINE
  8
0
 62
     0
 10
97.8683
 20
91.9826
 30
0.0
 11
97.0689
 21
91.9826
 31
0.0
  0
LINE
  8
0
 62
     0
 10
97.0689
 20
91.9826
 30
0.0
 11
97.0689
 21
88.8834
 31
0.0
  0
LINE
  8
0
 62
     0
 10
97.0689
 20
88.8834
 30
0.0
 11
97.8683
 21
88.8834
 31
0.0
  0
LINE
  8
0
 62
     0
 10
97.8683
 20
88.8834
 30
0.0
 11
97.8683
 21
83.0834
 31
0.0
  0
LINE
  8
0
 62
     0
 10
97.8683
 20
83.0834
 30
0.0
 11
97.0689
 21
83.0834
 31
0.0
  0
LINE
  8
0
 62
     0
 10
97.0689
 20
83.0834
 30
0.0
 11
97.0689
 21
79.9828
 31
0.0
  0
LINE
  8
0
 62
     0
 10
97.0689
 20
79.9828
 30
0.0
 11
97.8683
 21
79.9828
 31
0.0
  0
LINE
  8
0
 62
     0
 10
97.8683
 20
79.9828
 30
0.0
 11
97.8683
 21
78.9838
 31
0.0
  0
LINE
  8
0
 62
     0
 10
97.8683
 20
78.9838
 30
0.0
 11
111.869
 21
78.9838
 31
0.0
  0
LINE
  8
0
 62
     0
 10
111.869
 20
78.9838
 30
0.0
 11
111.869
 21
79.9828
 31
0.0
  0
LINE
  8
0
 62
     0
 10
111.869
 20
79.9828
 30
0.0
 11
112.668
 21
79.9828
 31
0.0
  0
LINE
  8
0
 62
     0
 10
112.668
 20
79.9828
 30
0.0
 11
112.668
 21
83.0834
 31
0.0
  0
LINE
  8
0
 62
     0
 10
112.668
 20
83.0834
 30
0.0
 11
111.869
 21
83.0834
 31
0.0
  0
LINE
  8
0
 62
     0
 10
111.869
 20
83.0834
 30
0.0
 11
111.869
 21
88.8834
 31
0.0
  0
LINE
  8
0
 62
     0
 10
111.869
 20
88.8834
 30
0.0
 11
112.668
 21
88.8834
 31
0.0
  0
LINE
  8
0
 62
     0
 10
112.668
 20
88.8834
 30
0.0
 11
112.668
 21
91.9826
 31
0.0
  0
LINE
  8
0
 62
     0
 10
112.668
 20
91.9826
 30
0.0
 11
111.869
 21
91.9826
 31
0.0
  0
LINE
  8
0
 62
     0
 10
111.869
 20
91.9826
 30
0.0
 11
111.869
 21
92.9831
 31
0.0
  0
LINE
  8
0
 62
     0
 10
111.869
 20
92.9831
 30
0.0
 11
97.8683
 21
92.9831
 31
0.0
  0
LINE
  8
0
 62
     0
 10
116.918
 20
92.9831
 30
0.0
 11
116.918
 21
91.9826
 31
0.0
  0
LINE
  8
0
 62
     0
 10
116.918
 20
91.9826
 30
0.0
 11
116.119
 21
91.9826
 31
0.0
  0
LINE
  8
0
 62
     0
 10
116.119
 20
91.9826
 30
0.0
 11
116.119
 21
88.8834
 31
0.0
  0
LINE
  8
0
 62
     0
 10
116.119
 20
88.8834
 30
0.0
 11
116.918
 21
88.8834
 31
0.0
  0
LINE
  8
0
 62
     0
 10
116.918
 20
88.8834
 30
0.0
 11
116.918
 21
83.0834
 31
0.0
  0
LINE
  8
0
 62
     0
 10
116.918
 20
83.0834
 30
0.0
 11
116.119
 21
83.0834
 31
0.0
  0
LINE
  8
0
 62
     0
 10
116.119
 20
83.0834
 30
0.0
 11
116.119
 21
79.9828
 31
0.0
  0
LINE
  8
0
 62
     0
 10
116.119
 20
79.9828
 30
0.0
 11
116.918
 21
79.9828
 31
0.0
  0
LINE
  8
0
 62
     0
 10
116.918
 20
79.9828
 30
0.0
 11
116.918
 21
78.9838
 31
0.0
  0
LINE
  8
0
 62
     0
 10
116.918
 20
78.9838
 30
0.0
 11
130.919
 21
78.9838
 31
0.0
  0
LINE
  8
0
 62
     0
 10
130.919
 20
78.9838
 30
0.0
 11
130.919
 21
79.9828
 31
0.0
  0
LINE
  8
0
 62
     0
 10
130.919
 20
79.9828
 30
0.0
 11
131.72
 21
79.9828
 31
0.0
  0
LINE
  8
0
 62
     0
 10
131.72
 20
79.9828
 30
0.0
 11
131.72
 21
83.0834
 31
0.0
  0
LINE
  8
0
 62
     0
 10
131.72
 20
83.0834
 30
0.0
 11
130.919
 21
83.0834
 31
0.0
  0
LINE
  8
0
 62
     0
 10
130.919
 20
83.0834
 30
0.0
 11
130.919
 21
88.8834
 31
0.0
  0
LINE
  8
0
 62
     0
 10
130.919
 20
88.8834
 30
0.0
 11
131.72
 21
88.8834
 31
0.0
  0
LINE
  8
0
 62
     0
 10
131.72
 20
88.8834
 30
0.0
 11
131.72
 21
91.9826
 31
0.0
  0
LINE
  8
0
 62
     0
 10
131.72
 20
91.9826
 30
0.0
 11
130.919
 21
91.9826
 31
0.0
  0
LINE
  8
0
 62
     0
 10
130.919
 20
91.9826
 30
0.0
 11
130.919
 21
92.9831
 31
0.0
  0
LINE
  8
0
 62
     0
 10
130.919
 20
92.9831
 30
0.0
 11
116.918
 21
92.9831
 31
0.0
  0
LINE
  8
0
 62
     0
 10
135.97
 20
92.9831
 30
0.0
 11
135.97
 21
91.9826
 31
0.0
  0
LINE
  8
0
 62
     0
 10
135.97
 20
91.9826
 30
0.0
 11
135.169
 21
91.9826
 31
0.0
  0
LINE
  8
0
 62
     0
 10
135.169
 20
91.9826
 30
0.0
 11
135.169
 21
88.8834
 31
0.0
  0
LINE
  8
0
 62
     0
 10
135.169
 20
88.8834
 30
0.0
 11
135.97
 21
88.8834
 31
0.0
  0
LINE
  8
0
 62
     0
 10
135.97
 20
88.8834
 30
0.0
 11
135.97
 21
83.0834
 31
0.0
  0
LINE
  8
0
 62
     0
 10
135.97
 20
83.0834
 30
0.0
 11
135.169
 21
83.0834
 31
0.0
  0
LINE
  8
0
 62
     0
 10
135.169
 20
83.0834
 30
0.0
 11
135.169
 21
79.9828
 31
0.0
  0
LINE
  8
0
 62
     0
 10
135.169
 20
79.9828
 30
0.0
 11
135.97
 21
79.9828
 31
0.0
  0
LINE
  8
0
 62
     0
 10
135.97
 20
79.9828
 30
0.0
 11
135.97
 21
78.9838
 31
0.0
  0
LINE
  8
0
 62
     0
 10
135.97
 20
78.9838
 30
0.0
 11
149.969
 21
78.9838
 31
0.0
  0
LINE
  8
0
 62
     0
 10
149.969
 20
78.9838
 30
0.0
 11
149.969
 21
79.9828
 31
0.0
  0
LINE
  8
0
 62
     0
 10
149.969
 20
79.9828
 30
0.0
 11
150.77
 21
79.9828
 31
0.0
  0
LINE
  8
0
 62
     0
 10
150.77
 20
79.9828
 30
0.0
 11
150.77
 21
83.0834
 31
0.0
  0
LINE
  8
0
 62
     0
 10
150.77
 20
83.0834
 30
0.0
 11
149.969
 21
83.0834
 31
0.0
  0
LINE
  8
0
 62
     0
 10
149.969
 20
83.0834
 30
0.0
 11
149.969
 21
88.8834
 31
0.0
  0
LINE
  8
0
 62
     0
 10
149.969
 20
88.8834
 30
0.0
 11
150.77
 21
88.8834
 31
0.0
  0
LINE
  8
0
 62
     0
 10
150.77
 20
88.8834
 30
0.0
 11
150.77
 21
91.9826
 31
0.0
  0
LINE
  8
0
 62
     0
 10
150.77
 20
91.9826
 30
0.0
 11
149.969
 21
91.9826
 31
0.0
  0
LINE
  8
0
 62
     0
 10
149.969
 20
91.9826
 30
0.0
 11
149.969
 21
92.9831
 31
0.0
  0
LINE
  8
0
 62
     0
 10
149.969
 20
92.9831
 30
0.0
 11
135.97
 21
92.9831
 31
0.0
  0
LINE
  8
0
 62
     0
 10
155.02
 20
92.9831
 30
0.0
 11
155.02
 21
91.9826
 31
0.0
  0
LINE
  8
0
 62
     0
 10
155.02
 20
91.9826
 30
0.0
 11
154.219
 21
91.9826
 31
0.0
  0
LINE
  8
0
 62
     0
 10
154.219
 20
91.9826
 30
0.0
 11
154.219
 21
88.8834
 31
0.0
  0
LINE
  8
0
 62
     0
 10
154.219
 20
88.8834
 30
0.0
 11
155.02
 21
88.8834
 31
0.0
  0
LINE
  8
0
 62
     0
 10
155.02
 20
88.8834
 30
0.0
 11
155.02
 21
83.0834
 31
0.0
  0
LINE
  8
0
 62
     0
 10
155.02
 20
83.0834
 30
0.0
 11
154.219
 21
83.0834
 31
0.0
  0
LINE
  8
0
 62
     0
 10
154.219
 20
83.0834
 30
0.0
 11
154.219
 21
79.9828
 31
0.0
  0
LINE
  8
0
 62
     0
 10
154.219
 20
79.9828
 30
0.0
 11
155.02
 21
79.9828
 31
0.0
  0
LINE
  8
0
 62
     0
 10
155.02
 20
79.9828
 30
0.0
 11
155.02
 21
78.9838
 31
0.0
  0
LINE
  8
0
 62
     0
 10
155.02
 20
78.9838
 30
0.0
 11
169.019
 21
78.9838
 31
0.0
  0
LINE
  8
0
 62
     0
 10
169.019
 20
78.9838
 30
0.0
 11
169.019
 21
79.9828
 31
0.0
  0
LINE
  8
0
 62
     0
 10
169.019
 20
79.9828
 30
0.0
 11
169.82
 21
79.9828
 31
0.0
  0
LINE
  8
0
 62
     0
 10
169.82
 20
79.9828
 30
0.0
 11
169.82
 21
83.0834
 31
0.0
  0
LINE
  8
0
 62
     0
 10
169.82
 20
83.0834
 30
0.0
 11
169.019
 21
83.0834
 31
0.0
  0
LINE
  8
0
 62
     0
 10
169.019
 20
83.0834
 30
0.0
 11
169.019
 21
88.8834
 31
0.0
  0
LINE
  8
0
 62
     0
 10
169.019
 20
88.8834
 30
0.0
 11
169.82
 21
88.8834
 31
0.0
  0
LINE
  8
0
 62
     0
 10
169.82
 20
88.8834
 30
0.0
 11
169.82
 21
91.9826
 31
0.0
  0
LINE
  8
0
 62
     0
 10
169.82
 20
91.9826
 30
0.0
 11
169.019
 21
91.9826
 31
0.0
  0
LINE
  8
0
 62
     0
 10
169.019
 20
91.9826
 30
0.0
 11
169.019
 21
92.9831
 31
0.0
  0
LINE
  8
0
 62
     0
 10
169.019
 20
92.9831
 30
0.0
 11
155.02
 21
92.9831
 31
0.0
  0
LINE
  8
0
 62
     0
 10
174.07
 20
92.9831
 30
0.0
 11
174.07
 21
91.9826
 31
0.0
  0
LINE
  8
0
 62
     0
 10
174.07
 20
91.9826
 30
0.0
 11
173.269
 21
91.9826
 31
0.0
  0
LINE
  8
0
 62
     0
 10
173.269
 20
91.9826
 30
0.0
 11
173.269
 21
88.8834
 31
0.0
  0
LINE
  8
0
 62
     0
 10
173.269
 20
88.8834
 30
0.0
 11
174.07
 21
88.8834
 31
0.0
  0
LINE
  8
0
 62
     0
 10
174.07
 20
88.8834
 30
0.0
 11
174.07
 21
83.0834
 31
0.0
  0
LINE
  8
0
 62
     0
 10
174.07
 20
83.0834
 30
0.0
 11
173.269
 21
83.0834
 31
0.0
  0
LINE
  8
0
 62
     0
 10
173.269
 20
83.0834
 30
0.0
 11
173.269
 21
79.9828
 31
0.0
  0
LINE
  8
0
 62
     0
 10
173.269
 20
79.9828
 30
0.0
 11
174.07
 21
79.9828
 31
0.0
  0
LINE
  8
0
 62
     0
 10
174.07
 20
79.9828
 30
0.0
 11
174.07
 21
78.9838
 31
0.0
  0
LINE
  8
0
 62
     0
 10
174.07
 20
78.9838
 30
0.0
 11
188.069
 21
78.9838
 31
0.0
  0
LINE
  8
0
 62
     0
 10
188.069
 20
78.9838
 30
0.0
 11
188.069
 21
79.9828
 31
0.0
  0
LINE
  8
0
 62
     0
 10
188.069
 20
79.9828
 30
0.0
 11
188.87
 21
79.9828
 31
0.0
  0
LINE
  8
0
 62
     0
 10
188.87
 20
79.9828
 30
0.0
 11
188.87
 21
83.0834
 31
0.0
  0
LINE
  8
0
 62
     0
 10
188.87
 20
83.0834
 30
0.0
 11
188.069
 21
83.0834
 31
0.0
  0
LINE
  8
0
 62
     0
 10
188.069
 20
83.0834
 30
0.0
 11
188.069
 21
88.8834
 31
0.0
  0
LINE
  8
0
 62
     0
 10
188.069
 20
88.8834
 30
0.0
 11
188.87
 21
88.8834
 31
0.0
  0
LINE
  8
0
 62
     0
 10
188.87
 20
88.8834
 30
0.0
 11
188.87
 21
91.9826
 31
0.0
  0
LINE
  8
0
 62
     0
 10
188.87
 20
91.9826
 30
0.0
 11
188.069
 21
91.9826
 31
0.0
  0
LINE
  8
0
 62
     0
 10
188.069
 20
91.9826
 30
0.0
 11
188.069
 21
92.9831
 31
0.0
  0
LINE
  8
0
 62
     0
 10
188.069
 20
92.9831
 30
0.0
 11
174.07
 21
92.9831
 31
0.0
  0
LINE
  8
0
 62
     0
 10
193.12
 20
92.9831
 30
0.0
 11
193.12
 21
91.9826
 31
0.0
  0
LINE
  8
0
 62
     0
 10
193.12
 20
91.9826
 30
0.0
 11
192.319
 21
91.9826
 31
0.0
  0
LINE
  8
0
 62
     0
 10
192.319
 20
91.9826
 30
0.0
 11
192.319
 21
88.8834
 31
0.0
  0
LINE
  8
0
 62
     0
 10
192.319
 20
88.8834
 30
0.0
 11
193.12
 21
88.8834
 31
0.0
  0
LINE
  8
0
 62
     0
 10
193.12
 20
88.8834
 30
0.0
 11
193.12
 21
83.0834
 31
0.0
  0
LINE
  8
0
 62
     0
 10
193.12
 20
83.0834
 30
0.0
 11
192.319
 21
83.0834
 31
0.0
  0
LINE
  8
0
 62
     0
 10
192.319
 20
83.0834
 30
0.0
 11
192.319
 21
79.9828
 31
0.0
  0
LINE
  8
0
 62
     0
 10
192.319
 20
79.9828
 30
0.0
 11
193.12
 21
79.9828
 31
0.0
  0
LINE
  8
0
 62
     0
 10
193.12
 20
79.9828
 30
0.0
 11
193.12
 21
78.9838
 31
0.0
  0
LINE
  8
0
 62
     0
 10
193.12
 20
78.9838
 30
0.0
 11
207.119
 21
78.9838
 31
0.0
  0
LINE
  8
0
 62
     0
 10
207.119
 20
78.9838
 30
0.0
 11
207.119
 21
79.9828
 31
0.0
  0
LINE
  8
0
 62
     0
 10
207.119
 20
79.9828
 30
0.0
 11
207.92
 21
79.9828
 31
0.0
  0
LINE
  8
0
 62
     0
 10
207.92
 20
79.9828
 30
0.0
 11
207.92
 21
83.0834
 31
0.0
  0
LINE
  8
0
 62
     0
 10
207.92
 20
83.0834
 30
0.0
 11
207.119
 21
83.0834
 31
0.0
  0
LINE
  8
0
 62
     0
 10
207.119
 20
83.0834
 30
0.0
 11
207.119
 21
88.8834
 31
0.0
  0
LINE
  8
0
 62
     0
 10
207.119
 20
88.8834
 30
0.0
 11
207.92
 21
88.8834
 31
0.0
  0
LINE
  8
0
 62
     0
 10
207.92
 20
88.8834
 30
0.0
 11
207.92
 21
91.9826
 31
0.0
  0
LINE
  8
0
 62
     0
 10
207.92
 20
91.9826
 30
0.0
 11
207.119
 21
91.9826
 31
0.0
  0
LINE
  8
0
 62
     0
 10
207.119
 20
91.9826
 30
0.0
 11
207.119
 21
92.9831
 31
0.0
  0
LINE
  8
0
 62
     0
 10
207.119
 20
92.9831
 30
0.0
 11
193.12
 21
92.9831
 31
0.0
  0
LINE
  8
0
 62
     0
 10
212.17
 20
92.9831
 30
0.0
 11
212.17
 21
91.9826
 31
0.0
  0
LINE
  8
0
 62
     0
 10
212.17
 20
91.9826
 30
0.0
 11
211.369
 21
91.9826
 31
0.0
  0
LINE
  8
0
 62
     0
 10
211.369
 20
91.9826
 30
0.0
 11
211.369
 21
88.8834
 31
0.0
  0
LINE
  8
0
 62
     0
 10
211.369
 20
88.8834
 30
0.0
 11
212.17
 21
88.8834
 31
0.0
  0
LINE
  8
0
 62
     0
 10
212.17
 20
88.8834
 30
0.0
 11
212.17
 21
83.0834
 31
0.0
  0
LINE
  8
0
 62
     0
 10
212.17
 20
83.0834
 30
0.0
 11
211.369
 21
83.0834
 31
0.0
  0
LINE
  8
0
 62
     0
 10
211.369
 20
83.0834
 30
0.0
 11
211.369
 21
79.9828
 31
0.0
  0
LINE
  8
0
 62
     0
 10
211.369
 20
79.9828
 30
0.0
 11
212.17
 21
79.9828
 31
0.0
  0
LINE
  8
0
 62
     0
 10
212.17
 20
79.9828
 30
0.0
 11
212.17
 21
78.9838
 31
0.0
  0
LINE
  8
0
 62
     0
 10
212.17
 20
78.9838
 30
0.0
 11
226.169
 21
78.9838
 31
0.0
  0
LINE
  8
0
 62
     0
 10
226.169
 20
78.9838
 30
0.0
 11
226.169
 21
79.9828
 31
0.0
  0
LINE
  8
0
 62
     0
 10
226.169
 20
79.9828
 30
0.0
 11
226.97
 21
79.9828
 31
0.0
  0
LINE
  8
0
 62
     0
 10
226.97
 20
79.9828
 30
0.0
 11
226.97
 21
83.0834
 31
0.0
  0
LINE
  8
0
 62
     0
 10
226.97
 20
83.0834
 30
0.0
 11
226.169
 21
83.0834
 31
0.0
  0
LINE
  8
0
 62
     0
 10
226.169
 20
83.0834
 30
0.0
 11
226.169
 21
88.8834
 31
0.0
  0
LINE
  8
0
 62
     0
 10
226.169
 20
88.8834
 30
0.0
 11
226.97
 21
88.8834
 31
0.0
  0
LINE
  8
0
 62
     0
 10
226.97
 20
88.8834
 30
0.0
 11
226.97
 21
91.9826
 31
0.0
  0
LINE
  8
0
 62
     0
 10
226.97
 20
91.9826
 30
0.0
 11
226.169
 21
91.9826
 31
0.0
  0
LINE
  8
0
 62
     0
 10
226.169
 20
91.9826
 30
0.0
 11
226.169
 21
92.9831
 31
0.0
  0
LINE
  8
0
 62
     0
 10
226.169
 20
92.9831
 30
0.0
 11
212.17
 21
92.9831
 31
0.0
  0
LINE
  8
0
 62
     0
 10
235.982
 20
92.9831
 30
0.0
 11
235.982
 21
91.9826
 31
0.0
  0
LINE
  8
0
 62
     0
 10
235.982
 20
91.9826
 30
0.0
 11
235.181
 21
91.9826
 31
0.0
  0
LINE
  8
0
 62
     0
 10
235.181
 20
91.9826
 30
0.0
 11
235.181
 21
88.8834
 31
0.0
  0
LINE
  8
0
 62
     0
 10
235.181
 20
88.8834
 30
0.0
 11
235.982
 21
88.8834
 31
0.0
  0
LINE
  8
0
 62
     0
 10
235.982
 20
88.8834
 30
0.0
 11
235.982
 21
83.0834
 31
0.0
  0
LINE
  8
0
 62
     0
 10
235.982
 20
83.0834
 30
0.0
 11
235.181
 21
83.0834
 31
0.0
  0
LINE
  8
0
 62
     0
 10
235.181
 20
83.0834
 30
0.0
 11
235.181
 21
79.9828
 31
0.0
  0
LINE
  8
0
 62
     0
 10
235.181
 20
79.9828
 30
0.0
 11
235.982
 21
79.9828
 31
0.0
  0
LINE
  8
0
 62
     0
 10
235.982
 20
79.9828
 30
0.0
 11
235.982
 21
78.9838
 31
0.0
  0
LINE
  8
0
 62
     0
 10
235.982
 20
78.9838
 30
0.0
 11
249.982
 21
78.9838
 31
0.0
  0
LINE
  8
0
 62
     0
 10
249.982
 20
78.9838
 30
0.0
 11
249.982
 21
79.9828
 31
0.0
  0
LINE
  8
0
 62
     0
 10
249.982
 20
79.9828
 30
0.0
 11
250.781
 21
79.9828
 31
0.0
  0
LINE
  8
0
 62
     0
 10
250.781
 20
79.9828
 30
0.0
 11
250.781
 21
83.0834
 31
0.0
  0
LINE
  8
0
 62
     0
 10
250.781
 20
83.0834
 30
0.0
 11
249.982
 21
83.0834
 31
0.0
  0
LINE
  8
0
 62
     0
 10
249.982
 20
83.0834
 30
0.0
 11
249.982
 21
88.8834
 31
0.0
  0
LINE
  8
0
 62
     0
 10
249.982
 20
88.8834
 30
0.0
 11
250.781
 21
88.8834
 31
0.0
  0
LINE
  8
0
 62
     0
 10
250.781
 20
88.8834
 30
0.0
 11
250.781
 21
91.9826
 31
0.0
  0
LINE
  8
0
 62
     0
 10
250.781
 20
91.9826
 30
0.0
 11
249.982
 21
91.9826
 31
0.0
  0
LINE
  8
0
 62
     0
 10
249.982
 20
91.9826
 30
0.0
 11
249.982
 21
92.9831
 31
0.0
  0
LINE
  8
0
 62
     0
 10
249.982
 20
92.9831
 30
0.0
 11
235.982
 21
92.9831
 31
0.0
  0
ENDSEC
  0
EOF
