  0
SECTION
  2
HEADER
  9
$ACADVER
  1
AC1009
  9
$FILLMODE
 70
 0
  9
$SPLFRAME
 70
 1
  9
$EXTMIN
 10
0
 20
0
 30
0.0
  9
$EXTMAX
 10
1058.33
 20
1058.33
 30
0.0
  0
ENDSEC
  0
SECTION
  2
TABLES
  0
TABLE
  2
LAYER
 70
1
  0
LAYER
  2
0
 70
     0
 62
     7
  6
CONTINUOUS
  0
ENDTAB
  0
ENDSEC
  0
SECTION
  2
ENTITIES
  0
LINE
  8
0
 62
     0
 10
0.0950846
 20
95.5075
 30
0.0
 11
247.745
 21
95.5075
 31
0.0
  0
LINE
  8
0
 62
     0
 10
247.745
 20
95.5075
 30
0.0
 11
247.745
 21
0.257693
 31
0.0
  0
LINE
  8
0
 62
     0
 10
247.745
 20
0.257693
 30
0.0
 11
0.0950846
 21
0.257693
 31
0.0
  0
LINE
  8
0
 62
     0
 10
0.0950846
 20
0.257693
 30
0.0
 11
0.0950846
 21
95.5075
 31
0.0
  0
LINE
  8
0
 62
     0
 10
116.918
 20
16.7831
 30
0.0
 11
116.918
 21
15.7827
 31
0.0
  0
LINE
  8
0
 62
     0
 10
116.918
 20
15.7827
 30
0.0
 11
116.119
 21
15.7827
 31
0.0
  0
LINE
  8
0
 62
     0
 10
116.119
 20
15.7827
 30
0.0
 11
116.119
 21
12.6848
 31
0.0
  0
LINE
  8
0
 62
     0
 10
116.119
 20
12.6848
 30
0.0
 11
116.918
 21
12.6848
 31
0.0
  0
LINE
  8
0
 62
     0
 10
116.918
 20
12.6848
 30
0.0
 11
116.918
 21
12.0826
 31
0.0
  0
LINE
  8
0
 62
     0
 10
116.918
 20
12.0826
 30
0.0
 11
92.6236
 21
12.0826
 31
0.0
  0
LINE
  8
0
 62
     0
 10
92.6236
 20
12.0826
 30
0.0
 11
92.6236
 21
15.3128
 31
0.0
  0
LINE
  8
0
 62
     0
 10
92.6236
 20
15.3128
 30
0.0
 11
85.8739
 21
15.3128
 31
0.0
  0
LINE
  8
0
 62
     0
 10
85.8739
 20
15.3128
 30
0.0
 11
85.8739
 21
12.0826
 31
0.0
  0
LINE
  8
0
 62
     0
 10
85.8739
 20
12.0826
 30
0.0
 11
85.047
 21
12.0826
 31
0.0
  0
LINE
  8
0
 62
     0
 10
85.047
 20
12.0826
 30
0.0
 11
85.047
 21
9.28384
 31
0.0
  0
LINE
  8
0
 62
     0
 10
85.047
 20
9.28384
 30
0.0
 11
85.8739
 21
9.28384
 31
0.0
  0
LINE
  8
0
 62
     0
 10
85.8739
 20
9.28384
 30
0.0
 11
85.8739
 21
3.01377
 31
0.0
  0
LINE
  8
0
 62
     0
 10
85.8739
 20
3.01377
 30
0.0
 11
87.5979
 21
3.01377
 31
0.0
  0
LINE
  8
0
 62
     0
 10
87.5979
 20
3.01377
 30
0.0
 11
87.5979
 21
1.8135
 31
0.0
  0
LINE
  8
0
 62
     0
 10
87.5979
 20
1.8135
 30
0.0
 11
90.8981
 21
1.8135
 31
0.0
  0
LINE
  8
0
 62
     0
 10
90.8981
 20
1.8135
 30
0.0
 11
90.8981
 21
3.01377
 31
0.0
  0
LINE
  8
0
 62
     0
 10
90.8981
 20
3.01377
 30
0.0
 11
92.6236
 21
3.01377
 31
0.0
  0
LINE
  8
0
 62
     0
 10
92.6236
 20
3.01377
 30
0.0
 11
92.6236
 21
7.48411
 31
0.0
  0
LINE
  8
0
 62
     0
 10
92.6236
 20
7.48411
 30
0.0
 11
116.918
 21
7.48411
 31
0.0
  0
LINE
  8
0
 62
     0
 10
116.918
 20
7.48411
 30
0.0
 11
116.918
 21
6.88329
 31
0.0
  0
LINE
  8
0
 62
     0
 10
116.918
 20
6.88329
 30
0.0
 11
116.119
 21
6.88329
 31
0.0
  0
LINE
  8
0
 62
     0
 10
116.119
 20
6.88329
 30
0.0
 11
116.119
 21
3.78273
 31
0.0
  0
LINE
  8
0
 62
     0
 10
116.119
 20
3.78273
 30
0.0
 11
116.918
 21
3.78273
 31
0.0
  0
LINE
  8
0
 62
     0
 10
116.918
 20
3.78273
 30
0.0
 11
116.918
 21
2.78364
 31
0.0
  0
LINE
  8
0
 62
     0
 10
116.918
 20
2.78364
 30
0.0
 11
130.919
 21
2.78364
 31
0.0
  0
LINE
  8
0
 62
     0
 10
130.919
 20
2.78364
 30
0.0
 11
130.919
 21
3.78273
 31
0.0
  0
LINE
  8
0
 62
     0
 10
130.919
 20
3.78273
 30
0.0
 11
131.72
 21
3.78273
 31
0.0
  0
LINE
  8
0
 62
     0
 10
131.72
 20
3.78273
 30
0.0
 11
131.72
 21
6.88329
 31
0.0
  0
LINE
  8
0
 62
     0
 10
131.72
 20
6.88329
 30
0.0
 11
130.919
 21
6.88329
 31
0.0
  0
LINE
  8
0
 62
     0
 10
130.919
 20
6.88329
 30
0.0
 11
130.919
 21
7.48411
 31
0.0
  0
LINE
  8
0
 62
     0
 10
130.919
 20
7.48411
 30
0.0
 11
155.214
 21
7.48411
 31
0.0
  0
LINE
  8
0
 62
     0
 10
155.214
 20
7.48411
 30
0.0
 11
155.214
 21
3.01377
 31
0.0
  0
LINE
  8
0
 62
     0
 10
155.214
 20
3.01377
 30
0.0
 11
156.941
 21
3.01377
 31
0.0
  0
LINE
  8
0
 62
     0
 10
156.941
 20
3.01377
 30
0.0
 11
156.941
 21
1.8135
 31
0.0
  0
LINE
  8
0
 62
     0
 10
156.941
 20
1.8135
 30
0.0
 11
160.241
 21
1.8135
 31
0.0
  0
LINE
  8
0
 62
     0
 10
160.241
 20
1.8135
 30
0.0
 11
160.241
 21
3.01377
 31
0.0
  0
LINE
  8
0
 62
     0
 10
160.241
 20
3.01377
 30
0.0
 11
161.965
 21
3.01377
 31
0.0
  0
LINE
  8
0
 62
     0
 10
161.965
 20
3.01377
 30
0.0
 11
161.965
 21
9.28384
 31
0.0
  0
LINE
  8
0
 62
     0
 10
161.965
 20
9.28384
 30
0.0
 11
162.79
 21
9.28384
 31
0.0
  0
LINE
  8
0
 62
     0
 10
162.79
 20
9.28384
 30
0.0
 11
162.79
 21
12.0826
 31
0.0
  0
LINE
  8
0
 62
     0
 10
162.79
 20
12.0826
 30
0.0
 11
161.965
 21
12.0826
 31
0.0
  0
LINE
  8
0
 62
     0
 10
161.965
 20
12.0826
 30
0.0
 11
161.965
 21
15.3128
 31
0.0
  0
LINE
  8
0
 62
     0
 10
161.965
 20
15.3128
 30
0.0
 11
155.214
 21
15.3128
 31
0.0
  0
LINE
  8
0
 62
     0
 10
155.214
 20
15.3128
 30
0.0
 11
155.214
 21
12.0826
 31
0.0
  0
LINE
  8
0
 62
     0
 10
155.214
 20
12.0826
 30
0.0
 11
130.919
 21
12.0826
 31
0.0
  0
LINE
  8
0
 62
     0
 10
130.919
 20
12.0826
 30
0.0
 11
130.919
 21
12.6848
 31
0.0
  0
LINE
  8
0
 62
     0
 10
130.919
 20
12.6848
 30
0.0
 11
131.72
 21
12.6848
 31
0.0
  0
LINE
  8
0
 62
     0
 10
131.72
 20
12.6848
 30
0.0
 11
131.72
 21
15.7827
 31
0.0
  0
LINE
  8
0
 62
     0
 10
131.72
 20
15.7827
 30
0.0
 11
130.919
 21
15.7827
 31
0.0
  0
LINE
  8
0
 62
     0
 10
130.919
 20
15.7827
 30
0.0
 11
130.919
 21
16.7831
 31
0.0
  0
LINE
  8
0
 62
     0
 10
130.919
 20
16.7831
 30
0.0
 11
116.918
 21
16.7831
 31
0.0
  0
LINE
  8
0
 62
     0
 10
5.00091
 20
16.7831
 30
0.0
 11
5.00091
 21
15.7827
 31
0.0
  0
LINE
  8
0
 62
     0
 10
5.00091
 20
15.7827
 30
0.0
 11
4.20028
 21
15.7827
 31
0.0
  0
LINE
  8
0
 62
     0
 10
4.20028
 20
15.7827
 30
0.0
 11
4.20028
 21
12.6848
 31
0.0
  0
LINE
  8
0
 62
     0
 10
4.20028
 20
12.6848
 30
0.0
 11
5.00091
 21
12.6848
 31
0.0
  0
LINE
  8
0
 62
     0
 10
5.00091
 20
12.6848
 30
0.0
 11
5.00091
 21
6.88329
 31
0.0
  0
LINE
  8
0
 62
     0
 10
5.00091
 20
6.88329
 30
0.0
 11
4.20028
 21
6.88329
 31
0.0
  0
LINE
  8
0
 62
     0
 10
4.20028
 20
6.88329
 30
0.0
 11
4.20028
 21
3.78273
 31
0.0
  0
LINE
  8
0
 62
     0
 10
4.20028
 20
3.78273
 30
0.0
 11
5.00091
 21
3.78273
 31
0.0
  0
LINE
  8
0
 62
     0
 10
5.00091
 20
3.78273
 30
0.0
 11
5.00091
 21
2.78364
 31
0.0
  0
LINE
  8
0
 62
     0
 10
5.00091
 20
2.78364
 30
0.0
 11
19.0004
 21
2.78364
 31
0.0
  0
LINE
  8
0
 62
     0
 10
19.0004
 20
2.78364
 30
0.0
 11
19.0004
 21
3.78273
 31
0.0
  0
LINE
  8
0
 62
     0
 10
19.0004
 20
3.78273
 30
0.0
 11
19.801
 21
3.78273
 31
0.0
  0
LINE
  8
0
 62
     0
 10
19.801
 20
3.78273
 30
0.0
 11
19.801
 21
6.88329
 31
0.0
  0
LINE
  8
0
 62
     0
 10
19.801
 20
6.88329
 30
0.0
 11
19.0004
 21
6.88329
 31
0.0
  0
LINE
  8
0
 62
     0
 10
19.0004
 20
6.88329
 30
0.0
 11
19.0004
 21
12.6848
 31
0.0
  0
LINE
  8
0
 62
     0
 10
19.0004
 20
12.6848
 30
0.0
 11
19.801
 21
12.6848
 31
0.0
  0
LINE
  8
0
 62
     0
 10
19.801
 20
12.6848
 30
0.0
 11
19.801
 21
15.7827
 31
0.0
  0
LINE
  8
0
 62
     0
 10
19.801
 20
15.7827
 30
0.0
 11
19.0004
 21
15.7827
 31
0.0
  0
LINE
  8
0
 62
     0
 10
19.0004
 20
15.7827
 30
0.0
 11
19.0004
 21
16.7831
 31
0.0
  0
LINE
  8
0
 62
     0
 10
19.0004
 20
16.7831
 30
0.0
 11
5.00091
 21
16.7831
 31
0.0
  0
LINE
  8
0
 62
     0
 10
26.4322
 20
16.7831
 30
0.0
 11
26.4322
 21
15.7827
 31
0.0
  0
LINE
  8
0
 62
     0
 10
26.4322
 20
15.7827
 30
0.0
 11
25.6315
 21
15.7827
 31
0.0
  0
LINE
  8
0
 62
     0
 10
25.6315
 20
15.7827
 30
0.0
 11
25.6315
 21
12.6848
 31
0.0
  0
LINE
  8
0
 62
     0
 10
25.6315
 20
12.6848
 30
0.0
 11
26.4322
 21
12.6848
 31
0.0
  0
LINE
  8
0
 62
     0
 10
26.4322
 20
12.6848
 30
0.0
 11
26.4322
 21
6.88329
 31
0.0
  0
LINE
  8
0
 62
     0
 10
26.4322
 20
6.88329
 30
0.0
 11
25.6315
 21
6.88329
 31
0.0
  0
LINE
  8
0
 62
     0
 10
25.6315
 20
6.88329
 30
0.0
 11
25.6315
 21
3.78273
 31
0.0
  0
LINE
  8
0
 62
     0
 10
25.6315
 20
3.78273
 30
0.0
 11
26.4322
 21
3.78273
 31
0.0
  0
LINE
  8
0
 62
     0
 10
26.4322
 20
3.78273
 30
0.0
 11
26.4322
 21
2.78364
 31
0.0
  0
LINE
  8
0
 62
     0
 10
26.4322
 20
2.78364
 30
0.0
 11
40.4315
 21
2.78364
 31
0.0
  0
LINE
  8
0
 62
     0
 10
40.4315
 20
2.78364
 30
0.0
 11
40.4315
 21
3.78273
 31
0.0
  0
LINE
  8
0
 62
     0
 10
40.4315
 20
3.78273
 30
0.0
 11
41.2309
 21
3.78273
 31
0.0
  0
LINE
  8
0
 62
     0
 10
41.2309
 20
3.78273
 30
0.0
 11
41.2309
 21
6.88329
 31
0.0
  0
LINE
  8
0
 62
     0
 10
41.2309
 20
6.88329
 30
0.0
 11
40.4315
 21
6.88329
 31
0.0
  0
LINE
  8
0
 62
     0
 10
40.4315
 20
6.88329
 30
0.0
 11
40.4315
 21
12.6848
 31
0.0
  0
LINE
  8
0
 62
     0
 10
40.4315
 20
12.6848
 30
0.0
 11
41.2309
 21
12.6848
 31
0.0
  0
LINE
  8
0
 62
     0
 10
41.2309
 20
12.6848
 30
0.0
 11
41.2309
 21
15.7827
 31
0.0
  0
LINE
  8
0
 62
     0
 10
41.2309
 20
15.7827
 30
0.0
 11
40.4315
 21
15.7827
 31
0.0
  0
LINE
  8
0
 62
     0
 10
40.4315
 20
15.7827
 30
0.0
 11
40.4315
 21
16.7831
 31
0.0
  0
LINE
  8
0
 62
     0
 10
40.4315
 20
16.7831
 30
0.0
 11
26.4322
 21
16.7831
 31
0.0
  0
LINE
  8
0
 62
     0
 10
45.4822
 20
16.7831
 30
0.0
 11
45.4822
 21
15.7827
 31
0.0
  0
LINE
  8
0
 62
     0
 10
45.4822
 20
15.7827
 30
0.0
 11
44.6814
 21
15.7827
 31
0.0
  0
LINE
  8
0
 62
     0
 10
44.6814
 20
15.7827
 30
0.0
 11
44.6814
 21
12.6848
 31
0.0
  0
LINE
  8
0
 62
     0
 10
44.6814
 20
12.6848
 30
0.0
 11
45.4822
 21
12.6848
 31
0.0
  0
LINE
  8
0
 62
     0
 10
45.4822
 20
12.6848
 30
0.0
 11
45.4822
 21
6.88329
 31
0.0
  0
LINE
  8
0
 62
     0
 10
45.4822
 20
6.88329
 30
0.0
 11
44.6814
 21
6.88329
 31
0.0
  0
LINE
  8
0
 62
     0
 10
44.6814
 20
6.88329
 30
0.0
 11
44.6814
 21
3.78273
 31
0.0
  0
LINE
  8
0
 62
     0
 10
44.6814
 20
3.78273
 30
0.0
 11
45.4822
 21
3.78273
 31
0.0
  0
LINE
  8
0
 62
     0
 10
45.4822
 20
3.78273
 30
0.0
 11
45.4822
 21
2.78364
 31
0.0
  0
LINE
  8
0
 62
     0
 10
45.4822
 20
2.78364
 30
0.0
 11
59.4815
 21
2.78364
 31
0.0
  0
LINE
  8
0
 62
     0
 10
59.4815
 20
2.78364
 30
0.0
 11
59.4815
 21
3.78273
 31
0.0
  0
LINE
  8
0
 62
     0
 10
59.4815
 20
3.78273
 30
0.0
 11
60.2809
 21
3.78273
 31
0.0
  0
LINE
  8
0
 62
     0
 10
60.2809
 20
3.78273
 30
0.0
 11
60.2809
 21
6.88329
 31
0.0
  0
LINE
  8
0
 62
     0
 10
60.2809
 20
6.88329
 30
0.0
 11
59.4815
 21
6.88329
 31
0.0
  0
LINE
  8
0
 62
     0
 10
59.4815
 20
6.88329
 30
0.0
 11
59.4815
 21
12.6848
 31
0.0
  0
LINE
  8
0
 62
     0
 10
59.4815
 20
12.6848
 30
0.0
 11
60.2809
 21
12.6848
 31
0.0
  0
LINE
  8
0
 62
     0
 10
60.2809
 20
12.6848
 30
0.0
 11
60.2809
 21
15.7827
 31
0.0
  0
LINE
  8
0
 62
     0
 10
60.2809
 20
15.7827
 30
0.0
 11
59.4815
 21
15.7827
 31
0.0
  0
LINE
  8
0
 62
     0
 10
59.4815
 20
15.7827
 30
0.0
 11
59.4815
 21
16.7831
 31
0.0
  0
LINE
  8
0
 62
     0
 10
59.4815
 20
16.7831
 30
0.0
 11
45.4822
 21
16.7831
 31
0.0
  0
LINE
  8
0
 62
     0
 10
64.5322
 20
16.7831
 30
0.0
 11
64.5322
 21
15.7827
 31
0.0
  0
LINE
  8
0
 62
     0
 10
64.5322
 20
15.7827
 30
0.0
 11
63.7314
 21
15.7827
 31
0.0
  0
LINE
  8
0
 62
     0
 10
63.7314
 20
15.7827
 30
0.0
 11
63.7314
 21
12.6848
 31
0.0
  0
LINE
  8
0
 62
     0
 10
63.7314
 20
12.6848
 30
0.0
 11
64.5322
 21
12.6848
 31
0.0
  0
LINE
  8
0
 62
     0
 10
64.5322
 20
12.6848
 30
0.0
 11
64.5322
 21
6.88329
 31
0.0
  0
LINE
  8
0
 62
     0
 10
64.5322
 20
6.88329
 30
0.0
 11
63.7314
 21
6.88329
 31
0.0
  0
LINE
  8
0
 62
     0
 10
63.7314
 20
6.88329
 30
0.0
 11
63.7314
 21
3.78273
 31
0.0
  0
LINE
  8
0
 62
     0
 10
63.7314
 20
3.78273
 30
0.0
 11
64.5322
 21
3.78273
 31
0.0
  0
LINE
  8
0
 62
     0
 10
64.5322
 20
3.78273
 30
0.0
 11
64.5322
 21
2.78364
 31
0.0
  0
LINE
  8
0
 62
     0
 10
64.5322
 20
2.78364
 30
0.0
 11
78.5315
 21
2.78364
 31
0.0
  0
LINE
  8
0
 62
     0
 10
78.5315
 20
2.78364
 30
0.0
 11
78.5315
 21
3.78273
 31
0.0
  0
LINE
  8
0
 62
     0
 10
78.5315
 20
3.78273
 30
0.0
 11
79.3309
 21
3.78273
 31
0.0
  0
LINE
  8
0
 62
     0
 10
79.3309
 20
3.78273
 30
0.0
 11
79.3309
 21
6.88329
 31
0.0
  0
LINE
  8
0
 62
     0
 10
79.3309
 20
6.88329
 30
0.0
 11
78.5315
 21
6.88329
 31
0.0
  0
LINE
  8
0
 62
     0
 10
78.5315
 20
6.88329
 30
0.0
 11
78.5315
 21
12.6848
 31
0.0
  0
LINE
  8
0
 62
     0
 10
78.5315
 20
12.6848
 30
0.0
 11
79.3309
 21
12.6848
 31
0.0
  0
LINE
  8
0
 62
     0
 10
79.3309
 20
12.6848
 30
0.0
 11
79.3309
 21
15.7827
 31
0.0
  0
LINE
  8
0
 62
     0
 10
79.3309
 20
15.7827
 30
0.0
 11
78.5315
 21
15.7827
 31
0.0
  0
LINE
  8
0
 62
     0
 10
78.5315
 20
15.7827
 30
0.0
 11
78.5315
 21
16.7831
 31
0.0
  0
LINE
  8
0
 62
     0
 10
78.5315
 20
16.7831
 30
0.0
 11
64.5322
 21
16.7831
 31
0.0
  0
LINE
  8
0
 62
     0
 10
171.687
 20
16.7831
 30
0.0
 11
171.687
 21
15.7827
 31
0.0
  0
LINE
  8
0
 62
     0
 10
171.687
 20
15.7827
 30
0.0
 11
170.888
 21
15.7827
 31
0.0
  0
LINE
  8
0
 62
     0
 10
170.888
 20
15.7827
 30
0.0
 11
170.888
 21
12.6848
 31
0.0
  0
LINE
  8
0
 62
     0
 10
170.888
 20
12.6848
 30
0.0
 11
171.687
 21
12.6848
 31
0.0
  0
LINE
  8
0
 62
     0
 10
171.687
 20
12.6848
 30
0.0
 11
171.687
 21
6.88329
 31
0.0
  0
LINE
  8
0
 62
     0
 10
171.687
 20
6.88329
 30
0.0
 11
170.888
 21
6.88329
 31
0.0
  0
LINE
  8
0
 62
     0
 10
170.888
 20
6.88329
 30
0.0
 11
170.888
 21
3.78273
 31
0.0
  0
LINE
  8
0
 62
     0
 10
170.888
 20
3.78273
 30
0.0
 11
171.687
 21
3.78273
 31
0.0
  0
LINE
  8
0
 62
     0
 10
171.687
 20
3.78273
 30
0.0
 11
171.687
 21
2.78364
 31
0.0
  0
LINE
  8
0
 62
     0
 10
171.687
 20
2.78364
 30
0.0
 11
185.688
 21
2.78364
 31
0.0
  0
LINE
  8
0
 62
     0
 10
185.688
 20
2.78364
 30
0.0
 11
185.688
 21
3.78273
 31
0.0
  0
LINE
  8
0
 62
     0
 10
185.688
 20
3.78273
 30
0.0
 11
186.487
 21
3.78273
 31
0.0
  0
LINE
  8
0
 62
     0
 10
186.487
 20
3.78273
 30
0.0
 11
186.487
 21
6.88329
 31
0.0
  0
LINE
  8
0
 62
     0
 10
186.487
 20
6.88329
 30
0.0
 11
185.688
 21
6.88329
 31
0.0
  0
LINE
  8
0
 62
     0
 10
185.688
 20
6.88329
 30
0.0
 11
185.688
 21
12.6848
 31
0.0
  0
LINE
  8
0
 62
     0
 10
185.688
 20
12.6848
 30
0.0
 11
186.487
 21
12.6848
 31
0.0
  0
LINE
  8
0
 62
     0
 10
186.487
 20
12.6848
 30
0.0
 11
186.487
 21
15.7827
 31
0.0
  0
LINE
  8
0
 62
     0
 10
186.487
 20
15.7827
 30
0.0
 11
185.688
 21
15.7827
 31
0.0
  0
LINE
  8
0
 62
     0
 10
185.688
 20
15.7827
 30
0.0
 11
185.688
 21
16.7831
 31
0.0
  0
LINE
  8
0
 62
     0
 10
185.688
 20
16.7831
 30
0.0
 11
171.687
 21
16.7831
 31
0.0
  0
LINE
  8
0
 62
     0
 10
193.12
 20
16.7831
 30
0.0
 11
193.12
 21
15.7827
 31
0.0
  0
LINE
  8
0
 62
     0
 10
193.12
 20
15.7827
 30
0.0
 11
192.319
 21
15.7827
 31
0.0
  0
LINE
  8
0
 62
     0
 10
192.319
 20
15.7827
 30
0.0
 11
192.319
 21
12.6848
 31
0.0
  0
LINE
  8
0
 62
     0
 10
192.319
 20
12.6848
 30
0.0
 11
193.12
 21
12.6848
 31
0.0
  0
LINE
  8
0
 62
     0
 10
193.12
 20
12.6848
 30
0.0
 11
193.12
 21
6.88329
 31
0.0
  0
LINE
  8
0
 62
     0
 10
193.12
 20
6.88329
 30
0.0
 11
192.319
 21
6.88329
 31
0.0
  0
LINE
  8
0
 62
     0
 10
192.319
 20
6.88329
 30
0.0
 11
192.319
 21
3.78273
 31
0.0
  0
LINE
  8
0
 62
     0
 10
192.319
 20
3.78273
 30
0.0
 11
193.12
 21
3.78273
 31
0.0
  0
LINE
  8
0
 62
     0
 10
193.12
 20
3.78273
 30
0.0
 11
193.12
 21
2.78364
 31
0.0
  0
LINE
  8
0
 62
     0
 10
193.12
 20
2.78364
 30
0.0
 11
207.119
 21
2.78364
 31
0.0
  0
LINE
  8
0
 62
     0
 10
207.119
 20
2.78364
 30
0.0
 11
207.119
 21
3.78273
 31
0.0
  0
LINE
  8
0
 62
     0
 10
207.119
 20
3.78273
 30
0.0
 11
207.92
 21
3.78273
 31
0.0
  0
LINE
  8
0
 62
     0
 10
207.92
 20
3.78273
 30
0.0
 11
207.92
 21
6.88329
 31
0.0
  0
LINE
  8
0
 62
     0
 10
207.92
 20
6.88329
 30
0.0
 11
207.119
 21
6.88329
 31
0.0
  0
LINE
  8
0
 62
     0
 10
207.119
 20
6.88329
 30
0.0
 11
207.119
 21
12.6848
 31
0.0
  0
LINE
  8
0
 62
     0
 10
207.119
 20
12.6848
 30
0.0
 11
207.92
 21
12.6848
 31
0.0
  0
LINE
  8
0
 62
     0
 10
207.92
 20
12.6848
 30
0.0
 11
207.92
 21
15.7827
 31
0.0
  0
LINE
  8
0
 62
     0
 10
207.92
 20
15.7827
 30
0.0
 11
207.119
 21
15.7827
 31
0.0
  0
LINE
  8
0
 62
     0
 10
207.119
 20
15.7827
 30
0.0
 11
207.119
 21
16.7831
 31
0.0
  0
LINE
  8
0
 62
     0
 10
207.119
 20
16.7831
 30
0.0
 11
193.12
 21
16.7831
 31
0.0
  0
LINE
  8
0
 62
     0
 10
212.17
 20
16.7831
 30
0.0
 11
212.17
 21
15.7827
 31
0.0
  0
LINE
  8
0
 62
     0
 10
212.17
 20
15.7827
 30
0.0
 11
211.369
 21
15.7827
 31
0.0
  0
LINE
  8
0
 62
     0
 10
211.369
 20
15.7827
 30
0.0
 11
211.369
 21
12.6848
 31
0.0
  0
LINE
  8
0
 62
     0
 10
211.369
 20
12.6848
 30
0.0
 11
212.17
 21
12.6848
 31
0.0
  0
LINE
  8
0
 62
     0
 10
212.17
 20
12.6848
 30
0.0
 11
212.17
 21
6.88329
 31
0.0
  0
LINE
  8
0
 62
     0
 10
212.17
 20
6.88329
 30
0.0
 11
211.369
 21
6.88329
 31
0.0
  0
LINE
  8
0
 62
     0
 10
211.369
 20
6.88329
 30
0.0
 11
211.369
 21
3.78273
 31
0.0
  0
LINE
  8
0
 62
     0
 10
211.369
 20
3.78273
 30
0.0
 11
212.17
 21
3.78273
 31
0.0
  0
LINE
  8
0
 62
     0
 10
212.17
 20
3.78273
 30
0.0
 11
212.17
 21
2.78364
 31
0.0
  0
LINE
  8
0
 62
     0
 10
212.17
 20
2.78364
 30
0.0
 11
226.169
 21
2.78364
 31
0.0
  0
LINE
  8
0
 62
     0
 10
226.169
 20
2.78364
 30
0.0
 11
226.169
 21
3.78273
 31
0.0
  0
LINE
  8
0
 62
     0
 10
226.169
 20
3.78273
 30
0.0
 11
226.97
 21
3.78273
 31
0.0
  0
LINE
  8
0
 62
     0
 10
226.97
 20
3.78273
 30
0.0
 11
226.97
 21
6.88329
 31
0.0
  0
LINE
  8
0
 62
     0
 10
226.97
 20
6.88329
 30
0.0
 11
226.169
 21
6.88329
 31
0.0
  0
LINE
  8
0
 62
     0
 10
226.169
 20
6.88329
 30
0.0
 11
226.169
 21
12.6848
 31
0.0
  0
LINE
  8
0
 62
     0
 10
226.169
 20
12.6848
 30
0.0
 11
226.97
 21
12.6848
 31
0.0
  0
LINE
  8
0
 62
     0
 10
226.97
 20
12.6848
 30
0.0
 11
226.97
 21
15.7827
 31
0.0
  0
LINE
  8
0
 62
     0
 10
226.97
 20
15.7827
 30
0.0
 11
226.169
 21
15.7827
 31
0.0
  0
LINE
  8
0
 62
     0
 10
226.169
 20
15.7827
 30
0.0
 11
226.169
 21
16.7831
 31
0.0
  0
LINE
  8
0
 62
     0
 10
226.169
 20
16.7831
 30
0.0
 11
212.17
 21
16.7831
 31
0.0
  0
LINE
  8
0
 62
     0
 10
231.22
 20
16.7831
 30
0.0
 11
231.22
 21
15.7827
 31
0.0
  0
LINE
  8
0
 62
     0
 10
231.22
 20
15.7827
 30
0.0
 11
230.419
 21
15.7827
 31
0.0
  0
LINE
  8
0
 62
     0
 10
230.419
 20
15.7827
 30
0.0
 11
230.419
 21
12.6848
 31
0.0
  0
LINE
  8
0
 62
     0
 10
230.419
 20
12.6848
 30
0.0
 11
231.22
 21
12.6848
 31
0.0
  0
LINE
  8
0
 62
     0
 10
231.22
 20
12.6848
 30
0.0
 11
231.22
 21
6.88329
 31
0.0
  0
LINE
  8
0
 62
     0
 10
231.22
 20
6.88329
 30
0.0
 11
230.419
 21
6.88329
 31
0.0
  0
LINE
  8
0
 62
     0
 10
230.419
 20
6.88329
 30
0.0
 11
230.419
 21
3.78273
 31
0.0
  0
LINE
  8
0
 62
     0
 10
230.419
 20
3.78273
 30
0.0
 11
231.22
 21
3.78273
 31
0.0
  0
LINE
  8
0
 62
     0
 10
231.22
 20
3.78273
 30
0.0
 11
231.22
 21
2.78364
 31
0.0
  0
LINE
  8
0
 62
     0
 10
231.22
 20
2.78364
 30
0.0
 11
245.219
 21
2.78364
 31
0.0
  0
LINE
  8
0
 62
     0
 10
245.219
 20
2.78364
 30
0.0
 11
245.219
 21
3.78273
 31
0.0
  0
LINE
  8
0
 62
     0
 10
245.219
 20
3.78273
 30
0.0
 11
246.02
 21
3.78273
 31
0.0
  0
LINE
  8
0
 62
     0
 10
246.02
 20
3.78273
 30
0.0
 11
246.02
 21
6.88329
 31
0.0
  0
LINE
  8
0
 62
     0
 10
246.02
 20
6.88329
 30
0.0
 11
245.219
 21
6.88329
 31
0.0
  0
LINE
  8
0
 62
     0
 10
245.219
 20
6.88329
 30
0.0
 11
245.219
 21
12.6848
 31
0.0
  0
LINE
  8
0
 62
     0
 10
245.219
 20
12.6848
 30
0.0
 11
246.02
 21
12.6848
 31
0.0
  0
LINE
  8
0
 62
     0
 10
246.02
 20
12.6848
 30
0.0
 11
246.02
 21
15.7827
 31
0.0
  0
LINE
  8
0
 62
     0
 10
246.02
 20
15.7827
 30
0.0
 11
245.219
 21
15.7827
 31
0.0
  0
LINE
  8
0
 62
     0
 10
245.219
 20
15.7827
 30
0.0
 11
245.219
 21
16.7831
 31
0.0
  0
LINE
  8
0
 62
     0
 10
245.219
 20
16.7831
 30
0.0
 11
231.22
 21
16.7831
 31
0.0
  0
LINE
  8
0
 62
     0
 10
9.76203
 20
35.833
 30
0.0
 11
9.76203
 21
34.8327
 31
0.0
  0
LINE
  8
0
 62
     0
 10
9.76203
 20
34.8327
 30
0.0
 11
8.96278
 21
34.8327
 31
0.0
  0
LINE
  8
0
 62
     0
 10
8.96278
 20
34.8327
 30
0.0
 11
8.96278
 21
31.7348
 31
0.0
  0
LINE
  8
0
 62
     0
 10
8.96278
 20
31.7348
 30
0.0
 11
9.76203
 21
31.7348
 31
0.0
  0
LINE
  8
0
 62
     0
 10
9.76203
 20
31.7348
 30
0.0
 11
9.76203
 21
25.9333
 31
0.0
  0
LINE
  8
0
 62
     0
 10
9.76203
 20
25.9333
 30
0.0
 11
8.96278
 21
25.9333
 31
0.0
  0
LINE
  8
0
 62
     0
 10
8.96278
 20
25.9333
 30
0.0
 11
8.96278
 21
22.8327
 31
0.0
  0
LINE
  8
0
 62
     0
 10
8.96278
 20
22.8327
 30
0.0
 11
9.76203
 21
22.8327
 31
0.0
  0
LINE
  8
0
 62
     0
 10
9.76203
 20
22.8327
 30
0.0
 11
9.76203
 21
21.8336
 31
0.0
  0
LINE
  8
0
 62
     0
 10
9.76203
 20
21.8336
 30
0.0
 11
23.7629
 21
21.8336
 31
0.0
  0
LINE
  8
0
 62
     0
 10
23.7629
 20
21.8336
 30
0.0
 11
23.7629
 21
22.8327
 31
0.0
  0
LINE
  8
0
 62
     0
 10
23.7629
 20
22.8327
 30
0.0
 11
24.5622
 21
22.8327
 31
0.0
  0
LINE
  8
0
 62
     0
 10
24.5622
 20
22.8327
 30
0.0
 11
24.5622
 21
25.9333
 31
0.0
  0
LINE
  8
0
 62
     0
 10
24.5622
 20
25.9333
 30
0.0
 11
23.7629
 21
25.9333
 31
0.0
  0
LINE
  8
0
 62
     0
 10
23.7629
 20
25.9333
 30
0.0
 11
23.7629
 21
31.7348
 31
0.0
  0
LINE
  8
0
 62
     0
 10
23.7629
 20
31.7348
 30
0.0
 11
24.5622
 21
31.7348
 31
0.0
  0
LINE
  8
0
 62
     0
 10
24.5622
 20
31.7348
 30
0.0
 11
24.5622
 21
34.8327
 31
0.0
  0
LINE
  8
0
 62
     0
 10
24.5622
 20
34.8327
 30
0.0
 11
23.7629
 21
34.8327
 31
0.0
  0
LINE
  8
0
 62
     0
 10
23.7629
 20
34.8327
 30
0.0
 11
23.7629
 21
35.833
 31
0.0
  0
LINE
  8
0
 62
     0
 10
23.7629
 20
35.833
 30
0.0
 11
9.76203
 21
35.833
 31
0.0
  0
LINE
  8
0
 62
     0
 10
35.9572
 20
35.833
 30
0.0
 11
35.9572
 21
34.8327
 31
0.0
  0
LINE
  8
0
 62
     0
 10
35.9572
 20
34.8327
 30
0.0
 11
35.1565
 21
34.8327
 31
0.0
  0
LINE
  8
0
 62
     0
 10
35.1565
 20
34.8327
 30
0.0
 11
35.1565
 21
31.7348
 31
0.0
  0
LINE
  8
0
 62
     0
 10
35.1565
 20
31.7348
 30
0.0
 11
35.9572
 21
31.7348
 31
0.0
  0
LINE
  8
0
 62
     0
 10
35.9572
 20
31.7348
 30
0.0
 11
35.9572
 21
25.9333
 31
0.0
  0
LINE
  8
0
 62
     0
 10
35.9572
 20
25.9333
 30
0.0
 11
35.1565
 21
25.9333
 31
0.0
  0
LINE
  8
0
 62
     0
 10
35.1565
 20
25.9333
 30
0.0
 11
35.1565
 21
22.8327
 31
0.0
  0
LINE
  8
0
 62
     0
 10
35.1565
 20
22.8327
 30
0.0
 11
35.9572
 21
22.8327
 31
0.0
  0
LINE
  8
0
 62
     0
 10
35.9572
 20
22.8327
 30
0.0
 11
35.9572
 21
21.8336
 31
0.0
  0
LINE
  8
0
 62
     0
 10
35.9572
 20
21.8336
 30
0.0
 11
49.9565
 21
21.8336
 31
0.0
  0
LINE
  8
0
 62
     0
 10
49.9565
 20
21.8336
 30
0.0
 11
49.9565
 21
22.8327
 31
0.0
  0
LINE
  8
0
 62
     0
 10
49.9565
 20
22.8327
 30
0.0
 11
50.7559
 21
22.8327
 31
0.0
  0
LINE
  8
0
 62
     0
 10
50.7559
 20
22.8327
 30
0.0
 11
50.7559
 21
25.9333
 31
0.0
  0
LINE
  8
0
 62
     0
 10
50.7559
 20
25.9333
 30
0.0
 11
49.9565
 21
25.9333
 31
0.0
  0
LINE
  8
0
 62
     0
 10
49.9565
 20
25.9333
 30
0.0
 11
49.9565
 21
31.7348
 31
0.0
  0
LINE
  8
0
 62
     0
 10
49.9565
 20
31.7348
 30
0.0
 11
50.7559
 21
31.7348
 31
0.0
  0
LINE
  8
0
 62
     0
 10
50.7559
 20
31.7348
 30
0.0
 11
50.7559
 21
34.8327
 31
0.0
  0
LINE
  8
0
 62
     0
 10
50.7559
 20
34.8327
 30
0.0
 11
49.9565
 21
34.8327
 31
0.0
  0
LINE
  8
0
 62
     0
 10
49.9565
 20
34.8327
 30
0.0
 11
49.9565
 21
35.833
 31
0.0
  0
LINE
  8
0
 62
     0
 10
49.9565
 20
35.833
 30
0.0
 11
35.9572
 21
35.833
 31
0.0
  0
LINE
  8
0
 62
     0
 10
55.0072
 20
35.833
 30
0.0
 11
55.0072
 21
34.8327
 31
0.0
  0
LINE
  8
0
 62
     0
 10
55.0072
 20
34.8327
 30
0.0
 11
54.2064
 21
34.8327
 31
0.0
  0
LINE
  8
0
 62
     0
 10
54.2064
 20
34.8327
 30
0.0
 11
54.2064
 21
31.7348
 31
0.0
  0
LINE
  8
0
 62
     0
 10
54.2064
 20
31.7348
 30
0.0
 11
55.0072
 21
31.7348
 31
0.0
  0
LINE
  8
0
 62
     0
 10
55.0072
 20
31.7348
 30
0.0
 11
55.0072
 21
25.9333
 31
0.0
  0
LINE
  8
0
 62
     0
 10
55.0072
 20
25.9333
 30
0.0
 11
54.2064
 21
25.9333
 31
0.0
  0
LINE
  8
0
 62
     0
 10
54.2064
 20
25.9333
 30
0.0
 11
54.2064
 21
22.8327
 31
0.0
  0
LINE
  8
0
 62
     0
 10
54.2064
 20
22.8327
 30
0.0
 11
55.0072
 21
22.8327
 31
0.0
  0
LINE
  8
0
 62
     0
 10
55.0072
 20
22.8327
 30
0.0
 11
55.0072
 21
21.8336
 31
0.0
  0
LINE
  8
0
 62
     0
 10
55.0072
 20
21.8336
 30
0.0
 11
69.0065
 21
21.8336
 31
0.0
  0
LINE
  8
0
 62
     0
 10
69.0065
 20
21.8336
 30
0.0
 11
69.0065
 21
22.8327
 31
0.0
  0
LINE
  8
0
 62
     0
 10
69.0065
 20
22.8327
 30
0.0
 11
69.8059
 21
22.8327
 31
0.0
  0
LINE
  8
0
 62
     0
 10
69.8059
 20
22.8327
 30
0.0
 11
69.8059
 21
25.9333
 31
0.0
  0
LINE
  8
0
 62
     0
 10
69.8059
 20
25.9333
 30
0.0
 11
69.0065
 21
25.9333
 31
0.0
  0
LINE
  8
0
 62
     0
 10
69.0065
 20
25.9333
 30
0.0
 11
69.0065
 21
31.7348
 31
0.0
  0
LINE
  8
0
 62
     0
 10
69.0065
 20
31.7348
 30
0.0
 11
69.8059
 21
31.7348
 31
0.0
  0
LINE
  8
0
 62
     0
 10
69.8059
 20
31.7348
 30
0.0
 11
69.8059
 21
34.8327
 31
0.0
  0
LINE
  8
0
 62
     0
 10
69.8059
 20
34.8327
 30
0.0
 11
69.0065
 21
34.8327
 31
0.0
  0
LINE
  8
0
 62
     0
 10
69.0065
 20
34.8327
 30
0.0
 11
69.0065
 21
35.833
 31
0.0
  0
LINE
  8
0
 62
     0
 10
69.0065
 20
35.833
 30
0.0
 11
55.0072
 21
35.833
 31
0.0
  0
LINE
  8
0
 62
     0
 10
74.0572
 20
35.833
 30
0.0
 11
74.0572
 21
34.8327
 31
0.0
  0
LINE
  8
0
 62
     0
 10
74.0572
 20
34.8327
 30
0.0
 11
73.2564
 21
34.8327
 31
0.0
  0
LINE
  8
0
 62
     0
 10
73.2564
 20
34.8327
 30
0.0
 11
73.2564
 21
31.7348
 31
0.0
  0
LINE
  8
0
 62
     0
 10
73.2564
 20
31.7348
 30
0.0
 11
74.0572
 21
31.7348
 31
0.0
  0
LINE
  8
0
 62
     0
 10
74.0572
 20
31.7348
 30
0.0
 11
74.0572
 21
25.9333
 31
0.0
  0
LINE
  8
0
 62
     0
 10
74.0572
 20
25.9333
 30
0.0
 11
73.2564
 21
25.9333
 31
0.0
  0
LINE
  8
0
 62
     0
 10
73.2564
 20
25.9333
 30
0.0
 11
73.2564
 21
22.8327
 31
0.0
  0
LINE
  8
0
 62
     0
 10
73.2564
 20
22.8327
 30
0.0
 11
74.0572
 21
22.8327
 31
0.0
  0
LINE
  8
0
 62
     0
 10
74.0572
 20
22.8327
 30
0.0
 11
74.0572
 21
21.8336
 31
0.0
  0
LINE
  8
0
 62
     0
 10
74.0572
 20
21.8336
 30
0.0
 11
88.0565
 21
21.8336
 31
0.0
  0
LINE
  8
0
 62
     0
 10
88.0565
 20
21.8336
 30
0.0
 11
88.0565
 21
22.8327
 31
0.0
  0
LINE
  8
0
 62
     0
 10
88.0565
 20
22.8327
 30
0.0
 11
88.8559
 21
22.8327
 31
0.0
  0
LINE
  8
0
 62
     0
 10
88.8559
 20
22.8327
 30
0.0
 11
88.8559
 21
25.9333
 31
0.0
  0
LINE
  8
0
 62
     0
 10
88.8559
 20
25.9333
 30
0.0
 11
88.0565
 21
25.9333
 31
0.0
  0
LINE
  8
0
 62
     0
 10
88.0565
 20
25.9333
 30
0.0
 11
88.0565
 21
31.7348
 31
0.0
  0
LINE
  8
0
 62
     0
 10
88.0565
 20
31.7348
 30
0.0
 11
88.8559
 21
31.7348
 31
0.0
  0
LINE
  8
0
 62
     0
 10
88.8559
 20
31.7348
 30
0.0
 11
88.8559
 21
34.8327
 31
0.0
  0
LINE
  8
0
 62
     0
 10
88.8559
 20
34.8327
 30
0.0
 11
88.0565
 21
34.8327
 31
0.0
  0
LINE
  8
0
 62
     0
 10
88.0565
 20
34.8327
 30
0.0
 11
88.0565
 21
35.833
 31
0.0
  0
LINE
  8
0
 62
     0
 10
88.0565
 20
35.833
 30
0.0
 11
74.0572
 21
35.833
 31
0.0
  0
LINE
  8
0
 62
     0
 10
93.1072
 20
35.833
 30
0.0
 11
93.1072
 21
34.8327
 31
0.0
  0
LINE
  8
0
 62
     0
 10
93.1072
 20
34.8327
 30
0.0
 11
92.3064
 21
34.8327
 31
0.0
  0
LINE
  8
0
 62
     0
 10
92.3064
 20
34.8327
 30
0.0
 11
92.3064
 21
31.7348
 31
0.0
  0
LINE
  8
0
 62
     0
 10
92.3064
 20
31.7348
 30
0.0
 11
93.1072
 21
31.7348
 31
0.0
  0
LINE
  8
0
 62
     0
 10
93.1072
 20
31.7348
 30
0.0
 11
93.1072
 21
25.9333
 31
0.0
  0
LINE
  8
0
 62
     0
 10
93.1072
 20
25.9333
 30
0.0
 11
92.3064
 21
25.9333
 31
0.0
  0
LINE
  8
0
 62
     0
 10
92.3064
 20
25.9333
 30
0.0
 11
92.3064
 21
22.8327
 31
0.0
  0
LINE
  8
0
 62
     0
 10
92.3064
 20
22.8327
 30
0.0
 11
93.1072
 21
22.8327
 31
0.0
  0
LINE
  8
0
 62
     0
 10
93.1072
 20
22.8327
 30
0.0
 11
93.1072
 21
21.8336
 31
0.0
  0
LINE
  8
0
 62
     0
 10
93.1072
 20
21.8336
 30
0.0
 11
107.107
 21
21.8336
 31
0.0
  0
LINE
  8
0
 62
     0
 10
107.107
 20
21.8336
 30
0.0
 11
107.107
 21
22.8327
 31
0.0
  0
LINE
  8
0
 62
     0
 10
107.107
 20
22.8327
 30
0.0
 11
107.906
 21
22.8327
 31
0.0
  0
LINE
  8
0
 62
     0
 10
107.906
 20
22.8327
 30
0.0
 11
107.906
 21
25.9333
 31
0.0
  0
LINE
  8
0
 62
     0
 10
107.906
 20
25.9333
 30
0.0
 11
107.107
 21
25.9333
 31
0.0
  0
LINE
  8
0
 62
     0
 10
107.107
 20
25.9333
 30
0.0
 11
107.107
 21
31.7348
 31
0.0
  0
LINE
  8
0
 62
     0
 10
107.107
 20
31.7348
 30
0.0
 11
107.906
 21
31.7348
 31
0.0
  0
LINE
  8
0
 62
     0
 10
107.906
 20
31.7348
 30
0.0
 11
107.906
 21
34.8327
 31
0.0
  0
LINE
  8
0
 62
     0
 10
107.906
 20
34.8327
 30
0.0
 11
107.107
 21
34.8327
 31
0.0
  0
LINE
  8
0
 62
     0
 10
107.107
 20
34.8327
 30
0.0
 11
107.107
 21
35.833
 31
0.0
  0
LINE
  8
0
 62
     0
 10
107.107
 20
35.833
 30
0.0
 11
93.1072
 21
35.833
 31
0.0
  0
LINE
  8
0
 62
     0
 10
112.157
 20
35.833
 30
0.0
 11
112.157
 21
34.8327
 31
0.0
  0
LINE
  8
0
 62
     0
 10
112.157
 20
34.8327
 30
0.0
 11
111.356
 21
34.8327
 31
0.0
  0
LINE
  8
0
 62
     0
 10
111.356
 20
34.8327
 30
0.0
 11
111.356
 21
31.7348
 31
0.0
  0
LINE
  8
0
 62
     0
 10
111.356
 20
31.7348
 30
0.0
 11
112.157
 21
31.7348
 31
0.0
  0
LINE
  8
0
 62
     0
 10
112.157
 20
31.7348
 30
0.0
 11
112.157
 21
25.9333
 31
0.0
  0
LINE
  8
0
 62
     0
 10
112.157
 20
25.9333
 30
0.0
 11
111.356
 21
25.9333
 31
0.0
  0
LINE
  8
0
 62
     0
 10
111.356
 20
25.9333
 30
0.0
 11
111.356
 21
22.8327
 31
0.0
  0
LINE
  8
0
 62
     0
 10
111.356
 20
22.8327
 30
0.0
 11
112.157
 21
22.8327
 31
0.0
  0
LINE
  8
0
 62
     0
 10
112.157
 20
22.8327
 30
0.0
 11
112.157
 21
21.8336
 31
0.0
  0
LINE
  8
0
 62
     0
 10
112.157
 20
21.8336
 30
0.0
 11
126.157
 21
21.8336
 31
0.0
  0
LINE
  8
0
 62
     0
 10
126.157
 20
21.8336
 30
0.0
 11
126.157
 21
22.8327
 31
0.0
  0
LINE
  8
0
 62
     0
 10
126.157
 20
22.8327
 30
0.0
 11
126.956
 21
22.8327
 31
0.0
  0
LINE
  8
0
 62
     0
 10
126.956
 20
22.8327
 30
0.0
 11
126.956
 21
25.9333
 31
0.0
  0
LINE
  8
0
 62
     0
 10
126.956
 20
25.9333
 30
0.0
 11
126.157
 21
25.9333
 31
0.0
  0
LINE
  8
0
 62
     0
 10
126.157
 20
25.9333
 30
0.0
 11
126.157
 21
31.7348
 31
0.0
  0
LINE
  8
0
 62
     0
 10
126.157
 20
31.7348
 30
0.0
 11
126.956
 21
31.7348
 31
0.0
  0
LINE
  8
0
 62
     0
 10
126.956
 20
31.7348
 30
0.0
 11
126.956
 21
34.8327
 31
0.0
  0
LINE
  8
0
 62
     0
 10
126.956
 20
34.8327
 30
0.0
 11
126.157
 21
34.8327
 31
0.0
  0
LINE
  8
0
 62
     0
 10
126.157
 20
34.8327
 30
0.0
 11
126.157
 21
35.833
 31
0.0
  0
LINE
  8
0
 62
     0
 10
126.157
 20
35.833
 30
0.0
 11
112.157
 21
35.833
 31
0.0
  0
LINE
  8
0
 62
     0
 10
131.207
 20
35.833
 30
0.0
 11
131.207
 21
34.8327
 31
0.0
  0
LINE
  8
0
 62
     0
 10
131.207
 20
34.8327
 30
0.0
 11
130.406
 21
34.8327
 31
0.0
  0
LINE
  8
0
 62
     0
 10
130.406
 20
34.8327
 30
0.0
 11
130.406
 21
31.7348
 31
0.0
  0
LINE
  8
0
 62
     0
 10
130.406
 20
31.7348
 30
0.0
 11
131.207
 21
31.7348
 31
0.0
  0
LINE
  8
0
 62
     0
 10
131.207
 20
31.7348
 30
0.0
 11
131.207
 21
25.9333
 31
0.0
  0
LINE
  8
0
 62
     0
 10
131.207
 20
25.9333
 30
0.0
 11
130.406
 21
25.9333
 31
0.0
  0
LINE
  8
0
 62
     0
 10
130.406
 20
25.9333
 30
0.0
 11
130.406
 21
22.8327
 31
0.0
  0
LINE
  8
0
 62
     0
 10
130.406
 20
22.8327
 30
0.0
 11
131.207
 21
22.8327
 31
0.0
  0
LINE
  8
0
 62
     0
 10
131.207
 20
22.8327
 30
0.0
 11
131.207
 21
21.8336
 31
0.0
  0
LINE
  8
0
 62
     0
 10
131.207
 20
21.8336
 30
0.0
 11
145.207
 21
21.8336
 31
0.0
  0
LINE
  8
0
 62
     0
 10
145.207
 20
21.8336
 30
0.0
 11
145.207
 21
22.8327
 31
0.0
  0
LINE
  8
0
 62
     0
 10
145.207
 20
22.8327
 30
0.0
 11
146.006
 21
22.8327
 31
0.0
  0
LINE
  8
0
 62
     0
 10
146.006
 20
22.8327
 30
0.0
 11
146.006
 21
25.9333
 31
0.0
  0
LINE
  8
0
 62
     0
 10
146.006
 20
25.9333
 30
0.0
 11
145.207
 21
25.9333
 31
0.0
  0
LINE
  8
0
 62
     0
 10
145.207
 20
25.9333
 30
0.0
 11
145.207
 21
31.7348
 31
0.0
  0
LINE
  8
0
 62
     0
 10
145.207
 20
31.7348
 30
0.0
 11
146.006
 21
31.7348
 31
0.0
  0
LINE
  8
0
 62
     0
 10
146.006
 20
31.7348
 30
0.0
 11
146.006
 21
34.8327
 31
0.0
  0
LINE
  8
0
 62
     0
 10
146.006
 20
34.8327
 30
0.0
 11
145.207
 21
34.8327
 31
0.0
  0
LINE
  8
0
 62
     0
 10
145.207
 20
34.8327
 30
0.0
 11
145.207
 21
35.833
 31
0.0
  0
LINE
  8
0
 62
     0
 10
145.207
 20
35.833
 30
0.0
 11
131.207
 21
35.833
 31
0.0
  0
LINE
  8
0
 62
     0
 10
150.257
 20
35.833
 30
0.0
 11
150.257
 21
34.8327
 31
0.0
  0
LINE
  8
0
 62
     0
 10
150.257
 20
34.8327
 30
0.0
 11
149.456
 21
34.8327
 31
0.0
  0
LINE
  8
0
 62
     0
 10
149.456
 20
34.8327
 30
0.0
 11
149.456
 21
31.7348
 31
0.0
  0
LINE
  8
0
 62
     0
 10
149.456
 20
31.7348
 30
0.0
 11
150.257
 21
31.7348
 31
0.0
  0
LINE
  8
0
 62
     0
 10
150.257
 20
31.7348
 30
0.0
 11
150.257
 21
25.9333
 31
0.0
  0
LINE
  8
0
 62
     0
 10
150.257
 20
25.9333
 30
0.0
 11
149.456
 21
25.9333
 31
0.0
  0
LINE
  8
0
 62
     0
 10
149.456
 20
25.9333
 30
0.0
 11
149.456
 21
22.8327
 31
0.0
  0
LINE
  8
0
 62
     0
 10
149.456
 20
22.8327
 30
0.0
 11
150.257
 21
22.8327
 31
0.0
  0
LINE
  8
0
 62
     0
 10
150.257
 20
22.8327
 30
0.0
 11
150.257
 21
21.8336
 31
0.0
  0
LINE
  8
0
 62
     0
 10
150.257
 20
21.8336
 30
0.0
 11
164.257
 21
21.8336
 31
0.0
  0
LINE
  8
0
 62
     0
 10
164.257
 20
21.8336
 30
0.0
 11
164.257
 21
22.8327
 31
0.0
  0
LINE
  8
0
 62
     0
 10
164.257
 20
22.8327
 30
0.0
 11
165.056
 21
22.8327
 31
0.0
  0
LINE
  8
0
 62
     0
 10
165.056
 20
22.8327
 30
0.0
 11
165.056
 21
25.9333
 31
0.0
  0
LINE
  8
0
 62
     0
 10
165.056
 20
25.9333
 30
0.0
 11
164.257
 21
25.9333
 31
0.0
  0
LINE
  8
0
 62
     0
 10
164.257
 20
25.9333
 30
0.0
 11
164.257
 21
31.7348
 31
0.0
  0
LINE
  8
0
 62
     0
 10
164.257
 20
31.7348
 30
0.0
 11
165.056
 21
31.7348
 31
0.0
  0
LINE
  8
0
 62
     0
 10
165.056
 20
31.7348
 30
0.0
 11
165.056
 21
34.8327
 31
0.0
  0
LINE
  8
0
 62
     0
 10
165.056
 20
34.8327
 30
0.0
 11
164.257
 21
34.8327
 31
0.0
  0
LINE
  8
0
 62
     0
 10
164.257
 20
34.8327
 30
0.0
 11
164.257
 21
35.833
 31
0.0
  0
LINE
  8
0
 62
     0
 10
164.257
 20
35.833
 30
0.0
 11
150.257
 21
35.833
 31
0.0
  0
LINE
  8
0
 62
     0
 10
169.307
 20
35.833
 30
0.0
 11
169.307
 21
34.8327
 31
0.0
  0
LINE
  8
0
 62
     0
 10
169.307
 20
34.8327
 30
0.0
 11
168.506
 21
34.8327
 31
0.0
  0
LINE
  8
0
 62
     0
 10
168.506
 20
34.8327
 30
0.0
 11
168.506
 21
31.7348
 31
0.0
  0
LINE
  8
0
 62
     0
 10
168.506
 20
31.7348
 30
0.0
 11
169.307
 21
31.7348
 31
0.0
  0
LINE
  8
0
 62
     0
 10
169.307
 20
31.7348
 30
0.0
 11
169.307
 21
25.9333
 31
0.0
  0
LINE
  8
0
 62
     0
 10
169.307
 20
25.9333
 30
0.0
 11
168.506
 21
25.9333
 31
0.0
  0
LINE
  8
0
 62
     0
 10
168.506
 20
25.9333
 30
0.0
 11
168.506
 21
22.8327
 31
0.0
  0
LINE
  8
0
 62
     0
 10
168.506
 20
22.8327
 30
0.0
 11
169.307
 21
22.8327
 31
0.0
  0
LINE
  8
0
 62
     0
 10
169.307
 20
22.8327
 30
0.0
 11
169.307
 21
21.8336
 31
0.0
  0
LINE
  8
0
 62
     0
 10
169.307
 20
21.8336
 30
0.0
 11
183.307
 21
21.8336
 31
0.0
  0
LINE
  8
0
 62
     0
 10
183.307
 20
21.8336
 30
0.0
 11
183.307
 21
22.8327
 31
0.0
  0
LINE
  8
0
 62
     0
 10
183.307
 20
22.8327
 30
0.0
 11
184.106
 21
22.8327
 31
0.0
  0
LINE
  8
0
 62
     0
 10
184.106
 20
22.8327
 30
0.0
 11
184.106
 21
25.9333
 31
0.0
  0
LINE
  8
0
 62
     0
 10
184.106
 20
25.9333
 30
0.0
 11
183.307
 21
25.9333
 31
0.0
  0
LINE
  8
0
 62
     0
 10
183.307
 20
25.9333
 30
0.0
 11
183.307
 21
31.7348
 31
0.0
  0
LINE
  8
0
 62
     0
 10
183.307
 20
31.7348
 30
0.0
 11
184.106
 21
31.7348
 31
0.0
  0
LINE
  8
0
 62
     0
 10
184.106
 20
31.7348
 30
0.0
 11
184.106
 21
34.8327
 31
0.0
  0
LINE
  8
0
 62
     0
 10
184.106
 20
34.8327
 30
0.0
 11
183.307
 21
34.8327
 31
0.0
  0
LINE
  8
0
 62
     0
 10
183.307
 20
34.8327
 30
0.0
 11
183.307
 21
35.833
 31
0.0
  0
LINE
  8
0
 62
     0
 10
183.307
 20
35.833
 30
0.0
 11
169.307
 21
35.833
 31
0.0
  0
LINE
  8
0
 62
     0
 10
188.357
 20
35.833
 30
0.0
 11
188.357
 21
34.8327
 31
0.0
  0
LINE
  8
0
 62
     0
 10
188.357
 20
34.8327
 30
0.0
 11
187.556
 21
34.8327
 31
0.0
  0
LINE
  8
0
 62
     0
 10
187.556
 20
34.8327
 30
0.0
 11
187.556
 21
31.7348
 31
0.0
  0
LINE
  8
0
 62
     0
 10
187.556
 20
31.7348
 30
0.0
 11
188.357
 21
31.7348
 31
0.0
  0
LINE
  8
0
 62
     0
 10
188.357
 20
31.7348
 30
0.0
 11
188.357
 21
25.9333
 31
0.0
  0
LINE
  8
0
 62
     0
 10
188.357
 20
25.9333
 30
0.0
 11
187.556
 21
25.9333
 31
0.0
  0
LINE
  8
0
 62
     0
 10
187.556
 20
25.9333
 30
0.0
 11
187.556
 21
22.8327
 31
0.0
  0
LINE
  8
0
 62
     0
 10
187.556
 20
22.8327
 30
0.0
 11
188.357
 21
22.8327
 31
0.0
  0
LINE
  8
0
 62
     0
 10
188.357
 20
22.8327
 30
0.0
 11
188.357
 21
21.8336
 31
0.0
  0
LINE
  8
0
 62
     0
 10
188.357
 20
21.8336
 30
0.0
 11
202.357
 21
21.8336
 31
0.0
  0
LINE
  8
0
 62
     0
 10
202.357
 20
21.8336
 30
0.0
 11
202.357
 21
22.8327
 31
0.0
  0
LINE
  8
0
 62
     0
 10
202.357
 20
22.8327
 30
0.0
 11
203.156
 21
22.8327
 31
0.0
  0
LINE
  8
0
 62
     0
 10
203.156
 20
22.8327
 30
0.0
 11
203.156
 21
25.9333
 31
0.0
  0
LINE
  8
0
 62
     0
 10
203.156
 20
25.9333
 30
0.0
 11
202.357
 21
25.9333
 31
0.0
  0
LINE
  8
0
 62
     0
 10
202.357
 20
25.9333
 30
0.0
 11
202.357
 21
31.7348
 31
0.0
  0
LINE
  8
0
 62
     0
 10
202.357
 20
31.7348
 30
0.0
 11
203.156
 21
31.7348
 31
0.0
  0
LINE
  8
0
 62
     0
 10
203.156
 20
31.7348
 30
0.0
 11
203.156
 21
34.8327
 31
0.0
  0
LINE
  8
0
 62
     0
 10
203.156
 20
34.8327
 30
0.0
 11
202.357
 21
34.8327
 31
0.0
  0
LINE
  8
0
 62
     0
 10
202.357
 20
34.8327
 30
0.0
 11
202.357
 21
35.833
 31
0.0
  0
LINE
  8
0
 62
     0
 10
202.357
 20
35.833
 30
0.0
 11
188.357
 21
35.833
 31
0.0
  0
LINE
  8
0
 62
     0
 10
212.17
 20
35.833
 30
0.0
 11
212.17
 21
34.8327
 31
0.0
  0
LINE
  8
0
 62
     0
 10
212.17
 20
34.8327
 30
0.0
 11
211.369
 21
34.8327
 31
0.0
  0
LINE
  8
0
 62
     0
 10
211.369
 20
34.8327
 30
0.0
 11
211.369
 21
31.7348
 31
0.0
  0
LINE
  8
0
 62
     0
 10
211.369
 20
31.7348
 30
0.0
 11
212.17
 21
31.7348
 31
0.0
  0
LINE
  8
0
 62
     0
 10
212.17
 20
31.7348
 30
0.0
 11
212.17
 21
25.9333
 31
0.0
  0
LINE
  8
0
 62
     0
 10
212.17
 20
25.9333
 30
0.0
 11
211.369
 21
25.9333
 31
0.0
  0
LINE
  8
0
 62
     0
 10
211.369
 20
25.9333
 30
0.0
 11
211.369
 21
22.8327
 31
0.0
  0
LINE
  8
0
 62
     0
 10
211.369
 20
22.8327
 30
0.0
 11
212.17
 21
22.8327
 31
0.0
  0
LINE
  8
0
 62
     0
 10
212.17
 20
22.8327
 30
0.0
 11
212.17
 21
21.8336
 31
0.0
  0
LINE
  8
0
 62
     0
 10
212.17
 20
21.8336
 30
0.0
 11
226.169
 21
21.8336
 31
0.0
  0
LINE
  8
0
 62
     0
 10
226.169
 20
21.8336
 30
0.0
 11
226.169
 21
22.8327
 31
0.0
  0
LINE
  8
0
 62
     0
 10
226.169
 20
22.8327
 30
0.0
 11
226.97
 21
22.8327
 31
0.0
  0
LINE
  8
0
 62
     0
 10
226.97
 20
22.8327
 30
0.0
 11
226.97
 21
25.9333
 31
0.0
  0
LINE
  8
0
 62
     0
 10
226.97
 20
25.9333
 30
0.0
 11
226.169
 21
25.9333
 31
0.0
  0
LINE
  8
0
 62
     0
 10
226.169
 20
25.9333
 30
0.0
 11
226.169
 21
31.7348
 31
0.0
  0
LINE
  8
0
 62
     0
 10
226.169
 20
31.7348
 30
0.0
 11
226.97
 21
31.7348
 31
0.0
  0
LINE
  8
0
 62
     0
 10
226.97
 20
31.7348
 30
0.0
 11
226.97
 21
34.8327
 31
0.0
  0
LINE
  8
0
 62
     0
 10
226.97
 20
34.8327
 30
0.0
 11
226.169
 21
34.8327
 31
0.0
  0
LINE
  8
0
 62
     0
 10
226.169
 20
34.8327
 30
0.0
 11
226.169
 21
35.833
 31
0.0
  0
LINE
  8
0
 62
     0
 10
226.169
 20
35.833
 30
0.0
 11
212.17
 21
35.833
 31
0.0
  0
LINE
  8
0
 62
     0
 10
231.22
 20
35.833
 30
0.0
 11
231.22
 21
34.8327
 31
0.0
  0
LINE
  8
0
 62
     0
 10
231.22
 20
34.8327
 30
0.0
 11
230.419
 21
34.8327
 31
0.0
  0
LINE
  8
0
 62
     0
 10
230.419
 20
34.8327
 30
0.0
 11
230.419
 21
31.7348
 31
0.0
  0
LINE
  8
0
 62
     0
 10
230.419
 20
31.7348
 30
0.0
 11
231.22
 21
31.7348
 31
0.0
  0
LINE
  8
0
 62
     0
 10
231.22
 20
31.7348
 30
0.0
 11
231.22
 21
25.9333
 31
0.0
  0
LINE
  8
0
 62
     0
 10
231.22
 20
25.9333
 30
0.0
 11
230.419
 21
25.9333
 31
0.0
  0
LINE
  8
0
 62
     0
 10
230.419
 20
25.9333
 30
0.0
 11
230.419
 21
22.8327
 31
0.0
  0
LINE
  8
0
 62
     0
 10
230.419
 20
22.8327
 30
0.0
 11
231.22
 21
22.8327
 31
0.0
  0
LINE
  8
0
 62
     0
 10
231.22
 20
22.8327
 30
0.0
 11
231.22
 21
21.8336
 31
0.0
  0
LINE
  8
0
 62
     0
 10
231.22
 20
21.8336
 30
0.0
 11
245.219
 21
21.8336
 31
0.0
  0
LINE
  8
0
 62
     0
 10
245.219
 20
21.8336
 30
0.0
 11
245.219
 21
22.8327
 31
0.0
  0
LINE
  8
0
 62
     0
 10
245.219
 20
22.8327
 30
0.0
 11
246.02
 21
22.8327
 31
0.0
  0
LINE
  8
0
 62
     0
 10
246.02
 20
22.8327
 30
0.0
 11
246.02
 21
25.9333
 31
0.0
  0
LINE
  8
0
 62
     0
 10
246.02
 20
25.9333
 30
0.0
 11
245.219
 21
25.9333
 31
0.0
  0
LINE
  8
0
 62
     0
 10
245.219
 20
25.9333
 30
0.0
 11
245.219
 21
31.7348
 31
0.0
  0
LINE
  8
0
 62
     0
 10
245.219
 20
31.7348
 30
0.0
 11
246.02
 21
31.7348
 31
0.0
  0
LINE
  8
0
 62
     0
 10
246.02
 20
31.7348
 30
0.0
 11
246.02
 21
34.8327
 31
0.0
  0
LINE
  8
0
 62
     0
 10
246.02
 20
34.8327
 30
0.0
 11
245.219
 21
34.8327
 31
0.0
  0
LINE
  8
0
 62
     0
 10
245.219
 20
34.8327
 30
0.0
 11
245.219
 21
35.833
 31
0.0
  0
LINE
  8
0
 62
     0
 10
245.219
 20
35.833
 30
0.0
 11
231.22
 21
35.833
 31
0.0
  0
LINE
  8
0
 62
     0
 10
5.00091
 20
54.8831
 30
0.0
 11
5.00091
 21
53.8826
 31
0.0
  0
LINE
  8
0
 62
     0
 10
5.00091
 20
53.8826
 30
0.0
 11
4.20028
 21
53.8826
 31
0.0
  0
LINE
  8
0
 62
     0
 10
4.20028
 20
53.8826
 30
0.0
 11
4.20028
 21
50.7834
 31
0.0
  0
LINE
  8
0
 62
     0
 10
4.20028
 20
50.7834
 30
0.0
 11
5.00091
 21
50.7834
 31
0.0
  0
LINE
  8
0
 62
     0
 10
5.00091
 20
50.7834
 30
0.0
 11
5.00091
 21
44.9834
 31
0.0
  0
LINE
  8
0
 62
     0
 10
5.00091
 20
44.9834
 30
0.0
 11
4.20028
 21
44.9834
 31
0.0
  0
LINE
  8
0
 62
     0
 10
4.20028
 20
44.9834
 30
0.0
 11
4.20028
 21
41.8828
 31
0.0
  0
LINE
  8
0
 62
     0
 10
4.20028
 20
41.8828
 30
0.0
 11
5.00091
 21
41.8828
 31
0.0
  0
LINE
  8
0
 62
     0
 10
5.00091
 20
41.8828
 30
0.0
 11
5.00091
 21
40.8838
 31
0.0
  0
LINE
  8
0
 62
     0
 10
5.00091
 20
40.8838
 30
0.0
 11
19.0004
 21
40.8838
 31
0.0
  0
LINE
  8
0
 62
     0
 10
19.0004
 20
40.8838
 30
0.0
 11
19.0004
 21
41.8828
 31
0.0
  0
LINE
  8
0
 62
     0
 10
19.0004
 20
41.8828
 30
0.0
 11
19.801
 21
41.8828
 31
0.0
  0
LINE
  8
0
 62
     0
 10
19.801
 20
41.8828
 30
0.0
 11
19.801
 21
44.9834
 31
0.0
  0
LINE
  8
0
 62
     0
 10
19.801
 20
44.9834
 30
0.0
 11
19.0004
 21
44.9834
 31
0.0
  0
LINE
  8
0
 62
     0
 10
19.0004
 20
44.9834
 30
0.0
 11
19.0004
 21
50.7834
 31
0.0
  0
LINE
  8
0
 62
     0
 10
19.0004
 20
50.7834
 30
0.0
 11
19.801
 21
50.7834
 31
0.0
  0
LINE
  8
0
 62
     0
 10
19.801
 20
50.7834
 30
0.0
 11
19.801
 21
53.8826
 31
0.0
  0
LINE
  8
0
 62
     0
 10
19.801
 20
53.8826
 30
0.0
 11
19.0004
 21
53.8826
 31
0.0
  0
LINE
  8
0
 62
     0
 10
19.0004
 20
53.8826
 30
0.0
 11
19.0004
 21
54.8831
 31
0.0
  0
LINE
  8
0
 62
     0
 10
19.0004
 20
54.8831
 30
0.0
 11
5.00091
 21
54.8831
 31
0.0
  0
LINE
  8
0
 62
     0
 10
26.4322
 20
54.8831
 30
0.0
 11
26.4322
 21
53.8826
 31
0.0
  0
LINE
  8
0
 62
     0
 10
26.4322
 20
53.8826
 30
0.0
 11
25.6315
 21
53.8826
 31
0.0
  0
LINE
  8
0
 62
     0
 10
25.6315
 20
53.8826
 30
0.0
 11
25.6315
 21
50.7834
 31
0.0
  0
LINE
  8
0
 62
     0
 10
25.6315
 20
50.7834
 30
0.0
 11
26.4322
 21
50.7834
 31
0.0
  0
LINE
  8
0
 62
     0
 10
26.4322
 20
50.7834
 30
0.0
 11
26.4322
 21
44.9834
 31
0.0
  0
LINE
  8
0
 62
     0
 10
26.4322
 20
44.9834
 30
0.0
 11
25.6315
 21
44.9834
 31
0.0
  0
LINE
  8
0
 62
     0
 10
25.6315
 20
44.9834
 30
0.0
 11
25.6315
 21
41.8828
 31
0.0
  0
LINE
  8
0
 62
     0
 10
25.6315
 20
41.8828
 30
0.0
 11
26.4322
 21
41.8828
 31
0.0
  0
LINE
  8
0
 62
     0
 10
26.4322
 20
41.8828
 30
0.0
 11
26.4322
 21
40.8838
 31
0.0
  0
LINE
  8
0
 62
     0
 10
26.4322
 20
40.8838
 30
0.0
 11
40.4315
 21
40.8838
 31
0.0
  0
LINE
  8
0
 62
     0
 10
40.4315
 20
40.8838
 30
0.0
 11
40.4315
 21
41.8828
 31
0.0
  0
LINE
  8
0
 62
     0
 10
40.4315
 20
41.8828
 30
0.0
 11
41.2309
 21
41.8828
 31
0.0
  0
LINE
  8
0
 62
     0
 10
41.2309
 20
41.8828
 30
0.0
 11
41.2309
 21
44.9834
 31
0.0
  0
LINE
  8
0
 62
     0
 10
41.2309
 20
44.9834
 30
0.0
 11
40.4315
 21
44.9834
 31
0.0
  0
LINE
  8
0
 62
     0
 10
40.4315
 20
44.9834
 30
0.0
 11
40.4315
 21
50.7834
 31
0.0
  0
LINE
  8
0
 62
     0
 10
40.4315
 20
50.7834
 30
0.0
 11
41.2309
 21
50.7834
 31
0.0
  0
LINE
  8
0
 62
     0
 10
41.2309
 20
50.7834
 30
0.0
 11
41.2309
 21
53.8826
 31
0.0
  0
LINE
  8
0
 62
     0
 10
41.2309
 20
53.8826
 30
0.0
 11
40.4315
 21
53.8826
 31
0.0
  0
LINE
  8
0
 62
     0
 10
40.4315
 20
53.8826
 30
0.0
 11
40.4315
 21
54.8831
 31
0.0
  0
LINE
  8
0
 62
     0
 10
40.4315
 20
54.8831
 30
0.0
 11
26.4322
 21
54.8831
 31
0.0
  0
LINE
  8
0
 62
     0
 10
45.4822
 20
54.8831
 30
0.0
 11
45.4822
 21
53.8826
 31
0.0
  0
LINE
  8
0
 62
     0
 10
45.4822
 20
53.8826
 30
0.0
 11
44.6814
 21
53.8826
 31
0.0
  0
LINE
  8
0
 62
     0
 10
44.6814
 20
53.8826
 30
0.0
 11
44.6814
 21
50.7834
 31
0.0
  0
LINE
  8
0
 62
     0
 10
44.6814
 20
50.7834
 30
0.0
 11
45.4822
 21
50.7834
 31
0.0
  0
LINE
  8
0
 62
     0
 10
45.4822
 20
50.7834
 30
0.0
 11
45.4822
 21
44.9834
 31
0.0
  0
LINE
  8
0
 62
     0
 10
45.4822
 20
44.9834
 30
0.0
 11
44.6814
 21
44.9834
 31
0.0
  0
LINE
  8
0
 62
     0
 10
44.6814
 20
44.9834
 30
0.0
 11
44.6814
 21
41.8828
 31
0.0
  0
LINE
  8
0
 62
     0
 10
44.6814
 20
41.8828
 30
0.0
 11
45.4822
 21
41.8828
 31
0.0
  0
LINE
  8
0
 62
     0
 10
45.4822
 20
41.8828
 30
0.0
 11
45.4822
 21
40.8838
 31
0.0
  0
LINE
  8
0
 62
     0
 10
45.4822
 20
40.8838
 30
0.0
 11
59.4815
 21
40.8838
 31
0.0
  0
LINE
  8
0
 62
     0
 10
59.4815
 20
40.8838
 30
0.0
 11
59.4815
 21
41.8828
 31
0.0
  0
LINE
  8
0
 62
     0
 10
59.4815
 20
41.8828
 30
0.0
 11
60.2809
 21
41.8828
 31
0.0
  0
LINE
  8
0
 62
     0
 10
60.2809
 20
41.8828
 30
0.0
 11
60.2809
 21
44.9834
 31
0.0
  0
LINE
  8
0
 62
     0
 10
60.2809
 20
44.9834
 30
0.0
 11
59.4815
 21
44.9834
 31
0.0
  0
LINE
  8
0
 62
     0
 10
59.4815
 20
44.9834
 30
0.0
 11
59.4815
 21
50.7834
 31
0.0
  0
LINE
  8
0
 62
     0
 10
59.4815
 20
50.7834
 30
0.0
 11
60.2809
 21
50.7834
 31
0.0
  0
LINE
  8
0
 62
     0
 10
60.2809
 20
50.7834
 30
0.0
 11
60.2809
 21
53.8826
 31
0.0
  0
LINE
  8
0
 62
     0
 10
60.2809
 20
53.8826
 30
0.0
 11
59.4815
 21
53.8826
 31
0.0
  0
LINE
  8
0
 62
     0
 10
59.4815
 20
53.8826
 30
0.0
 11
59.4815
 21
54.8831
 31
0.0
  0
LINE
  8
0
 62
     0
 10
59.4815
 20
54.8831
 30
0.0
 11
45.4822
 21
54.8831
 31
0.0
  0
LINE
  8
0
 62
     0
 10
64.5322
 20
54.8831
 30
0.0
 11
64.5322
 21
53.8826
 31
0.0
  0
LINE
  8
0
 62
     0
 10
64.5322
 20
53.8826
 30
0.0
 11
63.7314
 21
53.8826
 31
0.0
  0
LINE
  8
0
 62
     0
 10
63.7314
 20
53.8826
 30
0.0
 11
63.7314
 21
50.7834
 31
0.0
  0
LINE
  8
0
 62
     0
 10
63.7314
 20
50.7834
 30
0.0
 11
64.5322
 21
50.7834
 31
0.0
  0
LINE
  8
0
 62
     0
 10
64.5322
 20
50.7834
 30
0.0
 11
64.5322
 21
44.9834
 31
0.0
  0
LINE
  8
0
 62
     0
 10
64.5322
 20
44.9834
 30
0.0
 11
63.7314
 21
44.9834
 31
0.0
  0
LINE
  8
0
 62
     0
 10
63.7314
 20
44.9834
 30
0.0
 11
63.7314
 21
41.8828
 31
0.0
  0
LINE
  8
0
 62
     0
 10
63.7314
 20
41.8828
 30
0.0
 11
64.5322
 21
41.8828
 31
0.0
  0
LINE
  8
0
 62
     0
 10
64.5322
 20
41.8828
 30
0.0
 11
64.5322
 21
40.8838
 31
0.0
  0
LINE
  8
0
 62
     0
 10
64.5322
 20
40.8838
 30
0.0
 11
78.5315
 21
40.8838
 31
0.0
  0
LINE
  8
0
 62
     0
 10
78.5315
 20
40.8838
 30
0.0
 11
78.5315
 21
41.8828
 31
0.0
  0
LINE
  8
0
 62
     0
 10
78.5315
 20
41.8828
 30
0.0
 11
79.3309
 21
41.8828
 31
0.0
  0
LINE
  8
0
 62
     0
 10
79.3309
 20
41.8828
 30
0.0
 11
79.3309
 21
44.9834
 31
0.0
  0
LINE
  8
0
 62
     0
 10
79.3309
 20
44.9834
 30
0.0
 11
78.5315
 21
44.9834
 31
0.0
  0
LINE
  8
0
 62
     0
 10
78.5315
 20
44.9834
 30
0.0
 11
78.5315
 21
50.7834
 31
0.0
  0
LINE
  8
0
 62
     0
 10
78.5315
 20
50.7834
 30
0.0
 11
79.3309
 21
50.7834
 31
0.0
  0
LINE
  8
0
 62
     0
 10
79.3309
 20
50.7834
 30
0.0
 11
79.3309
 21
53.8826
 31
0.0
  0
LINE
  8
0
 62
     0
 10
79.3309
 20
53.8826
 30
0.0
 11
78.5315
 21
53.8826
 31
0.0
  0
LINE
  8
0
 62
     0
 10
78.5315
 20
53.8826
 30
0.0
 11
78.5315
 21
54.8831
 31
0.0
  0
LINE
  8
0
 62
     0
 10
78.5315
 20
54.8831
 30
0.0
 11
64.5322
 21
54.8831
 31
0.0
  0
LINE
  8
0
 62
     0
 10
83.5822
 20
54.8831
 30
0.0
 11
83.5822
 21
53.8826
 31
0.0
  0
LINE
  8
0
 62
     0
 10
83.5822
 20
53.8826
 30
0.0
 11
82.7814
 21
53.8826
 31
0.0
  0
LINE
  8
0
 62
     0
 10
82.7814
 20
53.8826
 30
0.0
 11
82.7814
 21
50.7834
 31
0.0
  0
LINE
  8
0
 62
     0
 10
82.7814
 20
50.7834
 30
0.0
 11
83.5822
 21
50.7834
 31
0.0
  0
LINE
  8
0
 62
     0
 10
83.5822
 20
50.7834
 30
0.0
 11
83.5822
 21
44.9834
 31
0.0
  0
LINE
  8
0
 62
     0
 10
83.5822
 20
44.9834
 30
0.0
 11
82.7814
 21
44.9834
 31
0.0
  0
LINE
  8
0
 62
     0
 10
82.7814
 20
44.9834
 30
0.0
 11
82.7814
 21
41.8828
 31
0.0
  0
LINE
  8
0
 62
     0
 10
82.7814
 20
41.8828
 30
0.0
 11
83.5822
 21
41.8828
 31
0.0
  0
LINE
  8
0
 62
     0
 10
83.5822
 20
41.8828
 30
0.0
 11
83.5822
 21
40.8838
 31
0.0
  0
LINE
  8
0
 62
     0
 10
83.5822
 20
40.8838
 30
0.0
 11
97.5815
 21
40.8838
 31
0.0
  0
LINE
  8
0
 62
     0
 10
97.5815
 20
40.8838
 30
0.0
 11
97.5815
 21
41.8828
 31
0.0
  0
LINE
  8
0
 62
     0
 10
97.5815
 20
41.8828
 30
0.0
 11
98.3809
 21
41.8828
 31
0.0
  0
LINE
  8
0
 62
     0
 10
98.3809
 20
41.8828
 30
0.0
 11
98.3809
 21
44.9834
 31
0.0
  0
LINE
  8
0
 62
     0
 10
98.3809
 20
44.9834
 30
0.0
 11
97.5815
 21
44.9834
 31
0.0
  0
LINE
  8
0
 62
     0
 10
97.5815
 20
44.9834
 30
0.0
 11
97.5815
 21
50.7834
 31
0.0
  0
LINE
  8
0
 62
     0
 10
97.5815
 20
50.7834
 30
0.0
 11
98.3809
 21
50.7834
 31
0.0
  0
LINE
  8
0
 62
     0
 10
98.3809
 20
50.7834
 30
0.0
 11
98.3809
 21
53.8826
 31
0.0
  0
LINE
  8
0
 62
     0
 10
98.3809
 20
53.8826
 30
0.0
 11
97.5815
 21
53.8826
 31
0.0
  0
LINE
  8
0
 62
     0
 10
97.5815
 20
53.8826
 30
0.0
 11
97.5815
 21
54.8831
 31
0.0
  0
LINE
  8
0
 62
     0
 10
97.5815
 20
54.8831
 30
0.0
 11
83.5822
 21
54.8831
 31
0.0
  0
LINE
  8
0
 62
     0
 10
102.632
 20
54.8831
 30
0.0
 11
102.632
 21
53.8826
 31
0.0
  0
LINE
  8
0
 62
     0
 10
102.632
 20
53.8826
 30
0.0
 11
101.831
 21
53.8826
 31
0.0
  0
LINE
  8
0
 62
     0
 10
101.831
 20
53.8826
 30
0.0
 11
101.831
 21
50.7834
 31
0.0
  0
LINE
  8
0
 62
     0
 10
101.831
 20
50.7834
 30
0.0
 11
102.632
 21
50.7834
 31
0.0
  0
LINE
  8
0
 62
     0
 10
102.632
 20
50.7834
 30
0.0
 11
102.632
 21
44.9834
 31
0.0
  0
LINE
  8
0
 62
     0
 10
102.632
 20
44.9834
 30
0.0
 11
101.831
 21
44.9834
 31
0.0
  0
LINE
  8
0
 62
     0
 10
101.831
 20
44.9834
 30
0.0
 11
101.831
 21
41.8828
 31
0.0
  0
LINE
  8
0
 62
     0
 10
101.831
 20
41.8828
 30
0.0
 11
102.632
 21
41.8828
 31
0.0
  0
LINE
  8
0
 62
     0
 10
102.632
 20
41.8828
 30
0.0
 11
102.632
 21
40.8838
 31
0.0
  0
LINE
  8
0
 62
     0
 10
102.632
 20
40.8838
 30
0.0
 11
116.632
 21
40.8838
 31
0.0
  0
LINE
  8
0
 62
     0
 10
116.632
 20
40.8838
 30
0.0
 11
116.632
 21
41.8828
 31
0.0
  0
LINE
  8
0
 62
     0
 10
116.632
 20
41.8828
 30
0.0
 11
117.431
 21
41.8828
 31
0.0
  0
LINE
  8
0
 62
     0
 10
117.431
 20
41.8828
 30
0.0
 11
117.431
 21
44.9834
 31
0.0
  0
LINE
  8
0
 62
     0
 10
117.431
 20
44.9834
 30
0.0
 11
116.632
 21
44.9834
 31
0.0
  0
LINE
  8
0
 62
     0
 10
116.632
 20
44.9834
 30
0.0
 11
116.632
 21
50.7834
 31
0.0
  0
LINE
  8
0
 62
     0
 10
116.632
 20
50.7834
 30
0.0
 11
117.431
 21
50.7834
 31
0.0
  0
LINE
  8
0
 62
     0
 10
117.431
 20
50.7834
 30
0.0
 11
117.431
 21
53.8826
 31
0.0
  0
LINE
  8
0
 62
     0
 10
117.431
 20
53.8826
 30
0.0
 11
116.632
 21
53.8826
 31
0.0
  0
LINE
  8
0
 62
     0
 10
116.632
 20
53.8826
 30
0.0
 11
116.632
 21
54.8831
 31
0.0
  0
LINE
  8
0
 62
     0
 10
116.632
 20
54.8831
 30
0.0
 11
102.632
 21
54.8831
 31
0.0
  0
LINE
  8
0
 62
     0
 10
121.682
 20
54.8831
 30
0.0
 11
121.682
 21
53.8826
 31
0.0
  0
LINE
  8
0
 62
     0
 10
121.682
 20
53.8826
 30
0.0
 11
120.881
 21
53.8826
 31
0.0
  0
LINE
  8
0
 62
     0
 10
120.881
 20
53.8826
 30
0.0
 11
120.881
 21
50.7834
 31
0.0
  0
LINE
  8
0
 62
     0
 10
120.881
 20
50.7834
 30
0.0
 11
121.682
 21
50.7834
 31
0.0
  0
LINE
  8
0
 62
     0
 10
121.682
 20
50.7834
 30
0.0
 11
121.682
 21
44.9834
 31
0.0
  0
LINE
  8
0
 62
     0
 10
121.682
 20
44.9834
 30
0.0
 11
120.881
 21
44.9834
 31
0.0
  0
LINE
  8
0
 62
     0
 10
120.881
 20
44.9834
 30
0.0
 11
120.881
 21
41.8828
 31
0.0
  0
LINE
  8
0
 62
     0
 10
120.881
 20
41.8828
 30
0.0
 11
121.682
 21
41.8828
 31
0.0
  0
LINE
  8
0
 62
     0
 10
121.682
 20
41.8828
 30
0.0
 11
121.682
 21
40.8838
 31
0.0
  0
LINE
  8
0
 62
     0
 10
121.682
 20
40.8838
 30
0.0
 11
135.682
 21
40.8838
 31
0.0
  0
LINE
  8
0
 62
     0
 10
135.682
 20
40.8838
 30
0.0
 11
135.682
 21
41.8828
 31
0.0
  0
LINE
  8
0
 62
     0
 10
135.682
 20
41.8828
 30
0.0
 11
136.481
 21
41.8828
 31
0.0
  0
LINE
  8
0
 62
     0
 10
136.481
 20
41.8828
 30
0.0
 11
136.481
 21
44.9834
 31
0.0
  0
LINE
  8
0
 62
     0
 10
136.481
 20
44.9834
 30
0.0
 11
135.682
 21
44.9834
 31
0.0
  0
LINE
  8
0
 62
     0
 10
135.682
 20
44.9834
 30
0.0
 11
135.682
 21
50.7834
 31
0.0
  0
LINE
  8
0
 62
     0
 10
135.682
 20
50.7834
 30
0.0
 11
136.481
 21
50.7834
 31
0.0
  0
LINE
  8
0
 62
     0
 10
136.481
 20
50.7834
 30
0.0
 11
136.481
 21
53.8826
 31
0.0
  0
LINE
  8
0
 62
     0
 10
136.481
 20
53.8826
 30
0.0
 11
135.682
 21
53.8826
 31
0.0
  0
LINE
  8
0
 62
     0
 10
135.682
 20
53.8826
 30
0.0
 11
135.682
 21
54.8831
 31
0.0
  0
LINE
  8
0
 62
     0
 10
135.682
 20
54.8831
 30
0.0
 11
121.682
 21
54.8831
 31
0.0
  0
LINE
  8
0
 62
     0
 10
140.732
 20
54.8831
 30
0.0
 11
140.732
 21
53.8826
 31
0.0
  0
LINE
  8
0
 62
     0
 10
140.732
 20
53.8826
 30
0.0
 11
139.931
 21
53.8826
 31
0.0
  0
LINE
  8
0
 62
     0
 10
139.931
 20
53.8826
 30
0.0
 11
139.931
 21
50.7834
 31
0.0
  0
LINE
  8
0
 62
     0
 10
139.931
 20
50.7834
 30
0.0
 11
140.732
 21
50.7834
 31
0.0
  0
LINE
  8
0
 62
     0
 10
140.732
 20
50.7834
 30
0.0
 11
140.732
 21
44.9834
 31
0.0
  0
LINE
  8
0
 62
     0
 10
140.732
 20
44.9834
 30
0.0
 11
139.931
 21
44.9834
 31
0.0
  0
LINE
  8
0
 62
     0
 10
139.931
 20
44.9834
 30
0.0
 11
139.931
 21
41.8828
 31
0.0
  0
LINE
  8
0
 62
     0
 10
139.931
 20
41.8828
 30
0.0
 11
140.732
 21
41.8828
 31
0.0
  0
LINE
  8
0
 62
     0
 10
140.732
 20
41.8828
 30
0.0
 11
140.732
 21
40.8838
 31
0.0
  0
LINE
  8
0
 62
     0
 10
140.732
 20
40.8838
 30
0.0
 11
154.732
 21
40.8838
 31
0.0
  0
LINE
  8
0
 62
     0
 10
154.732
 20
40.8838
 30
0.0
 11
154.732
 21
41.8828
 31
0.0
  0
LINE
  8
0
 62
     0
 10
154.732
 20
41.8828
 30
0.0
 11
155.531
 21
41.8828
 31
0.0
  0
LINE
  8
0
 62
     0
 10
155.531
 20
41.8828
 30
0.0
 11
155.531
 21
44.9834
 31
0.0
  0
LINE
  8
0
 62
     0
 10
155.531
 20
44.9834
 30
0.0
 11
154.732
 21
44.9834
 31
0.0
  0
LINE
  8
0
 62
     0
 10
154.732
 20
44.9834
 30
0.0
 11
154.732
 21
50.7834
 31
0.0
  0
LINE
  8
0
 62
     0
 10
154.732
 20
50.7834
 30
0.0
 11
155.531
 21
50.7834
 31
0.0
  0
LINE
  8
0
 62
     0
 10
155.531
 20
50.7834
 30
0.0
 11
155.531
 21
53.8826
 31
0.0
  0
LINE
  8
0
 62
     0
 10
155.531
 20
53.8826
 30
0.0
 11
154.732
 21
53.8826
 31
0.0
  0
LINE
  8
0
 62
     0
 10
154.732
 20
53.8826
 30
0.0
 11
154.732
 21
54.8831
 31
0.0
  0
LINE
  8
0
 62
     0
 10
154.732
 20
54.8831
 30
0.0
 11
140.732
 21
54.8831
 31
0.0
  0
LINE
  8
0
 62
     0
 10
159.782
 20
54.8831
 30
0.0
 11
159.782
 21
53.8826
 31
0.0
  0
LINE
  8
0
 62
     0
 10
159.782
 20
53.8826
 30
0.0
 11
158.981
 21
53.8826
 31
0.0
  0
LINE
  8
0
 62
     0
 10
158.981
 20
53.8826
 30
0.0
 11
158.981
 21
50.7834
 31
0.0
  0
LINE
  8
0
 62
     0
 10
158.981
 20
50.7834
 30
0.0
 11
159.782
 21
50.7834
 31
0.0
  0
LINE
  8
0
 62
     0
 10
159.782
 20
50.7834
 30
0.0
 11
159.782
 21
44.9834
 31
0.0
  0
LINE
  8
0
 62
     0
 10
159.782
 20
44.9834
 30
0.0
 11
158.981
 21
44.9834
 31
0.0
  0
LINE
  8
0
 62
     0
 10
158.981
 20
44.9834
 30
0.0
 11
158.981
 21
41.8828
 31
0.0
  0
LINE
  8
0
 62
     0
 10
158.981
 20
41.8828
 30
0.0
 11
159.782
 21
41.8828
 31
0.0
  0
LINE
  8
0
 62
     0
 10
159.782
 20
41.8828
 30
0.0
 11
159.782
 21
40.8838
 31
0.0
  0
LINE
  8
0
 62
     0
 10
159.782
 20
40.8838
 30
0.0
 11
173.782
 21
40.8838
 31
0.0
  0
LINE
  8
0
 62
     0
 10
173.782
 20
40.8838
 30
0.0
 11
173.782
 21
41.8828
 31
0.0
  0
LINE
  8
0
 62
     0
 10
173.782
 20
41.8828
 30
0.0
 11
174.581
 21
41.8828
 31
0.0
  0
LINE
  8
0
 62
     0
 10
174.581
 20
41.8828
 30
0.0
 11
174.581
 21
44.9834
 31
0.0
  0
LINE
  8
0
 62
     0
 10
174.581
 20
44.9834
 30
0.0
 11
173.782
 21
44.9834
 31
0.0
  0
LINE
  8
0
 62
     0
 10
173.782
 20
44.9834
 30
0.0
 11
173.782
 21
50.7834
 31
0.0
  0
LINE
  8
0
 62
     0
 10
173.782
 20
50.7834
 30
0.0
 11
174.581
 21
50.7834
 31
0.0
  0
LINE
  8
0
 62
     0
 10
174.581
 20
50.7834
 30
0.0
 11
174.581
 21
53.8826
 31
0.0
  0
LINE
  8
0
 62
     0
 10
174.581
 20
53.8826
 30
0.0
 11
173.782
 21
53.8826
 31
0.0
  0
LINE
  8
0
 62
     0
 10
173.782
 20
53.8826
 30
0.0
 11
173.782
 21
54.8831
 31
0.0
  0
LINE
  8
0
 62
     0
 10
173.782
 20
54.8831
 30
0.0
 11
159.782
 21
54.8831
 31
0.0
  0
LINE
  8
0
 62
     0
 10
178.832
 20
54.8831
 30
0.0
 11
178.832
 21
53.8826
 31
0.0
  0
LINE
  8
0
 62
     0
 10
178.832
 20
53.8826
 30
0.0
 11
178.031
 21
53.8826
 31
0.0
  0
LINE
  8
0
 62
     0
 10
178.031
 20
53.8826
 30
0.0
 11
178.031
 21
50.7834
 31
0.0
  0
LINE
  8
0
 62
     0
 10
178.031
 20
50.7834
 30
0.0
 11
178.832
 21
50.7834
 31
0.0
  0
LINE
  8
0
 62
     0
 10
178.832
 20
50.7834
 30
0.0
 11
178.832
 21
44.9834
 31
0.0
  0
LINE
  8
0
 62
     0
 10
178.832
 20
44.9834
 30
0.0
 11
178.031
 21
44.9834
 31
0.0
  0
LINE
  8
0
 62
     0
 10
178.031
 20
44.9834
 30
0.0
 11
178.031
 21
41.8828
 31
0.0
  0
LINE
  8
0
 62
     0
 10
178.031
 20
41.8828
 30
0.0
 11
178.832
 21
41.8828
 31
0.0
  0
LINE
  8
0
 62
     0
 10
178.832
 20
41.8828
 30
0.0
 11
178.832
 21
40.8838
 31
0.0
  0
LINE
  8
0
 62
     0
 10
178.832
 20
40.8838
 30
0.0
 11
192.832
 21
40.8838
 31
0.0
  0
LINE
  8
0
 62
     0
 10
192.832
 20
40.8838
 30
0.0
 11
192.832
 21
41.8828
 31
0.0
  0
LINE
  8
0
 62
     0
 10
192.832
 20
41.8828
 30
0.0
 11
193.631
 21
41.8828
 31
0.0
  0
LINE
  8
0
 62
     0
 10
193.631
 20
41.8828
 30
0.0
 11
193.631
 21
44.9834
 31
0.0
  0
LINE
  8
0
 62
     0
 10
193.631
 20
44.9834
 30
0.0
 11
192.832
 21
44.9834
 31
0.0
  0
LINE
  8
0
 62
     0
 10
192.832
 20
44.9834
 30
0.0
 11
192.832
 21
50.7834
 31
0.0
  0
LINE
  8
0
 62
     0
 10
192.832
 20
50.7834
 30
0.0
 11
193.631
 21
50.7834
 31
0.0
  0
LINE
  8
0
 62
     0
 10
193.631
 20
50.7834
 30
0.0
 11
193.631
 21
53.8826
 31
0.0
  0
LINE
  8
0
 62
     0
 10
193.631
 20
53.8826
 30
0.0
 11
192.832
 21
53.8826
 31
0.0
  0
LINE
  8
0
 62
     0
 10
192.832
 20
53.8826
 30
0.0
 11
192.832
 21
54.8831
 31
0.0
  0
LINE
  8
0
 62
     0
 10
192.832
 20
54.8831
 30
0.0
 11
178.832
 21
54.8831
 31
0.0
  0
LINE
  8
0
 62
     0
 10
197.882
 20
54.8831
 30
0.0
 11
197.882
 21
53.8826
 31
0.0
  0
LINE
  8
0
 62
     0
 10
197.882
 20
53.8826
 30
0.0
 11
197.081
 21
53.8826
 31
0.0
  0
LINE
  8
0
 62
     0
 10
197.081
 20
53.8826
 30
0.0
 11
197.081
 21
50.7834
 31
0.0
  0
LINE
  8
0
 62
     0
 10
197.081
 20
50.7834
 30
0.0
 11
197.882
 21
50.7834
 31
0.0
  0
LINE
  8
0
 62
     0
 10
197.882
 20
50.7834
 30
0.0
 11
197.882
 21
44.9834
 31
0.0
  0
LINE
  8
0
 62
     0
 10
197.882
 20
44.9834
 30
0.0
 11
197.081
 21
44.9834
 31
0.0
  0
LINE
  8
0
 62
     0
 10
197.081
 20
44.9834
 30
0.0
 11
197.081
 21
41.8828
 31
0.0
  0
LINE
  8
0
 62
     0
 10
197.081
 20
41.8828
 30
0.0
 11
197.882
 21
41.8828
 31
0.0
  0
LINE
  8
0
 62
     0
 10
197.882
 20
41.8828
 30
0.0
 11
197.882
 21
40.8838
 31
0.0
  0
LINE
  8
0
 62
     0
 10
197.882
 20
40.8838
 30
0.0
 11
211.882
 21
40.8838
 31
0.0
  0
LINE
  8
0
 62
     0
 10
211.882
 20
40.8838
 30
0.0
 11
211.882
 21
41.8828
 31
0.0
  0
LINE
  8
0
 62
     0
 10
211.882
 20
41.8828
 30
0.0
 11
212.681
 21
41.8828
 31
0.0
  0
LINE
  8
0
 62
     0
 10
212.681
 20
41.8828
 30
0.0
 11
212.681
 21
44.9834
 31
0.0
  0
LINE
  8
0
 62
     0
 10
212.681
 20
44.9834
 30
0.0
 11
211.882
 21
44.9834
 31
0.0
  0
LINE
  8
0
 62
     0
 10
211.882
 20
44.9834
 30
0.0
 11
211.882
 21
50.7834
 31
0.0
  0
LINE
  8
0
 62
     0
 10
211.882
 20
50.7834
 30
0.0
 11
212.681
 21
50.7834
 31
0.0
  0
LINE
  8
0
 62
     0
 10
212.681
 20
50.7834
 30
0.0
 11
212.681
 21
53.8826
 31
0.0
  0
LINE
  8
0
 62
     0
 10
212.681
 20
53.8826
 30
0.0
 11
211.882
 21
53.8826
 31
0.0
  0
LINE
  8
0
 62
     0
 10
211.882
 20
53.8826
 30
0.0
 11
211.882
 21
54.8831
 31
0.0
  0
LINE
  8
0
 62
     0
 10
211.882
 20
54.8831
 30
0.0
 11
197.882
 21
54.8831
 31
0.0
  0
LINE
  8
0
 62
     0
 10
224.076
 20
54.8831
 30
0.0
 11
224.076
 21
53.8826
 31
0.0
  0
LINE
  8
0
 62
     0
 10
224.076
 20
53.8826
 30
0.0
 11
223.275
 21
53.8826
 31
0.0
  0
LINE
  8
0
 62
     0
 10
223.275
 20
53.8826
 30
0.0
 11
223.275
 21
50.7834
 31
0.0
  0
LINE
  8
0
 62
     0
 10
223.275
 20
50.7834
 30
0.0
 11
224.076
 21
50.7834
 31
0.0
  0
LINE
  8
0
 62
     0
 10
224.076
 20
50.7834
 30
0.0
 11
224.076
 21
44.9834
 31
0.0
  0
LINE
  8
0
 62
     0
 10
224.076
 20
44.9834
 30
0.0
 11
223.275
 21
44.9834
 31
0.0
  0
LINE
  8
0
 62
     0
 10
223.275
 20
44.9834
 30
0.0
 11
223.275
 21
41.8828
 31
0.0
  0
LINE
  8
0
 62
     0
 10
223.275
 20
41.8828
 30
0.0
 11
224.076
 21
41.8828
 31
0.0
  0
LINE
  8
0
 62
     0
 10
224.076
 20
41.8828
 30
0.0
 11
224.076
 21
40.8838
 31
0.0
  0
LINE
  8
0
 62
     0
 10
224.076
 20
40.8838
 30
0.0
 11
238.075
 21
40.8838
 31
0.0
  0
LINE
  8
0
 62
     0
 10
238.075
 20
40.8838
 30
0.0
 11
238.075
 21
41.8828
 31
0.0
  0
LINE
  8
0
 62
     0
 10
238.075
 20
41.8828
 30
0.0
 11
238.876
 21
41.8828
 31
0.0
  0
LINE
  8
0
 62
     0
 10
238.876
 20
41.8828
 30
0.0
 11
238.876
 21
44.9834
 31
0.0
  0
LINE
  8
0
 62
     0
 10
238.876
 20
44.9834
 30
0.0
 11
238.075
 21
44.9834
 31
0.0
  0
LINE
  8
0
 62
     0
 10
238.075
 20
44.9834
 30
0.0
 11
238.075
 21
50.7834
 31
0.0
  0
LINE
  8
0
 62
     0
 10
238.075
 20
50.7834
 30
0.0
 11
238.876
 21
50.7834
 31
0.0
  0
LINE
  8
0
 62
     0
 10
238.876
 20
50.7834
 30
0.0
 11
238.876
 21
53.8826
 31
0.0
  0
LINE
  8
0
 62
     0
 10
238.876
 20
53.8826
 30
0.0
 11
238.075
 21
53.8826
 31
0.0
  0
LINE
  8
0
 62
     0
 10
238.075
 20
53.8826
 30
0.0
 11
238.075
 21
54.8831
 31
0.0
  0
LINE
  8
0
 62
     0
 10
238.075
 20
54.8831
 30
0.0
 11
224.076
 21
54.8831
 31
0.0
  0
LINE
  8
0
 62
     0
 10
2.61965
 20
73.9331
 30
0.0
 11
2.61965
 21
72.9326
 31
0.0
  0
LINE
  8
0
 62
     0
 10
2.61965
 20
72.9326
 30
0.0
 11
1.81901
 21
72.9326
 31
0.0
  0
LINE
  8
0
 62
     0
 10
1.81901
 20
72.9326
 30
0.0
 11
1.81901
 21
69.8334
 31
0.0
  0
LINE
  8
0
 62
     0
 10
1.81901
 20
69.8334
 30
0.0
 11
2.61965
 21
69.8334
 31
0.0
  0
LINE
  8
0
 62
     0
 10
2.61965
 20
69.8334
 30
0.0
 11
2.61965
 21
64.0334
 31
0.0
  0
LINE
  8
0
 62
     0
 10
2.61965
 20
64.0334
 30
0.0
 11
1.81901
 21
64.0334
 31
0.0
  0
LINE
  8
0
 62
     0
 10
1.81901
 20
64.0334
 30
0.0
 11
1.81901
 21
60.9328
 31
0.0
  0
LINE
  8
0
 62
     0
 10
1.81901
 20
60.9328
 30
0.0
 11
2.61965
 21
60.9328
 31
0.0
  0
LINE
  8
0
 62
     0
 10
2.61965
 20
60.9328
 30
0.0
 11
2.61965
 21
59.9338
 31
0.0
  0
LINE
  8
0
 62
     0
 10
2.61965
 20
59.9338
 30
0.0
 11
16.6192
 21
59.9338
 31
0.0
  0
LINE
  8
0
 62
     0
 10
16.6192
 20
59.9338
 30
0.0
 11
16.6192
 21
60.9328
 31
0.0
  0
LINE
  8
0
 62
     0
 10
16.6192
 20
60.9328
 30
0.0
 11
17.4198
 21
60.9328
 31
0.0
  0
LINE
  8
0
 62
     0
 10
17.4198
 20
60.9328
 30
0.0
 11
17.4198
 21
64.0334
 31
0.0
  0
LINE
  8
0
 62
     0
 10
17.4198
 20
64.0334
 30
0.0
 11
16.6192
 21
64.0334
 31
0.0
  0
LINE
  8
0
 62
     0
 10
16.6192
 20
64.0334
 30
0.0
 11
16.6192
 21
69.8334
 31
0.0
  0
LINE
  8
0
 62
     0
 10
16.6192
 20
69.8334
 30
0.0
 11
17.4198
 21
69.8334
 31
0.0
  0
LINE
  8
0
 62
     0
 10
17.4198
 20
69.8334
 30
0.0
 11
17.4198
 21
72.9326
 31
0.0
  0
LINE
  8
0
 62
     0
 10
17.4198
 20
72.9326
 30
0.0
 11
16.6192
 21
72.9326
 31
0.0
  0
LINE
  8
0
 62
     0
 10
16.6192
 20
72.9326
 30
0.0
 11
16.6192
 21
73.9331
 31
0.0
  0
LINE
  8
0
 62
     0
 10
16.6192
 20
73.9331
 30
0.0
 11
2.61965
 21
73.9331
 31
0.0
  0
LINE
  8
0
 62
     0
 10
21.6697
 20
73.9331
 30
0.0
 11
21.6697
 21
72.9326
 31
0.0
  0
LINE
  8
0
 62
     0
 10
21.6697
 20
72.9326
 30
0.0
 11
20.869
 21
72.9326
 31
0.0
  0
LINE
  8
0
 62
     0
 10
20.869
 20
72.9326
 30
0.0
 11
20.869
 21
69.8334
 31
0.0
  0
LINE
  8
0
 62
     0
 10
20.869
 20
69.8334
 30
0.0
 11
21.6697
 21
69.8334
 31
0.0
  0
LINE
  8
0
 62
     0
 10
21.6697
 20
69.8334
 30
0.0
 11
21.6697
 21
64.0334
 31
0.0
  0
LINE
  8
0
 62
     0
 10
21.6697
 20
64.0334
 30
0.0
 11
20.869
 21
64.0334
 31
0.0
  0
LINE
  8
0
 62
     0
 10
20.869
 20
64.0334
 30
0.0
 11
20.869
 21
60.9328
 31
0.0
  0
LINE
  8
0
 62
     0
 10
20.869
 20
60.9328
 30
0.0
 11
21.6697
 21
60.9328
 31
0.0
  0
LINE
  8
0
 62
     0
 10
21.6697
 20
60.9328
 30
0.0
 11
21.6697
 21
59.9338
 31
0.0
  0
LINE
  8
0
 62
     0
 10
21.6697
 20
59.9338
 30
0.0
 11
35.669
 21
59.9338
 31
0.0
  0
LINE
  8
0
 62
     0
 10
35.669
 20
59.9338
 30
0.0
 11
35.669
 21
60.9328
 31
0.0
  0
LINE
  8
0
 62
     0
 10
35.669
 20
60.9328
 30
0.0
 11
36.4698
 21
60.9328
 31
0.0
  0
LINE
  8
0
 62
     0
 10
36.4698
 20
60.9328
 30
0.0
 11
36.4698
 21
64.0334
 31
0.0
  0
LINE
  8
0
 62
     0
 10
36.4698
 20
64.0334
 30
0.0
 11
35.669
 21
64.0334
 31
0.0
  0
LINE
  8
0
 62
     0
 10
35.669
 20
64.0334
 30
0.0
 11
35.669
 21
69.8334
 31
0.0
  0
LINE
  8
0
 62
     0
 10
35.669
 20
69.8334
 30
0.0
 11
36.4698
 21
69.8334
 31
0.0
  0
LINE
  8
0
 62
     0
 10
36.4698
 20
69.8334
 30
0.0
 11
36.4698
 21
72.9326
 31
0.0
  0
LINE
  8
0
 62
     0
 10
36.4698
 20
72.9326
 30
0.0
 11
35.669
 21
72.9326
 31
0.0
  0
LINE
  8
0
 62
     0
 10
35.669
 20
72.9326
 30
0.0
 11
35.669
 21
73.9331
 31
0.0
  0
LINE
  8
0
 62
     0
 10
35.669
 20
73.9331
 30
0.0
 11
21.6697
 21
73.9331
 31
0.0
  0
LINE
  8
0
 62
     0
 10
40.7197
 20
73.9331
 30
0.0
 11
40.7197
 21
72.9326
 31
0.0
  0
LINE
  8
0
 62
     0
 10
40.7197
 20
72.9326
 30
0.0
 11
39.9189
 21
72.9326
 31
0.0
  0
LINE
  8
0
 62
     0
 10
39.9189
 20
72.9326
 30
0.0
 11
39.9189
 21
69.8334
 31
0.0
  0
LINE
  8
0
 62
     0
 10
39.9189
 20
69.8334
 30
0.0
 11
40.7197
 21
69.8334
 31
0.0
  0
LINE
  8
0
 62
     0
 10
40.7197
 20
69.8334
 30
0.0
 11
40.7197
 21
64.0334
 31
0.0
  0
LINE
  8
0
 62
     0
 10
40.7197
 20
64.0334
 30
0.0
 11
39.9189
 21
64.0334
 31
0.0
  0
LINE
  8
0
 62
     0
 10
39.9189
 20
64.0334
 30
0.0
 11
39.9189
 21
60.9328
 31
0.0
  0
LINE
  8
0
 62
     0
 10
39.9189
 20
60.9328
 30
0.0
 11
40.7197
 21
60.9328
 31
0.0
  0
LINE
  8
0
 62
     0
 10
40.7197
 20
60.9328
 30
0.0
 11
40.7197
 21
59.9338
 31
0.0
  0
LINE
  8
0
 62
     0
 10
40.7197
 20
59.9338
 30
0.0
 11
54.719
 21
59.9338
 31
0.0
  0
LINE
  8
0
 62
     0
 10
54.719
 20
59.9338
 30
0.0
 11
54.719
 21
60.9328
 31
0.0
  0
LINE
  8
0
 62
     0
 10
54.719
 20
60.9328
 30
0.0
 11
55.5198
 21
60.9328
 31
0.0
  0
LINE
  8
0
 62
     0
 10
55.5198
 20
60.9328
 30
0.0
 11
55.5198
 21
64.0334
 31
0.0
  0
LINE
  8
0
 62
     0
 10
55.5198
 20
64.0334
 30
0.0
 11
54.719
 21
64.0334
 31
0.0
  0
LINE
  8
0
 62
     0
 10
54.719
 20
64.0334
 30
0.0
 11
54.719
 21
69.8334
 31
0.0
  0
LINE
  8
0
 62
     0
 10
54.719
 20
69.8334
 30
0.0
 11
55.5198
 21
69.8334
 31
0.0
  0
LINE
  8
0
 62
     0
 10
55.5198
 20
69.8334
 30
0.0
 11
55.5198
 21
72.9326
 31
0.0
  0
LINE
  8
0
 62
     0
 10
55.5198
 20
72.9326
 30
0.0
 11
54.719
 21
72.9326
 31
0.0
  0
LINE
  8
0
 62
     0
 10
54.719
 20
72.9326
 30
0.0
 11
54.719
 21
73.9331
 31
0.0
  0
LINE
  8
0
 62
     0
 10
54.719
 20
73.9331
 30
0.0
 11
40.7197
 21
73.9331
 31
0.0
  0
LINE
  8
0
 62
     0
 10
59.7697
 20
73.9331
 30
0.0
 11
59.7697
 21
72.9326
 31
0.0
  0
LINE
  8
0
 62
     0
 10
59.7697
 20
72.9326
 30
0.0
 11
58.9689
 21
72.9326
 31
0.0
  0
LINE
  8
0
 62
     0
 10
58.9689
 20
72.9326
 30
0.0
 11
58.9689
 21
69.8334
 31
0.0
  0
LINE
  8
0
 62
     0
 10
58.9689
 20
69.8334
 30
0.0
 11
59.7697
 21
69.8334
 31
0.0
  0
LINE
  8
0
 62
     0
 10
59.7697
 20
69.8334
 30
0.0
 11
59.7697
 21
64.0334
 31
0.0
  0
LINE
  8
0
 62
     0
 10
59.7697
 20
64.0334
 30
0.0
 11
58.9689
 21
64.0334
 31
0.0
  0
LINE
  8
0
 62
     0
 10
58.9689
 20
64.0334
 30
0.0
 11
58.9689
 21
60.9328
 31
0.0
  0
LINE
  8
0
 62
     0
 10
58.9689
 20
60.9328
 30
0.0
 11
59.7697
 21
60.9328
 31
0.0
  0
LINE
  8
0
 62
     0
 10
59.7697
 20
60.9328
 30
0.0
 11
59.7697
 21
59.9338
 31
0.0
  0
LINE
  8
0
 62
     0
 10
59.7697
 20
59.9338
 30
0.0
 11
73.769
 21
59.9338
 31
0.0
  0
LINE
  8
0
 62
     0
 10
73.769
 20
59.9338
 30
0.0
 11
73.769
 21
60.9328
 31
0.0
  0
LINE
  8
0
 62
     0
 10
73.769
 20
60.9328
 30
0.0
 11
74.5698
 21
60.9328
 31
0.0
  0
LINE
  8
0
 62
     0
 10
74.5698
 20
60.9328
 30
0.0
 11
74.5698
 21
64.0334
 31
0.0
  0
LINE
  8
0
 62
     0
 10
74.5698
 20
64.0334
 30
0.0
 11
73.769
 21
64.0334
 31
0.0
  0
LINE
  8
0
 62
     0
 10
73.769
 20
64.0334
 30
0.0
 11
73.769
 21
69.8334
 31
0.0
  0
LINE
  8
0
 62
     0
 10
73.769
 20
69.8334
 30
0.0
 11
74.5698
 21
69.8334
 31
0.0
  0
LINE
  8
0
 62
     0
 10
74.5698
 20
69.8334
 30
0.0
 11
74.5698
 21
72.9326
 31
0.0
  0
LINE
  8
0
 62
     0
 10
74.5698
 20
72.9326
 30
0.0
 11
73.769
 21
72.9326
 31
0.0
  0
LINE
  8
0
 62
     0
 10
73.769
 20
72.9326
 30
0.0
 11
73.769
 21
73.9331
 31
0.0
  0
LINE
  8
0
 62
     0
 10
73.769
 20
73.9331
 30
0.0
 11
59.7697
 21
73.9331
 31
0.0
  0
LINE
  8
0
 62
     0
 10
78.8197
 20
73.9331
 30
0.0
 11
78.8197
 21
72.9326
 31
0.0
  0
LINE
  8
0
 62
     0
 10
78.8197
 20
72.9326
 30
0.0
 11
78.0189
 21
72.9326
 31
0.0
  0
LINE
  8
0
 62
     0
 10
78.0189
 20
72.9326
 30
0.0
 11
78.0189
 21
69.8334
 31
0.0
  0
LINE
  8
0
 62
     0
 10
78.0189
 20
69.8334
 30
0.0
 11
78.8197
 21
69.8334
 31
0.0
  0
LINE
  8
0
 62
     0
 10
78.8197
 20
69.8334
 30
0.0
 11
78.8197
 21
64.0334
 31
0.0
  0
LINE
  8
0
 62
     0
 10
78.8197
 20
64.0334
 30
0.0
 11
78.0189
 21
64.0334
 31
0.0
  0
LINE
  8
0
 62
     0
 10
78.0189
 20
64.0334
 30
0.0
 11
78.0189
 21
60.9328
 31
0.0
  0
LINE
  8
0
 62
     0
 10
78.0189
 20
60.9328
 30
0.0
 11
78.8197
 21
60.9328
 31
0.0
  0
LINE
  8
0
 62
     0
 10
78.8197
 20
60.9328
 30
0.0
 11
78.8197
 21
59.9338
 31
0.0
  0
LINE
  8
0
 62
     0
 10
78.8197
 20
59.9338
 30
0.0
 11
92.819
 21
59.9338
 31
0.0
  0
LINE
  8
0
 62
     0
 10
92.819
 20
59.9338
 30
0.0
 11
92.819
 21
60.9328
 31
0.0
  0
LINE
  8
0
 62
     0
 10
92.819
 20
60.9328
 30
0.0
 11
93.6184
 21
60.9328
 31
0.0
  0
LINE
  8
0
 62
     0
 10
93.6184
 20
60.9328
 30
0.0
 11
93.6184
 21
64.0334
 31
0.0
  0
LINE
  8
0
 62
     0
 10
93.6184
 20
64.0334
 30
0.0
 11
92.819
 21
64.0334
 31
0.0
  0
LINE
  8
0
 62
     0
 10
92.819
 20
64.0334
 30
0.0
 11
92.819
 21
69.8334
 31
0.0
  0
LINE
  8
0
 62
     0
 10
92.819
 20
69.8334
 30
0.0
 11
93.6184
 21
69.8334
 31
0.0
  0
LINE
  8
0
 62
     0
 10
93.6184
 20
69.8334
 30
0.0
 11
93.6184
 21
72.9326
 31
0.0
  0
LINE
  8
0
 62
     0
 10
93.6184
 20
72.9326
 30
0.0
 11
92.819
 21
72.9326
 31
0.0
  0
LINE
  8
0
 62
     0
 10
92.819
 20
72.9326
 30
0.0
 11
92.819
 21
73.9331
 31
0.0
  0
LINE
  8
0
 62
     0
 10
92.819
 20
73.9331
 30
0.0
 11
78.8197
 21
73.9331
 31
0.0
  0
LINE
  8
0
 62
     0
 10
97.8683
 20
73.9331
 30
0.0
 11
97.8683
 21
72.9326
 31
0.0
  0
LINE
  8
0
 62
     0
 10
97.8683
 20
72.9326
 30
0.0
 11
97.0689
 21
72.9326
 31
0.0
  0
LINE
  8
0
 62
     0
 10
97.0689
 20
72.9326
 30
0.0
 11
97.0689
 21
69.8334
 31
0.0
  0
LINE
  8
0
 62
     0
 10
97.0689
 20
69.8334
 30
0.0
 11
97.8683
 21
69.8334
 31
0.0
  0
LINE
  8
0
 62
     0
 10
97.8683
 20
69.8334
 30
0.0
 11
97.8683
 21
64.0334
 31
0.0
  0
LINE
  8
0
 62
     0
 10
97.8683
 20
64.0334
 30
0.0
 11
97.0689
 21
64.0334
 31
0.0
  0
LINE
  8
0
 62
     0
 10
97.0689
 20
64.0334
 30
0.0
 11
97.0689
 21
60.9328
 31
0.0
  0
LINE
  8
0
 62
     0
 10
97.0689
 20
60.9328
 30
0.0
 11
97.8683
 21
60.9328
 31
0.0
  0
LINE
  8
0
 62
     0
 10
97.8683
 20
60.9328
 30
0.0
 11
97.8683
 21
59.9338
 31
0.0
  0
LINE
  8
0
 62
     0
 10
97.8683
 20
59.9338
 30
0.0
 11
111.869
 21
59.9338
 31
0.0
  0
LINE
  8
0
 62
     0
 10
111.869
 20
59.9338
 30
0.0
 11
111.869
 21
60.9328
 31
0.0
  0
LINE
  8
0
 62
     0
 10
111.869
 20
60.9328
 30
0.0
 11
112.668
 21
60.9328
 31
0.0
  0
LINE
  8
0
 62
     0
 10
112.668
 20
60.9328
 30
0.0
 11
112.668
 21
64.0334
 31
0.0
  0
LINE
  8
0
 62
     0
 10
112.668
 20
64.0334
 30
0.0
 11
111.869
 21
64.0334
 31
0.0
  0
LINE
  8
0
 62
     0
 10
111.869
 20
64.0334
 30
0.0
 11
111.869
 21
69.8334
 31
0.0
  0
LINE
  8
0
 62
     0
 10
111.869
 20
69.8334
 30
0.0
 11
112.668
 21
69.8334
 31
0.0
  0
LINE
  8
0
 62
     0
 10
112.668
 20
69.8334
 30
0.0
 11
112.668
 21
72.9326
 31
0.0
  0
LINE
  8
0
 62
     0
 10
112.668
 20
72.9326
 30
0.0
 11
111.869
 21
72.9326
 31
0.0
  0
LINE
  8
0
 62
     0
 10
111.869
 20
72.9326
 30
0.0
 11
111.869
 21
73.9331
 31
0.0
  0
LINE
  8
0
 62
     0
 10
111.869
 20
73.9331
 30
0.0
 11
97.8683
 21
73.9331
 31
0.0
  0
LINE
  8
0
 62
     0
 10
116.918
 20
73.9331
 30
0.0
 11
116.918
 21
72.9326
 31
0.0
  0
LINE
  8
0
 62
     0
 10
116.918
 20
72.9326
 30
0.0
 11
116.119
 21
72.9326
 31
0.0
  0
LINE
  8
0
 62
     0
 10
116.119
 20
72.9326
 30
0.0
 11
116.119
 21
69.8334
 31
0.0
  0
LINE
  8
0
 62
     0
 10
116.119
 20
69.8334
 30
0.0
 11
116.918
 21
69.8334
 31
0.0
  0
LINE
  8
0
 62
     0
 10
116.918
 20
69.8334
 30
0.0
 11
116.918
 21
64.0334
 31
0.0
  0
LINE
  8
0
 62
     0
 10
116.918
 20
64.0334
 30
0.0
 11
116.119
 21
64.0334
 31
0.0
  0
LINE
  8
0
 62
     0
 10
116.119
 20
64.0334
 30
0.0
 11
116.119
 21
60.9328
 31
0.0
  0
LINE
  8
0
 62
     0
 10
116.119
 20
60.9328
 30
0.0
 11
116.918
 21
60.9328
 31
0.0
  0
LINE
  8
0
 62
     0
 10
116.918
 20
60.9328
 30
0.0
 11
116.918
 21
59.9338
 31
0.0
  0
LINE
  8
0
 62
     0
 10
116.918
 20
59.9338
 30
0.0
 11
130.919
 21
59.9338
 31
0.0
  0
LINE
  8
0
 62
     0
 10
130.919
 20
59.9338
 30
0.0
 11
130.919
 21
60.9328
 31
0.0
  0
LINE
  8
0
 62
     0
 10
130.919
 20
60.9328
 30
0.0
 11
131.72
 21
60.9328
 31
0.0
  0
LINE
  8
0
 62
     0
 10
131.72
 20
60.9328
 30
0.0
 11
131.72
 21
64.0334
 31
0.0
  0
LINE
  8
0
 62
     0
 10
131.72
 20
64.0334
 30
0.0
 11
130.919
 21
64.0334
 31
0.0
  0
LINE
  8
0
 62
     0
 10
130.919
 20
64.0334
 30
0.0
 11
130.919
 21
69.8334
 31
0.0
  0
LINE
  8
0
 62
     0
 10
130.919
 20
69.8334
 30
0.0
 11
131.72
 21
69.8334
 31
0.0
  0
LINE
  8
0
 62
     0
 10
131.72
 20
69.8334
 30
0.0
 11
131.72
 21
72.9326
 31
0.0
  0
LINE
  8
0
 62
     0
 10
131.72
 20
72.9326
 30
0.0
 11
130.919
 21
72.9326
 31
0.0
  0
LINE
  8
0
 62
     0
 10
130.919
 20
72.9326
 30
0.0
 11
130.919
 21
73.9331
 31
0.0
  0
LINE
  8
0
 62
     0
 10
130.919
 20
73.9331
 30
0.0
 11
116.918
 21
73.9331
 31
0.0
  0
LINE
  8
0
 62
     0
 10
135.97
 20
73.9331
 30
0.0
 11
135.97
 21
72.9326
 31
0.0
  0
LINE
  8
0
 62
     0
 10
135.97
 20
72.9326
 30
0.0
 11
135.169
 21
72.9326
 31
0.0
  0
LINE
  8
0
 62
     0
 10
135.169
 20
72.9326
 30
0.0
 11
135.169
 21
69.8334
 31
0.0
  0
LINE
  8
0
 62
     0
 10
135.169
 20
69.8334
 30
0.0
 11
135.97
 21
69.8334
 31
0.0
  0
LINE
  8
0
 62
     0
 10
135.97
 20
69.8334
 30
0.0
 11
135.97
 21
64.0334
 31
0.0
  0
LINE
  8
0
 62
     0
 10
135.97
 20
64.0334
 30
0.0
 11
135.169
 21
64.0334
 31
0.0
  0
LINE
  8
0
 62
     0
 10
135.169
 20
64.0334
 30
0.0
 11
135.169
 21
60.9328
 31
0.0
  0
LINE
  8
0
 62
     0
 10
135.169
 20
60.9328
 30
0.0
 11
135.97
 21
60.9328
 31
0.0
  0
LINE
  8
0
 62
     0
 10
135.97
 20
60.9328
 30
0.0
 11
135.97
 21
59.9338
 31
0.0
  0
LINE
  8
0
 62
     0
 10
135.97
 20
59.9338
 30
0.0
 11
149.969
 21
59.9338
 31
0.0
  0
LINE
  8
0
 62
     0
 10
149.969
 20
59.9338
 30
0.0
 11
149.969
 21
60.9328
 31
0.0
  0
LINE
  8
0
 62
     0
 10
149.969
 20
60.9328
 30
0.0
 11
150.77
 21
60.9328
 31
0.0
  0
LINE
  8
0
 62
     0
 10
150.77
 20
60.9328
 30
0.0
 11
150.77
 21
64.0334
 31
0.0
  0
LINE
  8
0
 62
     0
 10
150.77
 20
64.0334
 30
0.0
 11
149.969
 21
64.0334
 31
0.0
  0
LINE
  8
0
 62
     0
 10
149.969
 20
64.0334
 30
0.0
 11
149.969
 21
69.8334
 31
0.0
  0
LINE
  8
0
 62
     0
 10
149.969
 20
69.8334
 30
0.0
 11
150.77
 21
69.8334
 31
0.0
  0
LINE
  8
0
 62
     0
 10
150.77
 20
69.8334
 30
0.0
 11
150.77
 21
72.9326
 31
0.0
  0
LINE
  8
0
 62
     0
 10
150.77
 20
72.9326
 30
0.0
 11
149.969
 21
72.9326
 31
0.0
  0
LINE
  8
0
 62
     0
 10
149.969
 20
72.9326
 30
0.0
 11
149.969
 21
73.9331
 31
0.0
  0
LINE
  8
0
 62
     0
 10
149.969
 20
73.9331
 30
0.0
 11
135.97
 21
73.9331
 31
0.0
  0
LINE
  8
0
 62
     0
 10
155.02
 20
73.9331
 30
0.0
 11
155.02
 21
72.9326
 31
0.0
  0
LINE
  8
0
 62
     0
 10
155.02
 20
72.9326
 30
0.0
 11
154.219
 21
72.9326
 31
0.0
  0
LINE
  8
0
 62
     0
 10
154.219
 20
72.9326
 30
0.0
 11
154.219
 21
69.8334
 31
0.0
  0
LINE
  8
0
 62
     0
 10
154.219
 20
69.8334
 30
0.0
 11
155.02
 21
69.8334
 31
0.0
  0
LINE
  8
0
 62
     0
 10
155.02
 20
69.8334
 30
0.0
 11
155.02
 21
64.0334
 31
0.0
  0
LINE
  8
0
 62
     0
 10
155.02
 20
64.0334
 30
0.0
 11
154.219
 21
64.0334
 31
0.0
  0
LINE
  8
0
 62
     0
 10
154.219
 20
64.0334
 30
0.0
 11
154.219
 21
60.9328
 31
0.0
  0
LINE
  8
0
 62
     0
 10
154.219
 20
60.9328
 30
0.0
 11
155.02
 21
60.9328
 31
0.0
  0
LINE
  8
0
 62
     0
 10
155.02
 20
60.9328
 30
0.0
 11
155.02
 21
59.9338
 31
0.0
  0
LINE
  8
0
 62
     0
 10
155.02
 20
59.9338
 30
0.0
 11
169.019
 21
59.9338
 31
0.0
  0
LINE
  8
0
 62
     0
 10
169.019
 20
59.9338
 30
0.0
 11
169.019
 21
60.9328
 31
0.0
  0
LINE
  8
0
 62
     0
 10
169.019
 20
60.9328
 30
0.0
 11
169.82
 21
60.9328
 31
0.0
  0
LINE
  8
0
 62
     0
 10
169.82
 20
60.9328
 30
0.0
 11
169.82
 21
64.0334
 31
0.0
  0
LINE
  8
0
 62
     0
 10
169.82
 20
64.0334
 30
0.0
 11
169.019
 21
64.0334
 31
0.0
  0
LINE
  8
0
 62
     0
 10
169.019
 20
64.0334
 30
0.0
 11
169.019
 21
69.8334
 31
0.0
  0
LINE
  8
0
 62
     0
 10
169.019
 20
69.8334
 30
0.0
 11
169.82
 21
69.8334
 31
0.0
  0
LINE
  8
0
 62
     0
 10
169.82
 20
69.8334
 30
0.0
 11
169.82
 21
72.9326
 31
0.0
  0
LINE
  8
0
 62
     0
 10
169.82
 20
72.9326
 30
0.0
 11
169.019
 21
72.9326
 31
0.0
  0
LINE
  8
0
 62
     0
 10
169.019
 20
72.9326
 30
0.0
 11
169.019
 21
73.9331
 31
0.0
  0
LINE
  8
0
 62
     0
 10
169.019
 20
73.9331
 30
0.0
 11
155.02
 21
73.9331
 31
0.0
  0
LINE
  8
0
 62
     0
 10
174.07
 20
73.9331
 30
0.0
 11
174.07
 21
72.9326
 31
0.0
  0
LINE
  8
0
 62
     0
 10
174.07
 20
72.9326
 30
0.0
 11
173.269
 21
72.9326
 31
0.0
  0
LINE
  8
0
 62
     0
 10
173.269
 20
72.9326
 30
0.0
 11
173.269
 21
69.8334
 31
0.0
  0
LINE
  8
0
 62
     0
 10
173.269
 20
69.8334
 30
0.0
 11
174.07
 21
69.8334
 31
0.0
  0
LINE
  8
0
 62
     0
 10
174.07
 20
69.8334
 30
0.0
 11
174.07
 21
64.0334
 31
0.0
  0
LINE
  8
0
 62
     0
 10
174.07
 20
64.0334
 30
0.0
 11
173.269
 21
64.0334
 31
0.0
  0
LINE
  8
0
 62
     0
 10
173.269
 20
64.0334
 30
0.0
 11
173.269
 21
60.9328
 31
0.0
  0
LINE
  8
0
 62
     0
 10
173.269
 20
60.9328
 30
0.0
 11
174.07
 21
60.9328
 31
0.0
  0
LINE
  8
0
 62
     0
 10
174.07
 20
60.9328
 30
0.0
 11
174.07
 21
59.9338
 31
0.0
  0
LINE
  8
0
 62
     0
 10
174.07
 20
59.9338
 30
0.0
 11
188.069
 21
59.9338
 31
0.0
  0
LINE
  8
0
 62
     0
 10
188.069
 20
59.9338
 30
0.0
 11
188.069
 21
60.9328
 31
0.0
  0
LINE
  8
0
 62
     0
 10
188.069
 20
60.9328
 30
0.0
 11
188.87
 21
60.9328
 31
0.0
  0
LINE
  8
0
 62
     0
 10
188.87
 20
60.9328
 30
0.0
 11
188.87
 21
64.0334
 31
0.0
  0
LINE
  8
0
 62
     0
 10
188.87
 20
64.0334
 30
0.0
 11
188.069
 21
64.0334
 31
0.0
  0
LINE
  8
0
 62
     0
 10
188.069
 20
64.0334
 30
0.0
 11
188.069
 21
69.8334
 31
0.0
  0
LINE
  8
0
 62
     0
 10
188.069
 20
69.8334
 30
0.0
 11
188.87
 21
69.8334
 31
0.0
  0
LINE
  8
0
 62
     0
 10
188.87
 20
69.8334
 30
0.0
 11
188.87
 21
72.9326
 31
0.0
  0
LINE
  8
0
 62
     0
 10
188.87
 20
72.9326
 30
0.0
 11
188.069
 21
72.9326
 31
0.0
  0
LINE
  8
0
 62
     0
 10
188.069
 20
72.9326
 30
0.0
 11
188.069
 21
73.9331
 31
0.0
  0
LINE
  8
0
 62
     0
 10
188.069
 20
73.9331
 30
0.0
 11
174.07
 21
73.9331
 31
0.0
  0
LINE
  8
0
 62
     0
 10
193.12
 20
73.9331
 30
0.0
 11
193.12
 21
72.9326
 31
0.0
  0
LINE
  8
0
 62
     0
 10
193.12
 20
72.9326
 30
0.0
 11
192.319
 21
72.9326
 31
0.0
  0
LINE
  8
0
 62
     0
 10
192.319
 20
72.9326
 30
0.0
 11
192.319
 21
69.8334
 31
0.0
  0
LINE
  8
0
 62
     0
 10
192.319
 20
69.8334
 30
0.0
 11
193.12
 21
69.8334
 31
0.0
  0
LINE
  8
0
 62
     0
 10
193.12
 20
69.8334
 30
0.0
 11
193.12
 21
64.0334
 31
0.0
  0
LINE
  8
0
 62
     0
 10
193.12
 20
64.0334
 30
0.0
 11
192.319
 21
64.0334
 31
0.0
  0
LINE
  8
0
 62
     0
 10
192.319
 20
64.0334
 30
0.0
 11
192.319
 21
60.9328
 31
0.0
  0
LINE
  8
0
 62
     0
 10
192.319
 20
60.9328
 30
0.0
 11
193.12
 21
60.9328
 31
0.0
  0
LINE
  8
0
 62
     0
 10
193.12
 20
60.9328
 30
0.0
 11
193.12
 21
59.9338
 31
0.0
  0
LINE
  8
0
 62
     0
 10
193.12
 20
59.9338
 30
0.0
 11
207.119
 21
59.9338
 31
0.0
  0
LINE
  8
0
 62
     0
 10
207.119
 20
59.9338
 30
0.0
 11
207.119
 21
60.9328
 31
0.0
  0
LINE
  8
0
 62
     0
 10
207.119
 20
60.9328
 30
0.0
 11
207.92
 21
60.9328
 31
0.0
  0
LINE
  8
0
 62
     0
 10
207.92
 20
60.9328
 30
0.0
 11
207.92
 21
64.0334
 31
0.0
  0
LINE
  8
0
 62
     0
 10
207.92
 20
64.0334
 30
0.0
 11
207.119
 21
64.0334
 31
0.0
  0
LINE
  8
0
 62
     0
 10
207.119
 20
64.0334
 30
0.0
 11
207.119
 21
69.8334
 31
0.0
  0
LINE
  8
0
 62
     0
 10
207.119
 20
69.8334
 30
0.0
 11
207.92
 21
69.8334
 31
0.0
  0
LINE
  8
0
 62
     0
 10
207.92
 20
69.8334
 30
0.0
 11
207.92
 21
72.9326
 31
0.0
  0
LINE
  8
0
 62
     0
 10
207.92
 20
72.9326
 30
0.0
 11
207.119
 21
72.9326
 31
0.0
  0
LINE
  8
0
 62
     0
 10
207.119
 20
72.9326
 30
0.0
 11
207.119
 21
73.9331
 31
0.0
  0
LINE
  8
0
 62
     0
 10
207.119
 20
73.9331
 30
0.0
 11
193.12
 21
73.9331
 31
0.0
  0
LINE
  8
0
 62
     0
 10
212.17
 20
73.9331
 30
0.0
 11
212.17
 21
72.9326
 31
0.0
  0
LINE
  8
0
 62
     0
 10
212.17
 20
72.9326
 30
0.0
 11
211.369
 21
72.9326
 31
0.0
  0
LINE
  8
0
 62
     0
 10
211.369
 20
72.9326
 30
0.0
 11
211.369
 21
69.8334
 31
0.0
  0
LINE
  8
0
 62
     0
 10
211.369
 20
69.8334
 30
0.0
 11
212.17
 21
69.8334
 31
0.0
  0
LINE
  8
0
 62
     0
 10
212.17
 20
69.8334
 30
0.0
 11
212.17
 21
64.0334
 31
0.0
  0
LINE
  8
0
 62
     0
 10
212.17
 20
64.0334
 30
0.0
 11
211.369
 21
64.0334
 31
0.0
  0
LINE
  8
0
 62
     0
 10
211.369
 20
64.0334
 30
0.0
 11
211.369
 21
60.9328
 31
0.0
  0
LINE
  8
0
 62
     0
 10
211.369
 20
60.9328
 30
0.0
 11
212.17
 21
60.9328
 31
0.0
  0
LINE
  8
0
 62
     0
 10
212.17
 20
60.9328
 30
0.0
 11
212.17
 21
59.9338
 31
0.0
  0
LINE
  8
0
 62
     0
 10
212.17
 20
59.9338
 30
0.0
 11
226.169
 21
59.9338
 31
0.0
  0
LINE
  8
0
 62
     0
 10
226.169
 20
59.9338
 30
0.0
 11
226.169
 21
60.9328
 31
0.0
  0
LINE
  8
0
 62
     0
 10
226.169
 20
60.9328
 30
0.0
 11
226.97
 21
60.9328
 31
0.0
  0
LINE
  8
0
 62
     0
 10
226.97
 20
60.9328
 30
0.0
 11
226.97
 21
64.0334
 31
0.0
  0
LINE
  8
0
 62
     0
 10
226.97
 20
64.0334
 30
0.0
 11
226.169
 21
64.0334
 31
0.0
  0
LINE
  8
0
 62
     0
 10
226.169
 20
64.0334
 30
0.0
 11
226.169
 21
69.8334
 31
0.0
  0
LINE
  8
0
 62
     0
 10
226.169
 20
69.8334
 30
0.0
 11
226.97
 21
69.8334
 31
0.0
  0
LINE
  8
0
 62
     0
 10
226.97
 20
69.8334
 30
0.0
 11
226.97
 21
72.9326
 31
0.0
  0
LINE
  8
0
 62
     0
 10
226.97
 20
72.9326
 30
0.0
 11
226.169
 21
72.9326
 31
0.0
  0
LINE
  8
0
 62
     0
 10
226.169
 20
72.9326
 30
0.0
 11
226.169
 21
73.9331
 31
0.0
  0
LINE
  8
0
 62
     0
 10
226.169
 20
73.9331
 30
0.0
 11
212.17
 21
73.9331
 31
0.0
  0
LINE
  8
0
 62
     0
 10
231.22
 20
73.9331
 30
0.0
 11
231.22
 21
72.9326
 31
0.0
  0
LINE
  8
0
 62
     0
 10
231.22
 20
72.9326
 30
0.0
 11
230.419
 21
72.9326
 31
0.0
  0
LINE
  8
0
 62
     0
 10
230.419
 20
72.9326
 30
0.0
 11
230.419
 21
69.8334
 31
0.0
  0
LINE
  8
0
 62
     0
 10
230.419
 20
69.8334
 30
0.0
 11
231.22
 21
69.8334
 31
0.0
  0
LINE
  8
0
 62
     0
 10
231.22
 20
69.8334
 30
0.0
 11
231.22
 21
64.0334
 31
0.0
  0
LINE
  8
0
 62
     0
 10
231.22
 20
64.0334
 30
0.0
 11
230.419
 21
64.0334
 31
0.0
  0
LINE
  8
0
 62
     0
 10
230.419
 20
64.0334
 30
0.0
 11
230.419
 21
60.9328
 31
0.0
  0
LINE
  8
0
 62
     0
 10
230.419
 20
60.9328
 30
0.0
 11
231.22
 21
60.9328
 31
0.0
  0
LINE
  8
0
 62
     0
 10
231.22
 20
60.9328
 30
0.0
 11
231.22
 21
59.9338
 31
0.0
  0
LINE
  8
0
 62
     0
 10
231.22
 20
59.9338
 30
0.0
 11
245.219
 21
59.9338
 31
0.0
  0
LINE
  8
0
 62
     0
 10
245.219
 20
59.9338
 30
0.0
 11
245.219
 21
60.9328
 31
0.0
  0
LINE
  8
0
 62
     0
 10
245.219
 20
60.9328
 30
0.0
 11
246.02
 21
60.9328
 31
0.0
  0
LINE
  8
0
 62
     0
 10
246.02
 20
60.9328
 30
0.0
 11
246.02
 21
64.0334
 31
0.0
  0
LINE
  8
0
 62
     0
 10
246.02
 20
64.0334
 30
0.0
 11
245.219
 21
64.0334
 31
0.0
  0
LINE
  8
0
 62
     0
 10
245.219
 20
64.0334
 30
0.0
 11
245.219
 21
69.8334
 31
0.0
  0
LINE
  8
0
 62
     0
 10
245.219
 20
69.8334
 30
0.0
 11
246.02
 21
69.8334
 31
0.0
  0
LINE
  8
0
 62
     0
 10
246.02
 20
69.8334
 30
0.0
 11
246.02
 21
72.9326
 31
0.0
  0
LINE
  8
0
 62
     0
 10
246.02
 20
72.9326
 30
0.0
 11
245.219
 21
72.9326
 31
0.0
  0
LINE
  8
0
 62
     0
 10
245.219
 20
72.9326
 30
0.0
 11
245.219
 21
73.9331
 31
0.0
  0
LINE
  8
0
 62
     0
 10
245.219
 20
73.9331
 30
0.0
 11
231.22
 21
73.9331
 31
0.0
  0
LINE
  8
0
 62
     0
 10
7.38216
 20
92.9831
 30
0.0
 11
7.38216
 21
91.9826
 31
0.0
  0
LINE
  8
0
 62
     0
 10
7.38216
 20
91.9826
 30
0.0
 11
6.58153
 21
91.9826
 31
0.0
  0
LINE
  8
0
 62
     0
 10
6.58153
 20
91.9826
 30
0.0
 11
6.58153
 21
88.8834
 31
0.0
  0
LINE
  8
0
 62
     0
 10
6.58153
 20
88.8834
 30
0.0
 11
7.38216
 21
88.8834
 31
0.0
  0
LINE
  8
0
 62
     0
 10
7.38216
 20
88.8834
 30
0.0
 11
7.38216
 21
83.0834
 31
0.0
  0
LINE
  8
0
 62
     0
 10
7.38216
 20
83.0834
 30
0.0
 11
6.58153
 21
83.0834
 31
0.0
  0
LINE
  8
0
 62
     0
 10
6.58153
 20
83.0834
 30
0.0
 11
6.58153
 21
79.9828
 31
0.0
  0
LINE
  8
0
 62
     0
 10
6.58153
 20
79.9828
 30
0.0
 11
7.38216
 21
79.9828
 31
0.0
  0
LINE
  8
0
 62
     0
 10
7.38216
 20
79.9828
 30
0.0
 11
7.38216
 21
78.9838
 31
0.0
  0
LINE
  8
0
 62
     0
 10
7.38216
 20
78.9838
 30
0.0
 11
21.3817
 21
78.9838
 31
0.0
  0
LINE
  8
0
 62
     0
 10
21.3817
 20
78.9838
 30
0.0
 11
21.3817
 21
79.9828
 31
0.0
  0
LINE
  8
0
 62
     0
 10
21.3817
 20
79.9828
 30
0.0
 11
22.1809
 21
79.9828
 31
0.0
  0
LINE
  8
0
 62
     0
 10
22.1809
 20
79.9828
 30
0.0
 11
22.1809
 21
83.0834
 31
0.0
  0
LINE
  8
0
 62
     0
 10
22.1809
 20
83.0834
 30
0.0
 11
21.3817
 21
83.0834
 31
0.0
  0
LINE
  8
0
 62
     0
 10
21.3817
 20
83.0834
 30
0.0
 11
21.3817
 21
88.8834
 31
0.0
  0
LINE
  8
0
 62
     0
 10
21.3817
 20
88.8834
 30
0.0
 11
22.1809
 21
88.8834
 31
0.0
  0
LINE
  8
0
 62
     0
 10
22.1809
 20
88.8834
 30
0.0
 11
22.1809
 21
91.9826
 31
0.0
  0
LINE
  8
0
 62
     0
 10
22.1809
 20
91.9826
 30
0.0
 11
21.3817
 21
91.9826
 31
0.0
  0
LINE
  8
0
 62
     0
 10
21.3817
 20
91.9826
 30
0.0
 11
21.3817
 21
92.9831
 31
0.0
  0
LINE
  8
0
 62
     0
 10
21.3817
 20
92.9831
 30
0.0
 11
7.38216
 21
92.9831
 31
0.0
  0
LINE
  8
0
 62
     0
 10
31.1947
 20
92.9831
 30
0.0
 11
31.1947
 21
91.9826
 31
0.0
  0
LINE
  8
0
 62
     0
 10
31.1947
 20
91.9826
 30
0.0
 11
30.394
 21
91.9826
 31
0.0
  0
LINE
  8
0
 62
     0
 10
30.394
 20
91.9826
 30
0.0
 11
30.394
 21
88.8834
 31
0.0
  0
LINE
  8
0
 62
     0
 10
30.394
 20
88.8834
 30
0.0
 11
31.1947
 21
88.8834
 31
0.0
  0
LINE
  8
0
 62
     0
 10
31.1947
 20
88.8834
 30
0.0
 11
31.1947
 21
83.0834
 31
0.0
  0
LINE
  8
0
 62
     0
 10
31.1947
 20
83.0834
 30
0.0
 11
30.394
 21
83.0834
 31
0.0
  0
LINE
  8
0
 62
     0
 10
30.394
 20
83.0834
 30
0.0
 11
30.394
 21
79.9828
 31
0.0
  0
LINE
  8
0
 62
     0
 10
30.394
 20
79.9828
 30
0.0
 11
31.1947
 21
79.9828
 31
0.0
  0
LINE
  8
0
 62
     0
 10
31.1947
 20
79.9828
 30
0.0
 11
31.1947
 21
78.9838
 31
0.0
  0
LINE
  8
0
 62
     0
 10
31.1947
 20
78.9838
 30
0.0
 11
45.194
 21
78.9838
 31
0.0
  0
LINE
  8
0
 62
     0
 10
45.194
 20
78.9838
 30
0.0
 11
45.194
 21
79.9828
 31
0.0
  0
LINE
  8
0
 62
     0
 10
45.194
 20
79.9828
 30
0.0
 11
45.9948
 21
79.9828
 31
0.0
  0
LINE
  8
0
 62
     0
 10
45.9948
 20
79.9828
 30
0.0
 11
45.9948
 21
83.0834
 31
0.0
  0
LINE
  8
0
 62
     0
 10
45.9948
 20
83.0834
 30
0.0
 11
45.194
 21
83.0834
 31
0.0
  0
LINE
  8
0
 62
     0
 10
45.194
 20
83.0834
 30
0.0
 11
45.194
 21
88.8834
 31
0.0
  0
LINE
  8
0
 62
     0
 10
45.194
 20
88.8834
 30
0.0
 11
45.9948
 21
88.8834
 31
0.0
  0
LINE
  8
0
 62
     0
 10
45.9948
 20
88.8834
 30
0.0
 11
45.9948
 21
91.9826
 31
0.0
  0
LINE
  8
0
 62
     0
 10
45.9948
 20
91.9826
 30
0.0
 11
45.194
 21
91.9826
 31
0.0
  0
LINE
  8
0
 62
     0
 10
45.194
 20
91.9826
 30
0.0
 11
45.194
 21
92.9831
 31
0.0
  0
LINE
  8
0
 62
     0
 10
45.194
 20
92.9831
 30
0.0
 11
31.1947
 21
92.9831
 31
0.0
  0
LINE
  8
0
 62
     0
 10
50.2447
 20
92.9831
 30
0.0
 11
50.2447
 21
91.9826
 31
0.0
  0
LINE
  8
0
 62
     0
 10
50.2447
 20
91.9826
 30
0.0
 11
49.4439
 21
91.9826
 31
0.0
  0
LINE
  8
0
 62
     0
 10
49.4439
 20
91.9826
 30
0.0
 11
49.4439
 21
88.8834
 31
0.0
  0
LINE
  8
0
 62
     0
 10
49.4439
 20
88.8834
 30
0.0
 11
50.2447
 21
88.8834
 31
0.0
  0
LINE
  8
0
 62
     0
 10
50.2447
 20
88.8834
 30
0.0
 11
50.2447
 21
83.0834
 31
0.0
  0
LINE
  8
0
 62
     0
 10
50.2447
 20
83.0834
 30
0.0
 11
49.4439
 21
83.0834
 31
0.0
  0
LINE
  8
0
 62
     0
 10
49.4439
 20
83.0834
 30
0.0
 11
49.4439
 21
79.9828
 31
0.0
  0
LINE
  8
0
 62
     0
 10
49.4439
 20
79.9828
 30
0.0
 11
50.2447
 21
79.9828
 31
0.0
  0
LINE
  8
0
 62
     0
 10
50.2447
 20
79.9828
 30
0.0
 11
50.2447
 21
78.9838
 31
0.0
  0
LINE
  8
0
 62
     0
 10
50.2447
 20
78.9838
 30
0.0
 11
64.244
 21
78.9838
 31
0.0
  0
LINE
  8
0
 62
     0
 10
64.244
 20
78.9838
 30
0.0
 11
64.244
 21
79.9828
 31
0.0
  0
LINE
  8
0
 62
     0
 10
64.244
 20
79.9828
 30
0.0
 11
65.0448
 21
79.9828
 31
0.0
  0
LINE
  8
0
 62
     0
 10
65.0448
 20
79.9828
 30
0.0
 11
65.0448
 21
83.0834
 31
0.0
  0
LINE
  8
0
 62
     0
 10
65.0448
 20
83.0834
 30
0.0
 11
64.244
 21
83.0834
 31
0.0
  0
LINE
  8
0
 62
     0
 10
64.244
 20
83.0834
 30
0.0
 11
64.244
 21
88.8834
 31
0.0
  0
LINE
  8
0
 62
     0
 10
64.244
 20
88.8834
 30
0.0
 11
65.0448
 21
88.8834
 31
0.0
  0
LINE
  8
0
 62
     0
 10
65.0448
 20
88.8834
 30
0.0
 11
65.0448
 21
91.9826
 31
0.0
  0
LINE
  8
0
 62
     0
 10
65.0448
 20
91.9826
 30
0.0
 11
64.244
 21
91.9826
 31
0.0
  0
LINE
  8
0
 62
     0
 10
64.244
 20
91.9826
 30
0.0
 11
64.244
 21
92.9831
 31
0.0
  0
LINE
  8
0
 62
     0
 10
64.244
 20
92.9831
 30
0.0
 11
50.2447
 21
92.9831
 31
0.0
  0
LINE
  8
0
 62
     0
 10
69.2947
 20
92.9831
 30
0.0
 11
69.2947
 21
91.9826
 31
0.0
  0
LINE
  8
0
 62
     0
 10
69.2947
 20
91.9826
 30
0.0
 11
68.4939
 21
91.9826
 31
0.0
  0
LINE
  8
0
 62
     0
 10
68.4939
 20
91.9826
 30
0.0
 11
68.4939
 21
88.8834
 31
0.0
  0
LINE
  8
0
 62
     0
 10
68.4939
 20
88.8834
 30
0.0
 11
69.2947
 21
88.8834
 31
0.0
  0
LINE
  8
0
 62
     0
 10
69.2947
 20
88.8834
 30
0.0
 11
69.2947
 21
83.0834
 31
0.0
  0
LINE
  8
0
 62
     0
 10
69.2947
 20
83.0834
 30
0.0
 11
68.4939
 21
83.0834
 31
0.0
  0
LINE
  8
0
 62
     0
 10
68.4939
 20
83.0834
 30
0.0
 11
68.4939
 21
79.9828
 31
0.0
  0
LINE
  8
0
 62
     0
 10
68.4939
 20
79.9828
 30
0.0
 11
69.2947
 21
79.9828
 31
0.0
  0
LINE
  8
0
 62
     0
 10
69.2947
 20
79.9828
 30
0.0
 11
69.2947
 21
78.9838
 31
0.0
  0
LINE
  8
0
 62
     0
 10
69.2947
 20
78.9838
 30
0.0
 11
83.294
 21
78.9838
 31
0.0
  0
LINE
  8
0
 62
     0
 10
83.294
 20
78.9838
 30
0.0
 11
83.294
 21
79.9828
 31
0.0
  0
LINE
  8
0
 62
     0
 10
83.294
 20
79.9828
 30
0.0
 11
84.0948
 21
79.9828
 31
0.0
  0
LINE
  8
0
 62
     0
 10
84.0948
 20
79.9828
 30
0.0
 11
84.0948
 21
83.0834
 31
0.0
  0
LINE
  8
0
 62
     0
 10
84.0948
 20
83.0834
 30
0.0
 11
83.294
 21
83.0834
 31
0.0
  0
LINE
  8
0
 62
     0
 10
83.294
 20
83.0834
 30
0.0
 11
83.294
 21
88.8834
 31
0.0
  0
LINE
  8
0
 62
     0
 10
83.294
 20
88.8834
 30
0.0
 11
84.0948
 21
88.8834
 31
0.0
  0
LINE
  8
0
 62
     0
 10
84.0948
 20
88.8834
 30
0.0
 11
84.0948
 21
91.9826
 31
0.0
  0
LINE
  8
0
 62
     0
 10
84.0948
 20
91.9826
 30
0.0
 11
83.294
 21
91.9826
 31
0.0
  0
LINE
  8
0
 62
     0
 10
83.294
 20
91.9826
 30
0.0
 11
83.294
 21
92.9831
 31
0.0
  0
LINE
  8
0
 62
     0
 10
83.294
 20
92.9831
 30
0.0
 11
69.2947
 21
92.9831
 31
0.0
  0
LINE
  8
0
 62
     0
 10
88.3447
 20
92.9831
 30
0.0
 11
88.3447
 21
91.9826
 31
0.0
  0
LINE
  8
0
 62
     0
 10
88.3447
 20
91.9826
 30
0.0
 11
87.5439
 21
91.9826
 31
0.0
  0
LINE
  8
0
 62
     0
 10
87.5439
 20
91.9826
 30
0.0
 11
87.5439
 21
88.8834
 31
0.0
  0
LINE
  8
0
 62
     0
 10
87.5439
 20
88.8834
 30
0.0
 11
88.3447
 21
88.8834
 31
0.0
  0
LINE
  8
0
 62
     0
 10
88.3447
 20
88.8834
 30
0.0
 11
88.3447
 21
83.0834
 31
0.0
  0
LINE
  8
0
 62
     0
 10
88.3447
 20
83.0834
 30
0.0
 11
87.5439
 21
83.0834
 31
0.0
  0
LINE
  8
0
 62
     0
 10
87.5439
 20
83.0834
 30
0.0
 11
87.5439
 21
79.9828
 31
0.0
  0
LINE
  8
0
 62
     0
 10
87.5439
 20
79.9828
 30
0.0
 11
88.3447
 21
79.9828
 31
0.0
  0
LINE
  8
0
 62
     0
 10
88.3447
 20
79.9828
 30
0.0
 11
88.3447
 21
78.9838
 31
0.0
  0
LINE
  8
0
 62
     0
 10
88.3447
 20
78.9838
 30
0.0
 11
102.344
 21
78.9838
 31
0.0
  0
LINE
  8
0
 62
     0
 10
102.344
 20
78.9838
 30
0.0
 11
102.344
 21
79.9828
 31
0.0
  0
LINE
  8
0
 62
     0
 10
102.344
 20
79.9828
 30
0.0
 11
103.145
 21
79.9828
 31
0.0
  0
LINE
  8
0
 62
     0
 10
103.145
 20
79.9828
 30
0.0
 11
103.145
 21
83.0834
 31
0.0
  0
LINE
  8
0
 62
     0
 10
103.145
 20
83.0834
 30
0.0
 11
102.344
 21
83.0834
 31
0.0
  0
LINE
  8
0
 62
     0
 10
102.344
 20
83.0834
 30
0.0
 11
102.344
 21
88.8834
 31
0.0
  0
LINE
  8
0
 62
     0
 10
102.344
 20
88.8834
 30
0.0
 11
103.145
 21
88.8834
 31
0.0
  0
LINE
  8
0
 62
     0
 10
103.145
 20
88.8834
 30
0.0
 11
103.145
 21
91.9826
 31
0.0
  0
LINE
  8
0
 62
     0
 10
103.145
 20
91.9826
 30
0.0
 11
102.344
 21
91.9826
 31
0.0
  0
LINE
  8
0
 62
     0
 10
102.344
 20
91.9826
 30
0.0
 11
102.344
 21
92.9831
 31
0.0
  0
LINE
  8
0
 62
     0
 10
102.344
 20
92.9831
 30
0.0
 11
88.3447
 21
92.9831
 31
0.0
  0
LINE
  8
0
 62
     0
 10
107.395
 20
92.9831
 30
0.0
 11
107.395
 21
91.9826
 31
0.0
  0
LINE
  8
0
 62
     0
 10
107.395
 20
91.9826
 30
0.0
 11
106.594
 21
91.9826
 31
0.0
  0
LINE
  8
0
 62
     0
 10
106.594
 20
91.9826
 30
0.0
 11
106.594
 21
88.8834
 31
0.0
  0
LINE
  8
0
 62
     0
 10
106.594
 20
88.8834
 30
0.0
 11
107.395
 21
88.8834
 31
0.0
  0
LINE
  8
0
 62
     0
 10
107.395
 20
88.8834
 30
0.0
 11
107.395
 21
83.0834
 31
0.0
  0
LINE
  8
0
 62
     0
 10
107.395
 20
83.0834
 30
0.0
 11
106.594
 21
83.0834
 31
0.0
  0
LINE
  8
0
 62
     0
 10
106.594
 20
83.0834
 30
0.0
 11
106.594
 21
79.9828
 31
0.0
  0
LINE
  8
0
 62
     0
 10
106.594
 20
79.9828
 30
0.0
 11
107.395
 21
79.9828
 31
0.0
  0
LINE
  8
0
 62
     0
 10
107.395
 20
79.9828
 30
0.0
 11
107.395
 21
78.9838
 31
0.0
  0
LINE
  8
0
 62
     0
 10
107.395
 20
78.9838
 30
0.0
 11
121.394
 21
78.9838
 31
0.0
  0
LINE
  8
0
 62
     0
 10
121.394
 20
78.9838
 30
0.0
 11
121.394
 21
79.9828
 31
0.0
  0
LINE
  8
0
 62
     0
 10
121.394
 20
79.9828
 30
0.0
 11
122.195
 21
79.9828
 31
0.0
  0
LINE
  8
0
 62
     0
 10
122.195
 20
79.9828
 30
0.0
 11
122.195
 21
83.0834
 31
0.0
  0
LINE
  8
0
 62
     0
 10
122.195
 20
83.0834
 30
0.0
 11
121.394
 21
83.0834
 31
0.0
  0
LINE
  8
0
 62
     0
 10
121.394
 20
83.0834
 30
0.0
 11
121.394
 21
88.8834
 31
0.0
  0
LINE
  8
0
 62
     0
 10
121.394
 20
88.8834
 30
0.0
 11
122.195
 21
88.8834
 31
0.0
  0
LINE
  8
0
 62
     0
 10
122.195
 20
88.8834
 30
0.0
 11
122.195
 21
91.9826
 31
0.0
  0
LINE
  8
0
 62
     0
 10
122.195
 20
91.9826
 30
0.0
 11
121.394
 21
91.9826
 31
0.0
  0
LINE
  8
0
 62
     0
 10
121.394
 20
91.9826
 30
0.0
 11
121.394
 21
92.9831
 31
0.0
  0
LINE
  8
0
 62
     0
 10
121.394
 20
92.9831
 30
0.0
 11
107.395
 21
92.9831
 31
0.0
  0
LINE
  8
0
 62
     0
 10
126.445
 20
92.9831
 30
0.0
 11
126.445
 21
91.9826
 31
0.0
  0
LINE
  8
0
 62
     0
 10
126.445
 20
91.9826
 30
0.0
 11
125.644
 21
91.9826
 31
0.0
  0
LINE
  8
0
 62
     0
 10
125.644
 20
91.9826
 30
0.0
 11
125.644
 21
88.8834
 31
0.0
  0
LINE
  8
0
 62
     0
 10
125.644
 20
88.8834
 30
0.0
 11
126.445
 21
88.8834
 31
0.0
  0
LINE
  8
0
 62
     0
 10
126.445
 20
88.8834
 30
0.0
 11
126.445
 21
83.0834
 31
0.0
  0
LINE
  8
0
 62
     0
 10
126.445
 20
83.0834
 30
0.0
 11
125.644
 21
83.0834
 31
0.0
  0
LINE
  8
0
 62
     0
 10
125.644
 20
83.0834
 30
0.0
 11
125.644
 21
79.9828
 31
0.0
  0
LINE
  8
0
 62
     0
 10
125.644
 20
79.9828
 30
0.0
 11
126.445
 21
79.9828
 31
0.0
  0
LINE
  8
0
 62
     0
 10
126.445
 20
79.9828
 30
0.0
 11
126.445
 21
78.9838
 31
0.0
  0
LINE
  8
0
 62
     0
 10
126.445
 20
78.9838
 30
0.0
 11
140.444
 21
78.9838
 31
0.0
  0
LINE
  8
0
 62
     0
 10
140.444
 20
78.9838
 30
0.0
 11
140.444
 21
79.9828
 31
0.0
  0
LINE
  8
0
 62
     0
 10
140.444
 20
79.9828
 30
0.0
 11
141.245
 21
79.9828
 31
0.0
  0
LINE
  8
0
 62
     0
 10
141.245
 20
79.9828
 30
0.0
 11
141.245
 21
83.0834
 31
0.0
  0
LINE
  8
0
 62
     0
 10
141.245
 20
83.0834
 30
0.0
 11
140.444
 21
83.0834
 31
0.0
  0
LINE
  8
0
 62
     0
 10
140.444
 20
83.0834
 30
0.0
 11
140.444
 21
88.8834
 31
0.0
  0
LINE
  8
0
 62
     0
 10
140.444
 20
88.8834
 30
0.0
 11
141.245
 21
88.8834
 31
0.0
  0
LINE
  8
0
 62
     0
 10
141.245
 20
88.8834
 30
0.0
 11
141.245
 21
91.9826
 31
0.0
  0
LINE
  8
0
 62
     0
 10
141.245
 20
91.9826
 30
0.0
 11
140.444
 21
91.9826
 31
0.0
  0
LINE
  8
0
 62
     0
 10
140.444
 20
91.9826
 30
0.0
 11
140.444
 21
92.9831
 31
0.0
  0
LINE
  8
0
 62
     0
 10
140.444
 20
92.9831
 30
0.0
 11
126.445
 21
92.9831
 31
0.0
  0
LINE
  8
0
 62
     0
 10
145.495
 20
92.9831
 30
0.0
 11
145.495
 21
91.9826
 31
0.0
  0
LINE
  8
0
 62
     0
 10
145.495
 20
91.9826
 30
0.0
 11
144.694
 21
91.9826
 31
0.0
  0
LINE
  8
0
 62
     0
 10
144.694
 20
91.9826
 30
0.0
 11
144.694
 21
88.8834
 31
0.0
  0
LINE
  8
0
 62
     0
 10
144.694
 20
88.8834
 30
0.0
 11
145.495
 21
88.8834
 31
0.0
  0
LINE
  8
0
 62
     0
 10
145.495
 20
88.8834
 30
0.0
 11
145.495
 21
83.0834
 31
0.0
  0
LINE
  8
0
 62
     0
 10
145.495
 20
83.0834
 30
0.0
 11
144.694
 21
83.0834
 31
0.0
  0
LINE
  8
0
 62
     0
 10
144.694
 20
83.0834
 30
0.0
 11
144.694
 21
79.9828
 31
0.0
  0
LINE
  8
0
 62
     0
 10
144.694
 20
79.9828
 30
0.0
 11
145.495
 21
79.9828
 31
0.0
  0
LINE
  8
0
 62
     0
 10
145.495
 20
79.9828
 30
0.0
 11
145.495
 21
78.9838
 31
0.0
  0
LINE
  8
0
 62
     0
 10
145.495
 20
78.9838
 30
0.0
 11
159.494
 21
78.9838
 31
0.0
  0
LINE
  8
0
 62
     0
 10
159.494
 20
78.9838
 30
0.0
 11
159.494
 21
79.9828
 31
0.0
  0
LINE
  8
0
 62
     0
 10
159.494
 20
79.9828
 30
0.0
 11
160.295
 21
79.9828
 31
0.0
  0
LINE
  8
0
 62
     0
 10
160.295
 20
79.9828
 30
0.0
 11
160.295
 21
83.0834
 31
0.0
  0
LINE
  8
0
 62
     0
 10
160.295
 20
83.0834
 30
0.0
 11
159.494
 21
83.0834
 31
0.0
  0
LINE
  8
0
 62
     0
 10
159.494
 20
83.0834
 30
0.0
 11
159.494
 21
88.8834
 31
0.0
  0
LINE
  8
0
 62
     0
 10
159.494
 20
88.8834
 30
0.0
 11
160.295
 21
88.8834
 31
0.0
  0
LINE
  8
0
 62
     0
 10
160.295
 20
88.8834
 30
0.0
 11
160.295
 21
91.9826
 31
0.0
  0
LINE
  8
0
 62
     0
 10
160.295
 20
91.9826
 30
0.0
 11
159.494
 21
91.9826
 31
0.0
  0
LINE
  8
0
 62
     0
 10
159.494
 20
91.9826
 30
0.0
 11
159.494
 21
92.9831
 31
0.0
  0
LINE
  8
0
 62
     0
 10
159.494
 20
92.9831
 30
0.0
 11
145.495
 21
92.9831
 31
0.0
  0
LINE
  8
0
 62
     0
 10
164.545
 20
92.9831
 30
0.0
 11
164.545
 21
91.9826
 31
0.0
  0
LINE
  8
0
 62
     0
 10
164.545
 20
91.9826
 30
0.0
 11
163.744
 21
91.9826
 31
0.0
  0
LINE
  8
0
 62
     0
 10
163.744
 20
91.9826
 30
0.0
 11
163.744
 21
88.8834
 31
0.0
  0
LINE
  8
0
 62
     0
 10
163.744
 20
88.8834
 30
0.0
 11
164.545
 21
88.8834
 31
0.0
  0
LINE
  8
0
 62
     0
 10
164.545
 20
88.8834
 30
0.0
 11
164.545
 21
83.0834
 31
0.0
  0
LINE
  8
0
 62
     0
 10
164.545
 20
83.0834
 30
0.0
 11
163.744
 21
83.0834
 31
0.0
  0
LINE
  8
0
 62
     0
 10
163.744
 20
83.0834
 30
0.0
 11
163.744
 21
79.9828
 31
0.0
  0
LINE
  8
0
 62
     0
 10
163.744
 20
79.9828
 30
0.0
 11
164.545
 21
79.9828
 31
0.0
  0
LINE
  8
0
 62
     0
 10
164.545
 20
79.9828
 30
0.0
 11
164.545
 21
78.9838
 31
0.0
  0
LINE
  8
0
 62
     0
 10
164.545
 20
78.9838
 30
0.0
 11
178.544
 21
78.9838
 31
0.0
  0
LINE
  8
0
 62
     0
 10
178.544
 20
78.9838
 30
0.0
 11
178.544
 21
79.9828
 31
0.0
  0
LINE
  8
0
 62
     0
 10
178.544
 20
79.9828
 30
0.0
 11
179.345
 21
79.9828
 31
0.0
  0
LINE
  8
0
 62
     0
 10
179.345
 20
79.9828
 30
0.0
 11
179.345
 21
83.0834
 31
0.0
  0
LINE
  8
0
 62
     0
 10
179.345
 20
83.0834
 30
0.0
 11
178.544
 21
83.0834
 31
0.0
  0
LINE
  8
0
 62
     0
 10
178.544
 20
83.0834
 30
0.0
 11
178.544
 21
88.8834
 31
0.0
  0
LINE
  8
0
 62
     0
 10
178.544
 20
88.8834
 30
0.0
 11
179.345
 21
88.8834
 31
0.0
  0
LINE
  8
0
 62
     0
 10
179.345
 20
88.8834
 30
0.0
 11
179.345
 21
91.9826
 31
0.0
  0
LINE
  8
0
 62
     0
 10
179.345
 20
91.9826
 30
0.0
 11
178.544
 21
91.9826
 31
0.0
  0
LINE
  8
0
 62
     0
 10
178.544
 20
91.9826
 30
0.0
 11
178.544
 21
92.9831
 31
0.0
  0
LINE
  8
0
 62
     0
 10
178.544
 20
92.9831
 30
0.0
 11
164.545
 21
92.9831
 31
0.0
  0
LINE
  8
0
 62
     0
 10
183.595
 20
92.9831
 30
0.0
 11
183.595
 21
91.9826
 31
0.0
  0
LINE
  8
0
 62
     0
 10
183.595
 20
91.9826
 30
0.0
 11
182.794
 21
91.9826
 31
0.0
  0
LINE
  8
0
 62
     0
 10
182.794
 20
91.9826
 30
0.0
 11
182.794
 21
88.8834
 31
0.0
  0
LINE
  8
0
 62
     0
 10
182.794
 20
88.8834
 30
0.0
 11
183.595
 21
88.8834
 31
0.0
  0
LINE
  8
0
 62
     0
 10
183.595
 20
88.8834
 30
0.0
 11
183.595
 21
83.0834
 31
0.0
  0
LINE
  8
0
 62
     0
 10
183.595
 20
83.0834
 30
0.0
 11
182.794
 21
83.0834
 31
0.0
  0
LINE
  8
0
 62
     0
 10
182.794
 20
83.0834
 30
0.0
 11
182.794
 21
79.9828
 31
0.0
  0
LINE
  8
0
 62
     0
 10
182.794
 20
79.9828
 30
0.0
 11
183.595
 21
79.9828
 31
0.0
  0
LINE
  8
0
 62
     0
 10
183.595
 20
79.9828
 30
0.0
 11
183.595
 21
78.9838
 31
0.0
  0
LINE
  8
0
 62
     0
 10
183.595
 20
78.9838
 30
0.0
 11
197.594
 21
78.9838
 31
0.0
  0
LINE
  8
0
 62
     0
 10
197.594
 20
78.9838
 30
0.0
 11
197.594
 21
79.9828
 31
0.0
  0
LINE
  8
0
 62
     0
 10
197.594
 20
79.9828
 30
0.0
 11
198.395
 21
79.9828
 31
0.0
  0
LINE
  8
0
 62
     0
 10
198.395
 20
79.9828
 30
0.0
 11
198.395
 21
83.0834
 31
0.0
  0
LINE
  8
0
 62
     0
 10
198.395
 20
83.0834
 30
0.0
 11
197.594
 21
83.0834
 31
0.0
  0
LINE
  8
0
 62
     0
 10
197.594
 20
83.0834
 30
0.0
 11
197.594
 21
88.8834
 31
0.0
  0
LINE
  8
0
 62
     0
 10
197.594
 20
88.8834
 30
0.0
 11
198.395
 21
88.8834
 31
0.0
  0
LINE
  8
0
 62
     0
 10
198.395
 20
88.8834
 30
0.0
 11
198.395
 21
91.9826
 31
0.0
  0
LINE
  8
0
 62
     0
 10
198.395
 20
91.9826
 30
0.0
 11
197.594
 21
91.9826
 31
0.0
  0
LINE
  8
0
 62
     0
 10
197.594
 20
91.9826
 30
0.0
 11
197.594
 21
92.9831
 31
0.0
  0
LINE
  8
0
 62
     0
 10
197.594
 20
92.9831
 30
0.0
 11
183.595
 21
92.9831
 31
0.0
  0
LINE
  8
0
 62
     0
 10
202.645
 20
92.9831
 30
0.0
 11
202.645
 21
91.9826
 31
0.0
  0
LINE
  8
0
 62
     0
 10
202.645
 20
91.9826
 30
0.0
 11
201.844
 21
91.9826
 31
0.0
  0
LINE
  8
0
 62
     0
 10
201.844
 20
91.9826
 30
0.0
 11
201.844
 21
88.8834
 31
0.0
  0
LINE
  8
0
 62
     0
 10
201.844
 20
88.8834
 30
0.0
 11
202.645
 21
88.8834
 31
0.0
  0
LINE
  8
0
 62
     0
 10
202.645
 20
88.8834
 30
0.0
 11
202.645
 21
83.0834
 31
0.0
  0
LINE
  8
0
 62
     0
 10
202.645
 20
83.0834
 30
0.0
 11
201.844
 21
83.0834
 31
0.0
  0
LINE
  8
0
 62
     0
 10
201.844
 20
83.0834
 30
0.0
 11
201.844
 21
79.9828
 31
0.0
  0
LINE
  8
0
 62
     0
 10
201.844
 20
79.9828
 30
0.0
 11
202.645
 21
79.9828
 31
0.0
  0
LINE
  8
0
 62
     0
 10
202.645
 20
79.9828
 30
0.0
 11
202.645
 21
78.9838
 31
0.0
  0
LINE
  8
0
 62
     0
 10
202.645
 20
78.9838
 30
0.0
 11
216.644
 21
78.9838
 31
0.0
  0
LINE
  8
0
 62
     0
 10
216.644
 20
78.9838
 30
0.0
 11
216.644
 21
79.9828
 31
0.0
  0
LINE
  8
0
 62
     0
 10
216.644
 20
79.9828
 30
0.0
 11
217.445
 21
79.9828
 31
0.0
  0
LINE
  8
0
 62
     0
 10
217.445
 20
79.9828
 30
0.0
 11
217.445
 21
83.0834
 31
0.0
  0
LINE
  8
0
 62
     0
 10
217.445
 20
83.0834
 30
0.0
 11
216.644
 21
83.0834
 31
0.0
  0
LINE
  8
0
 62
     0
 10
216.644
 20
83.0834
 30
0.0
 11
216.644
 21
88.8834
 31
0.0
  0
LINE
  8
0
 62
     0
 10
216.644
 20
88.8834
 30
0.0
 11
217.445
 21
88.8834
 31
0.0
  0
LINE
  8
0
 62
     0
 10
217.445
 20
88.8834
 30
0.0
 11
217.445
 21
91.9826
 31
0.0
  0
LINE
  8
0
 62
     0
 10
217.445
 20
91.9826
 30
0.0
 11
216.644
 21
91.9826
 31
0.0
  0
LINE
  8
0
 62
     0
 10
216.644
 20
91.9826
 30
0.0
 11
216.644
 21
92.9831
 31
0.0
  0
LINE
  8
0
 62
     0
 10
216.644
 20
92.9831
 30
0.0
 11
202.645
 21
92.9831
 31
0.0
  0
LINE
  8
0
 62
     0
 10
226.457
 20
92.9831
 30
0.0
 11
226.457
 21
91.9826
 31
0.0
  0
LINE
  8
0
 62
     0
 10
226.457
 20
91.9826
 30
0.0
 11
225.656
 21
91.9826
 31
0.0
  0
LINE
  8
0
 62
     0
 10
225.656
 20
91.9826
 30
0.0
 11
225.656
 21
88.8834
 31
0.0
  0
LINE
  8
0
 62
     0
 10
225.656
 20
88.8834
 30
0.0
 11
226.457
 21
88.8834
 31
0.0
  0
LINE
  8
0
 62
     0
 10
226.457
 20
88.8834
 30
0.0
 11
226.457
 21
83.0834
 31
0.0
  0
LINE
  8
0
 62
     0
 10
226.457
 20
83.0834
 30
0.0
 11
225.656
 21
83.0834
 31
0.0
  0
LINE
  8
0
 62
     0
 10
225.656
 20
83.0834
 30
0.0
 11
225.656
 21
79.9828
 31
0.0
  0
LINE
  8
0
 62
     0
 10
225.656
 20
79.9828
 30
0.0
 11
226.457
 21
79.9828
 31
0.0
  0
LINE
  8
0
 62
     0
 10
226.457
 20
79.9828
 30
0.0
 11
226.457
 21
78.9838
 31
0.0
  0
LINE
  8
0
 62
     0
 10
226.457
 20
78.9838
 30
0.0
 11
240.457
 21
78.9838
 31
0.0
  0
LINE
  8
0
 62
     0
 10
240.457
 20
78.9838
 30
0.0
 11
240.457
 21
79.9828
 31
0.0
  0
LINE
  8
0
 62
     0
 10
240.457
 20
79.9828
 30
0.0
 11
241.256
 21
79.9828
 31
0.0
  0
LINE
  8
0
 62
     0
 10
241.256
 20
79.9828
 30
0.0
 11
241.256
 21
83.0834
 31
0.0
  0
LINE
  8
0
 62
     0
 10
241.256
 20
83.0834
 30
0.0
 11
240.457
 21
83.0834
 31
0.0
  0
LINE
  8
0
 62
     0
 10
240.457
 20
83.0834
 30
0.0
 11
240.457
 21
88.8834
 31
0.0
  0
LINE
  8
0
 62
     0
 10
240.457
 20
88.8834
 30
0.0
 11
241.256
 21
88.8834
 31
0.0
  0
LINE
  8
0
 62
     0
 10
241.256
 20
88.8834
 30
0.0
 11
241.256
 21
91.9826
 31
0.0
  0
LINE
  8
0
 62
     0
 10
241.256
 20
91.9826
 30
0.0
 11
240.457
 21
91.9826
 31
0.0
  0
LINE
  8
0
 62
     0
 10
240.457
 20
91.9826
 30
0.0
 11
240.457
 21
92.9831
 31
0.0
  0
LINE
  8
0
 62
     0
 10
240.457
 20
92.9831
 30
0.0
 11
226.457
 21
92.9831
 31
0.0
  0
ENDSEC
  0
EOF
