  0
SECTION
  2
HEADER
  9
$ACADVER
  1
AC1009
  9
$FILLMODE
 70
 0
  9
$SPLFRAME
 70
 1
  9
$EXTMIN
 10
0
 20
0
 30
0.0
  9
$EXTMAX
 10
1058.33
 20
1058.33
 30
0.0
  0
ENDSEC
  0
SECTION
  2
TABLES
  0
TABLE
  2
LAYER
 70
1
  0
LAYER
  2
0
 70
     0
 62
     7
  6
CONTINUOUS
  0
ENDTAB
  0
ENDSEC
  0
SECTION
  2
ENTITIES
  0
LINE
  8
0
 62
     0
 10
0.0950846
 20
95.5075
 30
0.0
 11
247.745
 21
95.5075
 31
0.0
  0
LINE
  8
0
 62
     0
 10
247.745
 20
95.5075
 30
0.0
 11
247.745
 21
0.257693
 31
0.0
  0
LINE
  8
0
 62
     0
 10
247.745
 20
0.257693
 30
0.0
 11
0.0950846
 21
0.257693
 31
0.0
  0
LINE
  8
0
 62
     0
 10
0.0950846
 20
0.257693
 30
0.0
 11
0.0950846
 21
95.5075
 31
0.0
  0
LINE
  8
0
 62
     0
 10
102.632
 20
16.7831
 30
0.0
 11
102.632
 21
15.7827
 31
0.0
  0
LINE
  8
0
 62
     0
 10
102.632
 20
15.7827
 30
0.0
 11
101.831
 21
15.7827
 31
0.0
  0
LINE
  8
0
 62
     0
 10
101.831
 20
15.7827
 30
0.0
 11
101.831
 21
12.6848
 31
0.0
  0
LINE
  8
0
 62
     0
 10
101.831
 20
12.6848
 30
0.0
 11
102.632
 21
12.6848
 31
0.0
  0
LINE
  8
0
 62
     0
 10
102.632
 20
12.6848
 30
0.0
 11
102.632
 21
12.0826
 31
0.0
  0
LINE
  8
0
 62
     0
 10
102.632
 20
12.0826
 30
0.0
 11
78.3361
 21
12.0826
 31
0.0
  0
LINE
  8
0
 62
     0
 10
78.3361
 20
12.0826
 30
0.0
 11
78.3361
 21
15.3128
 31
0.0
  0
LINE
  8
0
 62
     0
 10
78.3361
 20
15.3128
 30
0.0
 11
71.585
 21
15.3128
 31
0.0
  0
LINE
  8
0
 62
     0
 10
71.585
 20
15.3128
 30
0.0
 11
71.585
 21
12.0826
 31
0.0
  0
LINE
  8
0
 62
     0
 10
71.585
 20
12.0826
 30
0.0
 11
70.7609
 21
12.0826
 31
0.0
  0
LINE
  8
0
 62
     0
 10
70.7609
 20
12.0826
 30
0.0
 11
70.7609
 21
9.28384
 31
0.0
  0
LINE
  8
0
 62
     0
 10
70.7609
 20
9.28384
 30
0.0
 11
71.585
 21
9.28384
 31
0.0
  0
LINE
  8
0
 62
     0
 10
71.585
 20
9.28384
 30
0.0
 11
71.585
 21
3.01377
 31
0.0
  0
LINE
  8
0
 62
     0
 10
71.585
 20
3.01377
 30
0.0
 11
73.3104
 21
3.01377
 31
0.0
  0
LINE
  8
0
 62
     0
 10
73.3104
 20
3.01377
 30
0.0
 11
73.3104
 21
1.8135
 31
0.0
  0
LINE
  8
0
 62
     0
 10
73.3104
 20
1.8135
 30
0.0
 11
76.6106
 21
1.8135
 31
0.0
  0
LINE
  8
0
 62
     0
 10
76.6106
 20
1.8135
 30
0.0
 11
76.6106
 21
3.01377
 31
0.0
  0
LINE
  8
0
 62
     0
 10
76.6106
 20
3.01377
 30
0.0
 11
78.3361
 21
3.01377
 31
0.0
  0
LINE
  8
0
 62
     0
 10
78.3361
 20
3.01377
 30
0.0
 11
78.3361
 21
7.48411
 31
0.0
  0
LINE
  8
0
 62
     0
 10
78.3361
 20
7.48411
 30
0.0
 11
102.632
 21
7.48411
 31
0.0
  0
LINE
  8
0
 62
     0
 10
102.632
 20
7.48411
 30
0.0
 11
102.632
 21
6.88329
 31
0.0
  0
LINE
  8
0
 62
     0
 10
102.632
 20
6.88329
 30
0.0
 11
101.831
 21
6.88329
 31
0.0
  0
LINE
  8
0
 62
     0
 10
101.831
 20
6.88329
 30
0.0
 11
101.831
 21
3.78273
 31
0.0
  0
LINE
  8
0
 62
     0
 10
101.831
 20
3.78273
 30
0.0
 11
102.632
 21
3.78273
 31
0.0
  0
LINE
  8
0
 62
     0
 10
102.632
 20
3.78273
 30
0.0
 11
102.632
 21
2.78364
 31
0.0
  0
LINE
  8
0
 62
     0
 10
102.632
 20
2.78364
 30
0.0
 11
116.632
 21
2.78364
 31
0.0
  0
LINE
  8
0
 62
     0
 10
116.632
 20
2.78364
 30
0.0
 11
116.632
 21
3.78273
 31
0.0
  0
LINE
  8
0
 62
     0
 10
116.632
 20
3.78273
 30
0.0
 11
117.431
 21
3.78273
 31
0.0
  0
LINE
  8
0
 62
     0
 10
117.431
 20
3.78273
 30
0.0
 11
117.431
 21
6.88329
 31
0.0
  0
LINE
  8
0
 62
     0
 10
117.431
 20
6.88329
 30
0.0
 11
116.632
 21
6.88329
 31
0.0
  0
LINE
  8
0
 62
     0
 10
116.632
 20
6.88329
 30
0.0
 11
116.632
 21
7.48411
 31
0.0
  0
LINE
  8
0
 62
     0
 10
116.632
 20
7.48411
 30
0.0
 11
140.928
 21
7.48411
 31
0.0
  0
LINE
  8
0
 62
     0
 10
140.928
 20
7.48411
 30
0.0
 11
140.928
 21
3.01377
 31
0.0
  0
LINE
  8
0
 62
     0
 10
140.928
 20
3.01377
 30
0.0
 11
142.653
 21
3.01377
 31
0.0
  0
LINE
  8
0
 62
     0
 10
142.653
 20
3.01377
 30
0.0
 11
142.653
 21
1.8135
 31
0.0
  0
LINE
  8
0
 62
     0
 10
142.653
 20
1.8135
 30
0.0
 11
145.952
 21
1.8135
 31
0.0
  0
LINE
  8
0
 62
     0
 10
145.952
 20
1.8135
 30
0.0
 11
145.952
 21
3.01377
 31
0.0
  0
LINE
  8
0
 62
     0
 10
145.952
 20
3.01377
 30
0.0
 11
147.677
 21
3.01377
 31
0.0
  0
LINE
  8
0
 62
     0
 10
147.677
 20
3.01377
 30
0.0
 11
147.677
 21
9.28384
 31
0.0
  0
LINE
  8
0
 62
     0
 10
147.677
 20
9.28384
 30
0.0
 11
148.503
 21
9.28384
 31
0.0
  0
LINE
  8
0
 62
     0
 10
148.503
 20
9.28384
 30
0.0
 11
148.503
 21
12.0826
 31
0.0
  0
LINE
  8
0
 62
     0
 10
148.503
 20
12.0826
 30
0.0
 11
147.677
 21
12.0826
 31
0.0
  0
LINE
  8
0
 62
     0
 10
147.677
 20
12.0826
 30
0.0
 11
147.677
 21
15.3128
 31
0.0
  0
LINE
  8
0
 62
     0
 10
147.677
 20
15.3128
 30
0.0
 11
140.928
 21
15.3128
 31
0.0
  0
LINE
  8
0
 62
     0
 10
140.928
 20
15.3128
 30
0.0
 11
140.928
 21
12.0826
 31
0.0
  0
LINE
  8
0
 62
     0
 10
140.928
 20
12.0826
 30
0.0
 11
116.632
 21
12.0826
 31
0.0
  0
LINE
  8
0
 62
     0
 10
116.632
 20
12.0826
 30
0.0
 11
116.632
 21
12.6848
 31
0.0
  0
LINE
  8
0
 62
     0
 10
116.632
 20
12.6848
 30
0.0
 11
117.431
 21
12.6848
 31
0.0
  0
LINE
  8
0
 62
     0
 10
117.431
 20
12.6848
 30
0.0
 11
117.431
 21
15.7827
 31
0.0
  0
LINE
  8
0
 62
     0
 10
117.431
 20
15.7827
 30
0.0
 11
116.632
 21
15.7827
 31
0.0
  0
LINE
  8
0
 62
     0
 10
116.632
 20
15.7827
 30
0.0
 11
116.632
 21
16.7831
 31
0.0
  0
LINE
  8
0
 62
     0
 10
116.632
 20
16.7831
 30
0.0
 11
102.632
 21
16.7831
 31
0.0
  0
LINE
  8
0
 62
     0
 10
5.00091
 20
16.7831
 30
0.0
 11
5.00091
 21
15.7827
 31
0.0
  0
LINE
  8
0
 62
     0
 10
5.00091
 20
15.7827
 30
0.0
 11
4.20028
 21
15.7827
 31
0.0
  0
LINE
  8
0
 62
     0
 10
4.20028
 20
15.7827
 30
0.0
 11
4.20028
 21
12.6848
 31
0.0
  0
LINE
  8
0
 62
     0
 10
4.20028
 20
12.6848
 30
0.0
 11
5.00091
 21
12.6848
 31
0.0
  0
LINE
  8
0
 62
     0
 10
5.00091
 20
12.6848
 30
0.0
 11
5.00091
 21
6.88329
 31
0.0
  0
LINE
  8
0
 62
     0
 10
5.00091
 20
6.88329
 30
0.0
 11
4.20028
 21
6.88329
 31
0.0
  0
LINE
  8
0
 62
     0
 10
4.20028
 20
6.88329
 30
0.0
 11
4.20028
 21
3.78273
 31
0.0
  0
LINE
  8
0
 62
     0
 10
4.20028
 20
3.78273
 30
0.0
 11
5.00091
 21
3.78273
 31
0.0
  0
LINE
  8
0
 62
     0
 10
5.00091
 20
3.78273
 30
0.0
 11
5.00091
 21
2.78364
 31
0.0
  0
LINE
  8
0
 62
     0
 10
5.00091
 20
2.78364
 30
0.0
 11
19.0004
 21
2.78364
 31
0.0
  0
LINE
  8
0
 62
     0
 10
19.0004
 20
2.78364
 30
0.0
 11
19.0004
 21
3.78273
 31
0.0
  0
LINE
  8
0
 62
     0
 10
19.0004
 20
3.78273
 30
0.0
 11
19.801
 21
3.78273
 31
0.0
  0
LINE
  8
0
 62
     0
 10
19.801
 20
3.78273
 30
0.0
 11
19.801
 21
6.88329
 31
0.0
  0
LINE
  8
0
 62
     0
 10
19.801
 20
6.88329
 30
0.0
 11
19.0004
 21
6.88329
 31
0.0
  0
LINE
  8
0
 62
     0
 10
19.0004
 20
6.88329
 30
0.0
 11
19.0004
 21
12.6848
 31
0.0
  0
LINE
  8
0
 62
     0
 10
19.0004
 20
12.6848
 30
0.0
 11
19.801
 21
12.6848
 31
0.0
  0
LINE
  8
0
 62
     0
 10
19.801
 20
12.6848
 30
0.0
 11
19.801
 21
15.7827
 31
0.0
  0
LINE
  8
0
 62
     0
 10
19.801
 20
15.7827
 30
0.0
 11
19.0004
 21
15.7827
 31
0.0
  0
LINE
  8
0
 62
     0
 10
19.0004
 20
15.7827
 30
0.0
 11
19.0004
 21
16.7831
 31
0.0
  0
LINE
  8
0
 62
     0
 10
19.0004
 20
16.7831
 30
0.0
 11
5.00091
 21
16.7831
 31
0.0
  0
LINE
  8
0
 62
     0
 10
26.4322
 20
16.7831
 30
0.0
 11
26.4322
 21
15.7827
 31
0.0
  0
LINE
  8
0
 62
     0
 10
26.4322
 20
15.7827
 30
0.0
 11
25.6315
 21
15.7827
 31
0.0
  0
LINE
  8
0
 62
     0
 10
25.6315
 20
15.7827
 30
0.0
 11
25.6315
 21
12.6848
 31
0.0
  0
LINE
  8
0
 62
     0
 10
25.6315
 20
12.6848
 30
0.0
 11
26.4322
 21
12.6848
 31
0.0
  0
LINE
  8
0
 62
     0
 10
26.4322
 20
12.6848
 30
0.0
 11
26.4322
 21
6.88329
 31
0.0
  0
LINE
  8
0
 62
     0
 10
26.4322
 20
6.88329
 30
0.0
 11
25.6315
 21
6.88329
 31
0.0
  0
LINE
  8
0
 62
     0
 10
25.6315
 20
6.88329
 30
0.0
 11
25.6315
 21
3.78273
 31
0.0
  0
LINE
  8
0
 62
     0
 10
25.6315
 20
3.78273
 30
0.0
 11
26.4322
 21
3.78273
 31
0.0
  0
LINE
  8
0
 62
     0
 10
26.4322
 20
3.78273
 30
0.0
 11
26.4322
 21
2.78364
 31
0.0
  0
LINE
  8
0
 62
     0
 10
26.4322
 20
2.78364
 30
0.0
 11
40.4315
 21
2.78364
 31
0.0
  0
LINE
  8
0
 62
     0
 10
40.4315
 20
2.78364
 30
0.0
 11
40.4315
 21
3.78273
 31
0.0
  0
LINE
  8
0
 62
     0
 10
40.4315
 20
3.78273
 30
0.0
 11
41.2309
 21
3.78273
 31
0.0
  0
LINE
  8
0
 62
     0
 10
41.2309
 20
3.78273
 30
0.0
 11
41.2309
 21
6.88329
 31
0.0
  0
LINE
  8
0
 62
     0
 10
41.2309
 20
6.88329
 30
0.0
 11
40.4315
 21
6.88329
 31
0.0
  0
LINE
  8
0
 62
     0
 10
40.4315
 20
6.88329
 30
0.0
 11
40.4315
 21
12.6848
 31
0.0
  0
LINE
  8
0
 62
     0
 10
40.4315
 20
12.6848
 30
0.0
 11
41.2309
 21
12.6848
 31
0.0
  0
LINE
  8
0
 62
     0
 10
41.2309
 20
12.6848
 30
0.0
 11
41.2309
 21
15.7827
 31
0.0
  0
LINE
  8
0
 62
     0
 10
41.2309
 20
15.7827
 30
0.0
 11
40.4315
 21
15.7827
 31
0.0
  0
LINE
  8
0
 62
     0
 10
40.4315
 20
15.7827
 30
0.0
 11
40.4315
 21
16.7831
 31
0.0
  0
LINE
  8
0
 62
     0
 10
40.4315
 20
16.7831
 30
0.0
 11
26.4322
 21
16.7831
 31
0.0
  0
LINE
  8
0
 62
     0
 10
47.8621
 20
16.7831
 30
0.0
 11
47.8621
 21
15.7827
 31
0.0
  0
LINE
  8
0
 62
     0
 10
47.8621
 20
15.7827
 30
0.0
 11
47.0627
 21
15.7827
 31
0.0
  0
LINE
  8
0
 62
     0
 10
47.0627
 20
15.7827
 30
0.0
 11
47.0627
 21
12.6848
 31
0.0
  0
LINE
  8
0
 62
     0
 10
47.0627
 20
12.6848
 30
0.0
 11
47.8621
 21
12.6848
 31
0.0
  0
LINE
  8
0
 62
     0
 10
47.8621
 20
12.6848
 30
0.0
 11
47.8621
 21
6.88329
 31
0.0
  0
LINE
  8
0
 62
     0
 10
47.8621
 20
6.88329
 30
0.0
 11
47.0627
 21
6.88329
 31
0.0
  0
LINE
  8
0
 62
     0
 10
47.0627
 20
6.88329
 30
0.0
 11
47.0627
 21
3.78273
 31
0.0
  0
LINE
  8
0
 62
     0
 10
47.0627
 20
3.78273
 30
0.0
 11
47.8621
 21
3.78273
 31
0.0
  0
LINE
  8
0
 62
     0
 10
47.8621
 20
3.78273
 30
0.0
 11
47.8621
 21
2.78364
 31
0.0
  0
LINE
  8
0
 62
     0
 10
47.8621
 20
2.78364
 30
0.0
 11
61.8628
 21
2.78364
 31
0.0
  0
LINE
  8
0
 62
     0
 10
61.8628
 20
2.78364
 30
0.0
 11
61.8628
 21
3.78273
 31
0.0
  0
LINE
  8
0
 62
     0
 10
61.8628
 20
3.78273
 30
0.0
 11
62.6622
 21
3.78273
 31
0.0
  0
LINE
  8
0
 62
     0
 10
62.6622
 20
3.78273
 30
0.0
 11
62.6622
 21
6.88329
 31
0.0
  0
LINE
  8
0
 62
     0
 10
62.6622
 20
6.88329
 30
0.0
 11
61.8628
 21
6.88329
 31
0.0
  0
LINE
  8
0
 62
     0
 10
61.8628
 20
6.88329
 30
0.0
 11
61.8628
 21
12.6848
 31
0.0
  0
LINE
  8
0
 62
     0
 10
61.8628
 20
12.6848
 30
0.0
 11
62.6622
 21
12.6848
 31
0.0
  0
LINE
  8
0
 62
     0
 10
62.6622
 20
12.6848
 30
0.0
 11
62.6622
 21
15.7827
 31
0.0
  0
LINE
  8
0
 62
     0
 10
62.6622
 20
15.7827
 30
0.0
 11
61.8628
 21
15.7827
 31
0.0
  0
LINE
  8
0
 62
     0
 10
61.8628
 20
15.7827
 30
0.0
 11
61.8628
 21
16.7831
 31
0.0
  0
LINE
  8
0
 62
     0
 10
61.8628
 20
16.7831
 30
0.0
 11
47.8621
 21
16.7831
 31
0.0
  0
LINE
  8
0
 62
     0
 10
155.02
 20
16.7831
 30
0.0
 11
155.02
 21
15.7827
 31
0.0
  0
LINE
  8
0
 62
     0
 10
155.02
 20
15.7827
 30
0.0
 11
154.219
 21
15.7827
 31
0.0
  0
LINE
  8
0
 62
     0
 10
154.219
 20
15.7827
 30
0.0
 11
154.219
 21
12.6848
 31
0.0
  0
LINE
  8
0
 62
     0
 10
154.219
 20
12.6848
 30
0.0
 11
155.02
 21
12.6848
 31
0.0
  0
LINE
  8
0
 62
     0
 10
155.02
 20
12.6848
 30
0.0
 11
155.02
 21
6.88329
 31
0.0
  0
LINE
  8
0
 62
     0
 10
155.02
 20
6.88329
 30
0.0
 11
154.219
 21
6.88329
 31
0.0
  0
LINE
  8
0
 62
     0
 10
154.219
 20
6.88329
 30
0.0
 11
154.219
 21
3.78273
 31
0.0
  0
LINE
  8
0
 62
     0
 10
154.219
 20
3.78273
 30
0.0
 11
155.02
 21
3.78273
 31
0.0
  0
LINE
  8
0
 62
     0
 10
155.02
 20
3.78273
 30
0.0
 11
155.02
 21
2.78364
 31
0.0
  0
LINE
  8
0
 62
     0
 10
155.02
 20
2.78364
 30
0.0
 11
169.019
 21
2.78364
 31
0.0
  0
LINE
  8
0
 62
     0
 10
169.019
 20
2.78364
 30
0.0
 11
169.019
 21
3.78273
 31
0.0
  0
LINE
  8
0
 62
     0
 10
169.019
 20
3.78273
 30
0.0
 11
169.82
 21
3.78273
 31
0.0
  0
LINE
  8
0
 62
     0
 10
169.82
 20
3.78273
 30
0.0
 11
169.82
 21
6.88329
 31
0.0
  0
LINE
  8
0
 62
     0
 10
169.82
 20
6.88329
 30
0.0
 11
169.019
 21
6.88329
 31
0.0
  0
LINE
  8
0
 62
     0
 10
169.019
 20
6.88329
 30
0.0
 11
169.019
 21
12.6848
 31
0.0
  0
LINE
  8
0
 62
     0
 10
169.019
 20
12.6848
 30
0.0
 11
169.82
 21
12.6848
 31
0.0
  0
LINE
  8
0
 62
     0
 10
169.82
 20
12.6848
 30
0.0
 11
169.82
 21
15.7827
 31
0.0
  0
LINE
  8
0
 62
     0
 10
169.82
 20
15.7827
 30
0.0
 11
169.019
 21
15.7827
 31
0.0
  0
LINE
  8
0
 62
     0
 10
169.019
 20
15.7827
 30
0.0
 11
169.019
 21
16.7831
 31
0.0
  0
LINE
  8
0
 62
     0
 10
169.019
 20
16.7831
 30
0.0
 11
155.02
 21
16.7831
 31
0.0
  0
LINE
  8
0
 62
     0
 10
174.07
 20
16.7831
 30
0.0
 11
174.07
 21
15.7827
 31
0.0
  0
LINE
  8
0
 62
     0
 10
174.07
 20
15.7827
 30
0.0
 11
173.269
 21
15.7827
 31
0.0
  0
LINE
  8
0
 62
     0
 10
173.269
 20
15.7827
 30
0.0
 11
173.269
 21
12.6848
 31
0.0
  0
LINE
  8
0
 62
     0
 10
173.269
 20
12.6848
 30
0.0
 11
174.07
 21
12.6848
 31
0.0
  0
LINE
  8
0
 62
     0
 10
174.07
 20
12.6848
 30
0.0
 11
174.07
 21
6.88329
 31
0.0
  0
LINE
  8
0
 62
     0
 10
174.07
 20
6.88329
 30
0.0
 11
173.269
 21
6.88329
 31
0.0
  0
LINE
  8
0
 62
     0
 10
173.269
 20
6.88329
 30
0.0
 11
173.269
 21
3.78273
 31
0.0
  0
LINE
  8
0
 62
     0
 10
173.269
 20
3.78273
 30
0.0
 11
174.07
 21
3.78273
 31
0.0
  0
LINE
  8
0
 62
     0
 10
174.07
 20
3.78273
 30
0.0
 11
174.07
 21
2.78364
 31
0.0
  0
LINE
  8
0
 62
     0
 10
174.07
 20
2.78364
 30
0.0
 11
188.069
 21
2.78364
 31
0.0
  0
LINE
  8
0
 62
     0
 10
188.069
 20
2.78364
 30
0.0
 11
188.069
 21
3.78273
 31
0.0
  0
LINE
  8
0
 62
     0
 10
188.069
 20
3.78273
 30
0.0
 11
188.87
 21
3.78273
 31
0.0
  0
LINE
  8
0
 62
     0
 10
188.87
 20
3.78273
 30
0.0
 11
188.87
 21
6.88329
 31
0.0
  0
LINE
  8
0
 62
     0
 10
188.87
 20
6.88329
 30
0.0
 11
188.069
 21
6.88329
 31
0.0
  0
LINE
  8
0
 62
     0
 10
188.069
 20
6.88329
 30
0.0
 11
188.069
 21
12.6848
 31
0.0
  0
LINE
  8
0
 62
     0
 10
188.069
 20
12.6848
 30
0.0
 11
188.87
 21
12.6848
 31
0.0
  0
LINE
  8
0
 62
     0
 10
188.87
 20
12.6848
 30
0.0
 11
188.87
 21
15.7827
 31
0.0
  0
LINE
  8
0
 62
     0
 10
188.87
 20
15.7827
 30
0.0
 11
188.069
 21
15.7827
 31
0.0
  0
LINE
  8
0
 62
     0
 10
188.069
 20
15.7827
 30
0.0
 11
188.069
 21
16.7831
 31
0.0
  0
LINE
  8
0
 62
     0
 10
188.069
 20
16.7831
 30
0.0
 11
174.07
 21
16.7831
 31
0.0
  0
LINE
  8
0
 62
     0
 10
193.12
 20
16.7831
 30
0.0
 11
193.12
 21
15.7827
 31
0.0
  0
LINE
  8
0
 62
     0
 10
193.12
 20
15.7827
 30
0.0
 11
192.319
 21
15.7827
 31
0.0
  0
LINE
  8
0
 62
     0
 10
192.319
 20
15.7827
 30
0.0
 11
192.319
 21
12.6848
 31
0.0
  0
LINE
  8
0
 62
     0
 10
192.319
 20
12.6848
 30
0.0
 11
193.12
 21
12.6848
 31
0.0
  0
LINE
  8
0
 62
     0
 10
193.12
 20
12.6848
 30
0.0
 11
193.12
 21
6.88329
 31
0.0
  0
LINE
  8
0
 62
     0
 10
193.12
 20
6.88329
 30
0.0
 11
192.319
 21
6.88329
 31
0.0
  0
LINE
  8
0
 62
     0
 10
192.319
 20
6.88329
 30
0.0
 11
192.319
 21
3.78273
 31
0.0
  0
LINE
  8
0
 62
     0
 10
192.319
 20
3.78273
 30
0.0
 11
193.12
 21
3.78273
 31
0.0
  0
LINE
  8
0
 62
     0
 10
193.12
 20
3.78273
 30
0.0
 11
193.12
 21
2.78364
 31
0.0
  0
LINE
  8
0
 62
     0
 10
193.12
 20
2.78364
 30
0.0
 11
207.119
 21
2.78364
 31
0.0
  0
LINE
  8
0
 62
     0
 10
207.119
 20
2.78364
 30
0.0
 11
207.119
 21
3.78273
 31
0.0
  0
LINE
  8
0
 62
     0
 10
207.119
 20
3.78273
 30
0.0
 11
207.92
 21
3.78273
 31
0.0
  0
LINE
  8
0
 62
     0
 10
207.92
 20
3.78273
 30
0.0
 11
207.92
 21
6.88329
 31
0.0
  0
LINE
  8
0
 62
     0
 10
207.92
 20
6.88329
 30
0.0
 11
207.119
 21
6.88329
 31
0.0
  0
LINE
  8
0
 62
     0
 10
207.119
 20
6.88329
 30
0.0
 11
207.119
 21
12.6848
 31
0.0
  0
LINE
  8
0
 62
     0
 10
207.119
 20
12.6848
 30
0.0
 11
207.92
 21
12.6848
 31
0.0
  0
LINE
  8
0
 62
     0
 10
207.92
 20
12.6848
 30
0.0
 11
207.92
 21
15.7827
 31
0.0
  0
LINE
  8
0
 62
     0
 10
207.92
 20
15.7827
 30
0.0
 11
207.119
 21
15.7827
 31
0.0
  0
LINE
  8
0
 62
     0
 10
207.119
 20
15.7827
 30
0.0
 11
207.119
 21
16.7831
 31
0.0
  0
LINE
  8
0
 62
     0
 10
207.119
 20
16.7831
 30
0.0
 11
193.12
 21
16.7831
 31
0.0
  0
LINE
  8
0
 62
     0
 10
212.17
 20
16.7831
 30
0.0
 11
212.17
 21
15.7827
 31
0.0
  0
LINE
  8
0
 62
     0
 10
212.17
 20
15.7827
 30
0.0
 11
211.369
 21
15.7827
 31
0.0
  0
LINE
  8
0
 62
     0
 10
211.369
 20
15.7827
 30
0.0
 11
211.369
 21
12.6848
 31
0.0
  0
LINE
  8
0
 62
     0
 10
211.369
 20
12.6848
 30
0.0
 11
212.17
 21
12.6848
 31
0.0
  0
LINE
  8
0
 62
     0
 10
212.17
 20
12.6848
 30
0.0
 11
212.17
 21
6.88329
 31
0.0
  0
LINE
  8
0
 62
     0
 10
212.17
 20
6.88329
 30
0.0
 11
211.369
 21
6.88329
 31
0.0
  0
LINE
  8
0
 62
     0
 10
211.369
 20
6.88329
 30
0.0
 11
211.369
 21
3.78273
 31
0.0
  0
LINE
  8
0
 62
     0
 10
211.369
 20
3.78273
 30
0.0
 11
212.17
 21
3.78273
 31
0.0
  0
LINE
  8
0
 62
     0
 10
212.17
 20
3.78273
 30
0.0
 11
212.17
 21
2.78364
 31
0.0
  0
LINE
  8
0
 62
     0
 10
212.17
 20
2.78364
 30
0.0
 11
226.169
 21
2.78364
 31
0.0
  0
LINE
  8
0
 62
     0
 10
226.169
 20
2.78364
 30
0.0
 11
226.169
 21
3.78273
 31
0.0
  0
LINE
  8
0
 62
     0
 10
226.169
 20
3.78273
 30
0.0
 11
226.97
 21
3.78273
 31
0.0
  0
LINE
  8
0
 62
     0
 10
226.97
 20
3.78273
 30
0.0
 11
226.97
 21
6.88329
 31
0.0
  0
LINE
  8
0
 62
     0
 10
226.97
 20
6.88329
 30
0.0
 11
226.169
 21
6.88329
 31
0.0
  0
LINE
  8
0
 62
     0
 10
226.169
 20
6.88329
 30
0.0
 11
226.169
 21
12.6848
 31
0.0
  0
LINE
  8
0
 62
     0
 10
226.169
 20
12.6848
 30
0.0
 11
226.97
 21
12.6848
 31
0.0
  0
LINE
  8
0
 62
     0
 10
226.97
 20
12.6848
 30
0.0
 11
226.97
 21
15.7827
 31
0.0
  0
LINE
  8
0
 62
     0
 10
226.97
 20
15.7827
 30
0.0
 11
226.169
 21
15.7827
 31
0.0
  0
LINE
  8
0
 62
     0
 10
226.169
 20
15.7827
 30
0.0
 11
226.169
 21
16.7831
 31
0.0
  0
LINE
  8
0
 62
     0
 10
226.169
 20
16.7831
 30
0.0
 11
212.17
 21
16.7831
 31
0.0
  0
LINE
  8
0
 62
     0
 10
231.22
 20
16.7831
 30
0.0
 11
231.22
 21
15.7827
 31
0.0
  0
LINE
  8
0
 62
     0
 10
231.22
 20
15.7827
 30
0.0
 11
230.419
 21
15.7827
 31
0.0
  0
LINE
  8
0
 62
     0
 10
230.419
 20
15.7827
 30
0.0
 11
230.419
 21
12.6848
 31
0.0
  0
LINE
  8
0
 62
     0
 10
230.419
 20
12.6848
 30
0.0
 11
231.22
 21
12.6848
 31
0.0
  0
LINE
  8
0
 62
     0
 10
231.22
 20
12.6848
 30
0.0
 11
231.22
 21
6.88329
 31
0.0
  0
LINE
  8
0
 62
     0
 10
231.22
 20
6.88329
 30
0.0
 11
230.419
 21
6.88329
 31
0.0
  0
LINE
  8
0
 62
     0
 10
230.419
 20
6.88329
 30
0.0
 11
230.419
 21
3.78273
 31
0.0
  0
LINE
  8
0
 62
     0
 10
230.419
 20
3.78273
 30
0.0
 11
231.22
 21
3.78273
 31
0.0
  0
LINE
  8
0
 62
     0
 10
231.22
 20
3.78273
 30
0.0
 11
231.22
 21
2.78364
 31
0.0
  0
LINE
  8
0
 62
     0
 10
231.22
 20
2.78364
 30
0.0
 11
245.219
 21
2.78364
 31
0.0
  0
LINE
  8
0
 62
     0
 10
245.219
 20
2.78364
 30
0.0
 11
245.219
 21
3.78273
 31
0.0
  0
LINE
  8
0
 62
     0
 10
245.219
 20
3.78273
 30
0.0
 11
246.02
 21
3.78273
 31
0.0
  0
LINE
  8
0
 62
     0
 10
246.02
 20
3.78273
 30
0.0
 11
246.02
 21
6.88329
 31
0.0
  0
LINE
  8
0
 62
     0
 10
246.02
 20
6.88329
 30
0.0
 11
245.219
 21
6.88329
 31
0.0
  0
LINE
  8
0
 62
     0
 10
245.219
 20
6.88329
 30
0.0
 11
245.219
 21
12.6848
 31
0.0
  0
LINE
  8
0
 62
     0
 10
245.219
 20
12.6848
 30
0.0
 11
246.02
 21
12.6848
 31
0.0
  0
LINE
  8
0
 62
     0
 10
246.02
 20
12.6848
 30
0.0
 11
246.02
 21
15.7827
 31
0.0
  0
LINE
  8
0
 62
     0
 10
246.02
 20
15.7827
 30
0.0
 11
245.219
 21
15.7827
 31
0.0
  0
LINE
  8
0
 62
     0
 10
245.219
 20
15.7827
 30
0.0
 11
245.219
 21
16.7831
 31
0.0
  0
LINE
  8
0
 62
     0
 10
245.219
 20
16.7831
 30
0.0
 11
231.22
 21
16.7831
 31
0.0
  0
LINE
  8
0
 62
     0
 10
12.1447
 20
35.833
 30
0.0
 11
12.1447
 21
34.8327
 31
0.0
  0
LINE
  8
0
 62
     0
 10
12.1447
 20
34.8327
 30
0.0
 11
11.344
 21
34.8327
 31
0.0
  0
LINE
  8
0
 62
     0
 10
11.344
 20
34.8327
 30
0.0
 11
11.344
 21
31.7348
 31
0.0
  0
LINE
  8
0
 62
     0
 10
11.344
 20
31.7348
 30
0.0
 11
12.1447
 21
31.7348
 31
0.0
  0
LINE
  8
0
 62
     0
 10
12.1447
 20
31.7348
 30
0.0
 11
12.1447
 21
31.1326
 31
0.0
  0
LINE
  8
0
 62
     0
 10
12.1447
 20
31.1326
 30
0.0
 11
10.6192
 21
31.1326
 31
0.0
  0
LINE
  8
0
 62
     0
 10
10.6192
 20
31.1326
 30
0.0
 11
10.6192
 21
34.3628
 31
0.0
  0
LINE
  8
0
 62
     0
 10
10.6192
 20
34.3628
 30
0.0
 11
3.86955
 21
34.3628
 31
0.0
  0
LINE
  8
0
 62
     0
 10
3.86955
 20
34.3628
 30
0.0
 11
3.86955
 21
31.1326
 31
0.0
  0
LINE
  8
0
 62
     0
 10
3.86955
 20
31.1326
 30
0.0
 11
3.04409
 21
31.1326
 31
0.0
  0
LINE
  8
0
 62
     0
 10
3.04409
 20
31.1326
 30
0.0
 11
3.04409
 21
28.3338
 31
0.0
  0
LINE
  8
0
 62
     0
 10
3.04409
 20
28.3338
 30
0.0
 11
3.86955
 21
28.3338
 31
0.0
  0
LINE
  8
0
 62
     0
 10
3.86955
 20
28.3338
 30
0.0
 11
3.86955
 21
22.0638
 31
0.0
  0
LINE
  8
0
 62
     0
 10
3.86955
 20
22.0638
 30
0.0
 11
5.59484
 21
22.0638
 31
0.0
  0
LINE
  8
0
 62
     0
 10
5.59484
 20
22.0638
 30
0.0
 11
5.59484
 21
20.8635
 31
0.0
  0
LINE
  8
0
 62
     0
 10
5.59484
 20
20.8635
 30
0.0
 11
8.89385
 21
20.8635
 31
0.0
  0
LINE
  8
0
 62
     0
 10
8.89385
 20
20.8635
 30
0.0
 11
8.89385
 21
22.0638
 31
0.0
  0
LINE
  8
0
 62
     0
 10
8.89385
 20
22.0638
 30
0.0
 11
10.6192
 21
22.0638
 31
0.0
  0
LINE
  8
0
 62
     0
 10
10.6192
 20
22.0638
 30
0.0
 11
10.6192
 21
26.5327
 31
0.0
  0
LINE
  8
0
 62
     0
 10
10.6192
 20
26.5327
 30
0.0
 11
12.1447
 21
26.5327
 31
0.0
  0
LINE
  8
0
 62
     0
 10
12.1447
 20
26.5327
 30
0.0
 11
12.1447
 21
25.9333
 31
0.0
  0
LINE
  8
0
 62
     0
 10
12.1447
 20
25.9333
 30
0.0
 11
11.344
 21
25.9333
 31
0.0
  0
LINE
  8
0
 62
     0
 10
11.344
 20
25.9333
 30
0.0
 11
11.344
 21
22.8327
 31
0.0
  0
LINE
  8
0
 62
     0
 10
11.344
 20
22.8327
 30
0.0
 11
12.1447
 21
22.8327
 31
0.0
  0
LINE
  8
0
 62
     0
 10
12.1447
 20
22.8327
 30
0.0
 11
12.1447
 21
21.8336
 31
0.0
  0
LINE
  8
0
 62
     0
 10
12.1447
 20
21.8336
 30
0.0
 11
26.1441
 21
21.8336
 31
0.0
  0
LINE
  8
0
 62
     0
 10
26.1441
 20
21.8336
 30
0.0
 11
26.1441
 21
22.8327
 31
0.0
  0
LINE
  8
0
 62
     0
 10
26.1441
 20
22.8327
 30
0.0
 11
26.9448
 21
22.8327
 31
0.0
  0
LINE
  8
0
 62
     0
 10
26.9448
 20
22.8327
 30
0.0
 11
26.9448
 21
25.9333
 31
0.0
  0
LINE
  8
0
 62
     0
 10
26.9448
 20
25.9333
 30
0.0
 11
26.1441
 21
25.9333
 31
0.0
  0
LINE
  8
0
 62
     0
 10
26.1441
 20
25.9333
 30
0.0
 11
26.1441
 21
26.5327
 31
0.0
  0
LINE
  8
0
 62
     0
 10
26.1441
 20
26.5327
 30
0.0
 11
27.6696
 21
26.5327
 31
0.0
  0
LINE
  8
0
 62
     0
 10
27.6696
 20
26.5327
 30
0.0
 11
27.6696
 21
22.0638
 31
0.0
  0
LINE
  8
0
 62
     0
 10
27.6696
 20
22.0638
 30
0.0
 11
29.3949
 21
22.0638
 31
0.0
  0
LINE
  8
0
 62
     0
 10
29.3949
 20
22.0638
 30
0.0
 11
29.3949
 21
20.8635
 31
0.0
  0
LINE
  8
0
 62
     0
 10
29.3949
 20
20.8635
 30
0.0
 11
32.694
 21
20.8635
 31
0.0
  0
LINE
  8
0
 62
     0
 10
32.694
 20
20.8635
 30
0.0
 11
32.694
 21
22.0638
 31
0.0
  0
LINE
  8
0
 62
     0
 10
32.694
 20
22.0638
 30
0.0
 11
34.4193
 21
22.0638
 31
0.0
  0
LINE
  8
0
 62
     0
 10
34.4193
 20
22.0638
 30
0.0
 11
34.4193
 21
28.3338
 31
0.0
  0
LINE
  8
0
 62
     0
 10
34.4193
 20
28.3338
 30
0.0
 11
35.2447
 21
28.3338
 31
0.0
  0
LINE
  8
0
 62
     0
 10
35.2447
 20
28.3338
 30
0.0
 11
35.2447
 21
31.1326
 31
0.0
  0
LINE
  8
0
 62
     0
 10
35.2447
 20
31.1326
 30
0.0
 11
34.4193
 21
31.1326
 31
0.0
  0
LINE
  8
0
 62
     0
 10
34.4193
 20
31.1326
 30
0.0
 11
34.4193
 21
34.3628
 31
0.0
  0
LINE
  8
0
 62
     0
 10
34.4193
 20
34.3628
 30
0.0
 11
27.6696
 21
34.3628
 31
0.0
  0
LINE
  8
0
 62
     0
 10
27.6696
 20
34.3628
 30
0.0
 11
27.6696
 21
31.1326
 31
0.0
  0
LINE
  8
0
 62
     0
 10
27.6696
 20
31.1326
 30
0.0
 11
26.1441
 21
31.1326
 31
0.0
  0
LINE
  8
0
 62
     0
 10
26.1441
 20
31.1326
 30
0.0
 11
26.1441
 21
31.7348
 31
0.0
  0
LINE
  8
0
 62
     0
 10
26.1441
 20
31.7348
 30
0.0
 11
26.9448
 21
31.7348
 31
0.0
  0
LINE
  8
0
 62
     0
 10
26.9448
 20
31.7348
 30
0.0
 11
26.9448
 21
34.8327
 31
0.0
  0
LINE
  8
0
 62
     0
 10
26.9448
 20
34.8327
 30
0.0
 11
26.1441
 21
34.8327
 31
0.0
  0
LINE
  8
0
 62
     0
 10
26.1441
 20
34.8327
 30
0.0
 11
26.1441
 21
35.833
 31
0.0
  0
LINE
  8
0
 62
     0
 10
26.1441
 20
35.833
 30
0.0
 11
12.1447
 21
35.833
 31
0.0
  0
LINE
  8
0
 62
     0
 10
40.7197
 20
35.833
 30
0.0
 11
40.7197
 21
34.8327
 31
0.0
  0
LINE
  8
0
 62
     0
 10
40.7197
 20
34.8327
 30
0.0
 11
39.9189
 21
34.8327
 31
0.0
  0
LINE
  8
0
 62
     0
 10
39.9189
 20
34.8327
 30
0.0
 11
39.9189
 21
31.7348
 31
0.0
  0
LINE
  8
0
 62
     0
 10
39.9189
 20
31.7348
 30
0.0
 11
40.7197
 21
31.7348
 31
0.0
  0
LINE
  8
0
 62
     0
 10
40.7197
 20
31.7348
 30
0.0
 11
40.7197
 21
25.9333
 31
0.0
  0
LINE
  8
0
 62
     0
 10
40.7197
 20
25.9333
 30
0.0
 11
39.9189
 21
25.9333
 31
0.0
  0
LINE
  8
0
 62
     0
 10
39.9189
 20
25.9333
 30
0.0
 11
39.9189
 21
22.8327
 31
0.0
  0
LINE
  8
0
 62
     0
 10
39.9189
 20
22.8327
 30
0.0
 11
40.7197
 21
22.8327
 31
0.0
  0
LINE
  8
0
 62
     0
 10
40.7197
 20
22.8327
 30
0.0
 11
40.7197
 21
21.8336
 31
0.0
  0
LINE
  8
0
 62
     0
 10
40.7197
 20
21.8336
 30
0.0
 11
54.719
 21
21.8336
 31
0.0
  0
LINE
  8
0
 62
     0
 10
54.719
 20
21.8336
 30
0.0
 11
54.719
 21
22.8327
 31
0.0
  0
LINE
  8
0
 62
     0
 10
54.719
 20
22.8327
 30
0.0
 11
55.5198
 21
22.8327
 31
0.0
  0
LINE
  8
0
 62
     0
 10
55.5198
 20
22.8327
 30
0.0
 11
55.5198
 21
25.9333
 31
0.0
  0
LINE
  8
0
 62
     0
 10
55.5198
 20
25.9333
 30
0.0
 11
54.719
 21
25.9333
 31
0.0
  0
LINE
  8
0
 62
     0
 10
54.719
 20
25.9333
 30
0.0
 11
54.719
 21
31.7348
 31
0.0
  0
LINE
  8
0
 62
     0
 10
54.719
 20
31.7348
 30
0.0
 11
55.5198
 21
31.7348
 31
0.0
  0
LINE
  8
0
 62
     0
 10
55.5198
 20
31.7348
 30
0.0
 11
55.5198
 21
34.8327
 31
0.0
  0
LINE
  8
0
 62
     0
 10
55.5198
 20
34.8327
 30
0.0
 11
54.719
 21
34.8327
 31
0.0
  0
LINE
  8
0
 62
     0
 10
54.719
 20
34.8327
 30
0.0
 11
54.719
 21
35.833
 31
0.0
  0
LINE
  8
0
 62
     0
 10
54.719
 20
35.833
 30
0.0
 11
40.7197
 21
35.833
 31
0.0
  0
LINE
  8
0
 62
     0
 10
59.7697
 20
35.833
 30
0.0
 11
59.7697
 21
34.8327
 31
0.0
  0
LINE
  8
0
 62
     0
 10
59.7697
 20
34.8327
 30
0.0
 11
58.9689
 21
34.8327
 31
0.0
  0
LINE
  8
0
 62
     0
 10
58.9689
 20
34.8327
 30
0.0
 11
58.9689
 21
31.7348
 31
0.0
  0
LINE
  8
0
 62
     0
 10
58.9689
 20
31.7348
 30
0.0
 11
59.7697
 21
31.7348
 31
0.0
  0
LINE
  8
0
 62
     0
 10
59.7697
 20
31.7348
 30
0.0
 11
59.7697
 21
25.9333
 31
0.0
  0
LINE
  8
0
 62
     0
 10
59.7697
 20
25.9333
 30
0.0
 11
58.9689
 21
25.9333
 31
0.0
  0
LINE
  8
0
 62
     0
 10
58.9689
 20
25.9333
 30
0.0
 11
58.9689
 21
22.8327
 31
0.0
  0
LINE
  8
0
 62
     0
 10
58.9689
 20
22.8327
 30
0.0
 11
59.7697
 21
22.8327
 31
0.0
  0
LINE
  8
0
 62
     0
 10
59.7697
 20
22.8327
 30
0.0
 11
59.7697
 21
21.8336
 31
0.0
  0
LINE
  8
0
 62
     0
 10
59.7697
 20
21.8336
 30
0.0
 11
73.769
 21
21.8336
 31
0.0
  0
LINE
  8
0
 62
     0
 10
73.769
 20
21.8336
 30
0.0
 11
73.769
 21
22.8327
 31
0.0
  0
LINE
  8
0
 62
     0
 10
73.769
 20
22.8327
 30
0.0
 11
74.5698
 21
22.8327
 31
0.0
  0
LINE
  8
0
 62
     0
 10
74.5698
 20
22.8327
 30
0.0
 11
74.5698
 21
25.9333
 31
0.0
  0
LINE
  8
0
 62
     0
 10
74.5698
 20
25.9333
 30
0.0
 11
73.769
 21
25.9333
 31
0.0
  0
LINE
  8
0
 62
     0
 10
73.769
 20
25.9333
 30
0.0
 11
73.769
 21
31.7348
 31
0.0
  0
LINE
  8
0
 62
     0
 10
73.769
 20
31.7348
 30
0.0
 11
74.5698
 21
31.7348
 31
0.0
  0
LINE
  8
0
 62
     0
 10
74.5698
 20
31.7348
 30
0.0
 11
74.5698
 21
34.8327
 31
0.0
  0
LINE
  8
0
 62
     0
 10
74.5698
 20
34.8327
 30
0.0
 11
73.769
 21
34.8327
 31
0.0
  0
LINE
  8
0
 62
     0
 10
73.769
 20
34.8327
 30
0.0
 11
73.769
 21
35.833
 31
0.0
  0
LINE
  8
0
 62
     0
 10
73.769
 20
35.833
 30
0.0
 11
59.7697
 21
35.833
 31
0.0
  0
LINE
  8
0
 62
     0
 10
78.8197
 20
35.833
 30
0.0
 11
78.8197
 21
34.8327
 31
0.0
  0
LINE
  8
0
 62
     0
 10
78.8197
 20
34.8327
 30
0.0
 11
78.0189
 21
34.8327
 31
0.0
  0
LINE
  8
0
 62
     0
 10
78.0189
 20
34.8327
 30
0.0
 11
78.0189
 21
31.7348
 31
0.0
  0
LINE
  8
0
 62
     0
 10
78.0189
 20
31.7348
 30
0.0
 11
78.8197
 21
31.7348
 31
0.0
  0
LINE
  8
0
 62
     0
 10
78.8197
 20
31.7348
 30
0.0
 11
78.8197
 21
25.9333
 31
0.0
  0
LINE
  8
0
 62
     0
 10
78.8197
 20
25.9333
 30
0.0
 11
78.0189
 21
25.9333
 31
0.0
  0
LINE
  8
0
 62
     0
 10
78.0189
 20
25.9333
 30
0.0
 11
78.0189
 21
22.8327
 31
0.0
  0
LINE
  8
0
 62
     0
 10
78.0189
 20
22.8327
 30
0.0
 11
78.8197
 21
22.8327
 31
0.0
  0
LINE
  8
0
 62
     0
 10
78.8197
 20
22.8327
 30
0.0
 11
78.8197
 21
21.8336
 31
0.0
  0
LINE
  8
0
 62
     0
 10
78.8197
 20
21.8336
 30
0.0
 11
92.819
 21
21.8336
 31
0.0
  0
LINE
  8
0
 62
     0
 10
92.819
 20
21.8336
 30
0.0
 11
92.819
 21
22.8327
 31
0.0
  0
LINE
  8
0
 62
     0
 10
92.819
 20
22.8327
 30
0.0
 11
93.6184
 21
22.8327
 31
0.0
  0
LINE
  8
0
 62
     0
 10
93.6184
 20
22.8327
 30
0.0
 11
93.6184
 21
25.9333
 31
0.0
  0
LINE
  8
0
 62
     0
 10
93.6184
 20
25.9333
 30
0.0
 11
92.819
 21
25.9333
 31
0.0
  0
LINE
  8
0
 62
     0
 10
92.819
 20
25.9333
 30
0.0
 11
92.819
 21
31.7348
 31
0.0
  0
LINE
  8
0
 62
     0
 10
92.819
 20
31.7348
 30
0.0
 11
93.6184
 21
31.7348
 31
0.0
  0
LINE
  8
0
 62
     0
 10
93.6184
 20
31.7348
 30
0.0
 11
93.6184
 21
34.8327
 31
0.0
  0
LINE
  8
0
 62
     0
 10
93.6184
 20
34.8327
 30
0.0
 11
92.819
 21
34.8327
 31
0.0
  0
LINE
  8
0
 62
     0
 10
92.819
 20
34.8327
 30
0.0
 11
92.819
 21
35.833
 31
0.0
  0
LINE
  8
0
 62
     0
 10
92.819
 20
35.833
 30
0.0
 11
78.8197
 21
35.833
 31
0.0
  0
LINE
  8
0
 62
     0
 10
97.8683
 20
35.833
 30
0.0
 11
97.8683
 21
34.8327
 31
0.0
  0
LINE
  8
0
 62
     0
 10
97.8683
 20
34.8327
 30
0.0
 11
97.0689
 21
34.8327
 31
0.0
  0
LINE
  8
0
 62
     0
 10
97.0689
 20
34.8327
 30
0.0
 11
97.0689
 21
31.7348
 31
0.0
  0
LINE
  8
0
 62
     0
 10
97.0689
 20
31.7348
 30
0.0
 11
97.8683
 21
31.7348
 31
0.0
  0
LINE
  8
0
 62
     0
 10
97.8683
 20
31.7348
 30
0.0
 11
97.8683
 21
25.9333
 31
0.0
  0
LINE
  8
0
 62
     0
 10
97.8683
 20
25.9333
 30
0.0
 11
97.0689
 21
25.9333
 31
0.0
  0
LINE
  8
0
 62
     0
 10
97.0689
 20
25.9333
 30
0.0
 11
97.0689
 21
22.8327
 31
0.0
  0
LINE
  8
0
 62
     0
 10
97.0689
 20
22.8327
 30
0.0
 11
97.8683
 21
22.8327
 31
0.0
  0
LINE
  8
0
 62
     0
 10
97.8683
 20
22.8327
 30
0.0
 11
97.8683
 21
21.8336
 31
0.0
  0
LINE
  8
0
 62
     0
 10
97.8683
 20
21.8336
 30
0.0
 11
111.869
 21
21.8336
 31
0.0
  0
LINE
  8
0
 62
     0
 10
111.869
 20
21.8336
 30
0.0
 11
111.869
 21
22.8327
 31
0.0
  0
LINE
  8
0
 62
     0
 10
111.869
 20
22.8327
 30
0.0
 11
112.668
 21
22.8327
 31
0.0
  0
LINE
  8
0
 62
     0
 10
112.668
 20
22.8327
 30
0.0
 11
112.668
 21
25.9333
 31
0.0
  0
LINE
  8
0
 62
     0
 10
112.668
 20
25.9333
 30
0.0
 11
111.869
 21
25.9333
 31
0.0
  0
LINE
  8
0
 62
     0
 10
111.869
 20
25.9333
 30
0.0
 11
111.869
 21
31.7348
 31
0.0
  0
LINE
  8
0
 62
     0
 10
111.869
 20
31.7348
 30
0.0
 11
112.668
 21
31.7348
 31
0.0
  0
LINE
  8
0
 62
     0
 10
112.668
 20
31.7348
 30
0.0
 11
112.668
 21
34.8327
 31
0.0
  0
LINE
  8
0
 62
     0
 10
112.668
 20
34.8327
 30
0.0
 11
111.869
 21
34.8327
 31
0.0
  0
LINE
  8
0
 62
     0
 10
111.869
 20
34.8327
 30
0.0
 11
111.869
 21
35.833
 31
0.0
  0
LINE
  8
0
 62
     0
 10
111.869
 20
35.833
 30
0.0
 11
97.8683
 21
35.833
 31
0.0
  0
LINE
  8
0
 62
     0
 10
116.918
 20
35.833
 30
0.0
 11
116.918
 21
34.8327
 31
0.0
  0
LINE
  8
0
 62
     0
 10
116.918
 20
34.8327
 30
0.0
 11
116.119
 21
34.8327
 31
0.0
  0
LINE
  8
0
 62
     0
 10
116.119
 20
34.8327
 30
0.0
 11
116.119
 21
31.7348
 31
0.0
  0
LINE
  8
0
 62
     0
 10
116.119
 20
31.7348
 30
0.0
 11
116.918
 21
31.7348
 31
0.0
  0
LINE
  8
0
 62
     0
 10
116.918
 20
31.7348
 30
0.0
 11
116.918
 21
25.9333
 31
0.0
  0
LINE
  8
0
 62
     0
 10
116.918
 20
25.9333
 30
0.0
 11
116.119
 21
25.9333
 31
0.0
  0
LINE
  8
0
 62
     0
 10
116.119
 20
25.9333
 30
0.0
 11
116.119
 21
22.8327
 31
0.0
  0
LINE
  8
0
 62
     0
 10
116.119
 20
22.8327
 30
0.0
 11
116.918
 21
22.8327
 31
0.0
  0
LINE
  8
0
 62
     0
 10
116.918
 20
22.8327
 30
0.0
 11
116.918
 21
21.8336
 31
0.0
  0
LINE
  8
0
 62
     0
 10
116.918
 20
21.8336
 30
0.0
 11
130.919
 21
21.8336
 31
0.0
  0
LINE
  8
0
 62
     0
 10
130.919
 20
21.8336
 30
0.0
 11
130.919
 21
22.8327
 31
0.0
  0
LINE
  8
0
 62
     0
 10
130.919
 20
22.8327
 30
0.0
 11
131.72
 21
22.8327
 31
0.0
  0
LINE
  8
0
 62
     0
 10
131.72
 20
22.8327
 30
0.0
 11
131.72
 21
25.9333
 31
0.0
  0
LINE
  8
0
 62
     0
 10
131.72
 20
25.9333
 30
0.0
 11
130.919
 21
25.9333
 31
0.0
  0
LINE
  8
0
 62
     0
 10
130.919
 20
25.9333
 30
0.0
 11
130.919
 21
31.7348
 31
0.0
  0
LINE
  8
0
 62
     0
 10
130.919
 20
31.7348
 30
0.0
 11
131.72
 21
31.7348
 31
0.0
  0
LINE
  8
0
 62
     0
 10
131.72
 20
31.7348
 30
0.0
 11
131.72
 21
34.8327
 31
0.0
  0
LINE
  8
0
 62
     0
 10
131.72
 20
34.8327
 30
0.0
 11
130.919
 21
34.8327
 31
0.0
  0
LINE
  8
0
 62
     0
 10
130.919
 20
34.8327
 30
0.0
 11
130.919
 21
35.833
 31
0.0
  0
LINE
  8
0
 62
     0
 10
130.919
 20
35.833
 30
0.0
 11
116.918
 21
35.833
 31
0.0
  0
LINE
  8
0
 62
     0
 10
135.97
 20
35.833
 30
0.0
 11
135.97
 21
34.8327
 31
0.0
  0
LINE
  8
0
 62
     0
 10
135.97
 20
34.8327
 30
0.0
 11
135.169
 21
34.8327
 31
0.0
  0
LINE
  8
0
 62
     0
 10
135.169
 20
34.8327
 30
0.0
 11
135.169
 21
31.7348
 31
0.0
  0
LINE
  8
0
 62
     0
 10
135.169
 20
31.7348
 30
0.0
 11
135.97
 21
31.7348
 31
0.0
  0
LINE
  8
0
 62
     0
 10
135.97
 20
31.7348
 30
0.0
 11
135.97
 21
25.9333
 31
0.0
  0
LINE
  8
0
 62
     0
 10
135.97
 20
25.9333
 30
0.0
 11
135.169
 21
25.9333
 31
0.0
  0
LINE
  8
0
 62
     0
 10
135.169
 20
25.9333
 30
0.0
 11
135.169
 21
22.8327
 31
0.0
  0
LINE
  8
0
 62
     0
 10
135.169
 20
22.8327
 30
0.0
 11
135.97
 21
22.8327
 31
0.0
  0
LINE
  8
0
 62
     0
 10
135.97
 20
22.8327
 30
0.0
 11
135.97
 21
21.8336
 31
0.0
  0
LINE
  8
0
 62
     0
 10
135.97
 20
21.8336
 30
0.0
 11
149.969
 21
21.8336
 31
0.0
  0
LINE
  8
0
 62
     0
 10
149.969
 20
21.8336
 30
0.0
 11
149.969
 21
22.8327
 31
0.0
  0
LINE
  8
0
 62
     0
 10
149.969
 20
22.8327
 30
0.0
 11
150.77
 21
22.8327
 31
0.0
  0
LINE
  8
0
 62
     0
 10
150.77
 20
22.8327
 30
0.0
 11
150.77
 21
25.9333
 31
0.0
  0
LINE
  8
0
 62
     0
 10
150.77
 20
25.9333
 30
0.0
 11
149.969
 21
25.9333
 31
0.0
  0
LINE
  8
0
 62
     0
 10
149.969
 20
25.9333
 30
0.0
 11
149.969
 21
31.7348
 31
0.0
  0
LINE
  8
0
 62
     0
 10
149.969
 20
31.7348
 30
0.0
 11
150.77
 21
31.7348
 31
0.0
  0
LINE
  8
0
 62
     0
 10
150.77
 20
31.7348
 30
0.0
 11
150.77
 21
34.8327
 31
0.0
  0
LINE
  8
0
 62
     0
 10
150.77
 20
34.8327
 30
0.0
 11
149.969
 21
34.8327
 31
0.0
  0
LINE
  8
0
 62
     0
 10
149.969
 20
34.8327
 30
0.0
 11
149.969
 21
35.833
 31
0.0
  0
LINE
  8
0
 62
     0
 10
149.969
 20
35.833
 30
0.0
 11
135.97
 21
35.833
 31
0.0
  0
LINE
  8
0
 62
     0
 10
155.02
 20
35.833
 30
0.0
 11
155.02
 21
34.8327
 31
0.0
  0
LINE
  8
0
 62
     0
 10
155.02
 20
34.8327
 30
0.0
 11
154.219
 21
34.8327
 31
0.0
  0
LINE
  8
0
 62
     0
 10
154.219
 20
34.8327
 30
0.0
 11
154.219
 21
31.7348
 31
0.0
  0
LINE
  8
0
 62
     0
 10
154.219
 20
31.7348
 30
0.0
 11
155.02
 21
31.7348
 31
0.0
  0
LINE
  8
0
 62
     0
 10
155.02
 20
31.7348
 30
0.0
 11
155.02
 21
25.9333
 31
0.0
  0
LINE
  8
0
 62
     0
 10
155.02
 20
25.9333
 30
0.0
 11
154.219
 21
25.9333
 31
0.0
  0
LINE
  8
0
 62
     0
 10
154.219
 20
25.9333
 30
0.0
 11
154.219
 21
22.8327
 31
0.0
  0
LINE
  8
0
 62
     0
 10
154.219
 20
22.8327
 30
0.0
 11
155.02
 21
22.8327
 31
0.0
  0
LINE
  8
0
 62
     0
 10
155.02
 20
22.8327
 30
0.0
 11
155.02
 21
21.8336
 31
0.0
  0
LINE
  8
0
 62
     0
 10
155.02
 20
21.8336
 30
0.0
 11
169.019
 21
21.8336
 31
0.0
  0
LINE
  8
0
 62
     0
 10
169.019
 20
21.8336
 30
0.0
 11
169.019
 21
22.8327
 31
0.0
  0
LINE
  8
0
 62
     0
 10
169.019
 20
22.8327
 30
0.0
 11
169.82
 21
22.8327
 31
0.0
  0
LINE
  8
0
 62
     0
 10
169.82
 20
22.8327
 30
0.0
 11
169.82
 21
25.9333
 31
0.0
  0
LINE
  8
0
 62
     0
 10
169.82
 20
25.9333
 30
0.0
 11
169.019
 21
25.9333
 31
0.0
  0
LINE
  8
0
 62
     0
 10
169.019
 20
25.9333
 30
0.0
 11
169.019
 21
31.7348
 31
0.0
  0
LINE
  8
0
 62
     0
 10
169.019
 20
31.7348
 30
0.0
 11
169.82
 21
31.7348
 31
0.0
  0
LINE
  8
0
 62
     0
 10
169.82
 20
31.7348
 30
0.0
 11
169.82
 21
34.8327
 31
0.0
  0
LINE
  8
0
 62
     0
 10
169.82
 20
34.8327
 30
0.0
 11
169.019
 21
34.8327
 31
0.0
  0
LINE
  8
0
 62
     0
 10
169.019
 20
34.8327
 30
0.0
 11
169.019
 21
35.833
 31
0.0
  0
LINE
  8
0
 62
     0
 10
169.019
 20
35.833
 30
0.0
 11
155.02
 21
35.833
 31
0.0
  0
LINE
  8
0
 62
     0
 10
174.07
 20
35.833
 30
0.0
 11
174.07
 21
34.8327
 31
0.0
  0
LINE
  8
0
 62
     0
 10
174.07
 20
34.8327
 30
0.0
 11
173.269
 21
34.8327
 31
0.0
  0
LINE
  8
0
 62
     0
 10
173.269
 20
34.8327
 30
0.0
 11
173.269
 21
31.7348
 31
0.0
  0
LINE
  8
0
 62
     0
 10
173.269
 20
31.7348
 30
0.0
 11
174.07
 21
31.7348
 31
0.0
  0
LINE
  8
0
 62
     0
 10
174.07
 20
31.7348
 30
0.0
 11
174.07
 21
25.9333
 31
0.0
  0
LINE
  8
0
 62
     0
 10
174.07
 20
25.9333
 30
0.0
 11
173.269
 21
25.9333
 31
0.0
  0
LINE
  8
0
 62
     0
 10
173.269
 20
25.9333
 30
0.0
 11
173.269
 21
22.8327
 31
0.0
  0
LINE
  8
0
 62
     0
 10
173.269
 20
22.8327
 30
0.0
 11
174.07
 21
22.8327
 31
0.0
  0
LINE
  8
0
 62
     0
 10
174.07
 20
22.8327
 30
0.0
 11
174.07
 21
21.8336
 31
0.0
  0
LINE
  8
0
 62
     0
 10
174.07
 20
21.8336
 30
0.0
 11
188.069
 21
21.8336
 31
0.0
  0
LINE
  8
0
 62
     0
 10
188.069
 20
21.8336
 30
0.0
 11
188.069
 21
22.8327
 31
0.0
  0
LINE
  8
0
 62
     0
 10
188.069
 20
22.8327
 30
0.0
 11
188.87
 21
22.8327
 31
0.0
  0
LINE
  8
0
 62
     0
 10
188.87
 20
22.8327
 30
0.0
 11
188.87
 21
25.9333
 31
0.0
  0
LINE
  8
0
 62
     0
 10
188.87
 20
25.9333
 30
0.0
 11
188.069
 21
25.9333
 31
0.0
  0
LINE
  8
0
 62
     0
 10
188.069
 20
25.9333
 30
0.0
 11
188.069
 21
31.7348
 31
0.0
  0
LINE
  8
0
 62
     0
 10
188.069
 20
31.7348
 30
0.0
 11
188.87
 21
31.7348
 31
0.0
  0
LINE
  8
0
 62
     0
 10
188.87
 20
31.7348
 30
0.0
 11
188.87
 21
34.8327
 31
0.0
  0
LINE
  8
0
 62
     0
 10
188.87
 20
34.8327
 30
0.0
 11
188.069
 21
34.8327
 31
0.0
  0
LINE
  8
0
 62
     0
 10
188.069
 20
34.8327
 30
0.0
 11
188.069
 21
35.833
 31
0.0
  0
LINE
  8
0
 62
     0
 10
188.069
 20
35.833
 30
0.0
 11
174.07
 21
35.833
 31
0.0
  0
LINE
  8
0
 62
     0
 10
193.12
 20
35.833
 30
0.0
 11
193.12
 21
34.8327
 31
0.0
  0
LINE
  8
0
 62
     0
 10
193.12
 20
34.8327
 30
0.0
 11
192.319
 21
34.8327
 31
0.0
  0
LINE
  8
0
 62
     0
 10
192.319
 20
34.8327
 30
0.0
 11
192.319
 21
31.7348
 31
0.0
  0
LINE
  8
0
 62
     0
 10
192.319
 20
31.7348
 30
0.0
 11
193.12
 21
31.7348
 31
0.0
  0
LINE
  8
0
 62
     0
 10
193.12
 20
31.7348
 30
0.0
 11
193.12
 21
25.9333
 31
0.0
  0
LINE
  8
0
 62
     0
 10
193.12
 20
25.9333
 30
0.0
 11
192.319
 21
25.9333
 31
0.0
  0
LINE
  8
0
 62
     0
 10
192.319
 20
25.9333
 30
0.0
 11
192.319
 21
22.8327
 31
0.0
  0
LINE
  8
0
 62
     0
 10
192.319
 20
22.8327
 30
0.0
 11
193.12
 21
22.8327
 31
0.0
  0
LINE
  8
0
 62
     0
 10
193.12
 20
22.8327
 30
0.0
 11
193.12
 21
21.8336
 31
0.0
  0
LINE
  8
0
 62
     0
 10
193.12
 20
21.8336
 30
0.0
 11
207.119
 21
21.8336
 31
0.0
  0
LINE
  8
0
 62
     0
 10
207.119
 20
21.8336
 30
0.0
 11
207.119
 21
22.8327
 31
0.0
  0
LINE
  8
0
 62
     0
 10
207.119
 20
22.8327
 30
0.0
 11
207.92
 21
22.8327
 31
0.0
  0
LINE
  8
0
 62
     0
 10
207.92
 20
22.8327
 30
0.0
 11
207.92
 21
25.9333
 31
0.0
  0
LINE
  8
0
 62
     0
 10
207.92
 20
25.9333
 30
0.0
 11
207.119
 21
25.9333
 31
0.0
  0
LINE
  8
0
 62
     0
 10
207.119
 20
25.9333
 30
0.0
 11
207.119
 21
31.7348
 31
0.0
  0
LINE
  8
0
 62
     0
 10
207.119
 20
31.7348
 30
0.0
 11
207.92
 21
31.7348
 31
0.0
  0
LINE
  8
0
 62
     0
 10
207.92
 20
31.7348
 30
0.0
 11
207.92
 21
34.8327
 31
0.0
  0
LINE
  8
0
 62
     0
 10
207.92
 20
34.8327
 30
0.0
 11
207.119
 21
34.8327
 31
0.0
  0
LINE
  8
0
 62
     0
 10
207.119
 20
34.8327
 30
0.0
 11
207.119
 21
35.833
 31
0.0
  0
LINE
  8
0
 62
     0
 10
207.119
 20
35.833
 30
0.0
 11
193.12
 21
35.833
 31
0.0
  0
LINE
  8
0
 62
     0
 10
212.17
 20
35.833
 30
0.0
 11
212.17
 21
34.8327
 31
0.0
  0
LINE
  8
0
 62
     0
 10
212.17
 20
34.8327
 30
0.0
 11
211.369
 21
34.8327
 31
0.0
  0
LINE
  8
0
 62
     0
 10
211.369
 20
34.8327
 30
0.0
 11
211.369
 21
31.7348
 31
0.0
  0
LINE
  8
0
 62
     0
 10
211.369
 20
31.7348
 30
0.0
 11
212.17
 21
31.7348
 31
0.0
  0
LINE
  8
0
 62
     0
 10
212.17
 20
31.7348
 30
0.0
 11
212.17
 21
25.9333
 31
0.0
  0
LINE
  8
0
 62
     0
 10
212.17
 20
25.9333
 30
0.0
 11
211.369
 21
25.9333
 31
0.0
  0
LINE
  8
0
 62
     0
 10
211.369
 20
25.9333
 30
0.0
 11
211.369
 21
22.8327
 31
0.0
  0
LINE
  8
0
 62
     0
 10
211.369
 20
22.8327
 30
0.0
 11
212.17
 21
22.8327
 31
0.0
  0
LINE
  8
0
 62
     0
 10
212.17
 20
22.8327
 30
0.0
 11
212.17
 21
21.8336
 31
0.0
  0
LINE
  8
0
 62
     0
 10
212.17
 20
21.8336
 30
0.0
 11
226.169
 21
21.8336
 31
0.0
  0
LINE
  8
0
 62
     0
 10
226.169
 20
21.8336
 30
0.0
 11
226.169
 21
22.8327
 31
0.0
  0
LINE
  8
0
 62
     0
 10
226.169
 20
22.8327
 30
0.0
 11
226.97
 21
22.8327
 31
0.0
  0
LINE
  8
0
 62
     0
 10
226.97
 20
22.8327
 30
0.0
 11
226.97
 21
25.9333
 31
0.0
  0
LINE
  8
0
 62
     0
 10
226.97
 20
25.9333
 30
0.0
 11
226.169
 21
25.9333
 31
0.0
  0
LINE
  8
0
 62
     0
 10
226.169
 20
25.9333
 30
0.0
 11
226.169
 21
31.7348
 31
0.0
  0
LINE
  8
0
 62
     0
 10
226.169
 20
31.7348
 30
0.0
 11
226.97
 21
31.7348
 31
0.0
  0
LINE
  8
0
 62
     0
 10
226.97
 20
31.7348
 30
0.0
 11
226.97
 21
34.8327
 31
0.0
  0
LINE
  8
0
 62
     0
 10
226.97
 20
34.8327
 30
0.0
 11
226.169
 21
34.8327
 31
0.0
  0
LINE
  8
0
 62
     0
 10
226.169
 20
34.8327
 30
0.0
 11
226.169
 21
35.833
 31
0.0
  0
LINE
  8
0
 62
     0
 10
226.169
 20
35.833
 30
0.0
 11
212.17
 21
35.833
 31
0.0
  0
LINE
  8
0
 62
     0
 10
231.22
 20
35.833
 30
0.0
 11
231.22
 21
34.8327
 31
0.0
  0
LINE
  8
0
 62
     0
 10
231.22
 20
34.8327
 30
0.0
 11
230.419
 21
34.8327
 31
0.0
  0
LINE
  8
0
 62
     0
 10
230.419
 20
34.8327
 30
0.0
 11
230.419
 21
31.7348
 31
0.0
  0
LINE
  8
0
 62
     0
 10
230.419
 20
31.7348
 30
0.0
 11
231.22
 21
31.7348
 31
0.0
  0
LINE
  8
0
 62
     0
 10
231.22
 20
31.7348
 30
0.0
 11
231.22
 21
25.9333
 31
0.0
  0
LINE
  8
0
 62
     0
 10
231.22
 20
25.9333
 30
0.0
 11
230.419
 21
25.9333
 31
0.0
  0
LINE
  8
0
 62
     0
 10
230.419
 20
25.9333
 30
0.0
 11
230.419
 21
22.8327
 31
0.0
  0
LINE
  8
0
 62
     0
 10
230.419
 20
22.8327
 30
0.0
 11
231.22
 21
22.8327
 31
0.0
  0
LINE
  8
0
 62
     0
 10
231.22
 20
22.8327
 30
0.0
 11
231.22
 21
21.8336
 31
0.0
  0
LINE
  8
0
 62
     0
 10
231.22
 20
21.8336
 30
0.0
 11
245.219
 21
21.8336
 31
0.0
  0
LINE
  8
0
 62
     0
 10
245.219
 20
21.8336
 30
0.0
 11
245.219
 21
22.8327
 31
0.0
  0
LINE
  8
0
 62
     0
 10
245.219
 20
22.8327
 30
0.0
 11
246.02
 21
22.8327
 31
0.0
  0
LINE
  8
0
 62
     0
 10
246.02
 20
22.8327
 30
0.0
 11
246.02
 21
25.9333
 31
0.0
  0
LINE
  8
0
 62
     0
 10
246.02
 20
25.9333
 30
0.0
 11
245.219
 21
25.9333
 31
0.0
  0
LINE
  8
0
 62
     0
 10
245.219
 20
25.9333
 30
0.0
 11
245.219
 21
31.7348
 31
0.0
  0
LINE
  8
0
 62
     0
 10
245.219
 20
31.7348
 30
0.0
 11
246.02
 21
31.7348
 31
0.0
  0
LINE
  8
0
 62
     0
 10
246.02
 20
31.7348
 30
0.0
 11
246.02
 21
34.8327
 31
0.0
  0
LINE
  8
0
 62
     0
 10
246.02
 20
34.8327
 30
0.0
 11
245.219
 21
34.8327
 31
0.0
  0
LINE
  8
0
 62
     0
 10
245.219
 20
34.8327
 30
0.0
 11
245.219
 21
35.833
 31
0.0
  0
LINE
  8
0
 62
     0
 10
245.219
 20
35.833
 30
0.0
 11
231.22
 21
35.833
 31
0.0
  0
LINE
  8
0
 62
     0
 10
7.38216
 20
54.8831
 30
0.0
 11
7.38216
 21
53.8826
 31
0.0
  0
LINE
  8
0
 62
     0
 10
7.38216
 20
53.8826
 30
0.0
 11
6.58153
 21
53.8826
 31
0.0
  0
LINE
  8
0
 62
     0
 10
6.58153
 20
53.8826
 30
0.0
 11
6.58153
 21
50.7834
 31
0.0
  0
LINE
  8
0
 62
     0
 10
6.58153
 20
50.7834
 30
0.0
 11
7.38216
 21
50.7834
 31
0.0
  0
LINE
  8
0
 62
     0
 10
7.38216
 20
50.7834
 30
0.0
 11
7.38216
 21
44.9834
 31
0.0
  0
LINE
  8
0
 62
     0
 10
7.38216
 20
44.9834
 30
0.0
 11
6.58153
 21
44.9834
 31
0.0
  0
LINE
  8
0
 62
     0
 10
6.58153
 20
44.9834
 30
0.0
 11
6.58153
 21
41.8828
 31
0.0
  0
LINE
  8
0
 62
     0
 10
6.58153
 20
41.8828
 30
0.0
 11
7.38216
 21
41.8828
 31
0.0
  0
LINE
  8
0
 62
     0
 10
7.38216
 20
41.8828
 30
0.0
 11
7.38216
 21
40.8838
 31
0.0
  0
LINE
  8
0
 62
     0
 10
7.38216
 20
40.8838
 30
0.0
 11
21.3817
 21
40.8838
 31
0.0
  0
LINE
  8
0
 62
     0
 10
21.3817
 20
40.8838
 30
0.0
 11
21.3817
 21
41.8828
 31
0.0
  0
LINE
  8
0
 62
     0
 10
21.3817
 20
41.8828
 30
0.0
 11
22.1809
 21
41.8828
 31
0.0
  0
LINE
  8
0
 62
     0
 10
22.1809
 20
41.8828
 30
0.0
 11
22.1809
 21
44.9834
 31
0.0
  0
LINE
  8
0
 62
     0
 10
22.1809
 20
44.9834
 30
0.0
 11
21.3817
 21
44.9834
 31
0.0
  0
LINE
  8
0
 62
     0
 10
21.3817
 20
44.9834
 30
0.0
 11
21.3817
 21
50.7834
 31
0.0
  0
LINE
  8
0
 62
     0
 10
21.3817
 20
50.7834
 30
0.0
 11
22.1809
 21
50.7834
 31
0.0
  0
LINE
  8
0
 62
     0
 10
22.1809
 20
50.7834
 30
0.0
 11
22.1809
 21
53.8826
 31
0.0
  0
LINE
  8
0
 62
     0
 10
22.1809
 20
53.8826
 30
0.0
 11
21.3817
 21
53.8826
 31
0.0
  0
LINE
  8
0
 62
     0
 10
21.3817
 20
53.8826
 30
0.0
 11
21.3817
 21
54.8831
 31
0.0
  0
LINE
  8
0
 62
     0
 10
21.3817
 20
54.8831
 30
0.0
 11
7.38216
 21
54.8831
 31
0.0
  0
LINE
  8
0
 62
     0
 10
31.1947
 20
54.8831
 30
0.0
 11
31.1947
 21
53.8826
 31
0.0
  0
LINE
  8
0
 62
     0
 10
31.1947
 20
53.8826
 30
0.0
 11
30.394
 21
53.8826
 31
0.0
  0
LINE
  8
0
 62
     0
 10
30.394
 20
53.8826
 30
0.0
 11
30.394
 21
50.7834
 31
0.0
  0
LINE
  8
0
 62
     0
 10
30.394
 20
50.7834
 30
0.0
 11
31.1947
 21
50.7834
 31
0.0
  0
LINE
  8
0
 62
     0
 10
31.1947
 20
50.7834
 30
0.0
 11
31.1947
 21
44.9834
 31
0.0
  0
LINE
  8
0
 62
     0
 10
31.1947
 20
44.9834
 30
0.0
 11
30.394
 21
44.9834
 31
0.0
  0
LINE
  8
0
 62
     0
 10
30.394
 20
44.9834
 30
0.0
 11
30.394
 21
41.8828
 31
0.0
  0
LINE
  8
0
 62
     0
 10
30.394
 20
41.8828
 30
0.0
 11
31.1947
 21
41.8828
 31
0.0
  0
LINE
  8
0
 62
     0
 10
31.1947
 20
41.8828
 30
0.0
 11
31.1947
 21
40.8838
 31
0.0
  0
LINE
  8
0
 62
     0
 10
31.1947
 20
40.8838
 30
0.0
 11
45.194
 21
40.8838
 31
0.0
  0
LINE
  8
0
 62
     0
 10
45.194
 20
40.8838
 30
0.0
 11
45.194
 21
41.8828
 31
0.0
  0
LINE
  8
0
 62
     0
 10
45.194
 20
41.8828
 30
0.0
 11
45.9948
 21
41.8828
 31
0.0
  0
LINE
  8
0
 62
     0
 10
45.9948
 20
41.8828
 30
0.0
 11
45.9948
 21
44.9834
 31
0.0
  0
LINE
  8
0
 62
     0
 10
45.9948
 20
44.9834
 30
0.0
 11
45.194
 21
44.9834
 31
0.0
  0
LINE
  8
0
 62
     0
 10
45.194
 20
44.9834
 30
0.0
 11
45.194
 21
50.7834
 31
0.0
  0
LINE
  8
0
 62
     0
 10
45.194
 20
50.7834
 30
0.0
 11
45.9948
 21
50.7834
 31
0.0
  0
LINE
  8
0
 62
     0
 10
45.9948
 20
50.7834
 30
0.0
 11
45.9948
 21
53.8826
 31
0.0
  0
LINE
  8
0
 62
     0
 10
45.9948
 20
53.8826
 30
0.0
 11
45.194
 21
53.8826
 31
0.0
  0
LINE
  8
0
 62
     0
 10
45.194
 20
53.8826
 30
0.0
 11
45.194
 21
54.8831
 31
0.0
  0
LINE
  8
0
 62
     0
 10
45.194
 20
54.8831
 30
0.0
 11
31.1947
 21
54.8831
 31
0.0
  0
LINE
  8
0
 62
     0
 10
50.2447
 20
54.8831
 30
0.0
 11
50.2447
 21
53.8826
 31
0.0
  0
LINE
  8
0
 62
     0
 10
50.2447
 20
53.8826
 30
0.0
 11
49.4439
 21
53.8826
 31
0.0
  0
LINE
  8
0
 62
     0
 10
49.4439
 20
53.8826
 30
0.0
 11
49.4439
 21
50.7834
 31
0.0
  0
LINE
  8
0
 62
     0
 10
49.4439
 20
50.7834
 30
0.0
 11
50.2447
 21
50.7834
 31
0.0
  0
LINE
  8
0
 62
     0
 10
50.2447
 20
50.7834
 30
0.0
 11
50.2447
 21
44.9834
 31
0.0
  0
LINE
  8
0
 62
     0
 10
50.2447
 20
44.9834
 30
0.0
 11
49.4439
 21
44.9834
 31
0.0
  0
LINE
  8
0
 62
     0
 10
49.4439
 20
44.9834
 30
0.0
 11
49.4439
 21
41.8828
 31
0.0
  0
LINE
  8
0
 62
     0
 10
49.4439
 20
41.8828
 30
0.0
 11
50.2447
 21
41.8828
 31
0.0
  0
LINE
  8
0
 62
     0
 10
50.2447
 20
41.8828
 30
0.0
 11
50.2447
 21
40.8838
 31
0.0
  0
LINE
  8
0
 62
     0
 10
50.2447
 20
40.8838
 30
0.0
 11
64.244
 21
40.8838
 31
0.0
  0
LINE
  8
0
 62
     0
 10
64.244
 20
40.8838
 30
0.0
 11
64.244
 21
41.8828
 31
0.0
  0
LINE
  8
0
 62
     0
 10
64.244
 20
41.8828
 30
0.0
 11
65.0448
 21
41.8828
 31
0.0
  0
LINE
  8
0
 62
     0
 10
65.0448
 20
41.8828
 30
0.0
 11
65.0448
 21
44.9834
 31
0.0
  0
LINE
  8
0
 62
     0
 10
65.0448
 20
44.9834
 30
0.0
 11
64.244
 21
44.9834
 31
0.0
  0
LINE
  8
0
 62
     0
 10
64.244
 20
44.9834
 30
0.0
 11
64.244
 21
50.7834
 31
0.0
  0
LINE
  8
0
 62
     0
 10
64.244
 20
50.7834
 30
0.0
 11
65.0448
 21
50.7834
 31
0.0
  0
LINE
  8
0
 62
     0
 10
65.0448
 20
50.7834
 30
0.0
 11
65.0448
 21
53.8826
 31
0.0
  0
LINE
  8
0
 62
     0
 10
65.0448
 20
53.8826
 30
0.0
 11
64.244
 21
53.8826
 31
0.0
  0
LINE
  8
0
 62
     0
 10
64.244
 20
53.8826
 30
0.0
 11
64.244
 21
54.8831
 31
0.0
  0
LINE
  8
0
 62
     0
 10
64.244
 20
54.8831
 30
0.0
 11
50.2447
 21
54.8831
 31
0.0
  0
LINE
  8
0
 62
     0
 10
69.2947
 20
54.8831
 30
0.0
 11
69.2947
 21
53.8826
 31
0.0
  0
LINE
  8
0
 62
     0
 10
69.2947
 20
53.8826
 30
0.0
 11
68.4939
 21
53.8826
 31
0.0
  0
LINE
  8
0
 62
     0
 10
68.4939
 20
53.8826
 30
0.0
 11
68.4939
 21
50.7834
 31
0.0
  0
LINE
  8
0
 62
     0
 10
68.4939
 20
50.7834
 30
0.0
 11
69.2947
 21
50.7834
 31
0.0
  0
LINE
  8
0
 62
     0
 10
69.2947
 20
50.7834
 30
0.0
 11
69.2947
 21
44.9834
 31
0.0
  0
LINE
  8
0
 62
     0
 10
69.2947
 20
44.9834
 30
0.0
 11
68.4939
 21
44.9834
 31
0.0
  0
LINE
  8
0
 62
     0
 10
68.4939
 20
44.9834
 30
0.0
 11
68.4939
 21
41.8828
 31
0.0
  0
LINE
  8
0
 62
     0
 10
68.4939
 20
41.8828
 30
0.0
 11
69.2947
 21
41.8828
 31
0.0
  0
LINE
  8
0
 62
     0
 10
69.2947
 20
41.8828
 30
0.0
 11
69.2947
 21
40.8838
 31
0.0
  0
LINE
  8
0
 62
     0
 10
69.2947
 20
40.8838
 30
0.0
 11
83.294
 21
40.8838
 31
0.0
  0
LINE
  8
0
 62
     0
 10
83.294
 20
40.8838
 30
0.0
 11
83.294
 21
41.8828
 31
0.0
  0
LINE
  8
0
 62
     0
 10
83.294
 20
41.8828
 30
0.0
 11
84.0948
 21
41.8828
 31
0.0
  0
LINE
  8
0
 62
     0
 10
84.0948
 20
41.8828
 30
0.0
 11
84.0948
 21
44.9834
 31
0.0
  0
LINE
  8
0
 62
     0
 10
84.0948
 20
44.9834
 30
0.0
 11
83.294
 21
44.9834
 31
0.0
  0
LINE
  8
0
 62
     0
 10
83.294
 20
44.9834
 30
0.0
 11
83.294
 21
50.7834
 31
0.0
  0
LINE
  8
0
 62
     0
 10
83.294
 20
50.7834
 30
0.0
 11
84.0948
 21
50.7834
 31
0.0
  0
LINE
  8
0
 62
     0
 10
84.0948
 20
50.7834
 30
0.0
 11
84.0948
 21
53.8826
 31
0.0
  0
LINE
  8
0
 62
     0
 10
84.0948
 20
53.8826
 30
0.0
 11
83.294
 21
53.8826
 31
0.0
  0
LINE
  8
0
 62
     0
 10
83.294
 20
53.8826
 30
0.0
 11
83.294
 21
54.8831
 31
0.0
  0
LINE
  8
0
 62
     0
 10
83.294
 20
54.8831
 30
0.0
 11
69.2947
 21
54.8831
 31
0.0
  0
LINE
  8
0
 62
     0
 10
88.3447
 20
54.8831
 30
0.0
 11
88.3447
 21
53.8826
 31
0.0
  0
LINE
  8
0
 62
     0
 10
88.3447
 20
53.8826
 30
0.0
 11
87.5439
 21
53.8826
 31
0.0
  0
LINE
  8
0
 62
     0
 10
87.5439
 20
53.8826
 30
0.0
 11
87.5439
 21
50.7834
 31
0.0
  0
LINE
  8
0
 62
     0
 10
87.5439
 20
50.7834
 30
0.0
 11
88.3447
 21
50.7834
 31
0.0
  0
LINE
  8
0
 62
     0
 10
88.3447
 20
50.7834
 30
0.0
 11
88.3447
 21
44.9834
 31
0.0
  0
LINE
  8
0
 62
     0
 10
88.3447
 20
44.9834
 30
0.0
 11
87.5439
 21
44.9834
 31
0.0
  0
LINE
  8
0
 62
     0
 10
87.5439
 20
44.9834
 30
0.0
 11
87.5439
 21
41.8828
 31
0.0
  0
LINE
  8
0
 62
     0
 10
87.5439
 20
41.8828
 30
0.0
 11
88.3447
 21
41.8828
 31
0.0
  0
LINE
  8
0
 62
     0
 10
88.3447
 20
41.8828
 30
0.0
 11
88.3447
 21
40.8838
 31
0.0
  0
LINE
  8
0
 62
     0
 10
88.3447
 20
40.8838
 30
0.0
 11
102.344
 21
40.8838
 31
0.0
  0
LINE
  8
0
 62
     0
 10
102.344
 20
40.8838
 30
0.0
 11
102.344
 21
41.8828
 31
0.0
  0
LINE
  8
0
 62
     0
 10
102.344
 20
41.8828
 30
0.0
 11
103.145
 21
41.8828
 31
0.0
  0
LINE
  8
0
 62
     0
 10
103.145
 20
41.8828
 30
0.0
 11
103.145
 21
44.9834
 31
0.0
  0
LINE
  8
0
 62
     0
 10
103.145
 20
44.9834
 30
0.0
 11
102.344
 21
44.9834
 31
0.0
  0
LINE
  8
0
 62
     0
 10
102.344
 20
44.9834
 30
0.0
 11
102.344
 21
50.7834
 31
0.0
  0
LINE
  8
0
 62
     0
 10
102.344
 20
50.7834
 30
0.0
 11
103.145
 21
50.7834
 31
0.0
  0
LINE
  8
0
 62
     0
 10
103.145
 20
50.7834
 30
0.0
 11
103.145
 21
53.8826
 31
0.0
  0
LINE
  8
0
 62
     0
 10
103.145
 20
53.8826
 30
0.0
 11
102.344
 21
53.8826
 31
0.0
  0
LINE
  8
0
 62
     0
 10
102.344
 20
53.8826
 30
0.0
 11
102.344
 21
54.8831
 31
0.0
  0
LINE
  8
0
 62
     0
 10
102.344
 20
54.8831
 30
0.0
 11
88.3447
 21
54.8831
 31
0.0
  0
LINE
  8
0
 62
     0
 10
107.395
 20
54.8831
 30
0.0
 11
107.395
 21
53.8826
 31
0.0
  0
LINE
  8
0
 62
     0
 10
107.395
 20
53.8826
 30
0.0
 11
106.594
 21
53.8826
 31
0.0
  0
LINE
  8
0
 62
     0
 10
106.594
 20
53.8826
 30
0.0
 11
106.594
 21
50.7834
 31
0.0
  0
LINE
  8
0
 62
     0
 10
106.594
 20
50.7834
 30
0.0
 11
107.395
 21
50.7834
 31
0.0
  0
LINE
  8
0
 62
     0
 10
107.395
 20
50.7834
 30
0.0
 11
107.395
 21
44.9834
 31
0.0
  0
LINE
  8
0
 62
     0
 10
107.395
 20
44.9834
 30
0.0
 11
106.594
 21
44.9834
 31
0.0
  0
LINE
  8
0
 62
     0
 10
106.594
 20
44.9834
 30
0.0
 11
106.594
 21
41.8828
 31
0.0
  0
LINE
  8
0
 62
     0
 10
106.594
 20
41.8828
 30
0.0
 11
107.395
 21
41.8828
 31
0.0
  0
LINE
  8
0
 62
     0
 10
107.395
 20
41.8828
 30
0.0
 11
107.395
 21
40.8838
 31
0.0
  0
LINE
  8
0
 62
     0
 10
107.395
 20
40.8838
 30
0.0
 11
121.394
 21
40.8838
 31
0.0
  0
LINE
  8
0
 62
     0
 10
121.394
 20
40.8838
 30
0.0
 11
121.394
 21
41.8828
 31
0.0
  0
LINE
  8
0
 62
     0
 10
121.394
 20
41.8828
 30
0.0
 11
122.195
 21
41.8828
 31
0.0
  0
LINE
  8
0
 62
     0
 10
122.195
 20
41.8828
 30
0.0
 11
122.195
 21
44.9834
 31
0.0
  0
LINE
  8
0
 62
     0
 10
122.195
 20
44.9834
 30
0.0
 11
121.394
 21
44.9834
 31
0.0
  0
LINE
  8
0
 62
     0
 10
121.394
 20
44.9834
 30
0.0
 11
121.394
 21
50.7834
 31
0.0
  0
LINE
  8
0
 62
     0
 10
121.394
 20
50.7834
 30
0.0
 11
122.195
 21
50.7834
 31
0.0
  0
LINE
  8
0
 62
     0
 10
122.195
 20
50.7834
 30
0.0
 11
122.195
 21
53.8826
 31
0.0
  0
LINE
  8
0
 62
     0
 10
122.195
 20
53.8826
 30
0.0
 11
121.394
 21
53.8826
 31
0.0
  0
LINE
  8
0
 62
     0
 10
121.394
 20
53.8826
 30
0.0
 11
121.394
 21
54.8831
 31
0.0
  0
LINE
  8
0
 62
     0
 10
121.394
 20
54.8831
 30
0.0
 11
107.395
 21
54.8831
 31
0.0
  0
LINE
  8
0
 62
     0
 10
126.445
 20
54.8831
 30
0.0
 11
126.445
 21
53.8826
 31
0.0
  0
LINE
  8
0
 62
     0
 10
126.445
 20
53.8826
 30
0.0
 11
125.644
 21
53.8826
 31
0.0
  0
LINE
  8
0
 62
     0
 10
125.644
 20
53.8826
 30
0.0
 11
125.644
 21
50.7834
 31
0.0
  0
LINE
  8
0
 62
     0
 10
125.644
 20
50.7834
 30
0.0
 11
126.445
 21
50.7834
 31
0.0
  0
LINE
  8
0
 62
     0
 10
126.445
 20
50.7834
 30
0.0
 11
126.445
 21
44.9834
 31
0.0
  0
LINE
  8
0
 62
     0
 10
126.445
 20
44.9834
 30
0.0
 11
125.644
 21
44.9834
 31
0.0
  0
LINE
  8
0
 62
     0
 10
125.644
 20
44.9834
 30
0.0
 11
125.644
 21
41.8828
 31
0.0
  0
LINE
  8
0
 62
     0
 10
125.644
 20
41.8828
 30
0.0
 11
126.445
 21
41.8828
 31
0.0
  0
LINE
  8
0
 62
     0
 10
126.445
 20
41.8828
 30
0.0
 11
126.445
 21
40.8838
 31
0.0
  0
LINE
  8
0
 62
     0
 10
126.445
 20
40.8838
 30
0.0
 11
140.444
 21
40.8838
 31
0.0
  0
LINE
  8
0
 62
     0
 10
140.444
 20
40.8838
 30
0.0
 11
140.444
 21
41.8828
 31
0.0
  0
LINE
  8
0
 62
     0
 10
140.444
 20
41.8828
 30
0.0
 11
141.245
 21
41.8828
 31
0.0
  0
LINE
  8
0
 62
     0
 10
141.245
 20
41.8828
 30
0.0
 11
141.245
 21
44.9834
 31
0.0
  0
LINE
  8
0
 62
     0
 10
141.245
 20
44.9834
 30
0.0
 11
140.444
 21
44.9834
 31
0.0
  0
LINE
  8
0
 62
     0
 10
140.444
 20
44.9834
 30
0.0
 11
140.444
 21
50.7834
 31
0.0
  0
LINE
  8
0
 62
     0
 10
140.444
 20
50.7834
 30
0.0
 11
141.245
 21
50.7834
 31
0.0
  0
LINE
  8
0
 62
     0
 10
141.245
 20
50.7834
 30
0.0
 11
141.245
 21
53.8826
 31
0.0
  0
LINE
  8
0
 62
     0
 10
141.245
 20
53.8826
 30
0.0
 11
140.444
 21
53.8826
 31
0.0
  0
LINE
  8
0
 62
     0
 10
140.444
 20
53.8826
 30
0.0
 11
140.444
 21
54.8831
 31
0.0
  0
LINE
  8
0
 62
     0
 10
140.444
 20
54.8831
 30
0.0
 11
126.445
 21
54.8831
 31
0.0
  0
LINE
  8
0
 62
     0
 10
145.495
 20
54.8831
 30
0.0
 11
145.495
 21
53.8826
 31
0.0
  0
LINE
  8
0
 62
     0
 10
145.495
 20
53.8826
 30
0.0
 11
144.694
 21
53.8826
 31
0.0
  0
LINE
  8
0
 62
     0
 10
144.694
 20
53.8826
 30
0.0
 11
144.694
 21
50.7834
 31
0.0
  0
LINE
  8
0
 62
     0
 10
144.694
 20
50.7834
 30
0.0
 11
145.495
 21
50.7834
 31
0.0
  0
LINE
  8
0
 62
     0
 10
145.495
 20
50.7834
 30
0.0
 11
145.495
 21
44.9834
 31
0.0
  0
LINE
  8
0
 62
     0
 10
145.495
 20
44.9834
 30
0.0
 11
144.694
 21
44.9834
 31
0.0
  0
LINE
  8
0
 62
     0
 10
144.694
 20
44.9834
 30
0.0
 11
144.694
 21
41.8828
 31
0.0
  0
LINE
  8
0
 62
     0
 10
144.694
 20
41.8828
 30
0.0
 11
145.495
 21
41.8828
 31
0.0
  0
LINE
  8
0
 62
     0
 10
145.495
 20
41.8828
 30
0.0
 11
145.495
 21
40.8838
 31
0.0
  0
LINE
  8
0
 62
     0
 10
145.495
 20
40.8838
 30
0.0
 11
159.494
 21
40.8838
 31
0.0
  0
LINE
  8
0
 62
     0
 10
159.494
 20
40.8838
 30
0.0
 11
159.494
 21
41.8828
 31
0.0
  0
LINE
  8
0
 62
     0
 10
159.494
 20
41.8828
 30
0.0
 11
160.295
 21
41.8828
 31
0.0
  0
LINE
  8
0
 62
     0
 10
160.295
 20
41.8828
 30
0.0
 11
160.295
 21
44.9834
 31
0.0
  0
LINE
  8
0
 62
     0
 10
160.295
 20
44.9834
 30
0.0
 11
159.494
 21
44.9834
 31
0.0
  0
LINE
  8
0
 62
     0
 10
159.494
 20
44.9834
 30
0.0
 11
159.494
 21
50.7834
 31
0.0
  0
LINE
  8
0
 62
     0
 10
159.494
 20
50.7834
 30
0.0
 11
160.295
 21
50.7834
 31
0.0
  0
LINE
  8
0
 62
     0
 10
160.295
 20
50.7834
 30
0.0
 11
160.295
 21
53.8826
 31
0.0
  0
LINE
  8
0
 62
     0
 10
160.295
 20
53.8826
 30
0.0
 11
159.494
 21
53.8826
 31
0.0
  0
LINE
  8
0
 62
     0
 10
159.494
 20
53.8826
 30
0.0
 11
159.494
 21
54.8831
 31
0.0
  0
LINE
  8
0
 62
     0
 10
159.494
 20
54.8831
 30
0.0
 11
145.495
 21
54.8831
 31
0.0
  0
LINE
  8
0
 62
     0
 10
164.545
 20
54.8831
 30
0.0
 11
164.545
 21
53.8826
 31
0.0
  0
LINE
  8
0
 62
     0
 10
164.545
 20
53.8826
 30
0.0
 11
163.744
 21
53.8826
 31
0.0
  0
LINE
  8
0
 62
     0
 10
163.744
 20
53.8826
 30
0.0
 11
163.744
 21
50.7834
 31
0.0
  0
LINE
  8
0
 62
     0
 10
163.744
 20
50.7834
 30
0.0
 11
164.545
 21
50.7834
 31
0.0
  0
LINE
  8
0
 62
     0
 10
164.545
 20
50.7834
 30
0.0
 11
164.545
 21
44.9834
 31
0.0
  0
LINE
  8
0
 62
     0
 10
164.545
 20
44.9834
 30
0.0
 11
163.744
 21
44.9834
 31
0.0
  0
LINE
  8
0
 62
     0
 10
163.744
 20
44.9834
 30
0.0
 11
163.744
 21
41.8828
 31
0.0
  0
LINE
  8
0
 62
     0
 10
163.744
 20
41.8828
 30
0.0
 11
164.545
 21
41.8828
 31
0.0
  0
LINE
  8
0
 62
     0
 10
164.545
 20
41.8828
 30
0.0
 11
164.545
 21
40.8838
 31
0.0
  0
LINE
  8
0
 62
     0
 10
164.545
 20
40.8838
 30
0.0
 11
178.544
 21
40.8838
 31
0.0
  0
LINE
  8
0
 62
     0
 10
178.544
 20
40.8838
 30
0.0
 11
178.544
 21
41.8828
 31
0.0
  0
LINE
  8
0
 62
     0
 10
178.544
 20
41.8828
 30
0.0
 11
179.345
 21
41.8828
 31
0.0
  0
LINE
  8
0
 62
     0
 10
179.345
 20
41.8828
 30
0.0
 11
179.345
 21
44.9834
 31
0.0
  0
LINE
  8
0
 62
     0
 10
179.345
 20
44.9834
 30
0.0
 11
178.544
 21
44.9834
 31
0.0
  0
LINE
  8
0
 62
     0
 10
178.544
 20
44.9834
 30
0.0
 11
178.544
 21
50.7834
 31
0.0
  0
LINE
  8
0
 62
     0
 10
178.544
 20
50.7834
 30
0.0
 11
179.345
 21
50.7834
 31
0.0
  0
LINE
  8
0
 62
     0
 10
179.345
 20
50.7834
 30
0.0
 11
179.345
 21
53.8826
 31
0.0
  0
LINE
  8
0
 62
     0
 10
179.345
 20
53.8826
 30
0.0
 11
178.544
 21
53.8826
 31
0.0
  0
LINE
  8
0
 62
     0
 10
178.544
 20
53.8826
 30
0.0
 11
178.544
 21
54.8831
 31
0.0
  0
LINE
  8
0
 62
     0
 10
178.544
 20
54.8831
 30
0.0
 11
164.545
 21
54.8831
 31
0.0
  0
LINE
  8
0
 62
     0
 10
183.595
 20
54.8831
 30
0.0
 11
183.595
 21
53.8826
 31
0.0
  0
LINE
  8
0
 62
     0
 10
183.595
 20
53.8826
 30
0.0
 11
182.794
 21
53.8826
 31
0.0
  0
LINE
  8
0
 62
     0
 10
182.794
 20
53.8826
 30
0.0
 11
182.794
 21
50.7834
 31
0.0
  0
LINE
  8
0
 62
     0
 10
182.794
 20
50.7834
 30
0.0
 11
183.595
 21
50.7834
 31
0.0
  0
LINE
  8
0
 62
     0
 10
183.595
 20
50.7834
 30
0.0
 11
183.595
 21
44.9834
 31
0.0
  0
LINE
  8
0
 62
     0
 10
183.595
 20
44.9834
 30
0.0
 11
182.794
 21
44.9834
 31
0.0
  0
LINE
  8
0
 62
     0
 10
182.794
 20
44.9834
 30
0.0
 11
182.794
 21
41.8828
 31
0.0
  0
LINE
  8
0
 62
     0
 10
182.794
 20
41.8828
 30
0.0
 11
183.595
 21
41.8828
 31
0.0
  0
LINE
  8
0
 62
     0
 10
183.595
 20
41.8828
 30
0.0
 11
183.595
 21
40.8838
 31
0.0
  0
LINE
  8
0
 62
     0
 10
183.595
 20
40.8838
 30
0.0
 11
197.594
 21
40.8838
 31
0.0
  0
LINE
  8
0
 62
     0
 10
197.594
 20
40.8838
 30
0.0
 11
197.594
 21
41.8828
 31
0.0
  0
LINE
  8
0
 62
     0
 10
197.594
 20
41.8828
 30
0.0
 11
198.395
 21
41.8828
 31
0.0
  0
LINE
  8
0
 62
     0
 10
198.395
 20
41.8828
 30
0.0
 11
198.395
 21
44.9834
 31
0.0
  0
LINE
  8
0
 62
     0
 10
198.395
 20
44.9834
 30
0.0
 11
197.594
 21
44.9834
 31
0.0
  0
LINE
  8
0
 62
     0
 10
197.594
 20
44.9834
 30
0.0
 11
197.594
 21
50.7834
 31
0.0
  0
LINE
  8
0
 62
     0
 10
197.594
 20
50.7834
 30
0.0
 11
198.395
 21
50.7834
 31
0.0
  0
LINE
  8
0
 62
     0
 10
198.395
 20
50.7834
 30
0.0
 11
198.395
 21
53.8826
 31
0.0
  0
LINE
  8
0
 62
     0
 10
198.395
 20
53.8826
 30
0.0
 11
197.594
 21
53.8826
 31
0.0
  0
LINE
  8
0
 62
     0
 10
197.594
 20
53.8826
 30
0.0
 11
197.594
 21
54.8831
 31
0.0
  0
LINE
  8
0
 62
     0
 10
197.594
 20
54.8831
 30
0.0
 11
183.595
 21
54.8831
 31
0.0
  0
LINE
  8
0
 62
     0
 10
202.645
 20
54.8831
 30
0.0
 11
202.645
 21
53.8826
 31
0.0
  0
LINE
  8
0
 62
     0
 10
202.645
 20
53.8826
 30
0.0
 11
201.844
 21
53.8826
 31
0.0
  0
LINE
  8
0
 62
     0
 10
201.844
 20
53.8826
 30
0.0
 11
201.844
 21
50.7834
 31
0.0
  0
LINE
  8
0
 62
     0
 10
201.844
 20
50.7834
 30
0.0
 11
202.645
 21
50.7834
 31
0.0
  0
LINE
  8
0
 62
     0
 10
202.645
 20
50.7834
 30
0.0
 11
202.645
 21
44.9834
 31
0.0
  0
LINE
  8
0
 62
     0
 10
202.645
 20
44.9834
 30
0.0
 11
201.844
 21
44.9834
 31
0.0
  0
LINE
  8
0
 62
     0
 10
201.844
 20
44.9834
 30
0.0
 11
201.844
 21
41.8828
 31
0.0
  0
LINE
  8
0
 62
     0
 10
201.844
 20
41.8828
 30
0.0
 11
202.645
 21
41.8828
 31
0.0
  0
LINE
  8
0
 62
     0
 10
202.645
 20
41.8828
 30
0.0
 11
202.645
 21
40.8838
 31
0.0
  0
LINE
  8
0
 62
     0
 10
202.645
 20
40.8838
 30
0.0
 11
216.644
 21
40.8838
 31
0.0
  0
LINE
  8
0
 62
     0
 10
216.644
 20
40.8838
 30
0.0
 11
216.644
 21
41.8828
 31
0.0
  0
LINE
  8
0
 62
     0
 10
216.644
 20
41.8828
 30
0.0
 11
217.445
 21
41.8828
 31
0.0
  0
LINE
  8
0
 62
     0
 10
217.445
 20
41.8828
 30
0.0
 11
217.445
 21
44.9834
 31
0.0
  0
LINE
  8
0
 62
     0
 10
217.445
 20
44.9834
 30
0.0
 11
216.644
 21
44.9834
 31
0.0
  0
LINE
  8
0
 62
     0
 10
216.644
 20
44.9834
 30
0.0
 11
216.644
 21
50.7834
 31
0.0
  0
LINE
  8
0
 62
     0
 10
216.644
 20
50.7834
 30
0.0
 11
217.445
 21
50.7834
 31
0.0
  0
LINE
  8
0
 62
     0
 10
217.445
 20
50.7834
 30
0.0
 11
217.445
 21
53.8826
 31
0.0
  0
LINE
  8
0
 62
     0
 10
217.445
 20
53.8826
 30
0.0
 11
216.644
 21
53.8826
 31
0.0
  0
LINE
  8
0
 62
     0
 10
216.644
 20
53.8826
 30
0.0
 11
216.644
 21
54.8831
 31
0.0
  0
LINE
  8
0
 62
     0
 10
216.644
 20
54.8831
 30
0.0
 11
202.645
 21
54.8831
 31
0.0
  0
LINE
  8
0
 62
     0
 10
226.457
 20
54.8831
 30
0.0
 11
226.457
 21
53.8826
 31
0.0
  0
LINE
  8
0
 62
     0
 10
226.457
 20
53.8826
 30
0.0
 11
225.656
 21
53.8826
 31
0.0
  0
LINE
  8
0
 62
     0
 10
225.656
 20
53.8826
 30
0.0
 11
225.656
 21
50.7834
 31
0.0
  0
LINE
  8
0
 62
     0
 10
225.656
 20
50.7834
 30
0.0
 11
226.457
 21
50.7834
 31
0.0
  0
LINE
  8
0
 62
     0
 10
226.457
 20
50.7834
 30
0.0
 11
226.457
 21
44.9834
 31
0.0
  0
LINE
  8
0
 62
     0
 10
226.457
 20
44.9834
 30
0.0
 11
225.656
 21
44.9834
 31
0.0
  0
LINE
  8
0
 62
     0
 10
225.656
 20
44.9834
 30
0.0
 11
225.656
 21
41.8828
 31
0.0
  0
LINE
  8
0
 62
     0
 10
225.656
 20
41.8828
 30
0.0
 11
226.457
 21
41.8828
 31
0.0
  0
LINE
  8
0
 62
     0
 10
226.457
 20
41.8828
 30
0.0
 11
226.457
 21
40.8838
 31
0.0
  0
LINE
  8
0
 62
     0
 10
226.457
 20
40.8838
 30
0.0
 11
240.457
 21
40.8838
 31
0.0
  0
LINE
  8
0
 62
     0
 10
240.457
 20
40.8838
 30
0.0
 11
240.457
 21
41.8828
 31
0.0
  0
LINE
  8
0
 62
     0
 10
240.457
 20
41.8828
 30
0.0
 11
241.256
 21
41.8828
 31
0.0
  0
LINE
  8
0
 62
     0
 10
241.256
 20
41.8828
 30
0.0
 11
241.256
 21
44.9834
 31
0.0
  0
LINE
  8
0
 62
     0
 10
241.256
 20
44.9834
 30
0.0
 11
240.457
 21
44.9834
 31
0.0
  0
LINE
  8
0
 62
     0
 10
240.457
 20
44.9834
 30
0.0
 11
240.457
 21
50.7834
 31
0.0
  0
LINE
  8
0
 62
     0
 10
240.457
 20
50.7834
 30
0.0
 11
241.256
 21
50.7834
 31
0.0
  0
LINE
  8
0
 62
     0
 10
241.256
 20
50.7834
 30
0.0
 11
241.256
 21
53.8826
 31
0.0
  0
LINE
  8
0
 62
     0
 10
241.256
 20
53.8826
 30
0.0
 11
240.457
 21
53.8826
 31
0.0
  0
LINE
  8
0
 62
     0
 10
240.457
 20
53.8826
 30
0.0
 11
240.457
 21
54.8831
 31
0.0
  0
LINE
  8
0
 62
     0
 10
240.457
 20
54.8831
 30
0.0
 11
226.457
 21
54.8831
 31
0.0
  0
LINE
  8
0
 62
     0
 10
5.00091
 20
73.9331
 30
0.0
 11
5.00091
 21
72.9326
 31
0.0
  0
LINE
  8
0
 62
     0
 10
5.00091
 20
72.9326
 30
0.0
 11
4.20028
 21
72.9326
 31
0.0
  0
LINE
  8
0
 62
     0
 10
4.20028
 20
72.9326
 30
0.0
 11
4.20028
 21
69.8334
 31
0.0
  0
LINE
  8
0
 62
     0
 10
4.20028
 20
69.8334
 30
0.0
 11
5.00091
 21
69.8334
 31
0.0
  0
LINE
  8
0
 62
     0
 10
5.00091
 20
69.8334
 30
0.0
 11
5.00091
 21
64.0334
 31
0.0
  0
LINE
  8
0
 62
     0
 10
5.00091
 20
64.0334
 30
0.0
 11
4.20028
 21
64.0334
 31
0.0
  0
LINE
  8
0
 62
     0
 10
4.20028
 20
64.0334
 30
0.0
 11
4.20028
 21
60.9328
 31
0.0
  0
LINE
  8
0
 62
     0
 10
4.20028
 20
60.9328
 30
0.0
 11
5.00091
 21
60.9328
 31
0.0
  0
LINE
  8
0
 62
     0
 10
5.00091
 20
60.9328
 30
0.0
 11
5.00091
 21
59.9338
 31
0.0
  0
LINE
  8
0
 62
     0
 10
5.00091
 20
59.9338
 30
0.0
 11
19.0004
 21
59.9338
 31
0.0
  0
LINE
  8
0
 62
     0
 10
19.0004
 20
59.9338
 30
0.0
 11
19.0004
 21
60.9328
 31
0.0
  0
LINE
  8
0
 62
     0
 10
19.0004
 20
60.9328
 30
0.0
 11
19.801
 21
60.9328
 31
0.0
  0
LINE
  8
0
 62
     0
 10
19.801
 20
60.9328
 30
0.0
 11
19.801
 21
64.0334
 31
0.0
  0
LINE
  8
0
 62
     0
 10
19.801
 20
64.0334
 30
0.0
 11
19.0004
 21
64.0334
 31
0.0
  0
LINE
  8
0
 62
     0
 10
19.0004
 20
64.0334
 30
0.0
 11
19.0004
 21
69.8334
 31
0.0
  0
LINE
  8
0
 62
     0
 10
19.0004
 20
69.8334
 30
0.0
 11
19.801
 21
69.8334
 31
0.0
  0
LINE
  8
0
 62
     0
 10
19.801
 20
69.8334
 30
0.0
 11
19.801
 21
72.9326
 31
0.0
  0
LINE
  8
0
 62
     0
 10
19.801
 20
72.9326
 30
0.0
 11
19.0004
 21
72.9326
 31
0.0
  0
LINE
  8
0
 62
     0
 10
19.0004
 20
72.9326
 30
0.0
 11
19.0004
 21
73.9331
 31
0.0
  0
LINE
  8
0
 62
     0
 10
19.0004
 20
73.9331
 30
0.0
 11
5.00091
 21
73.9331
 31
0.0
  0
LINE
  8
0
 62
     0
 10
26.4322
 20
73.9331
 30
0.0
 11
26.4322
 21
72.9326
 31
0.0
  0
LINE
  8
0
 62
     0
 10
26.4322
 20
72.9326
 30
0.0
 11
25.6315
 21
72.9326
 31
0.0
  0
LINE
  8
0
 62
     0
 10
25.6315
 20
72.9326
 30
0.0
 11
25.6315
 21
69.8334
 31
0.0
  0
LINE
  8
0
 62
     0
 10
25.6315
 20
69.8334
 30
0.0
 11
26.4322
 21
69.8334
 31
0.0
  0
LINE
  8
0
 62
     0
 10
26.4322
 20
69.8334
 30
0.0
 11
26.4322
 21
64.0334
 31
0.0
  0
LINE
  8
0
 62
     0
 10
26.4322
 20
64.0334
 30
0.0
 11
25.6315
 21
64.0334
 31
0.0
  0
LINE
  8
0
 62
     0
 10
25.6315
 20
64.0334
 30
0.0
 11
25.6315
 21
60.9328
 31
0.0
  0
LINE
  8
0
 62
     0
 10
25.6315
 20
60.9328
 30
0.0
 11
26.4322
 21
60.9328
 31
0.0
  0
LINE
  8
0
 62
     0
 10
26.4322
 20
60.9328
 30
0.0
 11
26.4322
 21
59.9338
 31
0.0
  0
LINE
  8
0
 62
     0
 10
26.4322
 20
59.9338
 30
0.0
 11
40.4315
 21
59.9338
 31
0.0
  0
LINE
  8
0
 62
     0
 10
40.4315
 20
59.9338
 30
0.0
 11
40.4315
 21
60.9328
 31
0.0
  0
LINE
  8
0
 62
     0
 10
40.4315
 20
60.9328
 30
0.0
 11
41.2309
 21
60.9328
 31
0.0
  0
LINE
  8
0
 62
     0
 10
41.2309
 20
60.9328
 30
0.0
 11
41.2309
 21
64.0334
 31
0.0
  0
LINE
  8
0
 62
     0
 10
41.2309
 20
64.0334
 30
0.0
 11
40.4315
 21
64.0334
 31
0.0
  0
LINE
  8
0
 62
     0
 10
40.4315
 20
64.0334
 30
0.0
 11
40.4315
 21
69.8334
 31
0.0
  0
LINE
  8
0
 62
     0
 10
40.4315
 20
69.8334
 30
0.0
 11
41.2309
 21
69.8334
 31
0.0
  0
LINE
  8
0
 62
     0
 10
41.2309
 20
69.8334
 30
0.0
 11
41.2309
 21
72.9326
 31
0.0
  0
LINE
  8
0
 62
     0
 10
41.2309
 20
72.9326
 30
0.0
 11
40.4315
 21
72.9326
 31
0.0
  0
LINE
  8
0
 62
     0
 10
40.4315
 20
72.9326
 30
0.0
 11
40.4315
 21
73.9331
 31
0.0
  0
LINE
  8
0
 62
     0
 10
40.4315
 20
73.9331
 30
0.0
 11
26.4322
 21
73.9331
 31
0.0
  0
LINE
  8
0
 62
     0
 10
45.4822
 20
73.9331
 30
0.0
 11
45.4822
 21
72.9326
 31
0.0
  0
LINE
  8
0
 62
     0
 10
45.4822
 20
72.9326
 30
0.0
 11
44.6814
 21
72.9326
 31
0.0
  0
LINE
  8
0
 62
     0
 10
44.6814
 20
72.9326
 30
0.0
 11
44.6814
 21
69.8334
 31
0.0
  0
LINE
  8
0
 62
     0
 10
44.6814
 20
69.8334
 30
0.0
 11
45.4822
 21
69.8334
 31
0.0
  0
LINE
  8
0
 62
     0
 10
45.4822
 20
69.8334
 30
0.0
 11
45.4822
 21
64.0334
 31
0.0
  0
LINE
  8
0
 62
     0
 10
45.4822
 20
64.0334
 30
0.0
 11
44.6814
 21
64.0334
 31
0.0
  0
LINE
  8
0
 62
     0
 10
44.6814
 20
64.0334
 30
0.0
 11
44.6814
 21
60.9328
 31
0.0
  0
LINE
  8
0
 62
     0
 10
44.6814
 20
60.9328
 30
0.0
 11
45.4822
 21
60.9328
 31
0.0
  0
LINE
  8
0
 62
     0
 10
45.4822
 20
60.9328
 30
0.0
 11
45.4822
 21
59.9338
 31
0.0
  0
LINE
  8
0
 62
     0
 10
45.4822
 20
59.9338
 30
0.0
 11
59.4815
 21
59.9338
 31
0.0
  0
LINE
  8
0
 62
     0
 10
59.4815
 20
59.9338
 30
0.0
 11
59.4815
 21
60.9328
 31
0.0
  0
LINE
  8
0
 62
     0
 10
59.4815
 20
60.9328
 30
0.0
 11
60.2809
 21
60.9328
 31
0.0
  0
LINE
  8
0
 62
     0
 10
60.2809
 20
60.9328
 30
0.0
 11
60.2809
 21
64.0334
 31
0.0
  0
LINE
  8
0
 62
     0
 10
60.2809
 20
64.0334
 30
0.0
 11
59.4815
 21
64.0334
 31
0.0
  0
LINE
  8
0
 62
     0
 10
59.4815
 20
64.0334
 30
0.0
 11
59.4815
 21
69.8334
 31
0.0
  0
LINE
  8
0
 62
     0
 10
59.4815
 20
69.8334
 30
0.0
 11
60.2809
 21
69.8334
 31
0.0
  0
LINE
  8
0
 62
     0
 10
60.2809
 20
69.8334
 30
0.0
 11
60.2809
 21
72.9326
 31
0.0
  0
LINE
  8
0
 62
     0
 10
60.2809
 20
72.9326
 30
0.0
 11
59.4815
 21
72.9326
 31
0.0
  0
LINE
  8
0
 62
     0
 10
59.4815
 20
72.9326
 30
0.0
 11
59.4815
 21
73.9331
 31
0.0
  0
LINE
  8
0
 62
     0
 10
59.4815
 20
73.9331
 30
0.0
 11
45.4822
 21
73.9331
 31
0.0
  0
LINE
  8
0
 62
     0
 10
64.5322
 20
73.9331
 30
0.0
 11
64.5322
 21
72.9326
 31
0.0
  0
LINE
  8
0
 62
     0
 10
64.5322
 20
72.9326
 30
0.0
 11
63.7314
 21
72.9326
 31
0.0
  0
LINE
  8
0
 62
     0
 10
63.7314
 20
72.9326
 30
0.0
 11
63.7314
 21
69.8334
 31
0.0
  0
LINE
  8
0
 62
     0
 10
63.7314
 20
69.8334
 30
0.0
 11
64.5322
 21
69.8334
 31
0.0
  0
LINE
  8
0
 62
     0
 10
64.5322
 20
69.8334
 30
0.0
 11
64.5322
 21
64.0334
 31
0.0
  0
LINE
  8
0
 62
     0
 10
64.5322
 20
64.0334
 30
0.0
 11
63.7314
 21
64.0334
 31
0.0
  0
LINE
  8
0
 62
     0
 10
63.7314
 20
64.0334
 30
0.0
 11
63.7314
 21
60.9328
 31
0.0
  0
LINE
  8
0
 62
     0
 10
63.7314
 20
60.9328
 30
0.0
 11
64.5322
 21
60.9328
 31
0.0
  0
LINE
  8
0
 62
     0
 10
64.5322
 20
60.9328
 30
0.0
 11
64.5322
 21
59.9338
 31
0.0
  0
LINE
  8
0
 62
     0
 10
64.5322
 20
59.9338
 30
0.0
 11
78.5315
 21
59.9338
 31
0.0
  0
LINE
  8
0
 62
     0
 10
78.5315
 20
59.9338
 30
0.0
 11
78.5315
 21
60.9328
 31
0.0
  0
LINE
  8
0
 62
     0
 10
78.5315
 20
60.9328
 30
0.0
 11
79.3309
 21
60.9328
 31
0.0
  0
LINE
  8
0
 62
     0
 10
79.3309
 20
60.9328
 30
0.0
 11
79.3309
 21
64.0334
 31
0.0
  0
LINE
  8
0
 62
     0
 10
79.3309
 20
64.0334
 30
0.0
 11
78.5315
 21
64.0334
 31
0.0
  0
LINE
  8
0
 62
     0
 10
78.5315
 20
64.0334
 30
0.0
 11
78.5315
 21
69.8334
 31
0.0
  0
LINE
  8
0
 62
     0
 10
78.5315
 20
69.8334
 30
0.0
 11
79.3309
 21
69.8334
 31
0.0
  0
LINE
  8
0
 62
     0
 10
79.3309
 20
69.8334
 30
0.0
 11
79.3309
 21
72.9326
 31
0.0
  0
LINE
  8
0
 62
     0
 10
79.3309
 20
72.9326
 30
0.0
 11
78.5315
 21
72.9326
 31
0.0
  0
LINE
  8
0
 62
     0
 10
78.5315
 20
72.9326
 30
0.0
 11
78.5315
 21
73.9331
 31
0.0
  0
LINE
  8
0
 62
     0
 10
78.5315
 20
73.9331
 30
0.0
 11
64.5322
 21
73.9331
 31
0.0
  0
LINE
  8
0
 62
     0
 10
83.5822
 20
73.9331
 30
0.0
 11
83.5822
 21
72.9326
 31
0.0
  0
LINE
  8
0
 62
     0
 10
83.5822
 20
72.9326
 30
0.0
 11
82.7814
 21
72.9326
 31
0.0
  0
LINE
  8
0
 62
     0
 10
82.7814
 20
72.9326
 30
0.0
 11
82.7814
 21
69.8334
 31
0.0
  0
LINE
  8
0
 62
     0
 10
82.7814
 20
69.8334
 30
0.0
 11
83.5822
 21
69.8334
 31
0.0
  0
LINE
  8
0
 62
     0
 10
83.5822
 20
69.8334
 30
0.0
 11
83.5822
 21
64.0334
 31
0.0
  0
LINE
  8
0
 62
     0
 10
83.5822
 20
64.0334
 30
0.0
 11
82.7814
 21
64.0334
 31
0.0
  0
LINE
  8
0
 62
     0
 10
82.7814
 20
64.0334
 30
0.0
 11
82.7814
 21
60.9328
 31
0.0
  0
LINE
  8
0
 62
     0
 10
82.7814
 20
60.9328
 30
0.0
 11
83.5822
 21
60.9328
 31
0.0
  0
LINE
  8
0
 62
     0
 10
83.5822
 20
60.9328
 30
0.0
 11
83.5822
 21
59.9338
 31
0.0
  0
LINE
  8
0
 62
     0
 10
83.5822
 20
59.9338
 30
0.0
 11
97.5815
 21
59.9338
 31
0.0
  0
LINE
  8
0
 62
     0
 10
97.5815
 20
59.9338
 30
0.0
 11
97.5815
 21
60.9328
 31
0.0
  0
LINE
  8
0
 62
     0
 10
97.5815
 20
60.9328
 30
0.0
 11
98.3809
 21
60.9328
 31
0.0
  0
LINE
  8
0
 62
     0
 10
98.3809
 20
60.9328
 30
0.0
 11
98.3809
 21
64.0334
 31
0.0
  0
LINE
  8
0
 62
     0
 10
98.3809
 20
64.0334
 30
0.0
 11
97.5815
 21
64.0334
 31
0.0
  0
LINE
  8
0
 62
     0
 10
97.5815
 20
64.0334
 30
0.0
 11
97.5815
 21
69.8334
 31
0.0
  0
LINE
  8
0
 62
     0
 10
97.5815
 20
69.8334
 30
0.0
 11
98.3809
 21
69.8334
 31
0.0
  0
LINE
  8
0
 62
     0
 10
98.3809
 20
69.8334
 30
0.0
 11
98.3809
 21
72.9326
 31
0.0
  0
LINE
  8
0
 62
     0
 10
98.3809
 20
72.9326
 30
0.0
 11
97.5815
 21
72.9326
 31
0.0
  0
LINE
  8
0
 62
     0
 10
97.5815
 20
72.9326
 30
0.0
 11
97.5815
 21
73.9331
 31
0.0
  0
LINE
  8
0
 62
     0
 10
97.5815
 20
73.9331
 30
0.0
 11
83.5822
 21
73.9331
 31
0.0
  0
LINE
  8
0
 62
     0
 10
102.632
 20
73.9331
 30
0.0
 11
102.632
 21
72.9326
 31
0.0
  0
LINE
  8
0
 62
     0
 10
102.632
 20
72.9326
 30
0.0
 11
101.831
 21
72.9326
 31
0.0
  0
LINE
  8
0
 62
     0
 10
101.831
 20
72.9326
 30
0.0
 11
101.831
 21
69.8334
 31
0.0
  0
LINE
  8
0
 62
     0
 10
101.831
 20
69.8334
 30
0.0
 11
102.632
 21
69.8334
 31
0.0
  0
LINE
  8
0
 62
     0
 10
102.632
 20
69.8334
 30
0.0
 11
102.632
 21
64.0334
 31
0.0
  0
LINE
  8
0
 62
     0
 10
102.632
 20
64.0334
 30
0.0
 11
101.831
 21
64.0334
 31
0.0
  0
LINE
  8
0
 62
     0
 10
101.831
 20
64.0334
 30
0.0
 11
101.831
 21
60.9328
 31
0.0
  0
LINE
  8
0
 62
     0
 10
101.831
 20
60.9328
 30
0.0
 11
102.632
 21
60.9328
 31
0.0
  0
LINE
  8
0
 62
     0
 10
102.632
 20
60.9328
 30
0.0
 11
102.632
 21
59.9338
 31
0.0
  0
LINE
  8
0
 62
     0
 10
102.632
 20
59.9338
 30
0.0
 11
116.632
 21
59.9338
 31
0.0
  0
LINE
  8
0
 62
     0
 10
116.632
 20
59.9338
 30
0.0
 11
116.632
 21
60.9328
 31
0.0
  0
LINE
  8
0
 62
     0
 10
116.632
 20
60.9328
 30
0.0
 11
117.431
 21
60.9328
 31
0.0
  0
LINE
  8
0
 62
     0
 10
117.431
 20
60.9328
 30
0.0
 11
117.431
 21
64.0334
 31
0.0
  0
LINE
  8
0
 62
     0
 10
117.431
 20
64.0334
 30
0.0
 11
116.632
 21
64.0334
 31
0.0
  0
LINE
  8
0
 62
     0
 10
116.632
 20
64.0334
 30
0.0
 11
116.632
 21
69.8334
 31
0.0
  0
LINE
  8
0
 62
     0
 10
116.632
 20
69.8334
 30
0.0
 11
117.431
 21
69.8334
 31
0.0
  0
LINE
  8
0
 62
     0
 10
117.431
 20
69.8334
 30
0.0
 11
117.431
 21
72.9326
 31
0.0
  0
LINE
  8
0
 62
     0
 10
117.431
 20
72.9326
 30
0.0
 11
116.632
 21
72.9326
 31
0.0
  0
LINE
  8
0
 62
     0
 10
116.632
 20
72.9326
 30
0.0
 11
116.632
 21
73.9331
 31
0.0
  0
LINE
  8
0
 62
     0
 10
116.632
 20
73.9331
 30
0.0
 11
102.632
 21
73.9331
 31
0.0
  0
LINE
  8
0
 62
     0
 10
121.682
 20
73.9331
 30
0.0
 11
121.682
 21
72.9326
 31
0.0
  0
LINE
  8
0
 62
     0
 10
121.682
 20
72.9326
 30
0.0
 11
120.881
 21
72.9326
 31
0.0
  0
LINE
  8
0
 62
     0
 10
120.881
 20
72.9326
 30
0.0
 11
120.881
 21
69.8334
 31
0.0
  0
LINE
  8
0
 62
     0
 10
120.881
 20
69.8334
 30
0.0
 11
121.682
 21
69.8334
 31
0.0
  0
LINE
  8
0
 62
     0
 10
121.682
 20
69.8334
 30
0.0
 11
121.682
 21
64.0334
 31
0.0
  0
LINE
  8
0
 62
     0
 10
121.682
 20
64.0334
 30
0.0
 11
120.881
 21
64.0334
 31
0.0
  0
LINE
  8
0
 62
     0
 10
120.881
 20
64.0334
 30
0.0
 11
120.881
 21
60.9328
 31
0.0
  0
LINE
  8
0
 62
     0
 10
120.881
 20
60.9328
 30
0.0
 11
121.682
 21
60.9328
 31
0.0
  0
LINE
  8
0
 62
     0
 10
121.682
 20
60.9328
 30
0.0
 11
121.682
 21
59.9338
 31
0.0
  0
LINE
  8
0
 62
     0
 10
121.682
 20
59.9338
 30
0.0
 11
135.682
 21
59.9338
 31
0.0
  0
LINE
  8
0
 62
     0
 10
135.682
 20
59.9338
 30
0.0
 11
135.682
 21
60.9328
 31
0.0
  0
LINE
  8
0
 62
     0
 10
135.682
 20
60.9328
 30
0.0
 11
136.481
 21
60.9328
 31
0.0
  0
LINE
  8
0
 62
     0
 10
136.481
 20
60.9328
 30
0.0
 11
136.481
 21
64.0334
 31
0.0
  0
LINE
  8
0
 62
     0
 10
136.481
 20
64.0334
 30
0.0
 11
135.682
 21
64.0334
 31
0.0
  0
LINE
  8
0
 62
     0
 10
135.682
 20
64.0334
 30
0.0
 11
135.682
 21
69.8334
 31
0.0
  0
LINE
  8
0
 62
     0
 10
135.682
 20
69.8334
 30
0.0
 11
136.481
 21
69.8334
 31
0.0
  0
LINE
  8
0
 62
     0
 10
136.481
 20
69.8334
 30
0.0
 11
136.481
 21
72.9326
 31
0.0
  0
LINE
  8
0
 62
     0
 10
136.481
 20
72.9326
 30
0.0
 11
135.682
 21
72.9326
 31
0.0
  0
LINE
  8
0
 62
     0
 10
135.682
 20
72.9326
 30
0.0
 11
135.682
 21
73.9331
 31
0.0
  0
LINE
  8
0
 62
     0
 10
135.682
 20
73.9331
 30
0.0
 11
121.682
 21
73.9331
 31
0.0
  0
LINE
  8
0
 62
     0
 10
140.732
 20
73.9331
 30
0.0
 11
140.732
 21
72.9326
 31
0.0
  0
LINE
  8
0
 62
     0
 10
140.732
 20
72.9326
 30
0.0
 11
139.931
 21
72.9326
 31
0.0
  0
LINE
  8
0
 62
     0
 10
139.931
 20
72.9326
 30
0.0
 11
139.931
 21
69.8334
 31
0.0
  0
LINE
  8
0
 62
     0
 10
139.931
 20
69.8334
 30
0.0
 11
140.732
 21
69.8334
 31
0.0
  0
LINE
  8
0
 62
     0
 10
140.732
 20
69.8334
 30
0.0
 11
140.732
 21
64.0334
 31
0.0
  0
LINE
  8
0
 62
     0
 10
140.732
 20
64.0334
 30
0.0
 11
139.931
 21
64.0334
 31
0.0
  0
LINE
  8
0
 62
     0
 10
139.931
 20
64.0334
 30
0.0
 11
139.931
 21
60.9328
 31
0.0
  0
LINE
  8
0
 62
     0
 10
139.931
 20
60.9328
 30
0.0
 11
140.732
 21
60.9328
 31
0.0
  0
LINE
  8
0
 62
     0
 10
140.732
 20
60.9328
 30
0.0
 11
140.732
 21
59.9338
 31
0.0
  0
LINE
  8
0
 62
     0
 10
140.732
 20
59.9338
 30
0.0
 11
154.732
 21
59.9338
 31
0.0
  0
LINE
  8
0
 62
     0
 10
154.732
 20
59.9338
 30
0.0
 11
154.732
 21
60.9328
 31
0.0
  0
LINE
  8
0
 62
     0
 10
154.732
 20
60.9328
 30
0.0
 11
155.531
 21
60.9328
 31
0.0
  0
LINE
  8
0
 62
     0
 10
155.531
 20
60.9328
 30
0.0
 11
155.531
 21
64.0334
 31
0.0
  0
LINE
  8
0
 62
     0
 10
155.531
 20
64.0334
 30
0.0
 11
154.732
 21
64.0334
 31
0.0
  0
LINE
  8
0
 62
     0
 10
154.732
 20
64.0334
 30
0.0
 11
154.732
 21
69.8334
 31
0.0
  0
LINE
  8
0
 62
     0
 10
154.732
 20
69.8334
 30
0.0
 11
155.531
 21
69.8334
 31
0.0
  0
LINE
  8
0
 62
     0
 10
155.531
 20
69.8334
 30
0.0
 11
155.531
 21
72.9326
 31
0.0
  0
LINE
  8
0
 62
     0
 10
155.531
 20
72.9326
 30
0.0
 11
154.732
 21
72.9326
 31
0.0
  0
LINE
  8
0
 62
     0
 10
154.732
 20
72.9326
 30
0.0
 11
154.732
 21
73.9331
 31
0.0
  0
LINE
  8
0
 62
     0
 10
154.732
 20
73.9331
 30
0.0
 11
140.732
 21
73.9331
 31
0.0
  0
LINE
  8
0
 62
     0
 10
159.782
 20
73.9331
 30
0.0
 11
159.782
 21
72.9326
 31
0.0
  0
LINE
  8
0
 62
     0
 10
159.782
 20
72.9326
 30
0.0
 11
158.981
 21
72.9326
 31
0.0
  0
LINE
  8
0
 62
     0
 10
158.981
 20
72.9326
 30
0.0
 11
158.981
 21
69.8334
 31
0.0
  0
LINE
  8
0
 62
     0
 10
158.981
 20
69.8334
 30
0.0
 11
159.782
 21
69.8334
 31
0.0
  0
LINE
  8
0
 62
     0
 10
159.782
 20
69.8334
 30
0.0
 11
159.782
 21
64.0334
 31
0.0
  0
LINE
  8
0
 62
     0
 10
159.782
 20
64.0334
 30
0.0
 11
158.981
 21
64.0334
 31
0.0
  0
LINE
  8
0
 62
     0
 10
158.981
 20
64.0334
 30
0.0
 11
158.981
 21
60.9328
 31
0.0
  0
LINE
  8
0
 62
     0
 10
158.981
 20
60.9328
 30
0.0
 11
159.782
 21
60.9328
 31
0.0
  0
LINE
  8
0
 62
     0
 10
159.782
 20
60.9328
 30
0.0
 11
159.782
 21
59.9338
 31
0.0
  0
LINE
  8
0
 62
     0
 10
159.782
 20
59.9338
 30
0.0
 11
173.782
 21
59.9338
 31
0.0
  0
LINE
  8
0
 62
     0
 10
173.782
 20
59.9338
 30
0.0
 11
173.782
 21
60.9328
 31
0.0
  0
LINE
  8
0
 62
     0
 10
173.782
 20
60.9328
 30
0.0
 11
174.581
 21
60.9328
 31
0.0
  0
LINE
  8
0
 62
     0
 10
174.581
 20
60.9328
 30
0.0
 11
174.581
 21
64.0334
 31
0.0
  0
LINE
  8
0
 62
     0
 10
174.581
 20
64.0334
 30
0.0
 11
173.782
 21
64.0334
 31
0.0
  0
LINE
  8
0
 62
     0
 10
173.782
 20
64.0334
 30
0.0
 11
173.782
 21
69.8334
 31
0.0
  0
LINE
  8
0
 62
     0
 10
173.782
 20
69.8334
 30
0.0
 11
174.581
 21
69.8334
 31
0.0
  0
LINE
  8
0
 62
     0
 10
174.581
 20
69.8334
 30
0.0
 11
174.581
 21
72.9326
 31
0.0
  0
LINE
  8
0
 62
     0
 10
174.581
 20
72.9326
 30
0.0
 11
173.782
 21
72.9326
 31
0.0
  0
LINE
  8
0
 62
     0
 10
173.782
 20
72.9326
 30
0.0
 11
173.782
 21
73.9331
 31
0.0
  0
LINE
  8
0
 62
     0
 10
173.782
 20
73.9331
 30
0.0
 11
159.782
 21
73.9331
 31
0.0
  0
LINE
  8
0
 62
     0
 10
178.832
 20
73.9331
 30
0.0
 11
178.832
 21
72.9326
 31
0.0
  0
LINE
  8
0
 62
     0
 10
178.832
 20
72.9326
 30
0.0
 11
178.031
 21
72.9326
 31
0.0
  0
LINE
  8
0
 62
     0
 10
178.031
 20
72.9326
 30
0.0
 11
178.031
 21
69.8334
 31
0.0
  0
LINE
  8
0
 62
     0
 10
178.031
 20
69.8334
 30
0.0
 11
178.832
 21
69.8334
 31
0.0
  0
LINE
  8
0
 62
     0
 10
178.832
 20
69.8334
 30
0.0
 11
178.832
 21
64.0334
 31
0.0
  0
LINE
  8
0
 62
     0
 10
178.832
 20
64.0334
 30
0.0
 11
178.031
 21
64.0334
 31
0.0
  0
LINE
  8
0
 62
     0
 10
178.031
 20
64.0334
 30
0.0
 11
178.031
 21
60.9328
 31
0.0
  0
LINE
  8
0
 62
     0
 10
178.031
 20
60.9328
 30
0.0
 11
178.832
 21
60.9328
 31
0.0
  0
LINE
  8
0
 62
     0
 10
178.832
 20
60.9328
 30
0.0
 11
178.832
 21
59.9338
 31
0.0
  0
LINE
  8
0
 62
     0
 10
178.832
 20
59.9338
 30
0.0
 11
192.832
 21
59.9338
 31
0.0
  0
LINE
  8
0
 62
     0
 10
192.832
 20
59.9338
 30
0.0
 11
192.832
 21
60.9328
 31
0.0
  0
LINE
  8
0
 62
     0
 10
192.832
 20
60.9328
 30
0.0
 11
193.631
 21
60.9328
 31
0.0
  0
LINE
  8
0
 62
     0
 10
193.631
 20
60.9328
 30
0.0
 11
193.631
 21
64.0334
 31
0.0
  0
LINE
  8
0
 62
     0
 10
193.631
 20
64.0334
 30
0.0
 11
192.832
 21
64.0334
 31
0.0
  0
LINE
  8
0
 62
     0
 10
192.832
 20
64.0334
 30
0.0
 11
192.832
 21
69.8334
 31
0.0
  0
LINE
  8
0
 62
     0
 10
192.832
 20
69.8334
 30
0.0
 11
193.631
 21
69.8334
 31
0.0
  0
LINE
  8
0
 62
     0
 10
193.631
 20
69.8334
 30
0.0
 11
193.631
 21
72.9326
 31
0.0
  0
LINE
  8
0
 62
     0
 10
193.631
 20
72.9326
 30
0.0
 11
192.832
 21
72.9326
 31
0.0
  0
LINE
  8
0
 62
     0
 10
192.832
 20
72.9326
 30
0.0
 11
192.832
 21
73.9331
 31
0.0
  0
LINE
  8
0
 62
     0
 10
192.832
 20
73.9331
 30
0.0
 11
178.832
 21
73.9331
 31
0.0
  0
LINE
  8
0
 62
     0
 10
197.882
 20
73.9331
 30
0.0
 11
197.882
 21
72.9326
 31
0.0
  0
LINE
  8
0
 62
     0
 10
197.882
 20
72.9326
 30
0.0
 11
197.081
 21
72.9326
 31
0.0
  0
LINE
  8
0
 62
     0
 10
197.081
 20
72.9326
 30
0.0
 11
197.081
 21
69.8334
 31
0.0
  0
LINE
  8
0
 62
     0
 10
197.081
 20
69.8334
 30
0.0
 11
197.882
 21
69.8334
 31
0.0
  0
LINE
  8
0
 62
     0
 10
197.882
 20
69.8334
 30
0.0
 11
197.882
 21
64.0334
 31
0.0
  0
LINE
  8
0
 62
     0
 10
197.882
 20
64.0334
 30
0.0
 11
197.081
 21
64.0334
 31
0.0
  0
LINE
  8
0
 62
     0
 10
197.081
 20
64.0334
 30
0.0
 11
197.081
 21
60.9328
 31
0.0
  0
LINE
  8
0
 62
     0
 10
197.081
 20
60.9328
 30
0.0
 11
197.882
 21
60.9328
 31
0.0
  0
LINE
  8
0
 62
     0
 10
197.882
 20
60.9328
 30
0.0
 11
197.882
 21
59.9338
 31
0.0
  0
LINE
  8
0
 62
     0
 10
197.882
 20
59.9338
 30
0.0
 11
211.882
 21
59.9338
 31
0.0
  0
LINE
  8
0
 62
     0
 10
211.882
 20
59.9338
 30
0.0
 11
211.882
 21
60.9328
 31
0.0
  0
LINE
  8
0
 62
     0
 10
211.882
 20
60.9328
 30
0.0
 11
212.681
 21
60.9328
 31
0.0
  0
LINE
  8
0
 62
     0
 10
212.681
 20
60.9328
 30
0.0
 11
212.681
 21
64.0334
 31
0.0
  0
LINE
  8
0
 62
     0
 10
212.681
 20
64.0334
 30
0.0
 11
211.882
 21
64.0334
 31
0.0
  0
LINE
  8
0
 62
     0
 10
211.882
 20
64.0334
 30
0.0
 11
211.882
 21
69.8334
 31
0.0
  0
LINE
  8
0
 62
     0
 10
211.882
 20
69.8334
 30
0.0
 11
212.681
 21
69.8334
 31
0.0
  0
LINE
  8
0
 62
     0
 10
212.681
 20
69.8334
 30
0.0
 11
212.681
 21
72.9326
 31
0.0
  0
LINE
  8
0
 62
     0
 10
212.681
 20
72.9326
 30
0.0
 11
211.882
 21
72.9326
 31
0.0
  0
LINE
  8
0
 62
     0
 10
211.882
 20
72.9326
 30
0.0
 11
211.882
 21
73.9331
 31
0.0
  0
LINE
  8
0
 62
     0
 10
211.882
 20
73.9331
 30
0.0
 11
197.882
 21
73.9331
 31
0.0
  0
LINE
  8
0
 62
     0
 10
224.076
 20
73.9331
 30
0.0
 11
224.076
 21
72.9326
 31
0.0
  0
LINE
  8
0
 62
     0
 10
224.076
 20
72.9326
 30
0.0
 11
223.275
 21
72.9326
 31
0.0
  0
LINE
  8
0
 62
     0
 10
223.275
 20
72.9326
 30
0.0
 11
223.275
 21
69.8334
 31
0.0
  0
LINE
  8
0
 62
     0
 10
223.275
 20
69.8334
 30
0.0
 11
224.076
 21
69.8334
 31
0.0
  0
LINE
  8
0
 62
     0
 10
224.076
 20
69.8334
 30
0.0
 11
224.076
 21
64.0334
 31
0.0
  0
LINE
  8
0
 62
     0
 10
224.076
 20
64.0334
 30
0.0
 11
223.275
 21
64.0334
 31
0.0
  0
LINE
  8
0
 62
     0
 10
223.275
 20
64.0334
 30
0.0
 11
223.275
 21
60.9328
 31
0.0
  0
LINE
  8
0
 62
     0
 10
223.275
 20
60.9328
 30
0.0
 11
224.076
 21
60.9328
 31
0.0
  0
LINE
  8
0
 62
     0
 10
224.076
 20
60.9328
 30
0.0
 11
224.076
 21
59.9338
 31
0.0
  0
LINE
  8
0
 62
     0
 10
224.076
 20
59.9338
 30
0.0
 11
238.075
 21
59.9338
 31
0.0
  0
LINE
  8
0
 62
     0
 10
238.075
 20
59.9338
 30
0.0
 11
238.075
 21
60.9328
 31
0.0
  0
LINE
  8
0
 62
     0
 10
238.075
 20
60.9328
 30
0.0
 11
238.876
 21
60.9328
 31
0.0
  0
LINE
  8
0
 62
     0
 10
238.876
 20
60.9328
 30
0.0
 11
238.876
 21
64.0334
 31
0.0
  0
LINE
  8
0
 62
     0
 10
238.876
 20
64.0334
 30
0.0
 11
238.075
 21
64.0334
 31
0.0
  0
LINE
  8
0
 62
     0
 10
238.075
 20
64.0334
 30
0.0
 11
238.075
 21
69.8334
 31
0.0
  0
LINE
  8
0
 62
     0
 10
238.075
 20
69.8334
 30
0.0
 11
238.876
 21
69.8334
 31
0.0
  0
LINE
  8
0
 62
     0
 10
238.876
 20
69.8334
 30
0.0
 11
238.876
 21
72.9326
 31
0.0
  0
LINE
  8
0
 62
     0
 10
238.876
 20
72.9326
 30
0.0
 11
238.075
 21
72.9326
 31
0.0
  0
LINE
  8
0
 62
     0
 10
238.075
 20
72.9326
 30
0.0
 11
238.075
 21
73.9331
 31
0.0
  0
LINE
  8
0
 62
     0
 10
238.075
 20
73.9331
 30
0.0
 11
224.076
 21
73.9331
 31
0.0
  0
LINE
  8
0
 62
     0
 10
2.61965
 20
92.9831
 30
0.0
 11
2.61965
 21
91.9826
 31
0.0
  0
LINE
  8
0
 62
     0
 10
2.61965
 20
91.9826
 30
0.0
 11
1.81901
 21
91.9826
 31
0.0
  0
LINE
  8
0
 62
     0
 10
1.81901
 20
91.9826
 30
0.0
 11
1.81901
 21
88.8834
 31
0.0
  0
LINE
  8
0
 62
     0
 10
1.81901
 20
88.8834
 30
0.0
 11
2.61965
 21
88.8834
 31
0.0
  0
LINE
  8
0
 62
     0
 10
2.61965
 20
88.8834
 30
0.0
 11
2.61965
 21
83.0834
 31
0.0
  0
LINE
  8
0
 62
     0
 10
2.61965
 20
83.0834
 30
0.0
 11
1.81901
 21
83.0834
 31
0.0
  0
LINE
  8
0
 62
     0
 10
1.81901
 20
83.0834
 30
0.0
 11
1.81901
 21
79.9828
 31
0.0
  0
LINE
  8
0
 62
     0
 10
1.81901
 20
79.9828
 30
0.0
 11
2.61965
 21
79.9828
 31
0.0
  0
LINE
  8
0
 62
     0
 10
2.61965
 20
79.9828
 30
0.0
 11
2.61965
 21
78.9838
 31
0.0
  0
LINE
  8
0
 62
     0
 10
2.61965
 20
78.9838
 30
0.0
 11
16.6192
 21
78.9838
 31
0.0
  0
LINE
  8
0
 62
     0
 10
16.6192
 20
78.9838
 30
0.0
 11
16.6192
 21
79.9828
 31
0.0
  0
LINE
  8
0
 62
     0
 10
16.6192
 20
79.9828
 30
0.0
 11
17.4198
 21
79.9828
 31
0.0
  0
LINE
  8
0
 62
     0
 10
17.4198
 20
79.9828
 30
0.0
 11
17.4198
 21
83.0834
 31
0.0
  0
LINE
  8
0
 62
     0
 10
17.4198
 20
83.0834
 30
0.0
 11
16.6192
 21
83.0834
 31
0.0
  0
LINE
  8
0
 62
     0
 10
16.6192
 20
83.0834
 30
0.0
 11
16.6192
 21
88.8834
 31
0.0
  0
LINE
  8
0
 62
     0
 10
16.6192
 20
88.8834
 30
0.0
 11
17.4198
 21
88.8834
 31
0.0
  0
LINE
  8
0
 62
     0
 10
17.4198
 20
88.8834
 30
0.0
 11
17.4198
 21
91.9826
 31
0.0
  0
LINE
  8
0
 62
     0
 10
17.4198
 20
91.9826
 30
0.0
 11
16.6192
 21
91.9826
 31
0.0
  0
LINE
  8
0
 62
     0
 10
16.6192
 20
91.9826
 30
0.0
 11
16.6192
 21
92.9831
 31
0.0
  0
LINE
  8
0
 62
     0
 10
16.6192
 20
92.9831
 30
0.0
 11
2.61965
 21
92.9831
 31
0.0
  0
LINE
  8
0
 62
     0
 10
21.6697
 20
92.9831
 30
0.0
 11
21.6697
 21
91.9826
 31
0.0
  0
LINE
  8
0
 62
     0
 10
21.6697
 20
91.9826
 30
0.0
 11
20.869
 21
91.9826
 31
0.0
  0
LINE
  8
0
 62
     0
 10
20.869
 20
91.9826
 30
0.0
 11
20.869
 21
88.8834
 31
0.0
  0
LINE
  8
0
 62
     0
 10
20.869
 20
88.8834
 30
0.0
 11
21.6697
 21
88.8834
 31
0.0
  0
LINE
  8
0
 62
     0
 10
21.6697
 20
88.8834
 30
0.0
 11
21.6697
 21
83.0834
 31
0.0
  0
LINE
  8
0
 62
     0
 10
21.6697
 20
83.0834
 30
0.0
 11
20.869
 21
83.0834
 31
0.0
  0
LINE
  8
0
 62
     0
 10
20.869
 20
83.0834
 30
0.0
 11
20.869
 21
79.9828
 31
0.0
  0
LINE
  8
0
 62
     0
 10
20.869
 20
79.9828
 30
0.0
 11
21.6697
 21
79.9828
 31
0.0
  0
LINE
  8
0
 62
     0
 10
21.6697
 20
79.9828
 30
0.0
 11
21.6697
 21
78.9838
 31
0.0
  0
LINE
  8
0
 62
     0
 10
21.6697
 20
78.9838
 30
0.0
 11
35.669
 21
78.9838
 31
0.0
  0
LINE
  8
0
 62
     0
 10
35.669
 20
78.9838
 30
0.0
 11
35.669
 21
79.9828
 31
0.0
  0
LINE
  8
0
 62
     0
 10
35.669
 20
79.9828
 30
0.0
 11
36.4698
 21
79.9828
 31
0.0
  0
LINE
  8
0
 62
     0
 10
36.4698
 20
79.9828
 30
0.0
 11
36.4698
 21
83.0834
 31
0.0
  0
LINE
  8
0
 62
     0
 10
36.4698
 20
83.0834
 30
0.0
 11
35.669
 21
83.0834
 31
0.0
  0
LINE
  8
0
 62
     0
 10
35.669
 20
83.0834
 30
0.0
 11
35.669
 21
88.8834
 31
0.0
  0
LINE
  8
0
 62
     0
 10
35.669
 20
88.8834
 30
0.0
 11
36.4698
 21
88.8834
 31
0.0
  0
LINE
  8
0
 62
     0
 10
36.4698
 20
88.8834
 30
0.0
 11
36.4698
 21
91.9826
 31
0.0
  0
LINE
  8
0
 62
     0
 10
36.4698
 20
91.9826
 30
0.0
 11
35.669
 21
91.9826
 31
0.0
  0
LINE
  8
0
 62
     0
 10
35.669
 20
91.9826
 30
0.0
 11
35.669
 21
92.9831
 31
0.0
  0
LINE
  8
0
 62
     0
 10
35.669
 20
92.9831
 30
0.0
 11
21.6697
 21
92.9831
 31
0.0
  0
LINE
  8
0
 62
     0
 10
40.7197
 20
92.9831
 30
0.0
 11
40.7197
 21
91.9826
 31
0.0
  0
LINE
  8
0
 62
     0
 10
40.7197
 20
91.9826
 30
0.0
 11
39.9189
 21
91.9826
 31
0.0
  0
LINE
  8
0
 62
     0
 10
39.9189
 20
91.9826
 30
0.0
 11
39.9189
 21
88.8834
 31
0.0
  0
LINE
  8
0
 62
     0
 10
39.9189
 20
88.8834
 30
0.0
 11
40.7197
 21
88.8834
 31
0.0
  0
LINE
  8
0
 62
     0
 10
40.7197
 20
88.8834
 30
0.0
 11
40.7197
 21
83.0834
 31
0.0
  0
LINE
  8
0
 62
     0
 10
40.7197
 20
83.0834
 30
0.0
 11
39.9189
 21
83.0834
 31
0.0
  0
LINE
  8
0
 62
     0
 10
39.9189
 20
83.0834
 30
0.0
 11
39.9189
 21
79.9828
 31
0.0
  0
LINE
  8
0
 62
     0
 10
39.9189
 20
79.9828
 30
0.0
 11
40.7197
 21
79.9828
 31
0.0
  0
LINE
  8
0
 62
     0
 10
40.7197
 20
79.9828
 30
0.0
 11
40.7197
 21
78.9838
 31
0.0
  0
LINE
  8
0
 62
     0
 10
40.7197
 20
78.9838
 30
0.0
 11
54.719
 21
78.9838
 31
0.0
  0
LINE
  8
0
 62
     0
 10
54.719
 20
78.9838
 30
0.0
 11
54.719
 21
79.9828
 31
0.0
  0
LINE
  8
0
 62
     0
 10
54.719
 20
79.9828
 30
0.0
 11
55.5198
 21
79.9828
 31
0.0
  0
LINE
  8
0
 62
     0
 10
55.5198
 20
79.9828
 30
0.0
 11
55.5198
 21
83.0834
 31
0.0
  0
LINE
  8
0
 62
     0
 10
55.5198
 20
83.0834
 30
0.0
 11
54.719
 21
83.0834
 31
0.0
  0
LINE
  8
0
 62
     0
 10
54.719
 20
83.0834
 30
0.0
 11
54.719
 21
88.8834
 31
0.0
  0
LINE
  8
0
 62
     0
 10
54.719
 20
88.8834
 30
0.0
 11
55.5198
 21
88.8834
 31
0.0
  0
LINE
  8
0
 62
     0
 10
55.5198
 20
88.8834
 30
0.0
 11
55.5198
 21
91.9826
 31
0.0
  0
LINE
  8
0
 62
     0
 10
55.5198
 20
91.9826
 30
0.0
 11
54.719
 21
91.9826
 31
0.0
  0
LINE
  8
0
 62
     0
 10
54.719
 20
91.9826
 30
0.0
 11
54.719
 21
92.9831
 31
0.0
  0
LINE
  8
0
 62
     0
 10
54.719
 20
92.9831
 30
0.0
 11
40.7197
 21
92.9831
 31
0.0
  0
LINE
  8
0
 62
     0
 10
59.7697
 20
92.9831
 30
0.0
 11
59.7697
 21
91.9826
 31
0.0
  0
LINE
  8
0
 62
     0
 10
59.7697
 20
91.9826
 30
0.0
 11
58.9689
 21
91.9826
 31
0.0
  0
LINE
  8
0
 62
     0
 10
58.9689
 20
91.9826
 30
0.0
 11
58.9689
 21
88.8834
 31
0.0
  0
LINE
  8
0
 62
     0
 10
58.9689
 20
88.8834
 30
0.0
 11
59.7697
 21
88.8834
 31
0.0
  0
LINE
  8
0
 62
     0
 10
59.7697
 20
88.8834
 30
0.0
 11
59.7697
 21
83.0834
 31
0.0
  0
LINE
  8
0
 62
     0
 10
59.7697
 20
83.0834
 30
0.0
 11
58.9689
 21
83.0834
 31
0.0
  0
LINE
  8
0
 62
     0
 10
58.9689
 20
83.0834
 30
0.0
 11
58.9689
 21
79.9828
 31
0.0
  0
LINE
  8
0
 62
     0
 10
58.9689
 20
79.9828
 30
0.0
 11
59.7697
 21
79.9828
 31
0.0
  0
LINE
  8
0
 62
     0
 10
59.7697
 20
79.9828
 30
0.0
 11
59.7697
 21
78.9838
 31
0.0
  0
LINE
  8
0
 62
     0
 10
59.7697
 20
78.9838
 30
0.0
 11
73.769
 21
78.9838
 31
0.0
  0
LINE
  8
0
 62
     0
 10
73.769
 20
78.9838
 30
0.0
 11
73.769
 21
79.9828
 31
0.0
  0
LINE
  8
0
 62
     0
 10
73.769
 20
79.9828
 30
0.0
 11
74.5698
 21
79.9828
 31
0.0
  0
LINE
  8
0
 62
     0
 10
74.5698
 20
79.9828
 30
0.0
 11
74.5698
 21
83.0834
 31
0.0
  0
LINE
  8
0
 62
     0
 10
74.5698
 20
83.0834
 30
0.0
 11
73.769
 21
83.0834
 31
0.0
  0
LINE
  8
0
 62
     0
 10
73.769
 20
83.0834
 30
0.0
 11
73.769
 21
88.8834
 31
0.0
  0
LINE
  8
0
 62
     0
 10
73.769
 20
88.8834
 30
0.0
 11
74.5698
 21
88.8834
 31
0.0
  0
LINE
  8
0
 62
     0
 10
74.5698
 20
88.8834
 30
0.0
 11
74.5698
 21
91.9826
 31
0.0
  0
LINE
  8
0
 62
     0
 10
74.5698
 20
91.9826
 30
0.0
 11
73.769
 21
91.9826
 31
0.0
  0
LINE
  8
0
 62
     0
 10
73.769
 20
91.9826
 30
0.0
 11
73.769
 21
92.9831
 31
0.0
  0
LINE
  8
0
 62
     0
 10
73.769
 20
92.9831
 30
0.0
 11
59.7697
 21
92.9831
 31
0.0
  0
LINE
  8
0
 62
     0
 10
78.8197
 20
92.9831
 30
0.0
 11
78.8197
 21
91.9826
 31
0.0
  0
LINE
  8
0
 62
     0
 10
78.8197
 20
91.9826
 30
0.0
 11
78.0189
 21
91.9826
 31
0.0
  0
LINE
  8
0
 62
     0
 10
78.0189
 20
91.9826
 30
0.0
 11
78.0189
 21
88.8834
 31
0.0
  0
LINE
  8
0
 62
     0
 10
78.0189
 20
88.8834
 30
0.0
 11
78.8197
 21
88.8834
 31
0.0
  0
LINE
  8
0
 62
     0
 10
78.8197
 20
88.8834
 30
0.0
 11
78.8197
 21
83.0834
 31
0.0
  0
LINE
  8
0
 62
     0
 10
78.8197
 20
83.0834
 30
0.0
 11
78.0189
 21
83.0834
 31
0.0
  0
LINE
  8
0
 62
     0
 10
78.0189
 20
83.0834
 30
0.0
 11
78.0189
 21
79.9828
 31
0.0
  0
LINE
  8
0
 62
     0
 10
78.0189
 20
79.9828
 30
0.0
 11
78.8197
 21
79.9828
 31
0.0
  0
LINE
  8
0
 62
     0
 10
78.8197
 20
79.9828
 30
0.0
 11
78.8197
 21
78.9838
 31
0.0
  0
LINE
  8
0
 62
     0
 10
78.8197
 20
78.9838
 30
0.0
 11
92.819
 21
78.9838
 31
0.0
  0
LINE
  8
0
 62
     0
 10
92.819
 20
78.9838
 30
0.0
 11
92.819
 21
79.9828
 31
0.0
  0
LINE
  8
0
 62
     0
 10
92.819
 20
79.9828
 30
0.0
 11
93.6184
 21
79.9828
 31
0.0
  0
LINE
  8
0
 62
     0
 10
93.6184
 20
79.9828
 30
0.0
 11
93.6184
 21
83.0834
 31
0.0
  0
LINE
  8
0
 62
     0
 10
93.6184
 20
83.0834
 30
0.0
 11
92.819
 21
83.0834
 31
0.0
  0
LINE
  8
0
 62
     0
 10
92.819
 20
83.0834
 30
0.0
 11
92.819
 21
88.8834
 31
0.0
  0
LINE
  8
0
 62
     0
 10
92.819
 20
88.8834
 30
0.0
 11
93.6184
 21
88.8834
 31
0.0
  0
LINE
  8
0
 62
     0
 10
93.6184
 20
88.8834
 30
0.0
 11
93.6184
 21
91.9826
 31
0.0
  0
LINE
  8
0
 62
     0
 10
93.6184
 20
91.9826
 30
0.0
 11
92.819
 21
91.9826
 31
0.0
  0
LINE
  8
0
 62
     0
 10
92.819
 20
91.9826
 30
0.0
 11
92.819
 21
92.9831
 31
0.0
  0
LINE
  8
0
 62
     0
 10
92.819
 20
92.9831
 30
0.0
 11
78.8197
 21
92.9831
 31
0.0
  0
LINE
  8
0
 62
     0
 10
97.8683
 20
92.9831
 30
0.0
 11
97.8683
 21
91.9826
 31
0.0
  0
LINE
  8
0
 62
     0
 10
97.8683
 20
91.9826
 30
0.0
 11
97.0689
 21
91.9826
 31
0.0
  0
LINE
  8
0
 62
     0
 10
97.0689
 20
91.9826
 30
0.0
 11
97.0689
 21
88.8834
 31
0.0
  0
LINE
  8
0
 62
     0
 10
97.0689
 20
88.8834
 30
0.0
 11
97.8683
 21
88.8834
 31
0.0
  0
LINE
  8
0
 62
     0
 10
97.8683
 20
88.8834
 30
0.0
 11
97.8683
 21
83.0834
 31
0.0
  0
LINE
  8
0
 62
     0
 10
97.8683
 20
83.0834
 30
0.0
 11
97.0689
 21
83.0834
 31
0.0
  0
LINE
  8
0
 62
     0
 10
97.0689
 20
83.0834
 30
0.0
 11
97.0689
 21
79.9828
 31
0.0
  0
LINE
  8
0
 62
     0
 10
97.0689
 20
79.9828
 30
0.0
 11
97.8683
 21
79.9828
 31
0.0
  0
LINE
  8
0
 62
     0
 10
97.8683
 20
79.9828
 30
0.0
 11
97.8683
 21
78.9838
 31
0.0
  0
LINE
  8
0
 62
     0
 10
97.8683
 20
78.9838
 30
0.0
 11
111.869
 21
78.9838
 31
0.0
  0
LINE
  8
0
 62
     0
 10
111.869
 20
78.9838
 30
0.0
 11
111.869
 21
79.9828
 31
0.0
  0
LINE
  8
0
 62
     0
 10
111.869
 20
79.9828
 30
0.0
 11
112.668
 21
79.9828
 31
0.0
  0
LINE
  8
0
 62
     0
 10
112.668
 20
79.9828
 30
0.0
 11
112.668
 21
83.0834
 31
0.0
  0
LINE
  8
0
 62
     0
 10
112.668
 20
83.0834
 30
0.0
 11
111.869
 21
83.0834
 31
0.0
  0
LINE
  8
0
 62
     0
 10
111.869
 20
83.0834
 30
0.0
 11
111.869
 21
88.8834
 31
0.0
  0
LINE
  8
0
 62
     0
 10
111.869
 20
88.8834
 30
0.0
 11
112.668
 21
88.8834
 31
0.0
  0
LINE
  8
0
 62
     0
 10
112.668
 20
88.8834
 30
0.0
 11
112.668
 21
91.9826
 31
0.0
  0
LINE
  8
0
 62
     0
 10
112.668
 20
91.9826
 30
0.0
 11
111.869
 21
91.9826
 31
0.0
  0
LINE
  8
0
 62
     0
 10
111.869
 20
91.9826
 30
0.0
 11
111.869
 21
92.9831
 31
0.0
  0
LINE
  8
0
 62
     0
 10
111.869
 20
92.9831
 30
0.0
 11
97.8683
 21
92.9831
 31
0.0
  0
LINE
  8
0
 62
     0
 10
116.918
 20
92.9831
 30
0.0
 11
116.918
 21
91.9826
 31
0.0
  0
LINE
  8
0
 62
     0
 10
116.918
 20
91.9826
 30
0.0
 11
116.119
 21
91.9826
 31
0.0
  0
LINE
  8
0
 62
     0
 10
116.119
 20
91.9826
 30
0.0
 11
116.119
 21
88.8834
 31
0.0
  0
LINE
  8
0
 62
     0
 10
116.119
 20
88.8834
 30
0.0
 11
116.918
 21
88.8834
 31
0.0
  0
LINE
  8
0
 62
     0
 10
116.918
 20
88.8834
 30
0.0
 11
116.918
 21
83.0834
 31
0.0
  0
LINE
  8
0
 62
     0
 10
116.918
 20
83.0834
 30
0.0
 11
116.119
 21
83.0834
 31
0.0
  0
LINE
  8
0
 62
     0
 10
116.119
 20
83.0834
 30
0.0
 11
116.119
 21
79.9828
 31
0.0
  0
LINE
  8
0
 62
     0
 10
116.119
 20
79.9828
 30
0.0
 11
116.918
 21
79.9828
 31
0.0
  0
LINE
  8
0
 62
     0
 10
116.918
 20
79.9828
 30
0.0
 11
116.918
 21
78.9838
 31
0.0
  0
LINE
  8
0
 62
     0
 10
116.918
 20
78.9838
 30
0.0
 11
130.919
 21
78.9838
 31
0.0
  0
LINE
  8
0
 62
     0
 10
130.919
 20
78.9838
 30
0.0
 11
130.919
 21
79.9828
 31
0.0
  0
LINE
  8
0
 62
     0
 10
130.919
 20
79.9828
 30
0.0
 11
131.72
 21
79.9828
 31
0.0
  0
LINE
  8
0
 62
     0
 10
131.72
 20
79.9828
 30
0.0
 11
131.72
 21
83.0834
 31
0.0
  0
LINE
  8
0
 62
     0
 10
131.72
 20
83.0834
 30
0.0
 11
130.919
 21
83.0834
 31
0.0
  0
LINE
  8
0
 62
     0
 10
130.919
 20
83.0834
 30
0.0
 11
130.919
 21
88.8834
 31
0.0
  0
LINE
  8
0
 62
     0
 10
130.919
 20
88.8834
 30
0.0
 11
131.72
 21
88.8834
 31
0.0
  0
LINE
  8
0
 62
     0
 10
131.72
 20
88.8834
 30
0.0
 11
131.72
 21
91.9826
 31
0.0
  0
LINE
  8
0
 62
     0
 10
131.72
 20
91.9826
 30
0.0
 11
130.919
 21
91.9826
 31
0.0
  0
LINE
  8
0
 62
     0
 10
130.919
 20
91.9826
 30
0.0
 11
130.919
 21
92.9831
 31
0.0
  0
LINE
  8
0
 62
     0
 10
130.919
 20
92.9831
 30
0.0
 11
116.918
 21
92.9831
 31
0.0
  0
LINE
  8
0
 62
     0
 10
135.97
 20
92.9831
 30
0.0
 11
135.97
 21
91.9826
 31
0.0
  0
LINE
  8
0
 62
     0
 10
135.97
 20
91.9826
 30
0.0
 11
135.169
 21
91.9826
 31
0.0
  0
LINE
  8
0
 62
     0
 10
135.169
 20
91.9826
 30
0.0
 11
135.169
 21
88.8834
 31
0.0
  0
LINE
  8
0
 62
     0
 10
135.169
 20
88.8834
 30
0.0
 11
135.97
 21
88.8834
 31
0.0
  0
LINE
  8
0
 62
     0
 10
135.97
 20
88.8834
 30
0.0
 11
135.97
 21
83.0834
 31
0.0
  0
LINE
  8
0
 62
     0
 10
135.97
 20
83.0834
 30
0.0
 11
135.169
 21
83.0834
 31
0.0
  0
LINE
  8
0
 62
     0
 10
135.169
 20
83.0834
 30
0.0
 11
135.169
 21
79.9828
 31
0.0
  0
LINE
  8
0
 62
     0
 10
135.169
 20
79.9828
 30
0.0
 11
135.97
 21
79.9828
 31
0.0
  0
LINE
  8
0
 62
     0
 10
135.97
 20
79.9828
 30
0.0
 11
135.97
 21
78.9838
 31
0.0
  0
LINE
  8
0
 62
     0
 10
135.97
 20
78.9838
 30
0.0
 11
149.969
 21
78.9838
 31
0.0
  0
LINE
  8
0
 62
     0
 10
149.969
 20
78.9838
 30
0.0
 11
149.969
 21
79.9828
 31
0.0
  0
LINE
  8
0
 62
     0
 10
149.969
 20
79.9828
 30
0.0
 11
150.77
 21
79.9828
 31
0.0
  0
LINE
  8
0
 62
     0
 10
150.77
 20
79.9828
 30
0.0
 11
150.77
 21
83.0834
 31
0.0
  0
LINE
  8
0
 62
     0
 10
150.77
 20
83.0834
 30
0.0
 11
149.969
 21
83.0834
 31
0.0
  0
LINE
  8
0
 62
     0
 10
149.969
 20
83.0834
 30
0.0
 11
149.969
 21
88.8834
 31
0.0
  0
LINE
  8
0
 62
     0
 10
149.969
 20
88.8834
 30
0.0
 11
150.77
 21
88.8834
 31
0.0
  0
LINE
  8
0
 62
     0
 10
150.77
 20
88.8834
 30
0.0
 11
150.77
 21
91.9826
 31
0.0
  0
LINE
  8
0
 62
     0
 10
150.77
 20
91.9826
 30
0.0
 11
149.969
 21
91.9826
 31
0.0
  0
LINE
  8
0
 62
     0
 10
149.969
 20
91.9826
 30
0.0
 11
149.969
 21
92.9831
 31
0.0
  0
LINE
  8
0
 62
     0
 10
149.969
 20
92.9831
 30
0.0
 11
135.97
 21
92.9831
 31
0.0
  0
LINE
  8
0
 62
     0
 10
155.02
 20
92.9831
 30
0.0
 11
155.02
 21
91.9826
 31
0.0
  0
LINE
  8
0
 62
     0
 10
155.02
 20
91.9826
 30
0.0
 11
154.219
 21
91.9826
 31
0.0
  0
LINE
  8
0
 62
     0
 10
154.219
 20
91.9826
 30
0.0
 11
154.219
 21
88.8834
 31
0.0
  0
LINE
  8
0
 62
     0
 10
154.219
 20
88.8834
 30
0.0
 11
155.02
 21
88.8834
 31
0.0
  0
LINE
  8
0
 62
     0
 10
155.02
 20
88.8834
 30
0.0
 11
155.02
 21
83.0834
 31
0.0
  0
LINE
  8
0
 62
     0
 10
155.02
 20
83.0834
 30
0.0
 11
154.219
 21
83.0834
 31
0.0
  0
LINE
  8
0
 62
     0
 10
154.219
 20
83.0834
 30
0.0
 11
154.219
 21
79.9828
 31
0.0
  0
LINE
  8
0
 62
     0
 10
154.219
 20
79.9828
 30
0.0
 11
155.02
 21
79.9828
 31
0.0
  0
LINE
  8
0
 62
     0
 10
155.02
 20
79.9828
 30
0.0
 11
155.02
 21
78.9838
 31
0.0
  0
LINE
  8
0
 62
     0
 10
155.02
 20
78.9838
 30
0.0
 11
169.019
 21
78.9838
 31
0.0
  0
LINE
  8
0
 62
     0
 10
169.019
 20
78.9838
 30
0.0
 11
169.019
 21
79.9828
 31
0.0
  0
LINE
  8
0
 62
     0
 10
169.019
 20
79.9828
 30
0.0
 11
169.82
 21
79.9828
 31
0.0
  0
LINE
  8
0
 62
     0
 10
169.82
 20
79.9828
 30
0.0
 11
169.82
 21
83.0834
 31
0.0
  0
LINE
  8
0
 62
     0
 10
169.82
 20
83.0834
 30
0.0
 11
169.019
 21
83.0834
 31
0.0
  0
LINE
  8
0
 62
     0
 10
169.019
 20
83.0834
 30
0.0
 11
169.019
 21
88.8834
 31
0.0
  0
LINE
  8
0
 62
     0
 10
169.019
 20
88.8834
 30
0.0
 11
169.82
 21
88.8834
 31
0.0
  0
LINE
  8
0
 62
     0
 10
169.82
 20
88.8834
 30
0.0
 11
169.82
 21
91.9826
 31
0.0
  0
LINE
  8
0
 62
     0
 10
169.82
 20
91.9826
 30
0.0
 11
169.019
 21
91.9826
 31
0.0
  0
LINE
  8
0
 62
     0
 10
169.019
 20
91.9826
 30
0.0
 11
169.019
 21
92.9831
 31
0.0
  0
LINE
  8
0
 62
     0
 10
169.019
 20
92.9831
 30
0.0
 11
155.02
 21
92.9831
 31
0.0
  0
LINE
  8
0
 62
     0
 10
174.07
 20
92.9831
 30
0.0
 11
174.07
 21
91.9826
 31
0.0
  0
LINE
  8
0
 62
     0
 10
174.07
 20
91.9826
 30
0.0
 11
173.269
 21
91.9826
 31
0.0
  0
LINE
  8
0
 62
     0
 10
173.269
 20
91.9826
 30
0.0
 11
173.269
 21
88.8834
 31
0.0
  0
LINE
  8
0
 62
     0
 10
173.269
 20
88.8834
 30
0.0
 11
174.07
 21
88.8834
 31
0.0
  0
LINE
  8
0
 62
     0
 10
174.07
 20
88.8834
 30
0.0
 11
174.07
 21
83.0834
 31
0.0
  0
LINE
  8
0
 62
     0
 10
174.07
 20
83.0834
 30
0.0
 11
173.269
 21
83.0834
 31
0.0
  0
LINE
  8
0
 62
     0
 10
173.269
 20
83.0834
 30
0.0
 11
173.269
 21
79.9828
 31
0.0
  0
LINE
  8
0
 62
     0
 10
173.269
 20
79.9828
 30
0.0
 11
174.07
 21
79.9828
 31
0.0
  0
LINE
  8
0
 62
     0
 10
174.07
 20
79.9828
 30
0.0
 11
174.07
 21
78.9838
 31
0.0
  0
LINE
  8
0
 62
     0
 10
174.07
 20
78.9838
 30
0.0
 11
188.069
 21
78.9838
 31
0.0
  0
LINE
  8
0
 62
     0
 10
188.069
 20
78.9838
 30
0.0
 11
188.069
 21
79.9828
 31
0.0
  0
LINE
  8
0
 62
     0
 10
188.069
 20
79.9828
 30
0.0
 11
188.87
 21
79.9828
 31
0.0
  0
LINE
  8
0
 62
     0
 10
188.87
 20
79.9828
 30
0.0
 11
188.87
 21
83.0834
 31
0.0
  0
LINE
  8
0
 62
     0
 10
188.87
 20
83.0834
 30
0.0
 11
188.069
 21
83.0834
 31
0.0
  0
LINE
  8
0
 62
     0
 10
188.069
 20
83.0834
 30
0.0
 11
188.069
 21
88.8834
 31
0.0
  0
LINE
  8
0
 62
     0
 10
188.069
 20
88.8834
 30
0.0
 11
188.87
 21
88.8834
 31
0.0
  0
LINE
  8
0
 62
     0
 10
188.87
 20
88.8834
 30
0.0
 11
188.87
 21
91.9826
 31
0.0
  0
LINE
  8
0
 62
     0
 10
188.87
 20
91.9826
 30
0.0
 11
188.069
 21
91.9826
 31
0.0
  0
LINE
  8
0
 62
     0
 10
188.069
 20
91.9826
 30
0.0
 11
188.069
 21
92.9831
 31
0.0
  0
LINE
  8
0
 62
     0
 10
188.069
 20
92.9831
 30
0.0
 11
174.07
 21
92.9831
 31
0.0
  0
LINE
  8
0
 62
     0
 10
193.12
 20
92.9831
 30
0.0
 11
193.12
 21
91.9826
 31
0.0
  0
LINE
  8
0
 62
     0
 10
193.12
 20
91.9826
 30
0.0
 11
192.319
 21
91.9826
 31
0.0
  0
LINE
  8
0
 62
     0
 10
192.319
 20
91.9826
 30
0.0
 11
192.319
 21
88.8834
 31
0.0
  0
LINE
  8
0
 62
     0
 10
192.319
 20
88.8834
 30
0.0
 11
193.12
 21
88.8834
 31
0.0
  0
LINE
  8
0
 62
     0
 10
193.12
 20
88.8834
 30
0.0
 11
193.12
 21
83.0834
 31
0.0
  0
LINE
  8
0
 62
     0
 10
193.12
 20
83.0834
 30
0.0
 11
192.319
 21
83.0834
 31
0.0
  0
LINE
  8
0
 62
     0
 10
192.319
 20
83.0834
 30
0.0
 11
192.319
 21
79.9828
 31
0.0
  0
LINE
  8
0
 62
     0
 10
192.319
 20
79.9828
 30
0.0
 11
193.12
 21
79.9828
 31
0.0
  0
LINE
  8
0
 62
     0
 10
193.12
 20
79.9828
 30
0.0
 11
193.12
 21
78.9838
 31
0.0
  0
LINE
  8
0
 62
     0
 10
193.12
 20
78.9838
 30
0.0
 11
207.119
 21
78.9838
 31
0.0
  0
LINE
  8
0
 62
     0
 10
207.119
 20
78.9838
 30
0.0
 11
207.119
 21
79.9828
 31
0.0
  0
LINE
  8
0
 62
     0
 10
207.119
 20
79.9828
 30
0.0
 11
207.92
 21
79.9828
 31
0.0
  0
LINE
  8
0
 62
     0
 10
207.92
 20
79.9828
 30
0.0
 11
207.92
 21
83.0834
 31
0.0
  0
LINE
  8
0
 62
     0
 10
207.92
 20
83.0834
 30
0.0
 11
207.119
 21
83.0834
 31
0.0
  0
LINE
  8
0
 62
     0
 10
207.119
 20
83.0834
 30
0.0
 11
207.119
 21
88.8834
 31
0.0
  0
LINE
  8
0
 62
     0
 10
207.119
 20
88.8834
 30
0.0
 11
207.92
 21
88.8834
 31
0.0
  0
LINE
  8
0
 62
     0
 10
207.92
 20
88.8834
 30
0.0
 11
207.92
 21
91.9826
 31
0.0
  0
LINE
  8
0
 62
     0
 10
207.92
 20
91.9826
 30
0.0
 11
207.119
 21
91.9826
 31
0.0
  0
LINE
  8
0
 62
     0
 10
207.119
 20
91.9826
 30
0.0
 11
207.119
 21
92.9831
 31
0.0
  0
LINE
  8
0
 62
     0
 10
207.119
 20
92.9831
 30
0.0
 11
193.12
 21
92.9831
 31
0.0
  0
LINE
  8
0
 62
     0
 10
212.17
 20
92.9831
 30
0.0
 11
212.17
 21
91.9826
 31
0.0
  0
LINE
  8
0
 62
     0
 10
212.17
 20
91.9826
 30
0.0
 11
211.369
 21
91.9826
 31
0.0
  0
LINE
  8
0
 62
     0
 10
211.369
 20
91.9826
 30
0.0
 11
211.369
 21
88.8834
 31
0.0
  0
LINE
  8
0
 62
     0
 10
211.369
 20
88.8834
 30
0.0
 11
212.17
 21
88.8834
 31
0.0
  0
LINE
  8
0
 62
     0
 10
212.17
 20
88.8834
 30
0.0
 11
212.17
 21
83.0834
 31
0.0
  0
LINE
  8
0
 62
     0
 10
212.17
 20
83.0834
 30
0.0
 11
211.369
 21
83.0834
 31
0.0
  0
LINE
  8
0
 62
     0
 10
211.369
 20
83.0834
 30
0.0
 11
211.369
 21
79.9828
 31
0.0
  0
LINE
  8
0
 62
     0
 10
211.369
 20
79.9828
 30
0.0
 11
212.17
 21
79.9828
 31
0.0
  0
LINE
  8
0
 62
     0
 10
212.17
 20
79.9828
 30
0.0
 11
212.17
 21
78.9838
 31
0.0
  0
LINE
  8
0
 62
     0
 10
212.17
 20
78.9838
 30
0.0
 11
226.169
 21
78.9838
 31
0.0
  0
LINE
  8
0
 62
     0
 10
226.169
 20
78.9838
 30
0.0
 11
226.169
 21
79.9828
 31
0.0
  0
LINE
  8
0
 62
     0
 10
226.169
 20
79.9828
 30
0.0
 11
226.97
 21
79.9828
 31
0.0
  0
LINE
  8
0
 62
     0
 10
226.97
 20
79.9828
 30
0.0
 11
226.97
 21
83.0834
 31
0.0
  0
LINE
  8
0
 62
     0
 10
226.97
 20
83.0834
 30
0.0
 11
226.169
 21
83.0834
 31
0.0
  0
LINE
  8
0
 62
     0
 10
226.169
 20
83.0834
 30
0.0
 11
226.169
 21
88.8834
 31
0.0
  0
LINE
  8
0
 62
     0
 10
226.169
 20
88.8834
 30
0.0
 11
226.97
 21
88.8834
 31
0.0
  0
LINE
  8
0
 62
     0
 10
226.97
 20
88.8834
 30
0.0
 11
226.97
 21
91.9826
 31
0.0
  0
LINE
  8
0
 62
     0
 10
226.97
 20
91.9826
 30
0.0
 11
226.169
 21
91.9826
 31
0.0
  0
LINE
  8
0
 62
     0
 10
226.169
 20
91.9826
 30
0.0
 11
226.169
 21
92.9831
 31
0.0
  0
LINE
  8
0
 62
     0
 10
226.169
 20
92.9831
 30
0.0
 11
212.17
 21
92.9831
 31
0.0
  0
LINE
  8
0
 62
     0
 10
231.22
 20
92.9831
 30
0.0
 11
231.22
 21
91.9826
 31
0.0
  0
LINE
  8
0
 62
     0
 10
231.22
 20
91.9826
 30
0.0
 11
230.419
 21
91.9826
 31
0.0
  0
LINE
  8
0
 62
     0
 10
230.419
 20
91.9826
 30
0.0
 11
230.419
 21
88.8834
 31
0.0
  0
LINE
  8
0
 62
     0
 10
230.419
 20
88.8834
 30
0.0
 11
231.22
 21
88.8834
 31
0.0
  0
LINE
  8
0
 62
     0
 10
231.22
 20
88.8834
 30
0.0
 11
231.22
 21
83.0834
 31
0.0
  0
LINE
  8
0
 62
     0
 10
231.22
 20
83.0834
 30
0.0
 11
230.419
 21
83.0834
 31
0.0
  0
LINE
  8
0
 62
     0
 10
230.419
 20
83.0834
 30
0.0
 11
230.419
 21
79.9828
 31
0.0
  0
LINE
  8
0
 62
     0
 10
230.419
 20
79.9828
 30
0.0
 11
231.22
 21
79.9828
 31
0.0
  0
LINE
  8
0
 62
     0
 10
231.22
 20
79.9828
 30
0.0
 11
231.22
 21
78.9838
 31
0.0
  0
LINE
  8
0
 62
     0
 10
231.22
 20
78.9838
 30
0.0
 11
245.219
 21
78.9838
 31
0.0
  0
LINE
  8
0
 62
     0
 10
245.219
 20
78.9838
 30
0.0
 11
245.219
 21
79.9828
 31
0.0
  0
LINE
  8
0
 62
     0
 10
245.219
 20
79.9828
 30
0.0
 11
246.02
 21
79.9828
 31
0.0
  0
LINE
  8
0
 62
     0
 10
246.02
 20
79.9828
 30
0.0
 11
246.02
 21
83.0834
 31
0.0
  0
LINE
  8
0
 62
     0
 10
246.02
 20
83.0834
 30
0.0
 11
245.219
 21
83.0834
 31
0.0
  0
LINE
  8
0
 62
     0
 10
245.219
 20
83.0834
 30
0.0
 11
245.219
 21
88.8834
 31
0.0
  0
LINE
  8
0
 62
     0
 10
245.219
 20
88.8834
 30
0.0
 11
246.02
 21
88.8834
 31
0.0
  0
LINE
  8
0
 62
     0
 10
246.02
 20
88.8834
 30
0.0
 11
246.02
 21
91.9826
 31
0.0
  0
LINE
  8
0
 62
     0
 10
246.02
 20
91.9826
 30
0.0
 11
245.219
 21
91.9826
 31
0.0
  0
LINE
  8
0
 62
     0
 10
245.219
 20
91.9826
 30
0.0
 11
245.219
 21
92.9831
 31
0.0
  0
LINE
  8
0
 62
     0
 10
245.219
 20
92.9831
 30
0.0
 11
231.22
 21
92.9831
 31
0.0
  0
ENDSEC
  0
EOF
